<svg width="536" height="258" viewBox="0 0 536 258" fill="none" xmlns="http://www.w3.org/2000/svg">
<line y1="26.5" x2="536" y2="26.5" stroke="black"/>
<path d="M21.604 103.756V118.923H25.49V103.756H21.604ZM7.626 120.141V130.291H25.49V120.141H7.626ZM21.691 123.157V127.246H11.396V123.157H21.691ZM10.874 104.974C6.698 104.974 3.566 107.642 3.566 111.412C3.566 115.153 6.698 117.85 10.874 117.85C15.05 117.85 18.153 115.153 18.153 111.412C18.153 107.642 15.05 104.974 10.874 104.974ZM10.874 108.164C12.904 108.164 14.383 109.353 14.383 111.412C14.383 113.442 12.904 114.631 10.874 114.631C8.844 114.631 7.336 113.442 7.336 111.412C7.336 109.353 8.844 108.164 10.874 108.164ZM34.9417 105.786V109.701C34.9417 114.921 32.7377 120.083 28.0687 122.113L30.3597 125.303C35.6957 122.838 38.0737 116.603 38.0737 109.701V105.786H34.9417ZM35.6957 105.786V109.701C35.6957 116.313 38.0737 122.287 43.2647 124.665L45.5267 121.562C40.9447 119.59 38.8277 114.66 38.8277 109.701V105.786H35.6957ZM46.8027 103.698V130.639H50.6887V103.698H46.8027ZM77.6605 103.698V130.639H81.5465V103.698H77.6605ZM60.5795 105.844V124.375H73.7745V105.844H69.9465V112.369H64.4075V105.844H60.5795ZM64.4075 115.356H69.9465V121.272H64.4075V115.356ZM85.8363 105.061V116.429H98.8573V105.061H85.8363ZM95.0873 108.077V113.413H89.6063V108.077H95.0873ZM102.917 103.727V117.27H106.803V103.727H102.917ZM88.8813 118.43V121.388H102.975V122.983H88.9103V128.464H92.7093V125.738H106.803V118.43H88.8813ZM88.9103 127.42V130.407H107.47V127.42H88.9103ZM122.403 110.861V113.935H129.305V110.861H122.403ZM128.319 103.756V123.563H132.176V103.756H128.319ZM114.399 127.043V130.117H132.756V127.043H114.399ZM114.399 121.62V128.812H118.285V121.62H114.399ZM110.832 105.496V119.358H123.534V105.496H119.764V109.585H114.66V105.496H110.832ZM114.66 112.514H119.764V116.313H114.66V112.514ZM135.973 107.062V110.136H158.129V107.062H135.973ZM134.958 124.781V127.884H159.26V124.781H134.958ZM145.137 121.243V125.999H148.965V121.243H145.137ZM147.022 111.296C141.425 111.296 137.916 113.239 137.916 116.545C137.916 119.851 141.425 121.794 147.022 121.794C152.619 121.794 156.128 119.851 156.128 116.545C156.128 113.239 152.619 111.296 147.022 111.296ZM147.022 114.283C150.386 114.283 152.184 115.008 152.184 116.545C152.184 118.082 150.386 118.778 147.022 118.778C143.658 118.778 141.86 118.082 141.86 116.545C141.86 115.008 143.658 114.283 147.022 114.283ZM145.137 104.017V108.976H148.965V104.017H145.137ZM166.57 104.916V116.661H179.475V104.916H175.647V108.077H170.398V104.916H166.57ZM170.398 110.977H175.647V113.645H170.398V110.977ZM183.071 103.727V117.357H186.928V103.727H183.071ZM185.362 108.889V112.021H190.466V108.889H185.362ZM169.18 118.401V121.359H183.129V122.954H169.238V128.899H173.066V125.709H186.928V118.401H169.18ZM169.238 127.42V130.407H187.711V127.42H169.238ZM193.914 119.01V130.291H212.416V119.01H208.588V121.823H197.713V119.01H193.914ZM197.713 124.781H208.588V127.217H197.713V124.781ZM194.001 104.8V107.874H211.024V104.8H194.001ZM191.043 114.196V117.299H215.345V114.196H191.043ZM208.704 104.8V106.946C208.704 109.208 208.704 111.673 207.863 115.124L211.749 114.863C212.503 111.499 212.503 109.179 212.503 106.946V104.8H208.704ZM239.156 103.727V123.244H243.013V103.727H239.156ZM241.911 111.412V114.573H246.58V111.412H241.911ZM225.7 127.043V130.117H243.97V127.043H225.7ZM225.7 121.214V128.406H229.557V121.214H225.7ZM229.354 105.438C225.236 105.438 222.046 108.309 222.046 112.282C222.046 116.226 225.236 119.097 229.354 119.097C233.472 119.097 236.662 116.226 236.662 112.282C236.662 108.309 233.472 105.438 229.354 105.438ZM229.354 108.802C231.355 108.802 232.892 110.078 232.892 112.282C232.892 114.457 231.355 115.733 229.354 115.733C227.382 115.733 225.816 114.457 225.816 112.282C225.816 110.078 227.382 108.802 229.354 108.802ZM266.414 103.727V130.581H270.097V103.727H266.414ZM262.905 114.08V117.154H267.371V114.08H262.905ZM260.411 104.191V129.305H264.007V104.191H260.411ZM248.144 106.685V122.2H252.001V106.685H248.144ZM248.144 120.75V124.056H250C252.726 124.056 255.8 123.911 259.309 123.273L258.932 119.967C255.597 120.605 252.581 120.75 250 120.75H248.144Z" fill="#090A0A"/>
<path d="M12.688 213.768V224.424H14.016V213.768H12.688ZM13.6 218.168V219.272H16.16V218.168H13.6ZM5.008 226.84V227.928H14.672V226.84H5.008ZM5.008 223.336V227.272H6.336V223.336H5.008ZM6.832 214.792C4.672 214.792 3.056 216.28 3.056 218.36C3.056 220.456 4.672 221.928 6.832 221.928C8.992 221.928 10.608 220.456 10.608 218.36C10.608 216.28 8.992 214.792 6.832 214.792ZM6.832 215.96C8.24 215.96 9.312 216.952 9.312 218.36C9.312 219.784 8.24 220.76 6.832 220.76C5.424 220.76 4.352 219.784 4.352 218.36C4.352 216.952 5.424 215.96 6.832 215.96ZM17.5827 214.648V220.888H18.8947V214.648H17.5827ZM17.5827 220.568V221.672H18.6707C21.2787 221.672 23.0708 221.576 25.1508 221.144L24.9748 220.072C22.9748 220.488 21.2148 220.568 18.6707 220.568H17.5827ZM27.2788 213.784V222.648H28.6068V213.784H27.2788ZM23.2308 215.48V216.52H27.6468V215.48H23.2308ZM23.2308 218.024V219.08H27.6468V218.024H23.2308ZM23.8548 222.776C20.8628 222.776 19.0227 223.784 19.0227 225.512C19.0227 227.24 20.8628 228.232 23.8548 228.232C26.8308 228.232 28.6708 227.24 28.6708 225.512C28.6708 223.784 26.8308 222.776 23.8548 222.776ZM23.8548 223.832C26.0308 223.832 27.3588 224.456 27.3588 225.512C27.3588 226.568 26.0308 227.176 23.8548 227.176C21.6788 227.176 20.3507 226.568 20.3507 225.512C20.3507 224.456 21.6788 223.832 23.8548 223.832ZM40.4295 213.784V228.248H41.7575V213.784H40.4295ZM41.4375 219.72V220.84H44.1255V219.72H41.4375ZM30.5575 216.088V217.176H39.0855V216.088H30.5575ZM34.8775 218.376C32.8455 218.376 31.3575 219.752 31.3575 221.704C31.3575 223.656 32.8455 225.032 34.8775 225.032C36.9255 225.032 38.3975 223.656 38.3975 221.704C38.3975 219.752 36.9255 218.376 34.8775 218.376ZM34.8775 219.48C36.1895 219.48 37.1335 220.392 37.1335 221.704C37.1335 223 36.1895 223.928 34.8775 223.928C33.5655 223.928 32.6215 223 32.6215 221.704C32.6215 220.392 33.5655 219.48 34.8775 219.48ZM34.1895 213.96V216.584H35.5175V213.96H34.1895ZM50.2522 218.952V220.056H53.0202V218.952H50.2522ZM47.5482 215.144V217.896C47.5482 220.376 46.3642 222.968 44.3802 224.136L45.2122 225.144C47.3242 223.848 48.5882 220.92 48.5882 217.896V215.144H47.5482ZM47.8042 215.144V217.848C47.8042 220.664 48.9722 223.544 51.0522 224.824L51.8202 223.784C49.9162 222.632 48.8282 220.168 48.8282 217.848V215.144H47.8042ZM55.5642 213.784V228.248H56.8442V213.784H55.5642ZM52.6362 214.088V227.528H53.8842V214.088H52.6362ZM61.675 221.224V225.56H62.987V221.224H61.675ZM67.019 221.224V225.56H68.347V221.224H67.019ZM58.475 225.304V226.408H71.579V225.304H58.475ZM65.003 214.696C61.931 214.696 59.739 216.152 59.739 218.424C59.739 220.68 61.931 222.136 65.003 222.136C68.059 222.136 70.251 220.68 70.251 218.424C70.251 216.152 68.059 214.696 65.003 214.696ZM65.003 215.752C67.323 215.752 68.971 216.808 68.971 218.424C68.971 220.024 67.323 221.08 65.003 221.08C62.683 221.08 61.019 220.024 61.019 218.424C61.019 216.808 62.683 215.752 65.003 215.752ZM72.6818 226.056C72.6818 225.64 72.7884 225.347 73.0018 225.176C73.2151 225.005 73.4711 224.92 73.7698 224.92C74.0684 224.92 74.3244 225.005 74.5378 225.176C74.7618 225.347 74.8738 225.64 74.8738 226.056C74.8738 226.472 74.7618 226.771 74.5378 226.952C74.3244 227.133 74.0684 227.224 73.7698 227.224C73.4711 227.224 73.2151 227.133 73.0018 226.952C72.7884 226.771 72.6818 226.472 72.6818 226.056ZM85.117 214.776V215.88C85.117 218.344 82.397 220.552 79.853 221.032L80.445 222.136C83.341 221.48 86.269 219.032 86.269 215.88V214.776H85.117ZM85.357 214.776V215.88C85.357 219.048 88.301 221.48 91.181 222.136L91.773 221.032C89.245 220.552 86.509 218.36 86.509 215.88V214.776H85.357ZM79.325 225.208V226.296H92.429V225.208H79.325ZM104.156 213.784V222.28H105.42V213.784H104.156ZM101.804 217.416V218.52H104.524V217.416H101.804ZM100.94 214.056V222.168H102.188V214.056H100.94ZM95.7237 222.968V224.056H104.108V228.248H105.42V222.968H95.7237ZM93.9317 214.776V220.296H95.2597V214.776H93.9317ZM93.9317 219.864V220.968H94.8597C96.5717 220.968 98.1557 220.888 100.044 220.504L99.8997 219.416C98.0917 219.784 96.5077 219.864 94.8597 219.864H93.9317ZM121.031 213.8V222.376H122.375V213.8H121.031ZM117.559 222.68C114.567 222.68 112.711 223.704 112.711 225.448C112.711 227.208 114.567 228.216 117.559 228.216C120.567 228.216 122.423 227.208 122.423 225.448C122.423 223.704 120.567 222.68 117.559 222.68ZM117.559 223.736C119.767 223.736 121.095 224.376 121.095 225.448C121.095 226.52 119.767 227.176 117.559 227.176C115.367 227.176 114.039 226.52 114.039 225.448C114.039 224.376 115.367 223.736 117.559 223.736ZM114.615 214.712C112.423 214.712 110.839 216.072 110.839 218.072C110.839 220.088 112.423 221.448 114.615 221.448C116.807 221.448 118.375 220.088 118.375 218.072C118.375 216.072 116.807 214.712 114.615 214.712ZM114.615 215.816C116.055 215.816 117.095 216.744 117.095 218.072C117.095 219.416 116.055 220.344 114.615 220.344C113.175 220.344 112.135 219.416 112.135 218.072C112.135 216.744 113.175 215.816 114.615 215.816ZM126.101 214.392V215.464H135.413V214.392H126.101ZM124.437 219.16V220.248H137.541V219.16H124.437ZM134.549 214.392V215.32C134.549 216.344 134.549 217.592 134.165 219.352L135.461 219.496C135.845 217.704 135.845 216.36 135.845 215.32V214.392H134.549ZM125.973 221.672V222.744H134.581V224.328H126.005V227.368H127.333V225.352H135.893V221.672H125.973ZM126.005 227.016V228.088H136.261V227.016H126.005ZM148.884 213.768V228.264H150.212V213.768H148.884ZM139.188 223.672V224.776H140.388C142.868 224.776 145.044 224.68 147.668 224.248L147.524 223.16C144.964 223.576 142.804 223.672 140.388 223.672H139.188ZM139.156 215.128V216.216H144.5V219.208H139.188V224.088H140.516V220.296H145.844V215.128H139.156ZM156.083 215.032V217.624C156.083 220.36 154.339 223.128 152.195 224.152L153.011 225.24C155.379 224.04 157.171 220.952 157.171 217.624V215.032H156.083ZM156.307 215.032V217.624C156.307 220.84 158.115 223.816 160.467 224.968L161.267 223.912C159.123 222.92 157.395 220.264 157.395 217.624V215.032H156.307ZM162.771 213.768V228.264H164.099V213.768H162.771ZM180.062 213.784V221.544H181.406V213.784H180.062ZM172.078 222.264V228.056H181.406V222.264H180.094V224.024H173.39V222.264H172.078ZM173.39 225.08H180.094V226.984H173.39V225.08ZM173.646 214.472C171.454 214.472 169.87 215.832 169.87 217.8C169.87 219.784 171.454 221.144 173.646 221.144C175.838 221.144 177.406 219.784 177.406 217.8C177.406 215.832 175.838 214.472 173.646 214.472ZM173.646 215.576C175.086 215.576 176.126 216.488 176.126 217.8C176.126 219.112 175.086 220.024 173.646 220.024C172.206 220.024 171.166 219.112 171.166 217.8C171.166 216.488 172.206 215.576 173.646 215.576ZM193.981 213.784V228.248H195.309V213.784H193.981ZM184.381 215.192V224.152H185.693V215.192H184.381ZM184.381 223.368V224.52H185.565C187.853 224.52 190.141 224.344 192.653 223.832L192.493 222.696C190.045 223.208 187.757 223.368 185.565 223.368H184.381ZM207.163 213.768V228.264H208.507V213.768H207.163ZM208.187 219.48V220.6H210.875V219.48H208.187ZM197.995 223.544V224.664H199.131C201.851 224.664 203.755 224.584 205.979 224.168L205.835 223.048C203.675 223.448 201.803 223.544 199.131 223.544H197.995ZM197.995 215.176V224.04H199.307V216.264H204.715V215.176H197.995ZM211.594 226.056C211.594 225.64 211.701 225.347 211.914 225.176C212.128 225.005 212.384 224.92 212.682 224.92C212.981 224.92 213.237 225.005 213.45 225.176C213.674 225.347 213.786 225.64 213.786 226.056C213.786 226.472 213.674 226.771 213.45 226.952C213.237 227.133 212.981 227.224 212.682 227.224C212.384 227.224 212.128 227.133 211.914 226.952C211.701 226.771 211.594 226.472 211.594 226.056ZM6 250.224V254.56H7.312V250.224H6ZM11.344 250.224V254.56H12.672V250.224H11.344ZM2.8 254.304V255.408H15.904V254.304H2.8ZM9.328 243.696C6.256 243.696 4.064 245.152 4.064 247.424C4.064 249.68 6.256 251.136 9.328 251.136C12.384 251.136 14.576 249.68 14.576 247.424C14.576 245.152 12.384 243.696 9.328 243.696ZM9.328 244.752C11.648 244.752 13.296 245.808 13.296 247.424C13.296 249.024 11.648 250.08 9.328 250.08C7.008 250.08 5.344 249.024 5.344 247.424C5.344 245.808 7.008 244.752 9.328 244.752ZM20.3187 245.248V245.872C20.3187 247.824 18.8787 249.584 16.7507 250.272L17.3907 251.312C19.8068 250.496 21.4068 248.384 21.4068 245.872V245.248H20.3187ZM20.5588 245.248V245.872C20.5588 248.24 22.2228 250.192 24.6547 250.944L25.2628 249.904C23.1348 249.28 21.6467 247.664 21.6467 245.872V245.248H20.5588ZM17.1187 244.528V245.6H24.8308V244.528H17.1187ZM20.3187 242.72V244.912H21.6467V242.72H20.3187ZM24.3988 246.896V248H27.6628V246.896H24.3988ZM27.2788 242.784V251.536H28.6068V242.784H27.2788ZM23.8548 251.92C20.8468 251.92 19.0227 252.896 19.0227 254.576C19.0227 256.24 20.8468 257.216 23.8548 257.216C26.8468 257.216 28.6708 256.24 28.6708 254.576C28.6708 252.896 26.8468 251.92 23.8548 251.92ZM23.8548 252.96C26.0308 252.96 27.3588 253.552 27.3588 254.576C27.3588 255.584 26.0308 256.176 23.8548 256.176C21.6628 256.176 20.3507 255.584 20.3507 254.576C20.3507 253.552 21.6628 252.96 23.8548 252.96ZM40.4295 242.784V257.248H41.7575V242.784H40.4295ZM41.4375 248.72V249.84H44.1255V248.72H41.4375ZM30.5575 245.088V246.176H39.0855V245.088H30.5575ZM34.8775 247.376C32.8455 247.376 31.3575 248.752 31.3575 250.704C31.3575 252.656 32.8455 254.032 34.8775 254.032C36.9255 254.032 38.3975 252.656 38.3975 250.704C38.3975 248.752 36.9255 247.376 34.8775 247.376ZM34.8775 248.48C36.1895 248.48 37.1335 249.392 37.1335 250.704C37.1335 252 36.1895 252.928 34.8775 252.928C33.5655 252.928 32.6215 252 32.6215 250.704C32.6215 249.392 33.5655 248.48 34.8775 248.48ZM34.1895 242.96V245.584H35.5175V242.96H34.1895ZM55.0682 242.8V253.392H56.4122V242.8H55.0682ZM47.1162 255.84V256.928H56.8442V255.84H47.1162ZM47.1162 252.416V256.352H48.4282V252.416H47.1162ZM48.3162 243.584V245.056C48.3162 247.296 46.8762 249.408 44.7002 250.256L45.3882 251.328C47.8202 250.336 49.4202 247.872 49.4202 245.056V243.584H48.3162ZM48.5562 243.584V245.056C48.5562 247.808 50.1562 250.128 52.5562 251.056L53.2602 249.984C51.1002 249.2 49.6442 247.232 49.6442 245.056V243.584H48.5562ZM72.3433 242.8V251.056H73.6873V242.8H72.3433ZM64.3433 251.84V257.056H73.6873V251.84H64.3433ZM72.3753 252.896V255.984H65.6393V252.896H72.3753ZM65.9273 243.552C63.7353 243.552 62.1513 244.928 62.1513 246.928C62.1513 248.928 63.7353 250.304 65.9273 250.304C68.1193 250.304 69.6873 248.928 69.6873 246.928C69.6873 244.928 68.1193 243.552 65.9273 243.552ZM65.9273 244.656C67.3673 244.656 68.4073 245.584 68.4073 246.928C68.4073 248.272 67.3673 249.184 65.9273 249.184C64.4873 249.184 63.4473 248.272 63.4473 246.928C63.4473 245.584 64.4873 244.656 65.9273 244.656ZM79.558 244.032V246.624C79.558 249.36 77.814 252.128 75.67 253.152L76.486 254.24C78.854 253.04 80.646 249.952 80.646 246.624V244.032H79.558ZM79.782 244.032V246.624C79.782 249.84 81.59 252.816 83.942 253.968L84.742 252.912C82.598 251.92 80.87 249.264 80.87 246.624V244.032H79.782ZM86.246 242.768V257.264H87.574V242.768H86.246ZM103.521 242.768V257.264H104.849V242.768H103.521ZM93.841 244V253.776H100.657V244H99.329V247.824H95.153V244H93.841ZM95.153 248.88H99.329V252.688H95.153V248.88ZM107.696 243.584V249.504H114.432V243.584H107.696ZM113.152 244.64V248.432H108.976V244.64H113.152ZM117.456 242.784V250.224H118.784V242.784H117.456ZM109.424 250.944V252H117.472V253.456H109.456V256.48H110.752V254.448H118.784V250.944H109.424ZM109.456 256.032V257.088H119.28V256.032H109.456ZM127.679 246.864V247.952H131.839V246.864H127.679ZM131.423 242.8V253.504H132.751V242.8H131.423ZM123.455 255.84V256.928H133.103V255.84H123.455ZM123.455 252.464V256.4H124.783V252.464H123.455ZM121.567 243.744V251.04H128.095V243.744H126.799V246.304H122.879V243.744H121.567ZM122.879 247.344H126.799V249.952H122.879V247.344ZM135.421 244.896V245.984H147.165V244.896H135.421ZM134.781 254.464V255.568H147.885V254.464H134.781ZM140.653 252.176V254.896H141.965V252.176H140.653ZM141.293 246.96C138.381 246.96 136.573 247.968 136.573 249.712C136.573 251.456 138.381 252.464 141.293 252.464C144.221 252.464 146.029 251.456 146.029 249.712C146.029 247.968 144.221 246.96 141.293 246.96ZM141.293 248C143.405 248 144.685 248.64 144.685 249.712C144.685 250.784 143.405 251.408 141.293 251.408C139.197 251.408 137.901 250.784 137.901 249.712C137.901 248.64 139.197 248 141.293 248ZM140.653 243.024V245.568H141.965V243.024H140.653ZM148.684 249.504V250.512H161.804V249.504H148.684ZM150.236 251.68V252.624H158.86V253.856H150.284V256.464H151.596V254.768H160.156V251.68H150.236ZM150.284 256.112V257.072H160.62V256.112H150.284ZM150.348 243.2V244.144H158.812V245.312H150.38V247.776H151.692V246.208H160.108V243.2H150.348ZM150.38 247.456V248.416H160.38V247.456H150.38ZM175.863 242.784V250.144H177.191V242.784H175.863ZM176.615 245.888V246.992H179.319V245.888H176.615ZM168.007 250.832V251.888H175.895V253.376H168.039V256.544H169.351V254.384H177.191V250.832H168.007ZM168.039 255.984V257.056H177.719V255.984H168.039ZM169.959 243.296C167.815 243.296 166.231 244.624 166.231 246.512C166.231 248.416 167.815 249.744 169.959 249.744C172.135 249.744 173.703 248.416 173.703 246.512C173.703 244.624 172.135 243.296 169.959 243.296ZM169.959 244.384C171.383 244.384 172.423 245.264 172.423 246.512C172.423 247.776 171.383 248.656 169.959 248.656C168.567 248.656 167.527 247.776 167.527 246.512C167.527 245.264 168.567 244.384 169.959 244.384ZM190.454 242.768V257.264H191.782V242.768H190.454ZM187.606 246.08V247.168H190.806V246.08H187.606ZM180.422 252.784V253.904H181.494C183.782 253.904 185.638 253.824 187.91 253.472L187.782 252.368C185.574 252.72 183.734 252.784 181.494 252.784H180.422ZM180.39 244.08V245.184H185.398V248.176H180.422V253.04H181.734V249.264H186.71V244.08H180.39ZM187.51 250.032V251.12H190.71V250.032H187.51ZM195.46 249.712V250.8H205.396V249.712H195.46ZM193.812 254.192V255.296H206.916V254.192H193.812ZM195.46 244.112V250.192H196.788V245.216H205.252V244.112H195.46ZM218.243 242.784V250.736H219.587V242.784H218.243ZM208.467 249.344V250.432H209.635C212.323 250.432 214.275 250.352 216.659 249.984L216.515 248.88C214.195 249.264 212.259 249.344 209.635 249.344H208.467ZM208.435 243.488V244.56H213.699V246.368H208.467V250.064H209.763V247.408H214.995V243.488H208.435ZM210.227 251.456V257.056H219.587V251.456H218.275V253.152H211.539V251.456H210.227ZM211.539 254.208H218.275V255.968H211.539V254.208ZM232.162 242.784V257.248H233.49V242.784H232.162ZM222.562 244.192V253.152H223.874V244.192H222.562ZM222.562 252.368V253.52H223.746C226.034 253.52 228.322 253.344 230.834 252.832L230.674 251.696C228.226 252.208 225.938 252.368 223.746 252.368H222.562ZM245.345 242.768V257.264H246.689V242.768H245.345ZM246.369 248.48V249.6H249.057V248.48H246.369ZM236.177 252.544V253.664H237.313C240.033 253.664 241.937 253.584 244.161 253.168L244.017 252.048C241.857 252.448 239.985 252.544 237.313 252.544H236.177ZM236.177 244.176V253.04H237.489V245.264H242.897V244.176H236.177ZM249.776 255.056C249.776 254.64 249.882 254.347 250.096 254.176C250.309 254.005 250.565 253.92 250.864 253.92C251.162 253.92 251.418 254.005 251.632 254.176C251.856 254.347 251.968 254.64 251.968 255.056C251.968 255.472 251.856 255.771 251.632 255.952C251.418 256.133 251.162 256.224 250.864 256.224C250.565 256.224 250.309 256.133 250.096 255.952C249.882 255.771 249.776 255.472 249.776 255.056Z" fill="#090A0A"/>
<path d="M83.558 4.698V6.182H86.19V4.698H83.558ZM83.488 7.932V9.416H86.134V7.932H83.488ZM87.954 1.282V14.246H89.732V1.282H87.954ZM85.28 1.562V13.672H87.016V1.562H85.28ZM82.354 2.808V3.186C82.354 6.322 81.304 8.478 78.378 10.256L79.428 11.558C83.04 9.43 84.146 6.49 84.146 2.808H82.354ZM79.12 2.808V4.292H82.984V2.808H79.12ZM97.7669 4.418V5.93H100.231V4.418H97.7669ZM99.7269 1.282V8.982H101.589V1.282H99.7269ZM97.1929 9.262C94.4489 9.262 92.7549 10.2 92.7549 11.768C92.7549 13.35 94.4489 14.26 97.1929 14.26C99.9369 14.26 101.631 13.35 101.631 11.768C101.631 10.2 99.9369 9.262 97.1929 9.262ZM97.1929 10.676C98.8869 10.676 99.7829 11.026 99.7829 11.768C99.7829 12.496 98.8869 12.846 97.1929 12.846C95.5129 12.846 94.6169 12.496 94.6169 11.768C94.6169 11.026 95.5129 10.676 97.1929 10.676ZM93.7349 2.584V3.396C93.7349 5.062 92.8109 6.784 90.6689 7.512L91.6209 8.982C94.0989 8.142 95.2469 5.874 95.2469 3.396V2.584H93.7349ZM94.1269 2.584V3.396C94.1269 5.706 95.2329 7.862 97.6409 8.66L98.5509 7.19C96.5069 6.504 95.6249 4.922 95.6249 3.396V2.584H94.1269ZM91.1729 2.066V3.55H98.1449V2.066H91.1729ZM108.07 4.236V5.734H110.128V4.236H108.07ZM112.2 1.282V10.984H113.964V1.282H112.2ZM109.61 1.492V10.592H111.36V1.492H109.61ZM105.242 12.538V14.022H114.3V12.538H105.242ZM105.242 9.85V13.476H107.104V9.85H105.242ZM105.2 2.15V3.816C105.2 5.356 104.514 7.036 102.75 7.904L103.758 9.318C105.816 8.352 106.656 6.098 106.656 3.816V2.15H105.2ZM105.578 2.15V3.816C105.578 6.028 106.306 8.1 108.224 8.996L109.246 7.582C107.622 6.798 107.006 5.314 107.006 3.816V2.15H105.578ZM124.127 1.268V14.274H125.975V1.268H124.127ZM121.901 5.832V7.344H124.337V5.832H121.901ZM115.685 9.836V11.348H116.721C118.905 11.348 120.585 11.292 122.461 10.998L122.293 9.514C120.459 9.808 118.863 9.836 116.721 9.836H115.685ZM115.685 2.36V10.312H117.533V3.872H121.691V2.36H115.685ZM117.113 5.972V7.428H121.243V5.972H117.113Z" fill="#D0D0D0"/>
<path d="M8.39052 14.273C7.18038 14.273 6.10286 14.0657 5.15796 13.6513C4.21306 13.2369 3.46708 12.6733 2.92004 11.9604C2.37299 11.231 2.06631 10.4188 2 9.5236H6.20232C6.25206 10.0043 6.47585 10.3939 6.8737 10.6923C7.27156 10.9907 7.76058 11.1399 8.34079 11.1399C8.87126 11.1399 9.2774 11.0404 9.55921 10.8415C9.8576 10.626 10.0068 10.3525 10.0068 10.0209C10.0068 9.62306 9.79958 9.33296 9.38515 9.15061C8.97072 8.95168 8.29934 8.73618 7.37102 8.5041C6.37639 8.27202 5.54753 8.03165 4.88444 7.78299C4.22135 7.51776 3.64943 7.11162 3.16869 6.56457C2.68795 6.00094 2.44758 5.24668 2.44758 4.30178C2.44758 3.50608 2.66309 2.78497 3.0941 2.13846C3.54168 1.47537 4.18819 0.953189 5.03363 0.571913C5.89565 0.190638 6.91515 0 8.09213 0C9.83274 0 11.2004 0.431007 12.195 1.29302C13.2062 2.15504 13.7864 3.29886 13.9356 4.7245H10.0068C9.94049 4.24376 9.72498 3.86249 9.36029 3.58067C9.01216 3.29886 8.548 3.15796 7.9678 3.15796C7.47048 3.15796 7.08921 3.25742 6.82397 3.45634C6.55874 3.63869 6.42612 3.89564 6.42612 4.22718C6.42612 4.62504 6.63333 4.92343 7.04776 5.12235C7.47877 5.32128 8.14186 5.52021 9.03703 5.71913C10.0648 5.98437 10.902 6.2496 11.5485 6.51484C12.195 6.7635 12.7586 7.17793 13.2394 7.75813C13.7367 8.32175 13.9936 9.0843 14.0102 10.0458C14.0102 10.8581 13.7781 11.5875 13.314 12.234C12.8664 12.8639 12.2116 13.3612 11.3496 13.7259C10.5041 14.0906 9.51777 14.273 8.39052 14.273Z" fill="#090A0A"/>
<path d="M25.066 0.0497324C26.6905 0.0497324 27.9836 0.580203 28.945 1.64114C29.9231 2.68551 30.4121 4.12772 30.4121 5.96779V14.074H26.1849V6.5397C26.1849 5.61138 25.9446 4.89027 25.4638 4.37638C24.9831 3.86249 24.3366 3.60554 23.5243 3.60554C22.712 3.60554 22.0655 3.86249 21.5848 4.37638C21.104 4.89027 20.8636 5.61138 20.8636 6.5397V14.074H16.6116V0.198927H20.8636V2.039C21.2947 1.42564 21.8749 0.9449 22.6043 0.596779C23.3337 0.232081 24.1542 0.0497324 25.066 0.0497324Z" fill="#090A0A"/>
<path d="M32.5214 7.11162C32.5214 5.68598 32.7867 4.4344 33.3172 3.35688C33.8642 2.27936 34.6019 1.4505 35.5302 0.870303C36.4585 0.290101 37.4946 0 38.6384 0C39.6165 0 40.4702 0.198926 41.1996 0.596779C41.9456 0.994632 42.5175 1.51681 42.9154 2.16332V0.198927H47.1674V14.074H42.9154V12.1096C42.5009 12.7562 41.9207 13.2783 41.1748 13.6762C40.4454 14.074 39.5916 14.273 38.6136 14.273C37.4863 14.273 36.4585 13.9829 35.5302 13.4027C34.6019 12.8059 33.8642 11.9687 33.3172 10.8912C32.7867 9.79712 32.5214 8.53725 32.5214 7.11162ZM42.9154 7.13648C42.9154 6.07554 42.617 5.23839 42.0202 4.62504C41.44 4.01168 40.7272 3.705 39.8817 3.705C39.0363 3.705 38.3152 4.01168 37.7184 4.62504C37.1382 5.22182 36.8481 6.05068 36.8481 7.11162C36.8481 8.17256 37.1382 9.01799 37.7184 9.64793C38.3152 10.2613 39.0363 10.568 39.8817 10.568C40.7272 10.568 41.44 10.2613 42.0202 9.64793C42.617 9.03457 42.9154 8.19742 42.9154 7.13648Z" fill="#090A0A"/>
<path d="M49.3982 7.13648C49.3982 5.69427 49.6883 4.4344 50.2685 3.35688C50.8652 2.27936 51.6858 1.4505 52.7302 0.870303C53.7911 0.290101 55.0013 0 56.3606 0C58.1012 0 59.5517 0.455873 60.7121 1.36762C61.8891 2.27936 62.6599 3.5641 63.0246 5.22182H58.499C58.1178 4.16088 57.3801 3.63041 56.286 3.63041C55.5069 3.63041 54.8852 3.93708 54.4211 4.55044C53.9569 5.14722 53.7248 6.00923 53.7248 7.13648C53.7248 8.26373 53.9569 9.13403 54.4211 9.74739C54.8852 10.3442 55.5069 10.6426 56.286 10.6426C57.3801 10.6426 58.1178 10.1121 58.499 9.05115H63.0246C62.6599 10.6757 61.8891 11.9522 60.7121 12.8805C59.5351 13.8088 58.0846 14.273 56.3606 14.273C55.0013 14.273 53.7911 13.9829 52.7302 13.4027C51.6858 12.8225 50.8652 11.9936 50.2685 10.9161C49.6883 9.83856 49.3982 8.5787 49.3982 7.13648Z" fill="#090A0A"/>
<path d="M67.2883 14.273C66.5424 14.273 65.929 14.0575 65.4483 13.6265C64.9841 13.1789 64.752 12.6318 64.752 11.9853C64.752 11.3222 64.9841 10.7669 65.4483 10.3193C65.929 9.87172 66.5424 9.64793 67.2883 9.64793C68.0177 9.64793 68.6145 9.87172 69.0787 10.3193C69.5594 10.7669 69.7998 11.3222 69.7998 11.9853C69.7998 12.6318 69.5594 13.1789 69.0787 13.6265C68.6145 14.0575 68.0177 14.273 67.2883 14.273Z" fill="#090A0A"/>
</svg>
