<svg width="32" height="32" viewBox="0 0 32 32" fill="none" xmlns="http://www.w3.org/2000/svg">
<path d="M21.4167 4.08337L25.75 8.41671M25.75 8.41671L21.4167 12.75M25.75 8.41671H10.5833C9.43406 8.41671 8.33186 8.87325 7.5192 9.68591C6.70655 10.4986 6.25 11.6008 6.25 12.75V14.9167M10.5833 27.9167L6.25 23.5834M6.25 23.5834L10.5833 19.25M6.25 23.5834H21.4167C22.5659 23.5834 23.6681 23.1268 24.4808 22.3142C25.2935 21.5015 25.75 20.3993 25.75 19.25V17.0834" stroke="white" stroke-width="1.5" stroke-linecap="round" stroke-linejoin="round"/>
<rect x="17" y="20" width="12" height="8" rx="4" fill="white"/>
<path d="M22.9891 26.0597C22.6709 26.0597 22.3875 26.005 22.1389 25.8956C21.8918 25.7848 21.6965 25.6328 21.553 25.4396C21.411 25.245 21.3378 25.0206 21.3335 24.7663H22.2625C22.2682 24.8729 22.303 24.9666 22.3669 25.0476C22.4323 25.1271 22.5189 25.1889 22.6269 25.233C22.7348 25.277 22.8563 25.299 22.9912 25.299C23.1318 25.299 23.2561 25.2741 23.3641 25.2244C23.472 25.1747 23.5566 25.1058 23.6176 25.0178C23.6787 24.9297 23.7093 24.8281 23.7093 24.7131C23.7093 24.5966 23.6766 24.4936 23.6112 24.4041C23.5473 24.3132 23.455 24.2422 23.3343 24.1911C23.2149 24.1399 23.0729 24.1143 22.9081 24.1143H22.5012V23.4368H22.9081C23.0473 23.4368 23.1702 23.4126 23.2767 23.3643C23.3847 23.3161 23.4685 23.2493 23.5281 23.1641C23.5878 23.0774 23.6176 22.9766 23.6176 22.8615C23.6176 22.7521 23.5914 22.6562 23.5388 22.5739C23.4877 22.4901 23.4152 22.4247 23.3215 22.3778C23.2291 22.331 23.1212 22.3075 22.9976 22.3075C22.8726 22.3075 22.7583 22.3303 22.6546 22.3757C22.5509 22.4197 22.4678 22.483 22.4053 22.5653C22.3428 22.6477 22.3094 22.7443 22.3051 22.8551H21.4209C21.4252 22.6037 21.4969 22.3821 21.6361 22.1903C21.7753 21.9986 21.9628 21.8487 22.1986 21.7408C22.4358 21.6314 22.7036 21.5767 23.0019 21.5767C23.303 21.5767 23.5665 21.6314 23.7923 21.7408C24.0182 21.8501 24.1936 21.9979 24.3186 22.1839C24.445 22.3686 24.5075 22.576 24.5061 22.8061C24.5075 23.0504 24.4316 23.2543 24.2781 23.4176C24.1262 23.581 23.928 23.6847 23.6837 23.7287V23.7628C24.0047 23.804 24.249 23.9155 24.4166 24.0973C24.5857 24.2777 24.6695 24.5036 24.6681 24.7749C24.6695 25.0234 24.5977 25.2443 24.4529 25.4375C24.3094 25.6307 24.1112 25.7827 23.8584 25.8935C23.6056 26.0043 23.3158 26.0597 22.9891 26.0597Z" fill="#6C7072"/>
</svg>
