<svg width="22" height="22" viewBox="0 0 22 22" fill="none" xmlns="http://www.w3.org/2000/svg">
<path d="M3.66675 17.6855C3.66675 17.1235 3.90819 16.5845 4.33796 16.1871C4.76773 15.7897 5.35063 15.5664 5.95841 15.5664H18.3334M3.66675 17.6855C3.66675 18.2476 3.90819 18.7866 4.33796 19.184C4.76773 19.5814 5.35063 19.8047 5.95841 19.8047H18.3334V2.85156H5.95841C5.35063 2.85156 4.76773 3.07483 4.33796 3.47224C3.90819 3.86966 3.66675 4.40867 3.66675 4.9707V17.6855Z" stroke="#090A0A" stroke-width="1.5" stroke-linecap="round" stroke-linejoin="round"/>
<path d="M10.3219 9.91949H12.3965L11.8728 8.25644C11.6647 7.58994 11.5035 7.05481 11.3894 6.65106H11.329C11.1746 7.20862 11.0168 7.74374 10.8557 8.25644L10.3219 9.91949ZM7.5625 12.9668L10.473 5.09375H12.2555L15.166 12.9668H13.4036L12.8195 11.2076H9.909L9.32489 12.9668H7.5625Z" fill="black"/>
</svg>
