<svg width="21" height="19" viewBox="0 0 21 19" fill="none" xmlns="http://www.w3.org/2000/svg">
<path d="M18.2351 3.03364C17.7882 2.58652 17.2576 2.23183 16.6735 1.98984C16.0895 1.74784 15.4635 1.62329 14.8314 1.62329C14.1992 1.62329 13.5732 1.74784 12.9892 1.98984C12.4051 2.23183 11.8745 2.58652 11.4276 3.03364L10.5001 3.96114L9.5726 3.03364C8.66987 2.13091 7.44551 1.62376 6.16885 1.62376C4.8922 1.62376 3.66783 2.13091 2.7651 3.03364C1.86237 3.93637 1.35522 5.16073 1.35522 6.43739C1.35522 7.71404 1.86237 8.93841 2.7651 9.84114L3.6926 10.7686L10.5001 17.5761L17.3076 10.7686L18.2351 9.84114C18.6822 9.39423 19.0369 8.8636 19.2789 8.27957C19.5209 7.69555 19.6455 7.06956 19.6455 6.43739C19.6455 5.80521 19.5209 5.17923 19.2789 4.5952C19.0369 4.01118 18.6822 3.48055 18.2351 3.03364Z" fill="#FE5146" stroke="#FE5146" stroke-width="1.5" stroke-linecap="round" stroke-linejoin="round"/>
</svg>
