<svg width="24" height="24" viewBox="0 0 24 24" fill="none" xmlns="http://www.w3.org/2000/svg">
<path d="M4 19.0625C4 18.4823 4.26339 17.9259 4.73223 17.5157C5.20107 17.1055 5.83696 16.875 6.5 16.875H20M4 19.0625C4 19.6427 4.26339 20.1991 4.73223 20.6093C5.20107 21.0195 5.83696 21.25 6.5 21.25H20V3.75H6.5C5.83696 3.75 5.20107 3.98047 4.73223 4.3907C4.26339 4.80094 4 5.35734 4 5.9375V19.0625Z" stroke="white" stroke-width="1.5" stroke-linecap="round" stroke-linejoin="round"/>
<path d="M10.9004 11.5947H13.1133L12.5547 9.73633C12.3327 8.99154 12.1608 8.39355 12.0391 7.94238H11.9746C11.8099 8.56543 11.6416 9.16341 11.4697 9.73633L10.9004 11.5947ZM7.95703 15L11.0615 6.20215H12.9629L16.0674 15H14.1875L13.5645 13.0342H10.46L9.83691 15H7.95703Z" fill="white"/>
</svg>
