<svg width="12" height="12" viewBox="0 0 12 12" fill="none" xmlns="http://www.w3.org/2000/svg">
<path d="M0.5 1.55037V4.8837M0.5 4.8837H3.80023M0.5 4.8837L3.05218 2.46148C3.81174 1.69561 4.79715 1.1998 5.85995 1.04877C6.92275 0.897741 8.00536 1.09967 8.94466 1.62413C9.88395 2.14859 10.6291 2.96717 11.0677 3.95654C11.5063 4.9459 11.6147 6.05245 11.3766 7.10946C11.1384 8.16646 10.5666 9.11667 9.74732 9.8169C8.92801 10.5171 7.90559 10.9294 6.83409 10.9917C5.7626 11.054 4.70008 10.7629 3.80665 10.1622C2.91321 9.56158 2.23724 8.68391 1.8806 7.66148" stroke="#6C7072" stroke-linecap="round" stroke-linejoin="round"/>
</svg>
