<svg width="3" height="16" viewBox="0 0 3 16" fill="none" xmlns="http://www.w3.org/2000/svg">
<path d="M1.82813 7.94531C1.82813 7.67348 1.60777 7.45312 1.33594 7.45312C1.06411 7.45312 0.84375 7.67348 0.84375 7.94531C0.84375 8.21714 1.06411 8.4375 1.33594 8.4375C1.60777 8.4375 1.82813 8.21714 1.82813 7.94531Z" fill="white"/>
<path d="M1.82813 1.82031C1.82813 1.54848 1.60777 1.32812 1.33594 1.32812C1.06411 1.32812 0.84375 1.54848 0.84375 1.82031C0.84375 2.09214 1.06411 2.3125 1.33594 2.3125C1.60777 2.3125 1.82813 2.09214 1.82813 1.82031Z" fill="white"/>
<path d="M1.82812 14.0703C1.82812 13.7985 1.60777 13.5781 1.33594 13.5781C1.06411 13.5781 0.84375 13.7985 0.84375 14.0703C0.84375 14.3421 1.06411 14.5625 1.33594 14.5625C1.60777 14.5625 1.82812 14.3421 1.82812 14.0703Z" fill="white"/>
<path d="M1.82813 7.94531C1.82813 7.67348 1.60777 7.45312 1.33594 7.45312C1.06411 7.45312 0.84375 7.67348 0.84375 7.94531C0.84375 8.21714 1.06411 8.4375 1.33594 8.4375C1.60777 8.4375 1.82813 8.21714 1.82813 7.94531Z" stroke="white" stroke-width="1.5" stroke-linecap="round" stroke-linejoin="round"/>
<path d="M1.82813 1.82031C1.82813 1.54848 1.60777 1.32812 1.33594 1.32812C1.06411 1.32812 0.84375 1.54848 0.84375 1.82031C0.84375 2.09214 1.06411 2.3125 1.33594 2.3125C1.60777 2.3125 1.82813 2.09214 1.82813 1.82031Z" stroke="white" stroke-width="1.5" stroke-linecap="round" stroke-linejoin="round"/>
<path d="M1.82812 14.0703C1.82812 13.7985 1.60777 13.5781 1.33594 13.5781C1.06411 13.5781 0.84375 13.7985 0.84375 14.0703C0.84375 14.3421 1.06411 14.5625 1.33594 14.5625C1.60777 14.5625 1.82812 14.3421 1.82812 14.0703Z" stroke="white" stroke-width="1.5" stroke-linecap="round" stroke-linejoin="round"/>
</svg>
