<svg width="22" height="18" viewBox="0 0 22 18" fill="none" xmlns="http://www.w3.org/2000/svg">
<path d="M19.1034 2.53364C18.6352 2.08652 18.0793 1.73183 17.4674 1.48984C16.8556 1.24784 16.1998 1.12329 15.5375 1.12329C14.8752 1.12329 14.2195 1.24784 13.6076 1.48984C12.9958 1.73183 12.4399 2.08652 11.9717 2.53364L11 3.46114L10.0284 2.53364C9.08264 1.63091 7.79997 1.12376 6.46253 1.12376C5.12508 1.12376 3.84241 1.63091 2.89669 2.53364C1.95098 3.43637 1.41968 4.66073 1.41968 5.93739C1.41968 7.21404 1.95098 8.43841 2.89669 9.34114L3.86836 10.2686L11 17.0761L18.1317 10.2686L19.1034 9.34114C19.5718 8.89423 19.9434 8.3636 20.1969 7.77957C20.4504 7.19555 20.5809 6.56956 20.5809 5.93739C20.5809 5.30521 20.4504 4.67923 20.1969 4.0952C19.9434 3.51118 19.5718 2.98055 19.1034 2.53364V2.53364Z" stroke="white" stroke-width="1.5" stroke-linecap="round" stroke-linejoin="round"/>
</svg>
