<svg width="32" height="32" viewBox="0 0 32 32" fill="none" xmlns="http://www.w3.org/2000/svg">
<rect x="2.75" y="4.75" width="26.5" height="22.5" rx="2.25" stroke="#6C7072" stroke-width="1.5"/>
<path d="M12.5126 9.14402H10.0406V7.96802H8.44458V9.14402H5.99658V10.38H12.5006L12.5126 9.14402ZM8.04858 12.9C8.04858 12.3 8.54058 11.976 9.24858 11.976C9.94458 11.976 10.4486 12.3 10.4486 12.9C10.4486 13.512 9.94458 13.836 9.24858 13.836C8.54058 13.836 8.04858 13.512 8.04858 12.9ZM11.9606 12.9C11.9606 11.652 10.8326 10.776 9.24858 10.776C7.66458 10.776 6.53658 11.652 6.53658 12.9C6.53658 14.172 7.66458 15.036 9.24858 15.036C10.8326 15.036 11.9606 14.172 11.9606 12.9ZM9.15258 15.636H7.56858V18.84H15.0926V17.58H9.15258V15.636ZM14.6966 11.352V7.98002H13.1126V16.248H14.6966V12.66H16.1606V11.352H14.6966Z" fill="#6C7072"/>
<path d="M18.3687 24H16.6215L20.5473 13.0909H22.4489L26.3747 24H24.6276L21.5434 15.0725H21.4582L18.3687 24ZM18.6616 19.728H24.3293V21.1129H18.6616V19.728Z" fill="#6C7072"/>
</svg>
