<svg width="32" height="32" viewBox="0 0 32 32" fill="none" xmlns="http://www.w3.org/2000/svg">
<path d="M21.4167 4.08337L25.75 8.41671M25.75 8.41671L21.4167 12.75M25.75 8.41671H10.5833C9.43406 8.41671 8.33186 8.87325 7.5192 9.68591C6.70655 10.4986 6.25 11.6008 6.25 12.75V14.9167M10.5833 27.9167L6.25 23.5834M6.25 23.5834L10.5833 19.25M6.25 23.5834H21.4167C22.5659 23.5834 23.6681 23.1268 24.4808 22.3142C25.2935 21.5015 25.75 20.3993 25.75 19.25V17.0834" stroke="#6C7072" stroke-width="1.5" stroke-linecap="round" stroke-linejoin="round"/>
<rect x="17" y="20" width="12" height="8" rx="4" fill="#6C7072"/>
<path d="M21.464 26V25.3352L23.0173 23.897C23.1494 23.7692 23.2602 23.6541 23.3497 23.5518C23.4406 23.4496 23.5095 23.3494 23.5564 23.2514C23.6032 23.152 23.6267 23.0447 23.6267 22.9297C23.6267 22.8018 23.5976 22.6918 23.5393 22.5994C23.4811 22.5057 23.4015 22.4339 23.3007 22.3842C23.1998 22.3331 23.0855 22.3075 22.9577 22.3075C22.8241 22.3075 22.7077 22.3345 22.6082 22.3885C22.5088 22.4425 22.4321 22.5199 22.3781 22.6207C22.3241 22.7216 22.2971 22.8416 22.2971 22.9808H21.4214C21.4214 22.6953 21.4861 22.4474 21.6153 22.2372C21.7446 22.027 21.9257 21.8643 22.1586 21.7493C22.3916 21.6342 22.6601 21.5767 22.964 21.5767C23.2765 21.5767 23.5486 21.6321 23.7801 21.7429C24.0131 21.8523 24.1942 22.0043 24.3234 22.1989C24.4527 22.3935 24.5173 22.6165 24.5173 22.8679C24.5173 23.0327 24.4846 23.1953 24.4193 23.3558C24.3554 23.5163 24.241 23.6946 24.0763 23.8906C23.9115 24.0852 23.6792 24.3189 23.3795 24.5916L22.7425 25.2159V25.2457H24.5748V26H21.464Z" fill="white"/>
</svg>
