<svg width="36" height="36" viewBox="0 0 36 36" fill="none" xmlns="http://www.w3.org/2000/svg">
<mask id="mask0_858_9937" style="mask-type:alpha" maskUnits="userSpaceOnUse" x="0" y="0" width="36" height="36">
<rect width="36" height="36" fill="#D9D9D9"/>
</mask>
<g mask="url(#mask0_858_9937)">
<path d="M10.5853 28.9495C9.98627 28.9495 9.47633 28.7447 9.05547 28.3353C8.63458 27.9258 8.42414 27.4184 8.42414 26.8132V9.18682C8.42414 8.58156 8.63458 8.0742 9.05547 7.66474C9.47633 7.25528 9.98627 7.05055 10.5853 7.05055C11.1844 7.05055 11.6902 7.25528 12.1027 7.66474C12.5153 8.0742 12.7216 8.58156 12.7216 9.18682V26.8132C12.7216 27.4184 12.5168 27.9258 12.1074 28.3353C11.698 28.7447 11.1906 28.9495 10.5853 28.9495ZM18.0095 36C17.4042 36 16.8969 35.7953 16.4874 35.3858C16.0779 34.9763 15.8732 34.469 15.8732 33.8637V2.13627C15.8732 1.53101 16.0779 1.02365 16.4874 0.614191C16.8969 0.20473 17.4042 0 18.0095 0C18.6147 0 19.1221 0.20473 19.5316 0.614191C19.941 1.02365 20.1458 1.53101 20.1458 2.13627V33.8637C20.1458 34.469 19.941 34.9763 19.5316 35.3858C19.1221 35.7953 18.6147 36 18.0095 36ZM3.13623 21.8989C2.5372 21.8989 2.03139 21.6942 1.61882 21.2847C1.20627 20.8753 1 20.3679 1 19.7626V16.2374C1 15.6321 1.20472 15.1247 1.61415 14.7153C2.02361 14.3058 2.53097 14.1011 3.13623 14.1011C3.73529 14.1011 4.24525 14.3058 4.66611 14.7153C5.08697 15.1247 5.2974 15.6321 5.2974 16.2374V19.7626C5.2974 20.3679 5.08697 20.8753 4.66611 21.2847C4.24525 21.6942 3.73529 21.8989 3.13623 21.8989ZM25.4337 28.9495C24.8346 28.9495 24.3288 28.7447 23.9163 28.3353C23.5037 27.9258 23.2974 27.4184 23.2974 26.8132V9.18682C23.2974 8.58156 23.5021 8.0742 23.9116 7.66474C24.321 7.25528 24.8284 7.05055 25.4337 7.05055C26.0327 7.05055 26.5426 7.25528 26.9635 7.66474C27.3844 8.0742 27.5948 8.58156 27.5948 9.18682V26.8132C27.5948 27.4184 27.3844 27.9258 26.9635 28.3353C26.5426 28.7447 26.0327 28.9495 25.4337 28.9495ZM32.8827 21.8989C32.2837 21.8989 31.7737 21.6942 31.3529 21.2847C30.932 20.8753 30.7216 20.3679 30.7216 19.7626V16.2374C30.7216 15.6321 30.932 15.1247 31.3529 14.7153C31.7737 14.3058 32.2837 14.1011 32.8827 14.1011C33.4818 14.1011 33.9876 14.3058 34.4002 14.7153C34.8127 15.1247 35.019 15.6321 35.019 16.2374V19.7626C35.019 20.3679 34.8143 20.8753 34.4048 21.2847C33.9954 21.6942 33.488 21.8989 32.8827 21.8989Z" fill="#1C1B1F"/>
</g>
</svg>
