<svg width="17" height="17" viewBox="0 0 17 17" fill="none" xmlns="http://www.w3.org/2000/svg">
<circle cx="8.5" cy="8.5" r="7.5" stroke="#33E36F" stroke-width="2"/>
<path d="M8.1425 11.05L7.30723 11.5999C7.49847 11.8904 7.8269 12.0607 8.17451 12.0495C8.52213 12.0384 8.83899 11.8475 9.01124 11.5453L8.1425 11.05ZM6.78525 7.16959L6.2354 6.33432L4.56487 7.43402L5.11472 8.26928L6.78525 7.16959ZM11.9187 6.44532L12.414 5.57657L10.6765 4.58604L10.1812 5.45478L11.9187 6.44532ZM10.1812 5.45478L7.27376 10.5548L9.01124 11.5453L11.9187 6.44532L10.1812 5.45478ZM8.97776 10.5002L7.88151 8.8349L6.21098 9.93459L7.30723 11.5999L8.97776 10.5002ZM7.88151 8.8349L6.78525 7.16959L5.11472 8.26928L6.21098 9.93459L7.88151 8.8349Z" fill="#33E36F"/>
</svg>
