<svg width="57" height="56" viewBox="0 0 57 56" fill="none" xmlns="http://www.w3.org/2000/svg">
<rect x="1.27588" y="0.762695" width="54.3448" height="54.3448" rx="11.5" fill="#F2F4F5" fill-opacity="0.5" stroke="#F2F4F5"/>
<path d="M18.3824 22.1238L28.4482 27.9466L38.514 22.1238M28.4482 39.5574V27.935M38.8254 32.5471V23.323C38.8249 22.9186 38.7182 22.5214 38.5158 22.1713C38.3134 21.8212 38.0226 21.5304 37.6723 21.3282L29.6012 16.7162C29.2507 16.5138 28.853 16.4072 28.4482 16.4072C28.0434 16.4072 27.6457 16.5138 27.2952 16.7162L19.2241 21.3282C18.8738 21.5304 18.583 21.8212 18.3806 22.1713C18.1782 22.5214 18.0715 22.9186 18.071 23.323V32.5471C18.0715 32.9515 18.1782 33.3487 18.3806 33.6988C18.583 34.0489 18.8738 34.3396 19.2241 34.5418L27.2952 39.1539C27.6457 39.3563 28.0434 39.4628 28.4482 39.4628C28.853 39.4628 29.2507 39.3563 29.6012 39.1539L37.6723 34.5418C38.0226 34.3396 38.3134 34.0489 38.5158 33.6988C38.7182 33.3487 38.8249 32.9515 38.8254 32.5471Z" stroke="#6C7072" stroke-width="2" stroke-linecap="round" stroke-linejoin="round"/>
</svg>
