<svg width="30" height="30" viewBox="0 0 30 30" fill="none" xmlns="http://www.w3.org/2000/svg">
<path d="M9.12713 22.5C9.55213 22.5 9.90838 22.3562 10.1959 22.0687C10.4834 21.7812 10.6271 21.425 10.6271 21V13.5C10.6271 13.075 10.4834 12.7187 10.1959 12.4312C9.90838 12.1437 9.55213 12 9.12713 12C8.70213 12 8.34588 12.1437 8.05838 12.4312C7.77088 12.7187 7.62713 13.075 7.62713 13.5V21C7.62713 21.425 7.77088 21.7812 8.05838 22.0687C8.34588 22.3562 8.70213 22.5 9.12713 22.5ZM15 22.5C15.425 22.5 15.7812 22.3562 16.0687 22.0687C16.3562 21.7812 16.5 21.425 16.5 21V8.99997C16.5 8.57497 16.3562 8.21872 16.0687 7.93122C15.7812 7.64372 15.425 7.49997 15 7.49997C14.575 7.49997 14.2187 7.64372 13.9312 7.93122C13.6437 8.21872 13.5 8.57497 13.5 8.99997V21C13.5 21.425 13.6437 21.7812 13.9312 22.0687C14.2187 22.3562 14.575 22.5 15 22.5ZM20.8728 22.5C21.2978 22.5 21.6541 22.3562 21.9416 22.0687C22.2291 21.7812 22.3728 21.425 22.3728 21V18C22.3728 17.575 22.2291 17.2187 21.9416 16.9312C21.6541 16.6437 21.2978 16.5 20.8728 16.5C20.4478 16.5 20.0916 16.6437 19.8041 16.9312C19.5166 17.2187 19.3728 17.575 19.3728 18V21C19.3728 21.425 19.5166 21.7812 19.8041 22.0687C20.0916 22.3562 20.4478 22.5 20.8728 22.5ZM4.75433 29.2206C3.64671 29.2206 2.7073 28.835 1.9361 28.0638C1.1649 27.2926 0.779297 26.3532 0.779297 25.2456V4.75433C0.779297 3.64671 1.1649 2.7073 1.9361 1.9361C2.7073 1.1649 3.64671 0.779297 4.75433 0.779297H15.9489C16.501 0.779297 16.9703 0.972497 17.3568 1.3589C17.7432 1.74532 17.9364 2.21462 17.9364 2.7668C17.9364 3.319 17.7432 3.7883 17.3568 4.1747C16.9703 4.56112 16.501 4.75433 15.9489 4.75433H4.75433V25.2456H25.2456V14.0511C25.2456 13.4989 25.4388 13.0296 25.8252 12.6432C26.2116 12.2568 26.6809 12.0636 27.2331 12.0636C27.7853 12.0636 28.2546 12.2568 28.641 12.6432C29.0274 13.0296 29.2206 13.4989 29.2206 14.0511V25.2456C29.2206 26.3532 28.835 27.2926 28.0638 28.0638C27.2926 28.835 26.3532 29.2206 25.2456 29.2206H4.75433ZM24.3179 10.5636C23.8509 10.5636 23.4594 10.4036 23.1435 10.0836C22.8275 9.76357 22.6695 9.36705 22.6695 8.894V7.3304H21.1059C20.6329 7.3304 20.2364 7.1724 19.9164 6.8564C19.5964 6.54037 19.4364 6.14878 19.4364 5.68163C19.4364 5.21451 19.5964 4.81952 19.9164 4.49667C20.2364 4.17385 20.6329 4.01243 21.1059 4.01243H22.6695V2.44887C22.6695 1.97582 22.8275 1.5793 23.1435 1.2593C23.4596 0.939297 23.8512 0.779297 24.3183 0.779297C24.7854 0.779297 25.1804 0.939297 25.5033 1.2593C25.8261 1.5793 25.9875 1.97582 25.9875 2.44887V4.01243H27.5511C28.0241 4.01243 28.4206 4.17244 28.7407 4.49243C29.0606 4.81244 29.2206 5.20896 29.2206 5.68201C29.2206 6.14906 29.0606 6.54055 28.7407 6.85647C28.4206 7.17242 28.0241 7.3304 27.5511 7.3304H25.9875V8.894C25.9875 9.36705 25.8275 9.76357 25.5075 10.0836C25.1875 10.4036 24.791 10.5636 24.3179 10.5636Z" fill="#4FF788"/>
</svg>
