<svg width="32" height="32" viewBox="0 0 32 32" fill="none" xmlns="http://www.w3.org/2000/svg">
<path d="M21.4167 4.08337L25.75 8.41671M25.75 8.41671L21.4167 12.75M25.75 8.41671H10.5833C9.43406 8.41671 8.33186 8.87325 7.5192 9.68591C6.70655 10.4986 6.25 11.6008 6.25 12.75V14.9167M10.5833 27.9167L6.25 23.5834M6.25 23.5834L10.5833 19.25M6.25 23.5834H21.4167C22.5659 23.5834 23.6681 23.1268 24.4808 22.3142C25.2935 21.5015 25.75 20.3993 25.75 19.25V17.0834" stroke="#6C7072" stroke-width="1.5" stroke-linecap="round" stroke-linejoin="round"/>
<rect x="17" y="20" width="12" height="8" rx="4" fill="#6C7072"/>
<path d="M20.2525 26H19.2638L20.7702 21.6364H21.9592L23.4634 26H22.4748L21.3817 22.6335H21.3477L20.2525 26ZM20.1907 24.2848H22.5259V25.005H20.1907V24.2848ZM24.8793 21.6364V26H23.9716V21.6364H24.8793ZM26.514 21.6364V26H25.6064V21.6364H26.514Z" fill="white"/>
</svg>
