<svg width="18" height="19" viewBox="0 0 18 19" fill="none" xmlns="http://www.w3.org/2000/svg">
<path d="M5.33333 1.625H2.58333C2.0971 1.625 1.63079 1.80937 1.28697 2.13756C0.943154 2.46575 0.75 2.91087 0.75 3.375V6M17.25 6V3.375C17.25 2.91087 17.0568 2.46575 16.713 2.13756C16.3692 1.80937 15.9029 1.625 15.4167 1.625H12.6667M12.6667 17.375H15.4167C15.9029 17.375 16.3692 17.1906 16.713 16.8624C17.0568 16.5342 17.25 16.0891 17.25 15.625V13M0.75 13V15.625C0.75 16.0891 0.943154 16.5342 1.28697 16.8624C1.63079 17.1906 2.0971 17.375 2.58333 17.375H5.33333" stroke="#090A0A" stroke-width="1.5" stroke-linecap="round" stroke-linejoin="round"/>
</svg>
