<svg width="19" height="19" viewBox="0 0 19 19" fill="none" xmlns="http://www.w3.org/2000/svg">
<path d="M11.0137 17.375C10.8599 17.6402 10.6391 17.8603 10.3734 18.0133C10.1078 18.1664 9.80658 18.2469 9.5 18.2469C9.19342 18.2469 8.89222 18.1664 8.62655 18.0133C8.36089 17.8603 8.14008 17.6402 7.98625 17.375M14.75 6C14.75 4.60761 14.1969 3.27226 13.2123 2.28769C12.2277 1.30312 10.8924 0.75 9.5 0.75C8.10761 0.75 6.77226 1.30312 5.78769 2.28769C4.80312 3.27226 4.25 4.60761 4.25 6C4.25 12.125 1.625 13.875 1.625 13.875H17.375C17.375 13.875 14.75 12.125 14.75 6Z" stroke="#090A0A" stroke-width="1.5" stroke-linecap="round" stroke-linejoin="round"/>
</svg>
