<svg width="26" height="36" viewBox="0 0 26 36" fill="none" xmlns="http://www.w3.org/2000/svg">
<path d="M24.6018 15.0944V18.1765C24.6018 21.0375 23.3792 23.7813 21.203 25.8043C19.0267 27.8273 16.0751 28.9638 12.9974 28.9638M12.9974 28.9638C9.91968 28.9638 6.96805 27.8273 4.79179 25.8043C2.61554 23.7813 1.39293 21.0375 1.39293 18.1765V15.0944M12.9974 28.9638V35.1279M6.36626 35.1279H19.6285M12.9974 1.2251C11.6784 1.2251 10.4134 1.71217 9.48069 2.57918C8.54801 3.44618 8.02404 4.62209 8.02404 5.84821V18.1765C8.02404 19.4026 8.54801 20.5786 9.48069 21.4456C10.4134 22.3126 11.6784 22.7996 12.9974 22.7996C14.3164 22.7996 15.5814 22.3126 16.5141 21.4456C17.4467 20.5786 17.9707 19.4026 17.9707 18.1765V5.84821C17.9707 4.62209 17.4467 3.44618 16.5141 2.57918C15.5814 1.71217 14.3164 1.2251 12.9974 1.2251Z" stroke="white" stroke-width="1.5" stroke-linecap="round" stroke-linejoin="round"/>
</svg>
