<svg width="3" height="15" viewBox="0 0 3 15" fill="none" xmlns="http://www.w3.org/2000/svg">
<path d="M1.82813 7.44531C1.82813 7.17348 1.60777 6.95312 1.33594 6.95312C1.06411 6.95312 0.84375 7.17348 0.84375 7.44531C0.84375 7.71714 1.06411 7.9375 1.33594 7.9375C1.60777 7.9375 1.82813 7.71714 1.82813 7.44531Z" fill="#090A0A"/>
<path d="M1.82813 1.32031C1.82813 1.04848 1.60777 0.828124 1.33594 0.828124C1.06411 0.828124 0.84375 1.04848 0.84375 1.32031C0.84375 1.59214 1.06411 1.8125 1.33594 1.8125C1.60777 1.8125 1.82813 1.59214 1.82813 1.32031Z" fill="#090A0A"/>
<path d="M1.82812 13.5703C1.82812 13.2985 1.60777 13.0781 1.33594 13.0781C1.06411 13.0781 0.84375 13.2985 0.84375 13.5703C0.84375 13.8421 1.06411 14.0625 1.33594 14.0625C1.60777 14.0625 1.82812 13.8421 1.82812 13.5703Z" fill="#090A0A"/>
<path d="M1.82813 7.44531C1.82813 7.17348 1.60777 6.95312 1.33594 6.95312C1.06411 6.95312 0.84375 7.17348 0.84375 7.44531C0.84375 7.71714 1.06411 7.9375 1.33594 7.9375C1.60777 7.9375 1.82813 7.71714 1.82813 7.44531Z" stroke="#090A0A" stroke-width="1.5" stroke-linecap="round" stroke-linejoin="round"/>
<path d="M1.82813 1.32031C1.82813 1.04848 1.60777 0.828124 1.33594 0.828124C1.06411 0.828124 0.84375 1.04848 0.84375 1.32031C0.84375 1.59214 1.06411 1.8125 1.33594 1.8125C1.60777 1.8125 1.82813 1.59214 1.82813 1.32031Z" stroke="#090A0A" stroke-width="1.5" stroke-linecap="round" stroke-linejoin="round"/>
<path d="M1.82812 13.5703C1.82812 13.2985 1.60777 13.0781 1.33594 13.0781C1.06411 13.0781 0.84375 13.2985 0.84375 13.5703C0.84375 13.8421 1.06411 14.0625 1.33594 14.0625C1.60777 14.0625 1.82812 13.8421 1.82812 13.5703Z" stroke="#090A0A" stroke-width="1.5" stroke-linecap="round" stroke-linejoin="round"/>
</svg>
