<svg width="32" height="32" viewBox="0 0 32 32" fill="none" xmlns="http://www.w3.org/2000/svg">
<rect x="2.75" y="4.75" width="26.5" height="22.5" rx="2.25" stroke="white" stroke-width="1.5"/>
<path d="M17.5126 11.144H15.0406V9.96802H13.4446V11.144H10.9966V12.38H17.5006L17.5126 11.144ZM13.0486 14.9C13.0486 14.3 13.5406 13.976 14.2486 13.976C14.9446 13.976 15.4486 14.3 15.4486 14.9C15.4486 15.512 14.9446 15.836 14.2486 15.836C13.5406 15.836 13.0486 15.512 13.0486 14.9ZM16.9606 14.9C16.9606 13.652 15.8326 12.776 14.2486 12.776C12.6646 12.776 11.5366 13.652 11.5366 14.9C11.5366 16.172 12.6646 17.036 14.2486 17.036C15.8326 17.036 16.9606 16.172 16.9606 14.9ZM14.1526 17.636H12.5686V20.84H20.0926V19.58H14.1526V17.636ZM19.6966 13.352V9.98002H18.1126V18.248H19.6966V14.66H21.1606V13.352H19.6966Z" fill="white"/>
</svg>
