<svg width="57" height="56" viewBox="0 0 57 56" fill="none" xmlns="http://www.w3.org/2000/svg">
<rect x="1.3103" y="0.762695" width="54.3448" height="54.3448" rx="11.5" fill="#F2F4F5" fill-opacity="0.5" stroke="#F2F4F5"/>
<path d="M39.25 26.376C39.2543 28.0258 38.8688 29.6534 38.125 31.126C37.243 32.8907 35.8872 34.375 34.2093 35.4126C32.5314 36.4502 30.5978 37.0002 28.625 37.001C26.9752 37.0053 25.3476 36.6198 23.875 35.876L16.75 38.251L19.125 31.126C18.3812 29.6534 17.9957 28.0258 18 26.376C18.0008 24.4032 18.5508 22.4696 19.5884 20.7917C20.626 19.1138 22.1103 17.758 23.875 16.876C25.3476 16.1322 26.9752 15.7467 28.625 15.751H29.25C31.8554 15.8948 34.3163 16.9945 36.1614 18.8396C38.0065 20.6847 39.1063 23.1456 39.25 25.751V26.376Z" stroke="#6C7072" stroke-width="2" stroke-linecap="round" stroke-linejoin="round"/>
</svg>
