<svg width="13" height="10" viewBox="0 0 13 10" fill="none" xmlns="http://www.w3.org/2000/svg">
<path d="M9 9.5V8.5C9 7.96957 8.78929 7.46086 8.41421 7.08579C8.03914 6.71071 7.53043 6.5 7 6.5H3C2.46957 6.5 1.96086 6.71071 1.58579 7.08579C1.21071 7.46086 1 7.96957 1 8.5V9.5M12 9.5V8.5C11.9997 8.05686 11.8522 7.62639 11.5807 7.27616C11.3092 6.92593 10.9291 6.67578 10.5 6.565M8.5 0.565C8.93021 0.675151 9.31152 0.925351 9.58382 1.27616C9.85612 1.62696 10.0039 2.05841 10.0039 2.5025C10.0039 2.94659 9.85612 3.37804 9.58382 3.72884C9.31152 4.07965 8.93021 4.32985 8.5 4.44M7 2.5C7 3.60457 6.10457 4.5 5 4.5C3.89543 4.5 3 3.60457 3 2.5C3 1.39543 3.89543 0.5 5 0.5C6.10457 0.5 7 1.39543 7 2.5Z" stroke="#6C7072" stroke-linecap="round" stroke-linejoin="round"/>
</svg>
