<svg width="21" height="19" viewBox="0 0 21 19" fill="none" xmlns="http://www.w3.org/2000/svg">
<path d="M18.2351 3.03376C17.7882 2.58664 17.2576 2.23195 16.6735 1.98996C16.0895 1.74797 15.4635 1.62341 14.8314 1.62341C14.1992 1.62341 13.5732 1.74797 12.9892 1.98996C12.4051 2.23195 11.8745 2.58664 11.4276 3.03376L10.5001 3.96126L9.5726 3.03376C8.66987 2.13103 7.44551 1.62388 6.16885 1.62388C4.8922 1.62388 3.66783 2.13103 2.7651 3.03376C1.86237 3.93649 1.35522 5.16086 1.35522 6.43751C1.35522 7.71416 1.86237 8.93853 2.7651 9.84126L3.6926 10.7688L10.5001 17.5763L17.3076 10.7688L18.2351 9.84126C18.6822 9.39435 19.0369 8.86372 19.2789 8.2797C19.5209 7.69567 19.6455 7.06969 19.6455 6.43751C19.6455 5.80533 19.5209 5.17935 19.2789 4.59532C19.0369 4.0113 18.6822 3.48067 18.2351 3.03376V3.03376Z" stroke="#090A0A" stroke-width="1.5" stroke-linecap="round" stroke-linejoin="round"/>
</svg>
