<svg width="23" height="22" viewBox="0 0 23 22" fill="none" xmlns="http://www.w3.org/2000/svg">
<path d="M12.6732 0.871092L15.3616 6.31911L21.3787 7.19079C21.6199 7.2246 21.8468 7.32528 22.0336 7.48139C22.2204 7.6375 22.3596 7.84279 22.4354 8.07393C22.5112 8.30506 22.5205 8.55279 22.4623 8.78896C22.4041 9.02512 22.2808 9.24027 22.1063 9.40995L17.7408 13.6485L18.774 19.6232C18.815 19.8625 18.7881 20.1084 18.6963 20.3333C18.6046 20.5581 18.4516 20.7528 18.2547 20.8953C18.0578 21.0378 17.8249 21.1224 17.5824 21.1396C17.3398 21.1567 17.0973 21.1058 16.8823 20.9924L11.5018 18.1704L6.12502 20.9924C5.90998 21.1058 5.66745 21.1567 5.42489 21.1396C5.18233 21.1224 4.94943 21.0378 4.75256 20.8953C4.55569 20.7528 4.40271 20.5581 4.31094 20.3333C4.21918 20.1084 4.19229 19.8625 4.23332 19.6232L5.2592 13.6412L0.893736 9.40268C0.719218 9.233 0.595864 9.01786 0.537687 8.78169C0.479509 8.54552 0.488841 8.2978 0.564623 8.06666C0.640404 7.83552 0.779597 7.63024 0.966388 7.47413C1.15318 7.31801 1.38008 7.21733 1.62131 7.18353L7.64566 6.31911L10.3341 0.871092C10.4412 0.65262 10.6077 0.468552 10.8144 0.339812C11.0212 0.211071 11.26 0.142822 11.5036 0.142822C11.7473 0.142822 11.9861 0.211071 12.1928 0.339812C12.3996 0.468552 12.566 0.65262 12.6732 0.871092Z" fill="#FFEF22"/>
</svg>
