<svg width="17" height="16" viewBox="0 0 17 16" fill="none" xmlns="http://www.w3.org/2000/svg">
<path d="M3.1665 13.0937C3.1665 12.6655 3.3421 12.2548 3.65466 11.952C3.96722 11.6492 4.39114 11.4791 4.83317 11.4791H13.8332M3.1665 13.0937C3.1665 13.5219 3.3421 13.9326 3.65466 14.2354C3.96722 14.5382 4.39114 14.7083 4.83317 14.7083H13.8332V1.79163H4.83317C4.39114 1.79163 3.96722 1.96173 3.65466 2.26453C3.3421 2.56732 3.1665 2.978 3.1665 3.40621V13.0937Z" stroke="#303437" stroke-width="1.5" stroke-linecap="round" stroke-linejoin="round"/>
<path d="M8.00684 7.17676H9.51562L9.13477 5.90967C8.9834 5.40186 8.86621 4.99414 8.7832 4.68652H8.73926C8.62695 5.11133 8.51221 5.51904 8.39502 5.90967L8.00684 7.17676ZM6 9.49854L8.1167 3.5H9.41309L11.5298 9.49854H10.248L9.82324 8.1582H7.70654L7.28174 9.49854H6Z" fill="#303437"/>
</svg>
