<svg width="62" height="62" viewBox="0 0 62 62" fill="none" xmlns="http://www.w3.org/2000/svg">
<circle cx="31" cy="31" r="29.5" stroke="#090A0A" stroke-width="3"/>
<path d="M40.3333 28.3335V31.0002C40.3333 33.4755 39.35 35.8495 37.5996 37.5998C35.8493 39.3502 33.4753 40.3335 31 40.3335M31 40.3335C28.5246 40.3335 26.1506 39.3502 24.4003 37.5998C22.65 35.8495 21.6666 33.4755 21.6666 31.0002V28.3335M31 40.3335V45.6668M25.6666 45.6668H36.3333M31 16.3335C29.9391 16.3335 28.9217 16.7549 28.1715 17.5051C27.4214 18.2552 27 19.2726 27 20.3335V31.0002C27 32.061 27.4214 33.0784 28.1715 33.8286C28.9217 34.5787 29.9391 35.0002 31 35.0002C32.0608 35.0002 33.0782 34.5787 33.8284 33.8286C34.5785 33.0784 35 32.061 35 31.0002V20.3335C35 19.2726 34.5785 18.2552 33.8284 17.5051C33.0782 16.7549 32.0608 16.3335 31 16.3335Z" stroke="#090A0A" stroke-width="2" stroke-linecap="round" stroke-linejoin="round"/>
<rect x="27" y="15.7998" width="8" height="19.2" rx="4" fill="#090A0A"/>
</svg>
