<svg width="22" height="29" viewBox="0 0 22 29" fill="none" xmlns="http://www.w3.org/2000/svg">
<path d="M11.3266 6.69231C12.5469 6.69231 14.0766 5.80737 14.9875 4.62746C15.8125 3.55817 16.4141 2.06484 16.4141 0.571518C16.4141 0.368721 16.3969 0.165925 16.3625 0C15.0047 0.0553083 13.3719 0.977113 12.3922 2.21233C11.6187 3.15257 10.9141 4.62746 10.9141 6.13923C10.9141 6.36046 10.9484 6.58169 10.9656 6.65544C11.0516 6.67387 11.1891 6.69231 11.3266 6.69231ZM7.02969 29C8.69688 29 9.43594 27.8016 11.5156 27.8016C13.6297 27.8016 14.0938 28.9631 15.95 28.9631C17.7719 28.9631 18.9922 27.1564 20.1437 25.3865C21.4328 23.3586 21.9656 21.3675 22 21.2753C21.8797 21.2384 18.3906 19.7082 18.3906 15.4126C18.3906 11.6885 21.1406 10.0108 21.2953 9.88175C19.4734 7.07947 16.7063 7.00572 15.95 7.00572C13.9047 7.00572 12.2375 8.33312 11.1891 8.33312C10.0547 8.33312 8.55937 7.07947 6.78906 7.07947C3.42031 7.07947 0 10.0661 0 15.7076C0 19.2104 1.27188 22.9161 2.83594 25.3128C4.17656 27.3407 5.34531 29 7.02969 29Z" fill="white"/>
</svg>
