<svg width="35" height="35" viewBox="0 0 35 35" fill="none" xmlns="http://www.w3.org/2000/svg">
<mask id="mask0_120_6123" style="mask-type:alpha" maskUnits="userSpaceOnUse" x="0" y="0" width="35" height="35">
<rect width="34.5563" height="34.56" fill="#D9D9D9"/>
</mask>
<g mask="url(#mask0_120_6123)">
<path d="M5.75469 28.7998C4.96277 28.7998 4.28509 28.518 3.72163 27.9545C3.15721 27.39 2.875 26.7118 2.875 25.9198V8.63977C2.875 7.84777 3.15721 7.17001 3.72163 6.60649C4.28509 6.04201 4.96277 5.75977 5.75469 5.75977H28.7922C29.5841 5.75977 30.2623 6.04201 30.8267 6.60649C31.3901 7.17001 31.6719 7.84777 31.6719 8.63977V25.9198C31.6719 26.7118 31.3901 27.39 30.8267 27.9545C30.2623 28.518 29.5841 28.7998 28.7922 28.7998H5.75469ZM17.2734 18.7198L28.7922 11.5198V8.63977L17.2734 15.8398L5.75469 8.63977V11.5198L17.2734 18.7198Z" fill="#090A0A"/>
</g>
</svg>
