<svg width="486" height="532" viewBox="0 0 486 532" fill="none" xmlns="http://www.w3.org/2000/svg">
<rect width="486" height="532" rx="30" fill="#FAFAFA"/>
<path d="M131.573 65.26V83.78H134.113V65.26H131.573ZM129.153 72.4V74.52H132.233V72.4H129.153ZM127.433 65.58V82.9H129.913V65.58H127.433ZM118.973 67.3V78H121.633V67.3H118.973ZM118.973 77V79.28H120.253C122.133 79.28 124.253 79.18 126.673 78.74L126.413 76.46C124.113 76.9 122.033 77 120.253 77H118.973ZM148.727 66.32V67.66C148.727 70.32 146.427 73.26 142.247 73.98L143.387 76.18C148.187 75.24 151.047 71.68 151.047 67.66V66.32H148.727ZM149.267 66.32V67.66C149.267 71.74 152.107 75.24 156.907 76.18L158.047 73.98C153.847 73.26 151.567 70.38 151.567 67.66V66.32H149.267ZM141.867 79.36V81.52H158.627V79.36H141.867ZM173.005 65.26V83.78H175.685V65.26H173.005ZM160.705 66.96V69.08H171.105V66.96H160.705ZM160.465 79.56C163.805 79.54 168.065 79.46 171.965 78.8L171.825 76.86C168.005 77.32 163.545 77.38 160.205 77.38L160.465 79.56ZM162.305 68.62V77.96H164.885V68.62H162.305ZM166.925 68.62V77.96H169.505V68.62H166.925ZM185.804 66.36V67.52C185.804 70.7 184.184 73.16 178.944 74.58L179.944 76.68C186.164 74.9 188.564 71.52 188.564 66.36H185.804ZM179.884 66.36V68.46H187.364V66.36H179.884ZM185.924 69.82L178.944 70.06L179.324 72.12L185.924 71.64V69.82ZM191.364 65.28V76.18H194.044V65.28H191.364ZM187.784 76.48C183.884 76.48 181.444 77.84 181.444 80.14C181.444 82.44 183.884 83.78 187.784 83.78C191.664 83.78 194.124 82.44 194.124 80.14C194.124 77.84 191.664 76.48 187.784 76.48ZM187.784 78.56C190.184 78.56 191.464 79.06 191.464 80.14C191.464 81.2 190.184 81.74 187.784 81.74C185.364 81.74 184.104 81.2 184.104 80.14C184.104 79.06 185.364 78.56 187.784 78.56ZM203.002 66.48C200.102 66.48 197.882 68.38 197.882 71.04C197.882 73.72 200.102 75.62 203.002 75.62C205.922 75.62 208.102 73.72 208.102 71.04C208.102 68.38 205.922 66.48 203.002 66.48ZM203.002 68.76C204.422 68.76 205.502 69.6 205.502 71.04C205.502 72.5 204.422 73.34 203.002 73.34C201.582 73.34 200.502 72.5 200.502 71.04C200.502 69.6 201.582 68.76 203.002 68.76ZM209.842 65.24V83.82H212.502V65.24H209.842ZM197.442 80.06C200.642 80.06 205.002 80.02 209.022 79.22L208.822 77.3C204.922 77.88 200.382 77.92 197.122 77.92L197.442 80.06ZM232.476 65.24V83.76H235.156V65.24H232.476ZM234.456 72.32V74.5H237.716V72.32H234.456ZM227.616 67.16V67.62C227.616 72.64 225.316 76.04 220.456 78.56L221.936 80.58C228.096 77.48 230.216 72.72 230.216 67.16H227.616ZM221.476 67.16V69.3H228.976V67.16H221.476ZM243.154 67.32V68.48C243.154 70.84 241.854 73.26 238.774 74.28L240.094 76.38C243.674 75.2 245.334 72.02 245.334 68.48V67.32H243.154ZM243.694 67.32V68.48C243.694 71.78 245.294 74.68 248.814 75.74L250.074 73.66C247.094 72.76 245.854 70.64 245.854 68.48V67.32H243.694ZM239.474 66.5V68.62H249.474V66.5H239.474ZM250.954 65.26V76.24H253.614V65.26H250.954ZM252.874 69.52V71.7H256.074V69.52H252.874ZM247.574 76.58C243.714 76.58 241.294 77.92 241.294 80.18C241.294 82.44 243.714 83.78 247.574 83.78C251.414 83.78 253.834 82.44 253.834 80.18C253.834 77.92 251.414 76.58 247.574 76.58ZM247.574 78.66C249.934 78.66 251.194 79.14 251.194 80.18C251.194 81.22 249.934 81.74 247.574 81.74C245.214 81.74 243.934 81.22 243.934 80.18C243.934 79.14 245.214 78.66 247.574 78.66ZM264.688 66.08V68.2H276.428V66.08H264.688ZM262.628 74.1V76.22H279.388V74.1H262.628ZM274.828 66.08V67.82C274.828 69.72 274.828 71.72 274.228 74.46L276.848 74.72C277.448 71.84 277.448 69.78 277.448 67.82V66.08H274.828ZM275.628 69.84L264.168 70.08L264.488 72.22L275.628 71.76V69.84ZM264.568 81.34V83.46H277.708V81.34H264.568ZM264.568 77.56V81.86H267.228V77.56H264.568ZM286.222 74.4V76.52H302.982V74.4H286.222ZM293.482 75.74V79.64H296.162V75.74H293.482ZM288.282 66.04V72.92H300.862V66.04H288.282ZM298.242 68.12V70.84H290.882V68.12H298.242ZM288.162 81.34V83.46H301.142V81.34H288.162ZM288.162 78.08V82.04H290.802V78.08H288.162ZM318 65.26V83.78H320.52V65.26H318ZM311.9 71.58V73.74H314.96V71.58H311.9ZM314.26 65.56V82.94H316.74V65.56H314.26ZM307.9 68.28V70.18C307.9 73.34 306.96 76.66 304.24 78.36L305.82 80.32C308.76 78.48 309.9 74.34 309.9 70.18V68.28H307.9ZM308.5 68.28V70.18C308.5 74.26 309.58 78.14 312.52 79.88L314.08 77.94C311.4 76.38 310.48 73.26 310.48 70.18V68.28H308.5ZM304.94 67.12V69.26H313.2V67.12H304.94ZM333.039 69.52V71.68H336.559V69.52H333.039ZM335.859 65.26V75.96H338.519V65.26H335.859ZM326.179 76.72V83.58H338.519V76.72H326.179ZM335.919 78.8V81.48H328.799V78.8H335.919ZM327.299 66.98V68.14C327.299 70.48 325.979 72.9 322.919 73.9L324.259 76C327.819 74.84 329.459 71.64 329.459 68.14V66.98H327.299ZM327.859 66.98V68.14C327.859 71.44 329.439 74.52 332.879 75.66L334.179 73.56C331.259 72.58 329.999 70.3 329.999 68.14V66.98H327.859ZM323.639 66.2V68.3H333.599V66.2H323.639ZM341.417 74.7V76.82H358.157V74.7H341.417ZM343.437 81.34V83.46H356.277V81.34H343.437ZM343.437 78.06V82.02H346.097V78.06H343.437ZM349.797 65.8C345.757 65.8 343.097 67.26 343.097 69.62C343.097 71.98 345.757 73.44 349.797 73.44C353.817 73.44 356.497 71.98 356.497 69.62C356.497 67.26 353.817 65.8 349.797 65.8ZM349.797 67.92C352.297 67.92 353.757 68.5 353.757 69.62C353.757 70.76 352.297 71.32 349.797 71.32C347.297 71.32 345.837 70.76 345.837 69.62C345.837 68.5 347.297 67.92 349.797 67.92ZM361.716 77.26V76.54C361.716 75.8867 361.856 75.3333 362.136 74.88C362.416 74.4133 362.896 73.9333 363.576 73.44C364.176 73.0133 364.602 72.6467 364.856 72.34C365.122 72.02 365.256 71.6467 365.256 71.22C365.256 70.8067 365.096 70.4867 364.776 70.26C364.469 70.0333 364.036 69.92 363.476 69.92C362.916 69.92 362.362 70.0067 361.816 70.18C361.269 70.3533 360.709 70.5867 360.136 70.88L359.076 68.74C359.729 68.38 360.436 68.0867 361.196 67.86C361.956 67.6333 362.789 67.52 363.696 67.52C365.082 67.52 366.156 67.8533 366.916 68.52C367.689 69.1867 368.076 70.0333 368.076 71.06C368.076 71.6067 367.989 72.08 367.816 72.48C367.642 72.88 367.382 73.2533 367.036 73.6C366.689 73.9467 366.256 74.3067 365.736 74.68C365.336 74.9733 365.029 75.22 364.816 75.42C364.616 75.6067 364.476 75.8 364.396 76C364.329 76.1867 364.296 76.4133 364.296 76.68V77.26H361.716ZM361.396 80.6C361.396 79.9867 361.562 79.56 361.896 79.32C362.229 79.0667 362.636 78.94 363.116 78.94C363.582 78.94 363.982 79.0667 364.316 79.32C364.649 79.56 364.816 79.9867 364.816 80.6C364.816 81.1867 364.649 81.6133 364.316 81.88C363.982 82.1333 363.582 82.26 363.116 82.26C362.636 82.26 362.229 82.1333 361.896 81.88C361.562 81.6133 361.396 81.1867 361.396 80.6Z" fill="#A0A0A0"/>
<path d="M125.18 303.26V321.78H127.7V303.26H125.18ZM122.7 310.38V312.52H125.78V310.38H122.7ZM121.04 303.58V320.9H123.5V303.58H121.04ZM112.32 315.42V317.6H113.62C116 317.6 117.96 317.54 120.2 317.1L120 314.94C117.8 315.34 115.9 315.42 113.62 315.42H112.32ZM112.32 305.4V316.46H114.96V307.54H119.16V305.4H112.32ZM134.478 314.22V317.22H137.138V314.22H134.478ZM142.258 303.26V321.78H144.938V303.26H142.258ZM143.998 310.78V312.98H147.258V310.78H143.998ZM130.318 318.7C133.438 318.7 137.638 318.7 141.538 317.94L141.338 316.02C137.598 316.54 133.198 316.56 129.998 316.56L130.318 318.7ZM130.338 305.3V307.38H141.238V305.3H130.338ZM135.818 308.12C133.158 308.12 131.298 309.52 131.298 311.58C131.298 313.66 133.158 315.06 135.818 315.06C138.458 315.06 140.338 313.66 140.338 311.58C140.338 309.52 138.458 308.12 135.818 308.12ZM135.818 310.12C137.018 310.12 137.818 310.64 137.818 311.58C137.818 312.54 137.018 313.06 135.818 313.06C134.598 313.06 133.818 312.54 133.818 311.58C133.818 310.64 134.598 310.12 135.818 310.12ZM134.478 303.36V306.86H137.138V303.36H134.478ZM153.792 310.24V312.34H170.552V310.24H153.792ZM155.352 303.88V306.02H159.672V303.88H155.352ZM158.892 303.88V305.22C158.892 306.72 158.892 308.32 158.052 310.76L160.612 311.34C161.492 308.8 161.492 306.8 161.492 305.22V303.88H158.892ZM162.552 303.88V306.02H167.312V303.88H162.552ZM166.092 303.88V305.08C166.092 306.52 166.092 308.32 165.312 310.98L167.872 311.42C168.672 308.66 168.672 306.6 168.672 305.08V303.88H166.092ZM161.232 314.32V316.24H169.732V314.32H161.232ZM165.512 316.74C163.572 316.74 162.152 317.74 162.152 319.26C162.152 320.82 163.572 321.8 165.512 321.8C167.452 321.8 168.872 320.82 168.872 319.26C168.872 317.74 167.452 316.74 165.512 316.74ZM165.512 318.52C166.152 318.52 166.632 318.74 166.632 319.26C166.632 319.8 166.152 320.02 165.512 320.02C164.872 320.02 164.392 319.8 164.392 319.26C164.392 318.74 164.872 318.52 165.512 318.52ZM164.232 313.08V315.8H166.812V313.08H164.232ZM155.592 319.18V321.3H156.652C158.372 321.3 159.932 321.2 161.652 320.7L161.332 318.58C159.732 319.06 158.192 319.18 156.652 319.18H155.592ZM155.592 314.24V319.94H158.172V314.24H155.592ZM179.151 304.32V305.64C179.151 308.42 176.831 310.78 172.291 311.92L173.291 314C178.811 312.58 181.951 309.24 181.951 304.32H179.151ZM173.351 304.32V306.4H180.871V304.32H173.351ZM184.911 303.26V313.58H187.591V303.26H184.911ZM175.331 314.36V321.58H187.591V314.36H175.331ZM184.971 316.46V319.48H177.951V316.46H184.971ZM196.549 304.48C193.649 304.48 191.429 306.38 191.429 309.04C191.429 311.72 193.649 313.62 196.549 313.62C199.469 313.62 201.649 311.72 201.649 309.04C201.649 306.38 199.469 304.48 196.549 304.48ZM196.549 306.76C197.969 306.76 199.049 307.6 199.049 309.04C199.049 310.5 197.969 311.34 196.549 311.34C195.129 311.34 194.049 310.5 194.049 309.04C194.049 307.6 195.129 306.76 196.549 306.76ZM203.389 303.24V321.82H206.049V303.24H203.389ZM190.989 318.06C194.189 318.06 198.549 318.02 202.569 317.22L202.369 315.3C198.469 315.88 193.929 315.92 190.669 315.92L190.989 318.06ZM226.103 303.28V316.9H228.763V303.28H226.103ZM228.003 308.48V310.66H231.223V308.48H228.003ZM216.823 319.34V321.46H229.423V319.34H216.823ZM216.823 315.52V319.8H219.483V315.52H216.823ZM214.723 304.58V313.98H223.623V304.58H220.983V307.24H217.363V304.58H214.723ZM217.363 309.26H220.983V311.9H217.363V309.26ZM232.581 312.4V314.54H249.321V312.4H232.581ZM239.601 310.04V312.86H242.261V310.04H239.601ZM234.441 315.8V317.9H244.641V321.78H247.301V315.8H234.441ZM234.721 303.72V310.88H247.201V303.72H244.561V305.36H237.341V303.72H234.721ZM237.341 307.34H244.561V308.8H237.341V307.34Z" fill="#414141"/>
<circle cx="89.5" cy="312.5" r="11.5" fill="#414141"/>
<path d="M93.702 319H84.72V317.11L87.942 313.852C88.59 313.18 89.112 312.622 89.508 312.178C89.904 311.722 90.192 311.314 90.372 310.954C90.552 310.582 90.642 310.186 90.642 309.766C90.642 309.25 90.498 308.866 90.21 308.614C89.934 308.362 89.556 308.236 89.076 308.236C88.584 308.236 88.104 308.35 87.636 308.578C87.168 308.806 86.676 309.13 86.16 309.55L84.684 307.804C85.044 307.492 85.434 307.198 85.854 306.922C86.274 306.634 86.754 306.406 87.294 306.238C87.846 306.058 88.506 305.968 89.274 305.968C90.114 305.968 90.834 306.124 91.434 306.436C92.046 306.736 92.514 307.15 92.838 307.678C93.174 308.194 93.342 308.782 93.342 309.442C93.342 310.15 93.198 310.798 92.91 311.386C92.634 311.974 92.226 312.556 91.686 313.132C91.158 313.708 90.516 314.344 89.76 315.04L88.104 316.588V316.714H93.702V319Z" fill="white"/>
<rect x="78" y="331" width="314" height="50" rx="16" fill="#F2F2F2"/>
<rect x="78" y="331" width="31.4" height="50" rx="15.7" fill="#FFF059"/>
<path d="M155.184 354.416C156.08 354.416 156.757 354.731 157.216 355.36C157.685 355.979 157.92 356.853 157.92 357.984C157.92 359.115 157.701 360 157.264 360.64C156.827 361.269 156.133 361.584 155.184 361.584C154.299 361.584 153.627 361.269 153.168 360.64C152.72 360 152.496 359.115 152.496 357.984C152.496 356.853 152.709 355.979 153.136 355.36C153.563 354.731 154.245 354.416 155.184 354.416ZM163.296 354.576L156.96 366H155.088L161.424 354.576H163.296ZM155.2 356.048C154.709 356.048 154.464 356.699 154.464 358C154.464 359.312 154.709 359.968 155.2 359.968C155.701 359.968 155.952 359.312 155.952 358C155.952 356.699 155.701 356.048 155.2 356.048ZM163.184 358.976C164.08 358.976 164.757 359.291 165.216 359.92C165.685 360.539 165.92 361.413 165.92 362.544C165.92 363.675 165.701 364.56 165.264 365.2C164.827 365.829 164.133 366.144 163.184 366.144C162.299 366.144 161.627 365.829 161.168 365.2C160.72 364.56 160.496 363.675 160.496 362.544C160.496 361.413 160.709 360.539 161.136 359.92C161.563 359.291 162.245 358.976 163.184 358.976ZM163.2 360.608C162.709 360.608 162.464 361.259 162.464 362.56C162.464 363.872 162.709 364.528 163.2 364.528C163.701 364.528 163.952 363.872 163.952 362.56C163.952 361.259 163.701 360.608 163.2 360.608Z" fill="#B8B8B8"/>
<path d="M127.216 368H122.384V354.784C122.384 354.251 122.395 353.536 122.416 352.64C122.437 351.723 122.469 350.923 122.512 350.24C122.405 350.368 122.171 350.603 121.808 350.944C121.467 351.264 121.147 351.552 120.848 351.808L118.224 353.92L115.888 351.008L123.248 345.152H127.216V368ZM148.473 356.576C148.473 359.029 148.206 361.131 147.673 362.88C147.161 364.629 146.318 365.973 145.145 366.912C143.971 367.851 142.414 368.32 140.473 368.32C137.721 368.32 135.705 367.285 134.425 365.216C133.145 363.147 132.505 360.267 132.505 356.576C132.505 354.123 132.761 352.021 133.273 350.272C133.785 348.501 134.627 347.147 135.801 346.208C136.974 345.269 138.531 344.8 140.473 344.8C143.203 344.8 145.219 345.835 146.521 347.904C147.822 349.973 148.473 352.864 148.473 356.576ZM137.305 356.576C137.305 359.179 137.529 361.141 137.977 362.464C138.425 363.765 139.257 364.416 140.473 364.416C141.667 364.416 142.499 363.765 142.969 362.464C143.438 361.163 143.673 359.2 143.673 356.576C143.673 353.973 143.438 352.011 142.969 350.688C142.499 349.365 141.667 348.704 140.473 348.704C139.257 348.704 138.425 349.365 137.977 350.688C137.529 352.011 137.305 353.973 137.305 356.576Z" fill="#B8B8B8"/>
<path d="M123.72 405.26V418.64H126.38V405.26H123.72ZM125.62 410.3V412.48H128.84V410.3H125.62ZM112.5 413.48V415.62H114.04C118.16 415.62 120.28 415.52 122.54 415.02L122.28 412.92C120.06 413.4 118.06 413.48 114.04 413.48H112.5ZM112.5 406.72V414.62H115.14V408.86H120.78V406.72H112.5ZM114.44 421.34V423.46H127.04V421.34H114.44ZM114.44 417.24V422.42H117.1V417.24H114.44ZM135.278 406.54C132.498 406.54 130.498 409.1 130.498 413.14C130.498 417.22 132.498 419.78 135.278 419.78C138.038 419.78 140.058 417.22 140.058 413.14C140.058 409.1 138.038 406.54 135.278 406.54ZM135.278 408.96C136.638 408.96 137.518 410.42 137.518 413.14C137.518 415.9 136.638 417.38 135.278 417.38C133.938 417.38 133.038 415.9 133.038 413.14C133.038 410.42 133.938 408.96 135.278 408.96ZM143.098 405.24V423.82H145.738V405.24H143.098ZM139.278 411.92V414.06H144.218V411.92H139.278ZM166.512 405.26V414.62H169.192V405.26H166.512ZM156.832 415.44V417.46H166.552V418.54H156.872V422.32H159.472V420.46H169.192V415.44H156.832ZM156.872 421.6V423.66H169.652V421.6H156.872ZM158.132 405.68V407.08C158.132 409.34 156.812 411.66 153.712 412.6L154.992 414.7C158.612 413.6 160.332 410.5 160.332 407.08V405.68H158.132ZM158.672 405.68V407.08C158.672 410.42 160.332 413.32 163.892 414.36L165.172 412.3C162.152 411.44 160.852 409.28 160.852 407.08V405.68H158.672ZM172.891 414.08V416.2H174.311C177.851 416.2 179.751 416.14 181.911 415.74L181.651 413.64C179.551 414.02 177.751 414.08 174.311 414.08H172.891ZM172.871 406.32V408.42H178.371V410.18H172.891V415.48H175.531V412.16H181.011V406.32H172.871ZM185.031 405.28V416.68H187.691V405.28H185.031ZM182.071 407.82V409.94H185.511V407.82H182.071ZM182.071 411.76V413.88H185.511V411.76H182.071ZM175.011 417.52V419.64H185.031V423.8H187.691V417.52H175.011ZM195.784 415.92V418.02H212.564V415.92H195.784ZM202.784 416.98V423.78H205.424V416.98H202.784ZM197.704 405.96V414.16H210.584V405.96H207.944V408.06H200.344V405.96H197.704ZM200.344 410.14H207.944V412.04H200.344V410.14ZM220.723 406.96V407.42C220.723 408.9 218.943 410.56 214.883 410.96L215.823 413.02C220.583 412.56 223.083 410.24 223.083 407.42V406.96H220.723ZM222.023 406.96V407.42C222.023 410.26 224.543 412.56 229.283 413.02L230.223 410.96C226.163 410.58 224.383 408.92 224.383 407.42V406.96H222.023ZM215.703 405.94V408.04H229.423V405.94H215.703ZM214.183 414.26V416.38H230.943V414.26H214.183ZM221.203 411.88V415.2H223.843V411.88H221.203ZM216.043 417.72V419.82H226.243V423.78H228.903V417.72H216.043Z" fill="#414141"/>
<circle cx="89.5" cy="414.5" r="11.5" fill="#414141"/>
<path d="M93.198 411.028C93.198 411.916 92.928 412.624 92.388 413.152C91.86 413.68 91.206 414.04 90.426 414.232V414.286C91.446 414.418 92.226 414.736 92.766 415.24C93.306 415.744 93.576 416.416 93.576 417.256C93.576 418 93.39 418.672 93.018 419.272C92.658 419.86 92.094 420.328 91.326 420.676C90.57 421.012 89.592 421.18 88.392 421.18C87 421.18 85.764 420.946 84.684 420.478V418.174C85.236 418.45 85.812 418.66 86.412 418.804C87.012 418.948 87.576 419.02 88.104 419.02C89.076 419.02 89.754 418.852 90.138 418.516C90.534 418.18 90.732 417.706 90.732 417.094C90.732 416.746 90.642 416.446 90.462 416.194C90.282 415.942 89.964 415.756 89.508 415.636C89.064 415.504 88.44 415.438 87.636 415.438H86.664V413.35H87.654C88.446 413.35 89.046 413.278 89.454 413.134C89.874 412.978 90.156 412.774 90.3 412.522C90.456 412.258 90.534 411.958 90.534 411.622C90.534 411.166 90.39 410.812 90.102 410.56C89.826 410.296 89.358 410.164 88.698 410.164C88.086 410.164 87.552 410.272 87.096 410.488C86.64 410.704 86.262 410.908 85.962 411.1L84.702 409.228C85.206 408.868 85.794 408.568 86.466 408.328C87.15 408.088 87.96 407.968 88.896 407.968C90.216 407.968 91.26 408.238 92.028 408.778C92.808 409.306 93.198 410.056 93.198 411.028Z" fill="white"/>
<rect x="78" y="433" width="314" height="50" rx="16" fill="#F2F2F2"/>
<rect x="78" y="433" width="15.7" height="50" rx="7.85" fill="#FFF059"/>
<path d="M123.184 456.416C124.08 456.416 124.757 456.731 125.216 457.36C125.685 457.979 125.92 458.853 125.92 459.984C125.92 461.115 125.701 462 125.264 462.64C124.827 463.269 124.133 463.584 123.184 463.584C122.299 463.584 121.627 463.269 121.168 462.64C120.72 462 120.496 461.115 120.496 459.984C120.496 458.853 120.709 457.979 121.136 457.36C121.563 456.731 122.245 456.416 123.184 456.416ZM131.296 456.576L124.96 468H123.088L129.424 456.576H131.296ZM123.2 458.048C122.709 458.048 122.464 458.699 122.464 460C122.464 461.312 122.709 461.968 123.2 461.968C123.701 461.968 123.952 461.312 123.952 460C123.952 458.699 123.701 458.048 123.2 458.048ZM131.184 460.976C132.08 460.976 132.757 461.291 133.216 461.92C133.685 462.539 133.92 463.413 133.92 464.544C133.92 465.675 133.701 466.56 133.264 467.2C132.827 467.829 132.133 468.144 131.184 468.144C130.299 468.144 129.627 467.829 129.168 467.2C128.72 466.56 128.496 465.675 128.496 464.544C128.496 463.413 128.709 462.539 129.136 461.92C129.563 461.291 130.245 460.976 131.184 460.976ZM131.2 462.608C130.709 462.608 130.464 463.259 130.464 464.56C130.464 465.872 130.709 466.528 131.2 466.528C131.701 466.528 131.952 465.872 131.952 464.56C131.952 463.259 131.701 462.608 131.2 462.608Z" fill="#B8B8B8"/>
<path d="M108.6 455.408C109.987 455.408 111.224 455.675 112.312 456.208C113.4 456.741 114.253 457.52 114.872 458.544C115.512 459.568 115.832 460.837 115.832 462.352C115.832 464.827 115.064 466.779 113.528 468.208C111.992 469.616 109.72 470.32 106.712 470.32C105.517 470.32 104.387 470.213 103.32 470C102.275 469.787 101.357 469.477 100.568 469.072V464.912C101.357 465.317 102.307 465.669 103.416 465.968C104.525 466.245 105.571 466.384 106.552 466.384C107.981 466.384 109.069 466.096 109.816 465.52C110.584 464.923 110.968 464.005 110.968 462.768C110.968 460.464 109.443 459.312 106.392 459.312C105.795 459.312 105.176 459.376 104.536 459.504C103.896 459.611 103.363 459.717 102.936 459.824L101.016 458.8L101.88 447.152H114.264V451.248H106.104L105.688 455.728C106.051 455.664 106.435 455.6 106.84 455.536C107.267 455.451 107.853 455.408 108.6 455.408Z" fill="#B8B8B8"/>
</svg>
