<svg width="887" height="393" viewBox="0 0 887 393" fill="none" xmlns="http://www.w3.org/2000/svg">
<g filter="url(#filter0_d_486_10259)">
<rect x="20" y="52" width="424" height="105" rx="30" fill="#FAFAFA"/>
</g>
<path d="M158.401 93.55V111.178H160.559V93.55H158.401ZM159.883 101.246V103.066H164.043V101.246H159.883ZM142.385 96.384V98.126H156.269V96.384H142.385ZM149.327 99.426C145.973 99.426 143.685 101.168 143.685 103.82C143.685 106.446 145.973 108.188 149.327 108.188C152.655 108.188 154.943 106.446 154.943 103.82C154.943 101.168 152.655 99.426 149.327 99.426ZM149.327 101.116C151.433 101.116 152.889 102.182 152.889 103.82C152.889 105.432 151.433 106.498 149.327 106.498C147.195 106.498 145.739 105.432 145.739 103.82C145.739 102.182 147.195 101.116 149.327 101.116ZM148.235 93.524V97.294H150.393V93.524H148.235ZM145.921 114.74V116.508H161.625V114.74H145.921ZM145.921 109.774V115.494H148.079V109.774H145.921ZM168.955 94.616V96.384H184.087V94.616H168.955ZM166.251 103.04V104.808H187.545V103.04H166.251ZM175.793 104.236V109.774H177.925V104.236H175.793ZM182.683 94.616V96.358C182.683 98.256 182.683 100.492 181.903 103.638L184.009 103.898C184.789 100.674 184.789 98.308 184.789 96.358V94.616H182.683ZM168.461 109.072V110.84H182.787V117.028H184.945V109.072H168.461ZM196.279 94.642V96.93C196.279 100.44 193.913 103.69 190.351 104.99L191.443 106.706C195.421 105.198 198.073 101.376 198.073 96.93V94.642H196.279ZM196.669 94.642V96.93C196.669 101.246 199.321 104.834 203.247 106.264L204.339 104.574C200.855 103.352 198.437 100.31 198.437 96.93V94.642H196.669ZM193.731 108.864V110.632H207.251V117.028H209.435V108.864H193.731ZM207.251 93.524V107.668H209.435V93.524H207.251ZM220.815 105.536V107.304H242.109V105.536H220.815ZM230.539 106.628V112.036H232.697V106.628H230.539ZM223.545 94.616V102.884H239.353V94.616H223.545ZM237.221 96.358V101.142H225.651V96.358H237.221ZM223.519 114.74V116.508H239.743V114.74H223.519ZM223.519 109.774V115.364H225.651V109.774H223.519ZM245.903 94.72V105.484H256.511V94.72H254.405V98.334H248.035V94.72H245.903ZM248.035 100.024H254.405V103.716H248.035V100.024ZM255.913 99.296V101.064H262.569V99.296H255.913ZM261.919 93.524V106.368H264.077V93.524H261.919ZM249.023 107.512V116.716H264.077V107.512H261.945V110.346H251.155V107.512H249.023ZM251.155 112.062H261.945V114.948H251.155V112.062ZM277.667 95.864V97.658H292.799V95.864H277.667ZM275.431 111.958V113.752H296.673V111.958H275.431ZM283.673 103.56V112.842H285.831V103.56H283.673ZM291.993 95.864V98.204C291.993 101.012 291.993 104.314 291.109 108.812L293.267 109.098C294.125 104.34 294.125 101.116 294.125 98.204V95.864H291.993ZM300.571 95.552V106.498H311.517V95.552H300.571ZM309.437 97.294V104.756H302.651V97.294H309.437ZM316.431 93.55V110.424H318.615V93.55H316.431ZM303.509 114.48V116.274H319.317V114.48H303.509ZM303.509 108.812V115.208H305.641V108.812H303.509Z" fill="#090A0A"/>
<g filter="url(#filter1_d_486_10259)">
<rect x="336" y="133" width="531" height="105" rx="30" fill="#FAFAFA"/>
</g>
<path d="M483.051 176.136V177.93C483.051 181.934 478.631 185.522 474.497 186.302L475.459 188.096C480.165 187.03 484.923 183.052 484.923 177.93V176.136H483.051ZM483.441 176.136V177.93C483.441 183.078 488.225 187.03 492.905 188.096L493.867 186.302C489.759 185.522 485.313 181.96 485.313 177.93V176.136H483.441ZM473.639 193.088V194.856H494.933V193.088H473.639ZM514.665 174.524V198.028H516.823V174.524H514.665ZM498.129 177.046V178.814H511.441V177.046H498.129ZM497.765 192.23C502.055 192.204 507.697 192.126 512.767 191.32L512.637 189.734C507.645 190.332 501.873 190.384 497.505 190.384L497.765 192.23ZM500.729 178.372V190.878H502.809V178.372H500.729ZM506.735 178.372V190.878H508.841V178.372H506.735ZM531.615 176.136V176.968C531.615 181.544 528.807 185.106 522.125 187.03L522.957 188.772C530.471 186.562 533.851 182.194 533.851 176.136H531.615ZM523.139 176.136V177.878H532.785V176.136H523.139ZM531.329 180.452L521.969 180.894L522.333 182.662L531.329 181.986V180.452ZM538.557 174.55V188.668H540.741V174.55H538.557ZM532.967 189.006C528.105 189.006 525.089 190.67 525.089 193.504C525.089 196.338 528.105 198.002 532.967 198.002C537.829 198.002 540.871 196.338 540.871 193.504C540.871 190.67 537.829 189.006 532.967 189.006ZM532.967 190.722C536.529 190.722 538.713 191.736 538.713 193.504C538.713 195.246 536.529 196.286 532.967 196.286C529.405 196.286 527.221 195.246 527.221 193.504C527.221 191.736 529.405 190.722 532.967 190.722ZM558.335 176.552V180.764C558.335 185.21 555.501 189.708 552.017 191.372L553.343 193.14C557.191 191.19 560.103 186.172 560.103 180.764V176.552H558.335ZM558.699 176.552V180.764C558.699 185.99 561.637 190.826 565.459 192.698L566.759 190.982C563.275 189.37 560.467 185.054 560.467 180.764V176.552H558.699ZM569.203 174.498V198.054H571.361V174.498H569.203ZM592.133 174.524V191.71H594.291V174.524H592.133ZM593.615 181.648V183.442H597.775V181.648H593.615ZM585.711 176.344V177.28C585.711 181.804 581.993 185.444 576.065 187.264L577.001 189.032C583.735 186.874 587.999 182.428 587.999 176.344H585.711ZM577.027 176.344V178.112H586.803V176.344H577.027ZM579.627 195.74V197.508H595.331V195.74H579.627ZM579.627 189.968V196.442H581.785V189.968H579.627ZM617.039 174.498V198.054H619.197V174.498H617.039ZM606.795 176.318C603.337 176.318 600.841 179.516 600.841 184.508C600.841 189.526 603.337 192.724 606.795 192.724C610.279 192.724 612.775 189.526 612.775 184.508C612.775 179.516 610.279 176.318 606.795 176.318ZM606.795 178.268C609.109 178.268 610.695 180.712 610.695 184.508C610.695 188.33 609.109 190.826 606.795 190.826C604.507 190.826 602.895 188.33 602.895 184.508C602.895 180.712 604.507 178.268 606.795 178.268ZM640.171 187.81V193.66H642.329V187.81H640.171ZM641.263 176.058C636.297 176.058 632.709 178.476 632.709 182.22C632.709 185.964 636.297 188.382 641.263 188.382C646.229 188.382 649.791 185.964 649.791 182.22C649.791 178.476 646.229 176.058 641.263 176.058ZM641.263 177.774C644.981 177.774 647.711 179.542 647.711 182.22C647.711 184.898 644.981 186.666 641.263 186.666C637.519 186.666 634.789 184.898 634.789 182.22C634.789 179.542 637.519 177.774 641.263 177.774ZM630.655 193.244V195.038H651.949V193.244H630.655ZM655.327 190.618V192.412H656.887C659.799 192.412 662.451 192.334 665.701 191.762L665.519 189.968C662.347 190.514 659.747 190.618 656.887 190.618H655.327ZM655.275 177.072V178.84H661.983V183.572H655.327V191.294H657.433V185.34H664.089V177.072H655.275ZM672.435 174.524V198.028H674.515V174.524H672.435ZM668.457 183.806V185.574H672.981V183.806H668.457ZM667.105 175.044V196.832H669.133V175.044H667.105ZM702.405 174.524V186.562H704.563V174.524H702.405ZM697.309 180.166V181.908H702.743V180.166H697.309ZM694.865 175.668V176.63C694.865 180.764 691.537 183.858 685.583 185.314L686.337 187.056C693.071 185.34 697.127 181.518 697.127 175.668H694.865ZM686.831 175.668V177.41H696.607V175.668H686.831ZM689.431 187.576V189.318H702.431V191.71H689.509V197.092H691.641V193.374H704.563V187.576H689.431ZM689.509 196.078V197.794H705.343V196.078H689.509ZM726.245 174.524V188.46H728.429V174.524H726.245ZM710.359 185.574V187.368H712.257C716.625 187.368 719.797 187.238 723.671 186.588L723.437 184.846C719.667 185.444 716.521 185.574 712.257 185.574H710.359ZM710.307 175.928V177.696H718.861V180.686H710.359V186.64H712.465V182.35H720.967V175.928H710.307ZM713.245 189.76V197.716H728.429V189.76H713.245ZM726.297 191.476V195.974H715.351V191.476H726.297Z" fill="#090A0A"/>
<g filter="url(#filter2_d_486_10259)">
<rect x="127" y="268" width="406" height="105" rx="30" fill="#FAFAFA"/>
</g>
<path d="M247.236 309.524V333.028H249.316V309.524H247.236ZM243.258 318.936V320.73H247.782V318.936H243.258ZM241.906 310.044V331.832H243.934V310.044H241.906ZM230.206 325.436V327.23H231.74C235.276 327.23 237.642 327.126 240.45 326.528L240.242 324.734C237.512 325.306 235.172 325.436 231.74 325.436H230.206ZM230.206 312.384V326.242H232.338V314.152H238.942V312.384H230.206ZM259.376 323.538V327.36H261.534V323.538H259.376ZM269.256 309.524V333.028H271.414V309.524H269.256ZM270.712 319.508V321.328H275.054V319.508H270.712ZM253.318 328.556C257.426 328.556 262.938 328.53 268.008 327.62L267.826 326.008C262.964 326.71 257.218 326.762 253.006 326.762L253.318 328.556ZM253.396 312.358V314.1H267.462V312.358H253.396ZM260.442 315.478C257.166 315.478 254.93 317.194 254.93 319.82C254.93 322.472 257.166 324.162 260.442 324.162C263.718 324.162 265.98 322.472 265.98 319.82C265.98 317.194 263.718 315.478 260.442 315.478ZM260.442 317.142C262.548 317.142 263.952 318.208 263.952 319.82C263.952 321.432 262.548 322.498 260.442 322.498C258.336 322.498 256.958 321.432 256.958 319.82C256.958 318.208 258.336 317.142 260.442 317.142ZM259.376 309.55V313.528H261.534V309.55H259.376ZM284.828 311.214C281.162 311.214 278.51 313.476 278.51 316.752C278.51 320.054 281.162 322.316 284.828 322.316C288.494 322.316 291.12 320.054 291.12 316.752C291.12 313.476 288.494 311.214 284.828 311.214ZM284.828 313.086C287.246 313.086 289.014 314.568 289.014 316.752C289.014 318.936 287.246 320.444 284.828 320.444C282.384 320.444 280.616 318.936 280.616 316.752C280.616 314.568 282.384 313.086 284.828 313.086ZM294.188 309.498V333.054H296.346V309.498H294.188ZM277.626 327.906C281.812 327.906 287.558 327.88 292.836 326.866L292.654 325.28C287.532 326.086 281.604 326.112 277.314 326.112L277.626 327.906ZM308.922 313.112V314.906H328.006V313.112H308.922ZM307.882 328.4V330.194H329.176V328.4H307.882ZM318.464 316.414C313.758 316.414 310.794 318.156 310.794 321.068C310.794 323.98 313.758 325.696 318.464 325.696C323.196 325.696 326.16 323.98 326.16 321.068C326.16 318.156 323.196 316.414 318.464 316.414ZM318.464 318.182C321.87 318.182 324.002 319.274 324.002 321.068C324.002 322.862 321.87 323.954 318.464 323.954C315.084 323.954 312.952 322.862 312.952 321.068C312.952 319.274 315.084 318.182 318.464 318.182ZM317.424 309.94V314.126H319.556V309.94H317.424ZM331.774 321.64V323.408H353.094V321.64H331.774ZM334.478 310.096V311.786H348.232V314.074H334.53V318.78H336.662V315.66H350.338V310.096H334.478ZM334.53 317.948V319.638H350.858V317.948H334.53ZM334.634 325.54V332.716H350.364V325.54H334.634ZM348.258 327.256V330.974H336.74V327.256H348.258ZM372.774 309.498V333.054H374.932V309.498H372.774ZM362.53 311.318C359.072 311.318 356.576 314.516 356.576 319.508C356.576 324.526 359.072 327.724 362.53 327.724C366.014 327.724 368.51 324.526 368.51 319.508C368.51 314.516 366.014 311.318 362.53 311.318ZM362.53 313.268C364.844 313.268 366.43 315.712 366.43 319.508C366.43 323.33 364.844 325.826 362.53 325.826C360.242 325.826 358.63 323.33 358.63 319.508C358.63 315.712 360.242 313.268 362.53 313.268ZM386.364 318.988V320.73H407.684V318.988H386.364ZM388.34 310.59V312.384H394.58V310.59H388.34ZM393.852 310.59V311.474C393.852 312.982 393.852 315.582 392.786 319.43L394.892 319.846C395.958 315.894 395.958 312.982 395.958 311.474V310.59H393.852ZM397.57 310.59V312.384H403.888V310.59H397.57ZM402.978 310.59V311.604C402.978 313.19 402.978 315.764 402.016 319.56L404.096 319.924C405.058 316.024 405.058 313.242 405.058 311.604V310.59H402.978ZM395.646 323.98V325.618H406.254V323.98H395.646ZM401.002 326.632C398.61 326.632 396.894 327.854 396.894 329.804C396.894 331.78 398.61 333.002 401.002 333.002C403.42 333.002 405.136 331.78 405.136 329.804C405.136 327.854 403.42 326.632 401.002 326.632ZM401.002 328.14C402.354 328.14 403.264 328.764 403.264 329.804C403.264 330.87 402.354 331.494 401.002 331.494C399.65 331.494 398.74 330.87 398.74 329.804C398.74 328.764 399.65 328.14 401.002 328.14ZM399.962 321.978V325.176H402.068V321.978H399.962ZM388.86 330.636V332.404H390.03C391.616 332.404 393.748 332.326 396.218 331.676L395.932 329.908C393.618 330.532 391.434 330.636 390.03 330.636H388.86ZM388.86 323.772V331.286H390.966V323.772H388.86ZM420.344 311.032V311.994C420.344 316.336 416.678 319.742 410.568 321.354L411.4 323.07C418.316 321.224 422.606 317.012 422.606 311.032H420.344ZM411.79 311.032V312.774H421.592V311.032H411.79ZM427.39 309.524V322.784H429.574V309.524H427.39ZM414.364 323.928V332.716H429.574V323.928H414.364ZM427.442 325.67V330.948H416.496V325.67H427.442Z" fill="#090A0A"/>
<rect x="388" width="98" height="37" rx="10" fill="#FAFAFA"/>
<path d="M404.993 12.148C406.649 12.148 407.855 12.508 408.611 13.228C409.379 13.936 409.763 14.914 409.763 16.162C409.763 16.918 409.607 17.62 409.295 18.268C408.983 18.916 408.461 19.438 407.729 19.834C407.009 20.23 406.025 20.428 404.777 20.428H403.607V25H400.889V12.148H404.993ZM404.849 14.38H403.607V18.196H404.507C405.275 18.196 405.881 18.046 406.325 17.746C406.781 17.434 407.009 16.936 407.009 16.252C407.009 15.004 406.289 14.38 404.849 14.38ZM417.465 14.992C417.597 14.992 417.753 14.998 417.933 15.01C418.113 15.022 418.257 15.04 418.365 15.064L418.167 17.584C418.071 17.56 417.945 17.542 417.789 17.53C417.633 17.506 417.495 17.494 417.375 17.494C416.919 17.494 416.481 17.578 416.061 17.746C415.641 17.902 415.299 18.16 415.035 18.52C414.783 18.88 414.657 19.372 414.657 19.996V25H411.975V15.172H414.009L414.405 16.828H414.531C414.819 16.324 415.215 15.892 415.719 15.532C416.223 15.172 416.805 14.992 417.465 14.992ZM428.726 20.068C428.726 21.7 428.294 22.96 427.43 23.848C426.578 24.736 425.414 25.18 423.938 25.18C423.026 25.18 422.21 24.982 421.49 24.586C420.782 24.19 420.224 23.614 419.816 22.858C419.408 22.09 419.204 21.16 419.204 20.068C419.204 18.436 419.63 17.182 420.482 16.306C421.334 15.43 422.504 14.992 423.992 14.992C424.916 14.992 425.732 15.19 426.44 15.586C427.148 15.982 427.706 16.558 428.114 17.314C428.522 18.07 428.726 18.988 428.726 20.068ZM421.94 20.068C421.94 21.04 422.096 21.778 422.408 22.282C422.732 22.774 423.254 23.02 423.974 23.02C424.682 23.02 425.192 22.774 425.504 22.282C425.828 21.778 425.99 21.04 425.99 20.068C425.99 19.096 425.828 18.37 425.504 17.89C425.192 17.398 424.676 17.152 423.956 17.152C423.248 17.152 422.732 17.398 422.408 17.89C422.096 18.37 421.94 19.096 421.94 20.068ZM433.624 11.32V14.506C433.624 14.878 433.612 15.244 433.588 15.604C433.564 15.964 433.54 16.246 433.516 16.45H433.624C433.888 16.042 434.242 15.7 434.686 15.424C435.13 15.136 435.706 14.992 436.414 14.992C437.518 14.992 438.412 15.424 439.096 16.288C439.78 17.14 440.122 18.4 440.122 20.068C440.122 21.748 439.774 23.02 439.078 23.884C438.382 24.748 437.47 25.18 436.342 25.18C435.622 25.18 435.052 25.054 434.632 24.802C434.224 24.538 433.888 24.244 433.624 23.92H433.444L432.994 25H430.942V11.32H433.624ZM435.55 17.134C434.854 17.134 434.362 17.356 434.074 17.8C433.786 18.232 433.636 18.886 433.624 19.762V20.05C433.624 20.998 433.762 21.73 434.038 22.246C434.326 22.75 434.842 23.002 435.586 23.002C436.138 23.002 436.576 22.75 436.9 22.246C437.224 21.73 437.386 20.992 437.386 20.032C437.386 19.072 437.218 18.352 436.882 17.872C436.558 17.38 436.114 17.134 435.55 17.134ZM445.015 25H442.333V11.32H445.015V25ZM451.867 14.992C453.223 14.992 454.297 15.382 455.089 16.162C455.881 16.93 456.277 18.028 456.277 19.456V20.752H449.941C449.965 21.508 450.187 22.102 450.607 22.534C451.039 22.966 451.633 23.182 452.389 23.182C453.013 23.182 453.583 23.122 454.099 23.002C454.627 22.87 455.167 22.672 455.719 22.408V24.478C455.227 24.718 454.717 24.892 454.189 25C453.661 25.12 453.019 25.18 452.263 25.18C451.279 25.18 450.409 25 449.653 24.64C448.897 24.268 448.303 23.716 447.871 22.984C447.439 22.24 447.223 21.298 447.223 20.158C447.223 19.018 447.415 18.064 447.799 17.296C448.195 16.528 448.741 15.952 449.437 15.568C450.133 15.184 450.943 14.992 451.867 14.992ZM451.885 16.9C451.357 16.9 450.925 17.068 450.589 17.404C450.253 17.74 450.055 18.262 449.995 18.97H453.757C453.745 18.382 453.583 17.89 453.271 17.494C452.971 17.098 452.509 16.9 451.885 16.9ZM469.99 14.992C471.106 14.992 471.946 15.28 472.51 15.856C473.086 16.42 473.374 17.332 473.374 18.592V25H470.692V19.258C470.692 17.842 470.2 17.134 469.216 17.134C468.508 17.134 468.004 17.386 467.704 17.89C467.404 18.394 467.254 19.12 467.254 20.068V25H464.572V19.258C464.572 17.842 464.08 17.134 463.096 17.134C462.352 17.134 461.836 17.416 461.548 17.98C461.272 18.532 461.134 19.33 461.134 20.374V25H458.452V15.172H460.504L460.864 16.432H461.008C461.308 15.928 461.716 15.562 462.232 15.334C462.76 15.106 463.306 14.992 463.87 14.992C464.59 14.992 465.196 15.112 465.688 15.352C466.192 15.58 466.582 15.94 466.858 16.432H467.092C467.392 15.928 467.806 15.562 468.334 15.334C468.874 15.106 469.426 14.992 469.99 14.992Z" fill="#090A0A"/>
<path d="M426.375 113.548C425.574 112.788 424.308 112.823 423.548 113.625C422.788 114.426 422.823 115.692 423.625 116.452L426.375 113.548ZM463.054 152.999C464.158 152.969 465.029 152.05 464.999 150.946L464.513 132.953C464.483 131.848 463.564 130.977 462.46 131.007C461.355 131.037 460.485 131.956 460.514 133.061L460.947 149.055L444.953 149.487C443.848 149.517 442.977 150.436 443.007 151.54C443.037 152.645 443.956 153.515 445.061 153.486L463.054 152.999ZM423.625 116.452L461.625 152.452L464.375 149.548L426.375 113.548L423.625 116.452Z" fill="#DE006B"/>
<path d="M389.162 228.627C390.061 227.985 390.269 226.736 389.627 225.838C388.985 224.939 387.736 224.731 386.838 225.373L389.162 228.627ZM316.027 276.671C315.846 277.761 316.582 278.791 317.671 278.973L335.426 281.932C336.516 282.114 337.546 281.378 337.728 280.288C337.909 279.198 337.173 278.168 336.084 277.986L320.302 275.356L322.932 259.574C323.114 258.484 322.378 257.454 321.288 257.272C320.198 257.091 319.168 257.827 318.986 258.916L316.027 276.671ZM386.838 225.373L316.838 275.373L319.162 278.627L389.162 228.627L386.838 225.373Z" fill="#DE006B"/>
<defs>
<filter id="filter0_d_486_10259" x="0" y="32" width="464" height="145" filterUnits="userSpaceOnUse" color-interpolation-filters="sRGB">
<feFlood flood-opacity="0" result="BackgroundImageFix"/>
<feColorMatrix in="SourceAlpha" type="matrix" values="0 0 0 0 0 0 0 0 0 0 0 0 0 0 0 0 0 0 127 0" result="hardAlpha"/>
<feOffset/>
<feGaussianBlur stdDeviation="10"/>
<feComposite in2="hardAlpha" operator="out"/>
<feColorMatrix type="matrix" values="0 0 0 0 0 0 0 0 0 0 0 0 0 0 0 0 0 0 0.08 0"/>
<feBlend mode="normal" in2="BackgroundImageFix" result="effect1_dropShadow_486_10259"/>
<feBlend mode="normal" in="SourceGraphic" in2="effect1_dropShadow_486_10259" result="shape"/>
</filter>
<filter id="filter1_d_486_10259" x="316" y="113" width="571" height="145" filterUnits="userSpaceOnUse" color-interpolation-filters="sRGB">
<feFlood flood-opacity="0" result="BackgroundImageFix"/>
<feColorMatrix in="SourceAlpha" type="matrix" values="0 0 0 0 0 0 0 0 0 0 0 0 0 0 0 0 0 0 127 0" result="hardAlpha"/>
<feOffset/>
<feGaussianBlur stdDeviation="10"/>
<feComposite in2="hardAlpha" operator="out"/>
<feColorMatrix type="matrix" values="0 0 0 0 0 0 0 0 0 0 0 0 0 0 0 0 0 0 0.08 0"/>
<feBlend mode="normal" in2="BackgroundImageFix" result="effect1_dropShadow_486_10259"/>
<feBlend mode="normal" in="SourceGraphic" in2="effect1_dropShadow_486_10259" result="shape"/>
</filter>
<filter id="filter2_d_486_10259" x="107" y="248" width="446" height="145" filterUnits="userSpaceOnUse" color-interpolation-filters="sRGB">
<feFlood flood-opacity="0" result="BackgroundImageFix"/>
<feColorMatrix in="SourceAlpha" type="matrix" values="0 0 0 0 0 0 0 0 0 0 0 0 0 0 0 0 0 0 127 0" result="hardAlpha"/>
<feOffset/>
<feGaussianBlur stdDeviation="10"/>
<feComposite in2="hardAlpha" operator="out"/>
<feColorMatrix type="matrix" values="0 0 0 0 0 0 0 0 0 0 0 0 0 0 0 0 0 0 0.08 0"/>
<feBlend mode="normal" in2="BackgroundImageFix" result="effect1_dropShadow_486_10259"/>
<feBlend mode="normal" in="SourceGraphic" in2="effect1_dropShadow_486_10259" result="shape"/>
</filter>
</defs>
</svg>
