<svg width="167" height="196" viewBox="0 0 167 196" fill="none" xmlns="http://www.w3.org/2000/svg">
<path d="M157.964 49.3276C159.181 50.452 161.079 50.377 162.203 49.16C163.328 47.9431 163.253 46.0451 162.036 44.9207L157.964 49.3276ZM98.0785 18.0174L98.5326 15.0519L98.0785 18.0174ZM27.5247 52.7339L24.6348 51.9286L27.5247 52.7339ZM46.6663 112.497L46.9652 109.512L46.6663 112.497ZM59.3046 90.7266L57.1553 92.8195L59.3046 90.7266ZM19.6718 78.626L18.1058 76.0671L19.6718 78.626ZM8.01507 119.842L5.0707 120.417L8.01507 119.842ZM73.0284 175.624C74.4778 174.822 75.002 172.996 74.1992 171.546L61.117 147.927C60.3142 146.478 58.4884 145.954 57.0391 146.757C55.5897 147.559 55.0655 149.385 55.8683 150.835L67.4969 171.829L46.5023 183.458C45.0529 184.261 44.5287 186.086 45.3315 187.536C46.1343 188.985 47.9601 189.509 49.4094 188.707L73.0284 175.624ZM162.036 44.9207C154.128 37.6142 146.817 31.3995 137.136 26.391C127.453 21.3809 115.566 17.66 98.5326 15.0519L97.6245 20.9828C114.227 23.5249 125.441 27.0953 134.379 31.72C143.321 36.3463 150.153 42.1099 157.964 49.3276L162.036 44.9207ZM98.5326 15.0519C82.8179 12.6457 66.536 14.3467 53.078 20.3758C39.5777 26.4239 28.8252 36.8905 24.6348 51.9286L30.4146 53.5392C34.0357 40.5443 43.3249 31.3198 55.5311 25.8515C67.7795 20.3642 82.8687 18.7234 97.6245 20.9828L98.5326 15.0519ZM24.6348 51.9286C21.9401 61.5992 18.3999 76.2346 19.8534 88.9895C20.586 95.4179 22.613 101.632 26.8995 106.488C31.2342 111.399 37.5995 114.604 46.3673 115.482L46.9652 109.512C39.4152 108.756 34.5546 106.094 31.3978 102.517C28.1928 98.8865 26.4626 93.9939 25.8149 88.3101C24.5078 76.8405 27.7147 63.2285 30.4146 53.5392L24.6348 51.9286ZM46.3673 115.482C55.1883 116.366 62.0969 113.068 65.1832 107.308C68.2804 101.528 66.9662 94.2943 61.4539 88.6336L57.1553 92.8195C61.204 96.9772 61.5281 101.426 59.8945 104.475C58.2502 107.544 54.0591 110.222 46.9652 109.512L46.3673 115.482ZM61.4539 88.6336C57.4823 84.5551 50.2138 79.468 42.3562 76.3195C34.6371 73.2263 25.3659 71.6242 18.1058 76.0671L21.2377 81.1849C25.9718 78.2877 32.8561 78.9765 40.1245 81.889C47.2544 84.746 53.8052 89.3792 57.1553 92.8195L61.4539 88.6336ZM18.1058 76.0671C10.605 80.6574 6.80823 88.8516 5.13827 97.0279C3.45934 105.248 3.81116 113.968 5.0707 120.417L10.9594 119.267C9.83035 113.486 9.51706 105.572 11.0169 98.2286C12.5257 90.8412 15.7516 84.5422 21.2377 81.1849L18.1058 76.0671ZM5.0707 120.417C7.77435 134.259 17.5318 146.181 29.7093 155.517C41.9281 164.885 56.9139 171.912 70.747 175.884L72.4027 170.116C59.1944 166.324 44.9072 159.608 33.3599 150.755C21.7714 141.871 13.2696 131.095 10.9594 119.267L5.0707 120.417Z" fill="#DE006B"/>
</svg>
