<svg width="592" height="633" viewBox="0 0 592 633" fill="none" xmlns="http://www.w3.org/2000/svg">
<path d="M75.7038 3C51.9339 29.7217 34.0751 57.7955 22.3153 94.2182C7.5227 140.034 7.92258 196.695 13.8101 244.681C19.83 293.747 42.8111 339.545 72.937 374.103C99.6619 404.76 138.045 419.542 174.283 428.293C208.756 436.618 243.899 439.644 278.6 446.278C319.481 454.094 361.377 467.924 399.928 485.422C445.762 506.226 488.633 538.26 527.302 573.114C538.748 583.43 549.706 594.741 560.811 605.557C565.01 609.647 568.941 615.98 573.723 618.723" stroke="#DE006B" stroke-width="6" stroke-linecap="round"/>
<ellipse cx="9.99529" cy="9.99529" rx="9.99529" ry="9.99529" transform="matrix(0.706348 -0.707864 0.707835 0.706378 559.729 618.879)" fill="#DE006B"/>
</svg>
