<svg width="566" height="196" viewBox="0 0 566 196" fill="none" xmlns="http://www.w3.org/2000/svg">
<g filter="url(#filter0_d_486_10251)">
<rect x="20" y="16" width="526" height="156" rx="12" fill="white"/>
</g>
<path d="M131.16 58.6808V61.2248H151.272V58.6808H131.16ZM139.872 60.2888V64.9688H143.088V60.2888H139.872ZM133.632 48.6488V56.9048H148.728V48.6488H133.632ZM145.584 51.1448V54.4088H136.752V51.1448H145.584ZM133.488 67.0088V69.5528H149.064V67.0088H133.488ZM133.488 63.0968V67.8488H136.656V63.0968H133.488ZM154.174 48.8408V59.2328H164.686V48.8408H161.566V51.6488H157.342V48.8408H154.174ZM157.342 54.0728H161.566V56.6888H157.342V54.0728ZM163.966 52.7768V55.3448H169.366V52.7768H163.966ZM168.646 47.7128V59.8808H171.838V47.7128H168.646ZM157.078 60.8168V69.6728H171.838V60.8168H168.67V62.8088H160.246V60.8168H157.078ZM160.246 65.2568H168.67V67.1288H160.246V65.2568ZM180.452 49.9208V51.3368C180.452 54.1208 178.868 57.0488 175.196 58.2488L176.804 60.7688C181.076 59.3768 183.044 55.5128 183.044 51.3368V49.9208H180.452ZM181.124 49.9208V51.3368C181.124 55.2728 183.02 58.9688 187.148 60.3368L188.708 57.8408C185.204 56.6648 183.692 53.9288 183.692 51.3368V49.9208H181.124ZM187.412 53.0168V55.6088H191.636V53.0168H187.412ZM176.06 48.9368V51.4568H188.012V48.9368H176.06ZM178.772 61.9448V64.4888H190.724V69.9368H193.916V61.9448H178.772ZM190.724 47.7128V60.9368H193.916V47.7128H190.724ZM207.451 48.8168C202.771 48.8168 199.147 51.3848 199.147 55.2488C199.147 59.1368 202.771 61.6808 207.451 61.6808C212.131 61.6808 215.755 59.1368 215.755 55.2488C215.755 51.3848 212.131 48.8168 207.451 48.8168ZM207.451 51.4088C210.475 51.4088 212.635 52.8488 212.635 55.2488C212.635 57.6248 210.475 59.0648 207.451 59.0648C204.427 59.0648 202.267 57.6248 202.267 55.2488C202.267 52.8488 204.427 51.4088 207.451 51.4088ZM197.419 64.6568V67.2728H217.531V64.6568H197.419ZM219.497 64.8968V67.4888H239.609V64.8968H219.497ZM227.921 60.6968V65.9528H231.113V60.6968H227.921ZM221.753 49.1528V51.6728H234.185V54.0488H221.801V60.2888H224.969V56.5448H237.353V49.1528H221.753ZM221.801 59.0168V61.5848H237.857V59.0168H221.801ZM262.089 47.7128V58.8008H265.281V47.7128H262.089ZM263.985 51.9608V54.5768H268.209V51.9608H263.985ZM248.433 48.7448V57.9848H259.017V48.7448H248.433ZM255.873 51.2408V55.4888H251.577V51.2408H255.873ZM250.593 59.6888V62.1368H262.137V63.4808H250.641V68.4248H253.809V65.7848H265.281V59.6888H250.593ZM250.641 67.2008V69.6968H265.929V67.2008H250.641ZM284.119 47.7128V69.9368H287.287V47.7128H284.119ZM286.567 56.3768V59.0408H290.503V56.3768H286.567ZM269.767 51.0008V53.5448H282.703V51.0008H269.767ZM276.271 54.7928C273.031 54.7928 270.631 57.0008 270.631 60.0968C270.631 63.1928 273.031 65.4008 276.271 65.4008C279.511 65.4008 281.911 63.1928 281.911 60.0968C281.911 57.0008 279.511 54.7928 276.271 54.7928ZM276.271 57.3848C277.783 57.3848 278.863 58.3928 278.863 60.0968C278.863 61.8008 277.783 62.8088 276.271 62.8088C274.759 62.8088 273.679 61.8008 273.679 60.0968C273.679 58.3928 274.759 57.3848 276.271 57.3848ZM274.663 48.0728V51.9608H277.855V48.0728H274.663ZM307.349 47.6888V69.9848H310.541V47.6888H307.349ZM303.701 52.4168V54.9848H307.877V52.4168H303.701ZM292.709 62.4248V65.0408H294.461C297.845 65.0408 300.677 64.9688 303.941 64.4648L303.677 61.8728C300.485 62.3528 297.749 62.4248 294.461 62.4248H292.709ZM292.661 49.5608V52.1048H299.453V55.6568H292.709V63.0008H295.877V58.1768H302.597V49.5608H292.661ZM303.653 58.4648V61.0328H307.829V58.4648H303.653ZM316.516 53.7128V56.2328H331.924V53.7128H316.516ZM314.02 58.5368V61.0808H334.156V58.5368H314.02ZM316.516 48.5048V54.9608H319.684V48.5048H316.516ZM316.3 66.9128V69.4568H332.044V66.9128H316.3ZM316.3 62.8568V67.5848H319.492V62.8568H316.3ZM344.684 61.0328V69.6968H359.9V61.0328H356.732V62.9048H347.828V61.0328H344.684ZM347.828 65.2808H356.732V67.2008H347.828V65.2808ZM342.332 57.4088V59.9288H362.42V57.4088H342.332ZM350.756 47.9528V48.6248C350.756 50.8808 348.332 53.3528 343.316 53.9528L344.444 56.4248C350.18 55.6808 353.492 52.4888 353.492 48.6248V47.9528H350.756ZM351.284 47.9528V48.6248C351.284 52.4648 354.572 55.6808 360.308 56.4248L361.436 53.9528C356.444 53.3528 354.02 50.8568 354.02 48.6248V47.9528H351.284ZM365.394 49.3208V51.8888H374.898V49.3208H365.394ZM368.13 54.5048V60.0728H371.298V54.5048H368.13ZM373.65 49.3208V50.7128C373.65 52.2488 373.65 54.1688 373.17 56.9048L376.266 57.2408C376.794 54.4808 376.794 52.2728 376.794 50.7128V49.3208H373.65ZM378.954 47.7128V64.3448H382.17V47.7128H378.954ZM380.898 54.4808V57.0968H384.81V54.4808H380.898ZM367.338 67.0088V69.5528H382.866V67.0088H367.338ZM367.338 62.8568V67.8008H370.53V62.8568H367.338ZM364.386 61.3688C368.202 61.3688 373.362 61.2728 377.946 60.4088L377.754 58.1528C373.29 58.7768 367.938 58.8488 364.098 58.8488L364.386 61.3688Z" fill="#414141"/>
<circle cx="104.4" cy="58.9992" r="13.8" fill="#414141"/>
<path d="M106.721 67H103.459V58.0792C103.459 57.7192 103.467 57.2368 103.481 56.632C103.495 56.0128 103.517 55.4728 103.546 55.012C103.474 55.0984 103.315 55.2568 103.071 55.4872C102.84 55.7032 102.624 55.8976 102.423 56.0704L100.651 57.496L99.0747 55.5304L104.043 51.5776H106.721V67Z" fill="white"/>
<rect x="90.6001" y="81.2031" width="376.8" height="60" rx="19.2" fill="#F2F2F2"/>
<rect x="90.6001" y="81.2031" width="320.28" height="60" rx="19.2" fill="#FFF059"/>
<path d="M338.021 108.904C339.096 108.904 339.909 109.281 340.459 110.037C341.023 110.779 341.304 111.829 341.304 113.185C341.304 114.542 341.042 115.605 340.517 116.373C339.992 117.128 339.16 117.505 338.021 117.505C336.959 117.505 336.152 117.128 335.602 116.373C335.064 115.605 334.795 114.542 334.795 113.185C334.795 111.829 335.051 110.779 335.563 110.037C336.075 109.281 336.895 108.904 338.021 108.904ZM347.755 109.096L340.152 122.805H337.906L345.509 109.096H347.755ZM338.04 110.862C337.451 110.862 337.157 111.643 337.157 113.205C337.157 114.779 337.451 115.566 338.04 115.566C338.642 115.566 338.943 114.779 338.943 113.205C338.943 111.643 338.642 110.862 338.04 110.862ZM347.621 114.376C348.696 114.376 349.509 114.753 350.059 115.509C350.623 116.251 350.904 117.301 350.904 118.657C350.904 120.014 350.642 121.077 350.117 121.845C349.592 122.6 348.76 122.977 347.621 122.977C346.559 122.977 345.752 122.6 345.202 121.845C344.664 121.077 344.395 120.014 344.395 118.657C344.395 117.301 344.651 116.251 345.163 115.509C345.675 114.753 346.495 114.376 347.621 114.376ZM347.64 116.334C347.051 116.334 346.757 117.115 346.757 118.677C346.757 120.251 347.051 121.038 347.64 121.038C348.242 121.038 348.543 120.251 348.543 118.677C348.543 117.115 348.242 116.334 347.64 116.334ZM369.454 106.715V124.552H372.027V106.715H369.454ZM362.446 107.963C359.758 107.963 357.78 110.421 357.78 114.299C357.78 118.216 359.758 120.673 362.446 120.673C365.134 120.673 367.112 118.216 367.112 114.299C367.112 110.421 365.134 107.963 362.446 107.963ZM362.446 110.286C363.771 110.286 364.654 111.688 364.654 114.299C364.654 116.949 363.771 118.369 362.446 118.369C361.121 118.369 360.219 116.949 360.219 114.299C360.219 111.688 361.121 110.286 362.446 110.286ZM378.822 107.694V109.269C378.822 111.688 377.612 114.069 374.636 115.067L376 117.083C379.379 115.912 380.915 112.801 380.915 109.269V107.694H378.822ZM379.34 107.694V109.518C379.34 112.725 380.857 115.489 384.064 116.565L385.388 114.587C382.604 113.723 381.414 111.649 381.414 109.518V107.694H379.34ZM386.368 106.734V117.237H388.921V106.734H386.368ZM388.211 110.843V112.955H391.283V110.843H388.211ZM383.123 117.64C379.417 117.64 377.094 118.926 377.094 121.077C377.094 123.246 379.417 124.513 383.123 124.513C386.809 124.513 389.132 123.246 389.132 121.077C389.132 118.926 386.809 117.64 383.123 117.64ZM383.123 119.617C385.388 119.617 386.598 120.097 386.598 121.077C386.598 122.075 385.388 122.536 383.123 122.536C380.857 122.536 379.628 122.075 379.628 121.077C379.628 120.097 380.857 119.617 383.123 119.617Z" fill="#414141"/>
<path d="M299.582 98.2407C301.17 98.2407 302.616 98.4839 303.922 98.9703C305.253 99.4567 306.315 100.199 307.109 101.198C307.928 102.17 308.338 103.386 308.338 104.846C308.338 106.51 307.864 107.866 306.917 108.916C305.995 109.966 304.83 110.836 303.422 111.527C304.395 112.039 305.317 112.641 306.187 113.332C307.083 113.998 307.8 114.791 308.338 115.713C308.901 116.634 309.182 117.697 309.182 118.9C309.182 120.41 308.773 121.729 307.954 122.855C307.16 123.982 306.034 124.852 304.574 125.466C303.141 126.081 301.477 126.388 299.582 126.388C296.51 126.388 294.13 125.735 292.44 124.43C290.776 123.124 289.944 121.332 289.944 119.054C289.944 117.185 290.456 115.674 291.48 114.522C292.504 113.345 293.746 112.398 295.205 111.681C293.976 110.913 292.926 109.991 292.056 108.916C291.211 107.815 290.789 106.446 290.789 104.807C290.789 103.374 291.198 102.17 292.018 101.198C292.837 100.199 293.912 99.4567 295.243 98.9703C296.6 98.4839 298.046 98.2407 299.582 98.2407ZM299.544 102.465C298.597 102.465 297.803 102.721 297.163 103.233C296.549 103.719 296.242 104.398 296.242 105.268C296.242 106.215 296.574 106.983 297.24 107.572C297.906 108.161 298.686 108.673 299.582 109.108C300.453 108.698 301.221 108.212 301.886 107.649C302.552 107.06 302.885 106.266 302.885 105.268C302.885 104.398 302.565 103.719 301.925 103.233C301.285 102.721 300.491 102.465 299.544 102.465ZM295.32 118.708C295.32 119.706 295.666 120.526 296.357 121.166C297.074 121.806 298.123 122.126 299.506 122.126C300.939 122.126 302.014 121.818 302.731 121.204C303.448 120.59 303.806 119.77 303.806 118.746C303.806 118.055 303.602 117.454 303.192 116.942C302.782 116.404 302.27 115.93 301.656 115.521C301.042 115.086 300.427 114.689 299.813 114.33L299.314 114.062C298.11 114.625 297.138 115.278 296.395 116.02C295.678 116.762 295.32 117.658 295.32 118.708ZM320.943 108.494C322.607 108.494 324.092 108.814 325.397 109.454C326.703 110.094 327.727 111.028 328.469 112.257C329.237 113.486 329.621 115.009 329.621 116.826C329.621 119.796 328.7 122.138 326.857 123.854C325.013 125.543 322.287 126.388 318.677 126.388C317.244 126.388 315.887 126.26 314.607 126.004C313.353 125.748 312.252 125.377 311.305 124.89V119.898C312.252 120.385 313.391 120.807 314.722 121.166C316.053 121.498 317.308 121.665 318.485 121.665C320.201 121.665 321.506 121.319 322.402 120.628C323.324 119.911 323.785 118.81 323.785 117.326C323.785 114.561 321.954 113.178 318.293 113.178C317.577 113.178 316.834 113.255 316.066 113.409C315.298 113.537 314.658 113.665 314.146 113.793L311.842 112.564L312.879 98.5863H327.74V103.502H317.948L317.449 108.878C317.884 108.801 318.345 108.724 318.831 108.647C319.343 108.545 320.047 108.494 320.943 108.494Z" fill="#414141"/>
<defs>
<filter id="filter0_d_486_10251" x="0" y="0" width="566" height="196" filterUnits="userSpaceOnUse" color-interpolation-filters="sRGB">
<feFlood flood-opacity="0" result="BackgroundImageFix"/>
<feColorMatrix in="SourceAlpha" type="matrix" values="0 0 0 0 0 0 0 0 0 0 0 0 0 0 0 0 0 0 127 0" result="hardAlpha"/>
<feOffset dy="4"/>
<feGaussianBlur stdDeviation="10"/>
<feComposite in2="hardAlpha" operator="out"/>
<feColorMatrix type="matrix" values="0 0 0 0 0.729167 0 0 0 0 0.674809 0 0 0 0 0.127604 0 0 0 0.38 0"/>
<feBlend mode="normal" in2="BackgroundImageFix" result="effect1_dropShadow_486_10251"/>
<feBlend mode="normal" in="SourceGraphic" in2="effect1_dropShadow_486_10251" result="shape"/>
</filter>
</defs>
</svg>
