<svg width="177" height="188" viewBox="0 0 177 188" fill="none" xmlns="http://www.w3.org/2000/svg">
<path d="M162.964 43.3276C164.181 44.452 166.079 44.377 167.203 43.16C168.328 41.9431 168.253 40.0451 167.036 38.9207L162.964 43.3276ZM103.079 12.0174L103.533 9.05192L103.079 12.0174ZM32.5247 46.7339L29.6348 45.9286L32.5247 46.7339ZM51.6663 106.497L51.9652 103.512L51.6663 106.497ZM64.3046 84.7266L62.1553 86.8195L64.3046 84.7266ZM24.6718 72.626L23.1058 70.0671L24.6718 72.626ZM13.0151 113.842L10.0707 114.417L13.0151 113.842ZM78.0284 169.624C79.4778 168.822 80.002 166.996 79.1992 165.546L66.117 141.927C65.3142 140.478 63.4884 139.954 62.0391 140.757C60.5897 141.559 60.0655 143.385 60.8683 144.835L72.4969 165.829L51.5023 177.458C50.0529 178.261 49.5287 180.086 50.3315 181.536C51.1343 182.985 52.9601 183.509 54.4094 182.707L78.0284 169.624ZM167.036 38.9207C159.128 31.6142 151.817 25.3995 142.136 20.391C132.453 15.3809 120.566 11.66 103.533 9.05192L102.624 14.9828C119.227 17.5249 130.441 21.0953 139.379 25.72C148.321 30.3463 155.153 36.1099 162.964 43.3276L167.036 38.9207ZM103.533 9.05192C87.8179 6.64573 71.536 8.3467 58.078 14.3758C44.5777 20.4239 33.8252 30.8905 29.6348 45.9286L35.4146 47.5392C39.0357 34.5443 48.3249 25.3198 60.5311 19.8515C72.7795 14.3642 87.8687 12.7234 102.624 14.9828L103.533 9.05192ZM29.6348 45.9286C26.9401 55.5992 23.3999 70.2346 24.8534 82.9895C25.586 89.4179 27.613 95.6319 31.8995 100.488C36.2342 105.399 42.5995 108.604 51.3673 109.482L51.9652 103.512C44.4152 102.756 39.5546 100.094 36.3978 96.5174C33.1928 92.8865 31.4626 87.9939 30.8149 82.3101C29.5078 70.8405 32.7147 57.2285 35.4146 47.5392L29.6348 45.9286ZM51.3673 109.482C60.1883 110.366 67.0969 107.068 70.1832 101.308C73.2804 95.5279 71.9662 88.2943 66.4539 82.6336L62.1553 86.8195C66.204 90.9772 66.5281 95.4258 64.8945 98.4745C63.2502 101.544 59.0591 104.222 51.9652 103.512L51.3673 109.482ZM66.4539 82.6336C62.4823 78.5551 55.2138 73.468 47.3562 70.3195C39.6371 67.2263 30.3659 65.6242 23.1058 70.0671L26.2377 75.1849C30.9718 72.2877 37.8561 72.9765 45.1245 75.889C52.2544 78.746 58.8052 83.3792 62.1553 86.8195L66.4539 82.6336ZM23.1058 70.0671C15.605 74.6574 11.8082 82.8516 10.1383 91.0279C8.45934 99.2482 8.81116 107.968 10.0707 114.417L15.9594 113.267C14.8304 107.486 14.5171 99.572 16.0169 92.2286C17.5257 84.8412 20.7516 78.5422 26.2377 75.1849L23.1058 70.0671ZM10.0707 114.417C12.7743 128.259 22.5318 140.181 34.7093 149.517C46.9281 158.885 61.9139 165.912 75.747 169.884L77.4027 164.116C64.1944 160.324 49.9072 153.608 38.3599 144.755C26.7714 135.871 18.2696 125.095 15.9594 113.267L10.0707 114.417Z" fill="#DE006B"/>
</svg>
