<svg width="334" height="190" viewBox="0 0 334 190" fill="none" xmlns="http://www.w3.org/2000/svg">
<rect width="334" height="190" rx="20" fill="#FAFAFA"/>
<path d="M172.59 75.63V84.89H173.85V75.63H172.59ZM171.35 79.19V80.26H172.89V79.19H171.35ZM170.52 75.79V84.45H171.75V75.79H170.52ZM166.16 81.71V82.8H166.81C168 82.8 168.98 82.77 170.1 82.55L170 81.47C168.9 81.67 167.95 81.71 166.81 81.71H166.16ZM166.16 76.7V82.23H167.48V77.77H169.58V76.7H166.16ZM177.239 81.11V82.61H178.569V81.11H177.239ZM181.129 75.63V84.89H182.469V75.63H181.129ZM181.999 79.39V80.49H183.629V79.39H181.999ZM175.159 83.35C176.719 83.35 178.819 83.35 180.769 82.97L180.669 82.01C178.799 82.27 176.599 82.28 174.999 82.28L175.159 83.35ZM175.169 76.65V77.69H180.619V76.65H175.169ZM177.909 78.06C176.579 78.06 175.649 78.76 175.649 79.79C175.649 80.83 176.579 81.53 177.909 81.53C179.229 81.53 180.169 80.83 180.169 79.79C180.169 78.76 179.229 78.06 177.909 78.06ZM177.909 79.06C178.509 79.06 178.909 79.32 178.909 79.79C178.909 80.27 178.509 80.53 177.909 80.53C177.299 80.53 176.909 80.27 176.909 79.79C176.909 79.32 177.299 79.06 177.909 79.06ZM177.239 75.68V77.43H178.569V75.68H177.239ZM186.896 79.12V80.17H195.276V79.12H186.896ZM187.676 75.94V77.01H189.836V75.94H187.676ZM189.446 75.94V76.61C189.446 77.36 189.446 78.16 189.026 79.38L190.306 79.67C190.746 78.4 190.746 77.4 190.746 76.61V75.94H189.446ZM191.276 75.94V77.01H193.656V75.94H191.276ZM193.046 75.94V76.54C193.046 77.26 193.046 78.16 192.656 79.49L193.936 79.71C194.336 78.33 194.336 77.3 194.336 76.54V75.94H193.046ZM190.616 81.16V82.12H194.866V81.16H190.616ZM192.756 82.37C191.786 82.37 191.076 82.87 191.076 83.63C191.076 84.41 191.786 84.9 192.756 84.9C193.726 84.9 194.436 84.41 194.436 83.63C194.436 82.87 193.726 82.37 192.756 82.37ZM192.756 83.26C193.076 83.26 193.316 83.37 193.316 83.63C193.316 83.9 193.076 84.01 192.756 84.01C192.436 84.01 192.196 83.9 192.196 83.63C192.196 83.37 192.436 83.26 192.756 83.26ZM192.116 80.54V81.9H193.406V80.54H192.116ZM187.796 83.59V84.65H188.326C189.186 84.65 189.966 84.6 190.826 84.35L190.666 83.29C189.866 83.53 189.096 83.59 188.326 83.59H187.796ZM187.796 81.12V83.97H189.086V81.12H187.796ZM199.575 76.16V76.82C199.575 78.21 198.415 79.39 196.145 79.96L196.645 81C199.405 80.29 200.975 78.62 200.975 76.16H199.575ZM196.675 76.16V77.2H200.435V76.16H196.675ZM202.455 75.63V80.79H203.795V75.63H202.455ZM197.665 81.18V84.79H203.795V81.18H197.665ZM202.485 82.23V83.74H198.975V82.23H202.485ZM208.275 76.24C206.825 76.24 205.715 77.19 205.715 78.52C205.715 79.86 206.825 80.81 208.275 80.81C209.735 80.81 210.825 79.86 210.825 78.52C210.825 77.19 209.735 76.24 208.275 76.24ZM208.275 77.38C208.985 77.38 209.525 77.8 209.525 78.52C209.525 79.25 208.985 79.67 208.275 79.67C207.565 79.67 207.025 79.25 207.025 78.52C207.025 77.8 207.565 77.38 208.275 77.38ZM211.695 75.62V84.91H213.025V75.62H211.695ZM205.495 83.03C207.095 83.03 209.275 83.01 211.285 82.61L211.185 81.65C209.235 81.94 206.965 81.96 205.335 81.96L205.495 83.03ZM223.051 75.64V82.45H224.381V75.64H223.051ZM224.001 78.24V79.33H225.611V78.24H224.001ZM218.411 83.67V84.73H224.711V83.67H218.411ZM218.411 81.76V83.9H219.741V81.76H218.411ZM217.361 76.29V80.99H221.811V76.29H220.491V77.62H218.681V76.29H217.361ZM218.681 78.63H220.491V79.95H218.681V78.63ZM226.291 80.2V81.27H234.661V80.2H226.291ZM229.801 79.02V80.43H231.131V79.02H229.801ZM227.221 81.9V82.95H232.321V84.89H233.651V81.9H227.221ZM227.361 75.86V79.44H233.601V75.86H232.281V76.68H228.671V75.86H227.361ZM228.671 77.67H232.281V78.4H228.671V77.67Z" fill="#414141"/>
<circle cx="154.75" cy="80.75" r="5.75" fill="#414141"/>
<path d="M156.851 83.5H152.36V82.555L153.971 80.926C154.295 80.59 154.556 80.311 154.754 80.089C154.952 79.861 155.096 79.657 155.186 79.477C155.276 79.291 155.321 79.093 155.321 78.883C155.321 78.625 155.249 78.433 155.105 78.307C154.967 78.181 154.778 78.118 154.538 78.118C154.292 78.118 154.052 78.175 153.818 78.289C153.584 78.403 153.338 78.565 153.08 78.775L152.342 77.902C152.522 77.746 152.717 77.599 152.927 77.461C153.137 77.317 153.377 77.203 153.647 77.119C153.923 77.029 154.253 76.984 154.637 76.984C155.057 76.984 155.417 77.062 155.717 77.218C156.023 77.368 156.257 77.575 156.419 77.839C156.587 78.097 156.671 78.391 156.671 78.721C156.671 79.075 156.599 79.399 156.455 79.693C156.317 79.987 156.113 80.278 155.843 80.566C155.579 80.854 155.258 81.172 154.88 81.52L154.052 82.294V82.357H156.851V83.5Z" fill="white"/>
<rect x="149" y="90" width="157" height="25" rx="8" fill="#F2F2F2"/>
<rect x="149" y="90" width="15.7" height="25" rx="7.85" fill="#FFF059"/>
<path d="M187.592 102.208C188.04 102.208 188.379 102.365 188.608 102.68C188.843 102.989 188.96 103.427 188.96 103.992C188.96 104.557 188.851 105 188.632 105.32C188.413 105.635 188.067 105.792 187.592 105.792C187.149 105.792 186.813 105.635 186.584 105.32C186.36 105 186.248 104.557 186.248 103.992C186.248 103.427 186.355 102.989 186.568 102.68C186.781 102.365 187.123 102.208 187.592 102.208ZM191.648 102.288L188.48 108H187.544L190.712 102.288H191.648ZM187.6 103.024C187.355 103.024 187.232 103.349 187.232 104C187.232 104.656 187.355 104.984 187.6 104.984C187.851 104.984 187.976 104.656 187.976 104C187.976 103.349 187.851 103.024 187.6 103.024ZM191.592 104.488C192.04 104.488 192.379 104.645 192.608 104.96C192.843 105.269 192.96 105.707 192.96 106.272C192.96 106.837 192.851 107.28 192.632 107.6C192.413 107.915 192.067 108.072 191.592 108.072C191.149 108.072 190.813 107.915 190.584 107.6C190.36 107.28 190.248 106.837 190.248 106.272C190.248 105.707 190.355 105.269 190.568 104.96C190.781 104.645 191.123 104.488 191.592 104.488ZM191.6 105.304C191.355 105.304 191.232 105.629 191.232 106.28C191.232 106.936 191.355 107.264 191.6 107.264C191.851 107.264 191.976 106.936 191.976 106.28C191.976 105.629 191.851 105.304 191.6 105.304Z" fill="#B8B8B8"/>
<path d="M173.608 109H171.192V102.392C171.192 102.125 171.197 101.768 171.208 101.32C171.219 100.861 171.235 100.461 171.256 100.12C171.203 100.184 171.085 100.301 170.904 100.472C170.733 100.632 170.573 100.776 170.424 100.904L169.112 101.96L167.944 100.504L171.624 97.576H173.608V109ZM184.236 103.288C184.236 104.515 184.103 105.565 183.836 106.44C183.58 107.315 183.159 107.987 182.572 108.456C181.986 108.925 181.207 109.16 180.236 109.16C178.86 109.16 177.852 108.643 177.212 107.608C176.572 106.573 176.252 105.133 176.252 103.288C176.252 102.061 176.38 101.011 176.636 100.136C176.892 99.2507 177.314 98.5733 177.9 98.104C178.487 97.6347 179.266 97.4 180.236 97.4C181.602 97.4 182.61 97.9173 183.26 98.952C183.911 99.9867 184.236 101.432 184.236 103.288ZM178.652 103.288C178.652 104.589 178.764 105.571 178.988 106.232C179.212 106.883 179.628 107.208 180.236 107.208C180.834 107.208 181.25 106.883 181.484 106.232C181.719 105.581 181.836 104.6 181.836 103.288C181.836 101.987 181.719 101.005 181.484 100.344C181.25 99.6827 180.834 99.352 180.236 99.352C179.628 99.352 179.212 99.6827 178.988 100.344C178.764 101.005 178.652 101.987 178.652 103.288Z" fill="#B8B8B8"/>
<path d="M165.9 29.2V30.26H174.28V29.2H165.9ZM169.53 29.87V31.82H170.87V29.87H169.53ZM166.93 25.02V28.46H173.22V25.02H166.93ZM171.91 26.06V27.42H168.23V26.06H171.91ZM166.87 32.67V33.73H173.36V32.67H166.87ZM166.87 31.04V33.02H168.19V31.04H166.87ZM175.489 25.1V29.43H179.869V25.1H178.569V26.27H176.809V25.1H175.489ZM176.809 27.28H178.569V28.37H176.809V27.28ZM179.569 26.74V27.81H181.819V26.74H179.569ZM181.519 24.63V29.7H182.849V24.63H181.519ZM176.699 30.09V33.78H182.849V30.09H181.529V30.92H178.019V30.09H176.699ZM178.019 31.94H181.529V32.72H178.019V31.94ZM186.438 25.55V26.14C186.438 27.3 185.778 28.52 184.248 29.02L184.918 30.07C186.698 29.49 187.518 27.88 187.518 26.14V25.55H186.438ZM186.718 25.55V26.14C186.718 27.78 187.508 29.32 189.228 29.89L189.878 28.85C188.418 28.36 187.788 27.22 187.788 26.14V25.55H186.718ZM189.338 26.84V27.92H191.098V26.84H189.338ZM184.608 25.14V26.19H189.588V25.14H184.608ZM185.738 30.56V31.62H190.718V33.89H192.048V30.56H185.738ZM190.718 24.63V30.14H192.048V24.63H190.718ZM197.688 25.09C195.738 25.09 194.228 26.16 194.228 27.77C194.228 29.39 195.738 30.45 197.688 30.45C199.638 30.45 201.148 29.39 201.148 27.77C201.148 26.16 199.638 25.09 197.688 25.09ZM197.688 26.17C198.948 26.17 199.848 26.77 199.848 27.77C199.848 28.76 198.948 29.36 197.688 29.36C196.428 29.36 195.528 28.76 195.528 27.77C195.528 26.77 196.428 26.17 197.688 26.17ZM193.508 31.69V32.78H201.888V31.69H193.508ZM202.707 31.79V32.87H211.087V31.79H202.707ZM206.217 30.04V32.23H207.547V30.04H206.217ZM203.647 25.23V26.28H208.827V27.27H203.667V29.87H204.987V28.31H210.147V25.23H203.647ZM203.667 29.34V30.41H210.357V29.34H203.667ZM220.454 24.63V29.25H221.784V24.63H220.454ZM221.244 26.4V27.49H223.004V26.4H221.244ZM214.764 25.06V28.91H219.174V25.06H214.764ZM217.864 26.1V27.87H216.074V26.1H217.864ZM215.664 29.62V30.64H220.474V31.2H215.684V33.26H217.004V32.16H221.784V29.62H215.664ZM215.684 32.75V33.79H222.054V32.75H215.684ZM229.633 24.63V33.89H230.953V24.63H229.633ZM230.653 28.24V29.35H232.293V28.24H230.653ZM223.653 26V27.06H229.043V26H223.653ZM226.363 27.58C225.013 27.58 224.013 28.5 224.013 29.79C224.013 31.08 225.013 32 226.363 32C227.713 32 228.713 31.08 228.713 29.79C228.713 28.5 227.713 27.58 226.363 27.58ZM226.363 28.66C226.993 28.66 227.443 29.08 227.443 29.79C227.443 30.5 226.993 30.92 226.363 30.92C225.733 30.92 225.283 30.5 225.283 29.79C225.283 29.08 225.733 28.66 226.363 28.66ZM225.693 24.78V26.4H227.023V24.78H225.693ZM239.312 24.62V33.91H240.642V24.62H239.312ZM237.792 26.59V27.66H239.532V26.59H237.792ZM233.212 30.76V31.85H233.942C235.352 31.85 236.532 31.82 237.892 31.61L237.782 30.53C236.452 30.73 235.312 30.76 233.942 30.76H233.212ZM233.192 25.4V26.46H236.022V27.94H233.212V31H234.532V28.99H237.332V25.4H233.192ZM237.772 29.11V30.18H239.512V29.11H237.772ZM243.131 27.13V28.18H249.551V27.13H243.131ZM242.091 29.14V30.2H250.481V29.14H242.091ZM243.131 24.96V27.65H244.451V24.96H243.131ZM243.041 32.63V33.69H249.601V32.63H243.041ZM243.041 30.94V32.91H244.371V30.94H243.041ZM254.868 30.18V33.79H261.208V30.18H259.888V30.96H256.178V30.18H254.868ZM256.178 31.95H259.888V32.75H256.178V31.95ZM253.888 28.67V29.72H262.258V28.67H253.888ZM257.398 24.73V25.01C257.398 25.95 256.388 26.98 254.298 27.23L254.768 28.26C257.158 27.95 258.538 26.62 258.538 25.01V24.73H257.398ZM257.618 24.73V25.01C257.618 26.61 258.988 27.95 261.378 28.26L261.848 27.23C259.768 26.98 258.758 25.94 258.758 25.01V24.73H257.618ZM263.498 25.3V26.37H267.458V25.3H263.498ZM264.638 27.46V29.78H265.958V27.46H264.638ZM266.938 25.3V25.88C266.938 26.52 266.938 27.32 266.738 28.46L268.028 28.6C268.248 27.45 268.248 26.53 268.248 25.88V25.3H266.938ZM269.148 24.63V31.56H270.488V24.63H269.148ZM269.958 27.45V28.54H271.588V27.45H269.958ZM264.308 32.67V33.73H270.778V32.67H264.308ZM264.308 30.94V33H265.638V30.94H264.308ZM263.078 30.32C264.668 30.32 266.818 30.28 268.728 29.92L268.648 28.98C266.788 29.24 264.558 29.27 262.958 29.27L263.078 30.32Z" fill="#414141"/>
<circle cx="154.75" cy="29.75" r="5.75" fill="#414141"/>
<path d="M155.717 32.5H154.358V28.783C154.358 28.633 154.361 28.432 154.367 28.18C154.373 27.922 154.382 27.697 154.394 27.505C154.364 27.541 154.298 27.607 154.196 27.703C154.1 27.793 154.01 27.874 153.926 27.946L153.188 28.54L152.531 27.721L154.601 26.074H155.717V32.5Z" fill="white"/>
<rect x="149" y="39" width="157" height="25" rx="8" fill="#F2F2F2"/>
<rect x="149" y="39" width="133.45" height="25" rx="8" fill="#FFF059"/>
<path d="M249.592 51.208C250.04 51.208 250.379 51.3653 250.608 51.68C250.843 51.9893 250.96 52.4267 250.96 52.992C250.96 53.5573 250.851 54 250.632 54.32C250.413 54.6347 250.067 54.792 249.592 54.792C249.149 54.792 248.813 54.6347 248.584 54.32C248.36 54 248.248 53.5573 248.248 52.992C248.248 52.4267 248.355 51.9893 248.568 51.68C248.781 51.3653 249.123 51.208 249.592 51.208ZM253.648 51.288L250.48 57H249.544L252.712 51.288H253.648ZM249.6 52.024C249.355 52.024 249.232 52.3493 249.232 53C249.232 53.656 249.355 53.984 249.6 53.984C249.851 53.984 249.976 53.656 249.976 53C249.976 52.3493 249.851 52.024 249.6 52.024ZM253.592 53.488C254.04 53.488 254.379 53.6453 254.608 53.96C254.843 54.2693 254.96 54.7067 254.96 55.272C254.96 55.8373 254.851 56.28 254.632 56.6C254.413 56.9147 254.067 57.072 253.592 57.072C253.149 57.072 252.813 56.9147 252.584 56.6C252.36 56.28 252.248 55.8373 252.248 55.272C252.248 54.7067 252.355 54.2693 252.568 53.96C252.781 53.6453 253.123 53.488 253.592 53.488ZM253.6 54.304C253.355 54.304 253.232 54.6293 253.232 55.28C253.232 55.936 253.355 56.264 253.6 56.264C253.851 56.264 253.976 55.936 253.976 55.28C253.976 54.6293 253.851 54.304 253.6 54.304ZM262.689 50.296V57.728H263.761V50.296H262.689ZM259.769 50.816C258.649 50.816 257.825 51.84 257.825 53.456C257.825 55.088 258.649 56.112 259.769 56.112C260.889 56.112 261.713 55.088 261.713 53.456C261.713 51.84 260.889 50.816 259.769 50.816ZM259.769 51.784C260.321 51.784 260.689 52.368 260.689 53.456C260.689 54.56 260.321 55.152 259.769 55.152C259.217 55.152 258.841 54.56 258.841 53.456C258.841 52.368 259.217 51.784 259.769 51.784ZM266.592 50.704V51.36C266.592 52.368 266.088 53.36 264.848 53.776L265.416 54.616C266.824 54.128 267.464 52.832 267.464 51.36V50.704H266.592ZM266.808 50.704V51.464C266.808 52.8 267.44 53.952 268.776 54.4L269.328 53.576C268.168 53.216 267.672 52.352 267.672 51.464V50.704H266.808ZM269.736 50.304V54.68H270.8V50.304H269.736ZM270.504 52.016V52.896H271.784V52.016H270.504ZM268.384 54.848C266.84 54.848 265.872 55.384 265.872 56.28C265.872 57.184 266.84 57.712 268.384 57.712C269.92 57.712 270.888 57.184 270.888 56.28C270.888 55.384 269.92 54.848 268.384 54.848ZM268.384 55.672C269.328 55.672 269.832 55.872 269.832 56.28C269.832 56.696 269.328 56.888 268.384 56.888C267.44 56.888 266.928 56.696 266.928 56.28C266.928 55.872 267.44 55.672 268.384 55.672Z" fill="#2A2A2A"/>
<path d="M233.576 46.432C234.237 46.432 234.84 46.5333 235.384 46.736C235.939 46.9387 236.381 47.248 236.712 47.664C237.053 48.0693 237.224 48.576 237.224 49.184C237.224 49.8773 237.027 50.4427 236.632 50.88C236.248 51.3173 235.763 51.68 235.176 51.968C235.581 52.1813 235.965 52.432 236.328 52.72C236.701 52.9973 237 53.328 237.224 53.712C237.459 54.096 237.576 54.5387 237.576 55.04C237.576 55.6693 237.405 56.2187 237.064 56.688C236.733 57.1573 236.264 57.52 235.656 57.776C235.059 58.032 234.365 58.16 233.576 58.16C232.296 58.16 231.304 57.888 230.6 57.344C229.907 56.8 229.56 56.0533 229.56 55.104C229.56 54.3253 229.773 53.696 230.2 53.216C230.627 52.7253 231.144 52.3307 231.752 52.032C231.24 51.712 230.803 51.328 230.44 50.88C230.088 50.4213 229.912 49.8507 229.912 49.168C229.912 48.5707 230.083 48.0693 230.424 47.664C230.765 47.248 231.213 46.9387 231.768 46.736C232.333 46.5333 232.936 46.432 233.576 46.432ZM233.56 48.192C233.165 48.192 232.835 48.2987 232.568 48.512C232.312 48.7147 232.184 48.9973 232.184 49.36C232.184 49.7547 232.323 50.0747 232.6 50.32C232.877 50.5653 233.203 50.7787 233.576 50.96C233.939 50.7893 234.259 50.5867 234.536 50.352C234.813 50.1067 234.952 49.776 234.952 49.36C234.952 48.9973 234.819 48.7147 234.552 48.512C234.285 48.2987 233.955 48.192 233.56 48.192ZM231.8 54.96C231.8 55.376 231.944 55.7173 232.232 55.984C232.531 56.2507 232.968 56.384 233.544 56.384C234.141 56.384 234.589 56.256 234.888 56C235.187 55.744 235.336 55.4027 235.336 54.976C235.336 54.688 235.251 54.4373 235.08 54.224C234.909 54 234.696 53.8027 234.44 53.632C234.184 53.4507 233.928 53.2853 233.672 53.136L233.464 53.024C232.963 53.2587 232.557 53.5307 232.248 53.84C231.949 54.1493 231.8 54.5227 231.8 54.96ZM242.476 50.704C243.17 50.704 243.788 50.8373 244.332 51.104C244.876 51.3707 245.303 51.76 245.612 52.272C245.932 52.784 246.092 53.4187 246.092 54.176C246.092 55.4133 245.708 56.3893 244.94 57.104C244.172 57.808 243.036 58.16 241.532 58.16C240.935 58.16 240.37 58.1067 239.836 58C239.314 57.8933 238.855 57.7387 238.46 57.536V55.456C238.855 55.6587 239.33 55.8347 239.884 55.984C240.439 56.1227 240.962 56.192 241.452 56.192C242.167 56.192 242.711 56.048 243.084 55.76C243.468 55.4613 243.66 55.0027 243.66 54.384C243.66 53.232 242.898 52.656 241.372 52.656C241.074 52.656 240.764 52.688 240.444 52.752C240.124 52.8053 239.858 52.8587 239.644 52.912L238.684 52.4L239.116 46.576H245.308V48.624H241.228L241.02 50.864C241.202 50.832 241.394 50.8 241.596 50.768C241.81 50.7253 242.103 50.704 242.476 50.704Z" fill="#2A2A2A"/>
<path d="M171.86 126.63V133.32H173.19V126.63H171.86ZM172.81 129.15V130.24H174.42V129.15H172.81ZM166.25 130.74V131.81H167.02C169.08 131.81 170.14 131.76 171.27 131.51L171.14 130.46C170.03 130.7 169.03 130.74 167.02 130.74H166.25ZM166.25 127.36V131.31H167.57V128.43H170.39V127.36H166.25ZM167.22 134.67V135.73H173.52V134.67H167.22ZM167.22 132.62V135.21H168.55V132.62H167.22ZM177.639 127.27C176.249 127.27 175.249 128.55 175.249 130.57C175.249 132.61 176.249 133.89 177.639 133.89C179.019 133.89 180.029 132.61 180.029 130.57C180.029 128.55 179.019 127.27 177.639 127.27ZM177.639 128.48C178.319 128.48 178.759 129.21 178.759 130.57C178.759 131.95 178.319 132.69 177.639 132.69C176.969 132.69 176.519 131.95 176.519 130.57C176.519 129.21 176.969 128.48 177.639 128.48ZM181.549 126.62V135.91H182.869V126.62H181.549ZM179.639 129.96V131.03H182.109V129.96H179.639ZM193.256 126.63V131.31H194.596V126.63H193.256ZM188.416 131.72V132.73H193.276V133.27H188.436V135.16H189.736V134.23H194.596V131.72H188.416ZM188.436 134.8V135.83H194.826V134.8H188.436ZM189.066 126.84V127.54C189.066 128.67 188.406 129.83 186.856 130.3L187.496 131.35C189.306 130.8 190.166 129.25 190.166 127.54V126.84H189.066ZM189.336 126.84V127.54C189.336 129.21 190.166 130.66 191.946 131.18L192.586 130.15C191.076 129.72 190.426 128.64 190.426 127.54V126.84H189.336ZM196.445 131.04V132.1H197.155C198.925 132.1 199.875 132.07 200.955 131.87L200.825 130.82C199.775 131.01 198.875 131.04 197.155 131.04H196.445ZM196.435 127.16V128.21H199.185V129.09H196.445V131.74H197.765V130.08H200.505V127.16H196.435ZM202.515 126.64V132.34H203.845V126.64H202.515ZM201.035 127.91V128.97H202.755V127.91H201.035ZM201.035 129.88V130.94H202.755V129.88H201.035ZM197.505 132.76V133.82H202.515V135.9H203.845V132.76H197.505ZM207.892 131.96V133.01H216.282V131.96H207.892ZM211.392 132.49V135.89H212.712V132.49H211.392ZM208.852 126.98V131.08H215.292V126.98H213.972V128.03H210.172V126.98H208.852ZM210.172 129.07H213.972V130.02H210.172V129.07ZM220.361 127.48V127.71C220.361 128.45 219.471 129.28 217.441 129.48L217.911 130.51C220.291 130.28 221.541 129.12 221.541 127.71V127.48H220.361ZM221.011 127.48V127.71C221.011 129.13 222.271 130.28 224.641 130.51L225.111 129.48C223.081 129.29 222.191 128.46 222.191 127.71V127.48H221.011ZM217.851 126.97V128.02H224.711V126.97H217.851ZM217.091 131.13V132.19H225.471V131.13H217.091ZM220.601 129.94V131.6H221.921V129.94H220.601ZM218.021 132.86V133.91H223.121V135.89H224.451V132.86H218.021Z" fill="#414141"/>
<circle cx="154.75" cy="131.75" r="5.75" fill="#414141"/>
<path d="M156.599 129.514C156.599 129.958 156.464 130.312 156.194 130.576C155.93 130.84 155.603 131.02 155.213 131.116V131.143C155.723 131.209 156.113 131.368 156.383 131.62C156.653 131.872 156.788 132.208 156.788 132.628C156.788 133 156.695 133.336 156.509 133.636C156.329 133.93 156.047 134.164 155.663 134.338C155.285 134.506 154.796 134.59 154.196 134.59C153.5 134.59 152.882 134.473 152.342 134.239V133.087C152.618 133.225 152.906 133.33 153.206 133.402C153.506 133.474 153.788 133.51 154.052 133.51C154.538 133.51 154.877 133.426 155.069 133.258C155.267 133.09 155.366 132.853 155.366 132.547C155.366 132.373 155.321 132.223 155.231 132.097C155.141 131.971 154.982 131.878 154.754 131.818C154.532 131.752 154.22 131.719 153.818 131.719H153.332V130.675H153.827C154.223 130.675 154.523 130.639 154.727 130.567C154.937 130.489 155.078 130.387 155.15 130.261C155.228 130.129 155.267 129.979 155.267 129.811C155.267 129.583 155.195 129.406 155.051 129.28C154.913 129.148 154.679 129.082 154.349 129.082C154.043 129.082 153.776 129.136 153.548 129.244C153.32 129.352 153.131 129.454 152.981 129.55L152.351 128.614C152.603 128.434 152.897 128.284 153.233 128.164C153.575 128.044 153.98 127.984 154.448 127.984C155.108 127.984 155.63 128.119 156.014 128.389C156.404 128.653 156.599 129.028 156.599 129.514Z" fill="white"/>
<rect x="149" y="141" width="157" height="25" rx="8" fill="#F2F2F2"/>
<rect x="149" y="141" width="7.85" height="25" rx="3.925" fill="#FFF059"/>
<path d="M171.592 153.208C172.04 153.208 172.379 153.365 172.608 153.68C172.843 153.989 172.96 154.427 172.96 154.992C172.96 155.557 172.851 156 172.632 156.32C172.413 156.635 172.067 156.792 171.592 156.792C171.149 156.792 170.813 156.635 170.584 156.32C170.36 156 170.248 155.557 170.248 154.992C170.248 154.427 170.355 153.989 170.568 153.68C170.781 153.365 171.123 153.208 171.592 153.208ZM175.648 153.288L172.48 159H171.544L174.712 153.288H175.648ZM171.6 154.024C171.355 154.024 171.232 154.349 171.232 155C171.232 155.656 171.355 155.984 171.6 155.984C171.851 155.984 171.976 155.656 171.976 155C171.976 154.349 171.851 154.024 171.6 154.024ZM175.592 155.488C176.04 155.488 176.379 155.645 176.608 155.96C176.843 156.269 176.96 156.707 176.96 157.272C176.96 157.837 176.851 158.28 176.632 158.6C176.413 158.915 176.067 159.072 175.592 159.072C175.149 159.072 174.813 158.915 174.584 158.6C174.36 158.28 174.248 157.837 174.248 157.272C174.248 156.707 174.355 156.269 174.568 155.96C174.781 155.645 175.123 155.488 175.592 155.488ZM175.6 156.304C175.355 156.304 175.232 156.629 175.232 157.28C175.232 157.936 175.355 158.264 175.6 158.264C175.851 158.264 175.976 157.936 175.976 157.28C175.976 156.629 175.851 156.304 175.6 156.304Z" fill="#B8B8B8"/>
<path d="M164.3 152.704C164.993 152.704 165.612 152.837 166.156 153.104C166.7 153.371 167.127 153.76 167.436 154.272C167.756 154.784 167.916 155.419 167.916 156.176C167.916 157.413 167.532 158.389 166.764 159.104C165.996 159.808 164.86 160.16 163.356 160.16C162.759 160.16 162.193 160.107 161.66 160C161.137 159.893 160.679 159.739 160.284 159.536V157.456C160.679 157.659 161.153 157.835 161.708 157.984C162.263 158.123 162.785 158.192 163.276 158.192C163.991 158.192 164.535 158.048 164.908 157.76C165.292 157.461 165.484 157.003 165.484 156.384C165.484 155.232 164.721 154.656 163.196 154.656C162.897 154.656 162.588 154.688 162.268 154.752C161.948 154.805 161.681 154.859 161.468 154.912L160.508 154.4L160.94 148.576H167.132V150.624H163.052L162.844 152.864C163.025 152.832 163.217 152.8 163.42 152.768C163.633 152.725 163.927 152.704 164.3 152.704Z" fill="#B8B8B8"/>
<path d="M35.296 102.608V117.424H37.328V102.608H35.296ZM33.36 108.32V110.016H35.824V108.32H33.36ZM31.984 102.864V116.72H33.968V102.864H31.984ZM25.216 104.24V112.8H27.344V104.24H25.216ZM25.216 112V113.824H26.24C27.744 113.824 29.44 113.744 31.376 113.392L31.168 111.568C29.328 111.92 27.664 112 26.24 112H25.216ZM49.019 103.456V104.528C49.019 106.656 47.179 109.008 43.835 109.584L44.747 111.344C48.587 110.592 50.875 107.744 50.875 104.528V103.456H49.019ZM49.451 103.456V104.528C49.451 107.792 51.723 110.592 55.563 111.344L56.475 109.584C53.115 109.008 51.291 106.704 51.291 104.528V103.456H49.451ZM43.531 113.888V115.616H56.939V113.888H43.531ZM68.4418 102.608V117.424H70.5858V102.608H68.4418ZM58.6018 103.968V105.664H66.9218V103.968H58.6018ZM58.4098 114.048C61.0818 114.032 64.4898 113.968 67.6098 113.44L67.4978 111.888C64.4418 112.256 60.8738 112.304 58.2018 112.304L58.4098 114.048ZM59.8818 105.296V112.768H61.9458V105.296H59.8818ZM63.5778 105.296V112.768H65.6418V105.296H63.5778ZM78.6805 103.488V104.416C78.6805 106.96 77.3845 108.928 73.1925 110.064L73.9925 111.744C78.9685 110.32 80.8885 107.616 80.8885 103.488H78.6805ZM73.9445 103.488V105.168H79.9285V103.488H73.9445ZM78.7765 106.256L73.1925 106.448L73.4965 108.096L78.7765 107.712V106.256ZM83.1285 102.624V111.344H85.2725V102.624H83.1285ZM80.2645 111.584C77.1445 111.584 75.1925 112.672 75.1925 114.512C75.1925 116.352 77.1445 117.424 80.2645 117.424C83.3685 117.424 85.3365 116.352 85.3365 114.512C85.3365 112.672 83.3685 111.584 80.2645 111.584ZM80.2645 113.248C82.1845 113.248 83.2085 113.648 83.2085 114.512C83.2085 115.36 82.1845 115.792 80.2645 115.792C78.3285 115.792 77.3205 115.36 77.3205 114.512C77.3205 113.648 78.3285 113.248 80.2645 113.248ZM92.4393 103.584C90.1193 103.584 88.3433 105.104 88.3433 107.232C88.3433 109.376 90.1193 110.896 92.4393 110.896C94.7753 110.896 96.5193 109.376 96.5193 107.232C96.5193 105.104 94.7753 103.584 92.4393 103.584ZM92.4393 105.408C93.5753 105.408 94.4393 106.08 94.4393 107.232C94.4393 108.4 93.5753 109.072 92.4393 109.072C91.3033 109.072 90.4393 108.4 90.4393 107.232C90.4393 106.08 91.3033 105.408 92.4393 105.408ZM97.9113 102.592V117.456H100.039V102.592H97.9113ZM87.9913 114.448C90.5513 114.448 94.0393 114.416 97.2553 113.776L97.0953 112.24C93.9753 112.704 90.3433 112.736 87.7353 112.736L87.9913 114.448ZM34.112 126.592V141.408H36.256V126.592H34.112ZM35.696 132.256V134H38.304V132.256H35.696ZM30.224 128.128V128.496C30.224 132.512 28.384 135.232 24.496 137.248L25.68 138.864C30.608 136.384 32.304 132.576 32.304 128.128H30.224ZM25.312 128.128V129.84H31.312V128.128H25.312ZM42.6548 128.256V129.184C42.6548 131.072 41.6148 133.008 39.1508 133.824L40.2068 135.504C43.0708 134.56 44.3988 132.016 44.3988 129.184V128.256H42.6548ZM43.0868 128.256V129.184C43.0868 131.824 44.3668 134.144 47.1828 134.992L48.1908 133.328C45.8068 132.608 44.8148 130.912 44.8148 129.184V128.256H43.0868ZM39.7108 127.6V129.296H47.7108V127.6H39.7108ZM48.8948 126.608V135.392H51.0228V126.608H48.8948ZM50.4308 130.016V131.76H52.9908V130.016H50.4308ZM46.1908 135.664C43.1028 135.664 41.1668 136.736 41.1668 138.544C41.1668 140.352 43.1028 141.424 46.1908 141.424C49.2628 141.424 51.1988 140.352 51.1988 138.544C51.1988 136.736 49.2628 135.664 46.1908 135.664ZM46.1908 137.328C48.0788 137.328 49.0868 137.712 49.0868 138.544C49.0868 139.376 48.0788 139.792 46.1908 139.792C44.3028 139.792 43.2788 139.376 43.2788 138.544C43.2788 137.712 44.3028 137.328 46.1908 137.328ZM59.8818 127.264V128.96H69.2738V127.264H59.8818ZM58.2338 133.68V135.376H71.6418V133.68H58.2338ZM67.9938 127.264V128.656C67.9938 130.176 67.9938 131.776 67.5138 133.968L69.6098 134.176C70.0898 131.872 70.0898 130.224 70.0898 128.656V127.264H67.9938ZM68.6338 130.272L59.4658 130.464L59.7218 132.176L68.6338 131.808V130.272ZM59.7858 139.472V141.168H70.2978V139.472H59.7858ZM59.7858 136.448V139.888H61.9138V136.448H59.7858ZM24.64 157.92V159.616H38.048V157.92H24.64ZM30.448 158.992V162.112H32.592V158.992H30.448ZM26.288 151.232V156.736H36.352V151.232H26.288ZM34.256 152.896V155.072H28.368V152.896H34.256ZM26.192 163.472V165.168H36.576V163.472H26.192ZM26.192 160.864V164.032H28.304V160.864H26.192ZM50.0628 150.608V165.424H52.0788V150.608H50.0628ZM45.1828 155.664V157.392H47.6308V155.664H45.1828ZM47.0708 150.848V164.752H49.0548V150.848H47.0708ZM41.9828 153.024V154.544C41.9828 157.072 41.2308 159.728 39.0548 161.088L40.3188 162.656C42.6708 161.184 43.5828 157.872 43.5828 154.544V153.024H41.9828ZM42.4628 153.024V154.544C42.4628 157.808 43.3268 160.912 45.6788 162.304L46.9268 160.752C44.7828 159.504 44.0468 157.008 44.0468 154.544V153.024H42.4628ZM39.6148 152.096V153.808H46.2228V152.096H39.6148ZM62.0935 154.016V155.744H64.9095V154.016H62.0935ZM64.3495 150.608V159.168H66.4775V150.608H64.3495ZM56.6055 159.776V165.264H66.4775V159.776H56.6055ZM64.3975 161.44V163.584H58.7015V161.44H64.3975ZM57.5015 151.984V152.912C57.5015 154.784 56.4455 156.72 53.9975 157.52L55.0695 159.2C57.9175 158.272 59.2295 155.712 59.2295 152.912V151.984H57.5015ZM57.9495 151.984V152.912C57.9495 155.552 59.2135 158.016 61.9655 158.928L63.0055 157.248C60.6695 156.464 59.6615 154.64 59.6615 152.912V151.984H57.9495ZM54.5735 151.36V153.04H62.5415V151.36H54.5735ZM68.7963 158.16V159.856H82.1883V158.16H68.7963ZM70.4123 163.472V165.168H80.6843V163.472H70.4123ZM70.4123 160.848V164.016H72.5403V160.848H70.4123ZM75.5003 151.04C72.2682 151.04 70.1403 152.208 70.1403 154.096C70.1403 155.984 72.2682 157.152 75.5003 157.152C78.7163 157.152 80.8603 155.984 80.8603 154.096C80.8603 152.208 78.7163 151.04 75.5003 151.04ZM75.5003 152.736C77.5003 152.736 78.6683 153.2 78.6683 154.096C78.6683 155.008 77.5003 155.456 75.5003 155.456C73.5003 155.456 72.3323 155.008 72.3323 154.096C72.3323 153.2 73.5003 152.736 75.5003 152.736ZM85.035 160.208V159.632C85.035 159.109 85.147 158.667 85.371 158.304C85.595 157.931 85.979 157.547 86.523 157.152C87.003 156.811 87.3443 156.517 87.547 156.272C87.7603 156.016 87.867 155.717 87.867 155.376C87.867 155.045 87.739 154.789 87.483 154.608C87.2377 154.427 86.891 154.336 86.443 154.336C85.995 154.336 85.5523 154.405 85.115 154.544C84.6777 154.683 84.2297 154.869 83.771 155.104L82.923 153.392C83.4457 153.104 84.011 152.869 84.619 152.688C85.227 152.507 85.8937 152.416 86.619 152.416C87.7283 152.416 88.587 152.683 89.195 153.216C89.8137 153.749 90.123 154.427 90.123 155.248C90.123 155.685 90.0537 156.064 89.915 156.384C89.7763 156.704 89.5683 157.003 89.291 157.28C89.0137 157.557 88.667 157.845 88.251 158.144C87.931 158.379 87.6857 158.576 87.515 158.736C87.355 158.885 87.243 159.04 87.179 159.2C87.1257 159.349 87.099 159.531 87.099 159.744V160.208H85.035ZM84.779 162.88C84.779 162.389 84.9123 162.048 85.179 161.856C85.4457 161.653 85.771 161.552 86.155 161.552C86.5283 161.552 86.8483 161.653 87.115 161.856C87.3817 162.048 87.515 162.389 87.515 162.88C87.515 163.349 87.3817 163.691 87.115 163.904C86.8483 164.107 86.5283 164.208 86.155 164.208C85.771 164.208 85.4457 164.107 85.179 163.904C84.9123 163.691 84.779 163.349 84.779 162.88Z" fill="#A0A0A0"/>
</svg>
