<svg width="90" height="106" viewBox="0 0 90 106" fill="none" xmlns="http://www.w3.org/2000/svg">
<path d="M84.9043 31.0121C85.3396 31.717 86.2638 31.9357 86.9687 31.5005C87.6736 31.0653 87.8922 30.141 87.457 29.4361L84.9043 31.0121ZM59.2355 7.88588L59.7527 6.47787L59.2355 7.88588ZM21.8065 22.9897L20.4166 22.4258L21.8065 22.9897ZM25.1049 60.2254L25.5308 58.7871L25.1049 60.2254ZM33.3508 48.2283L32.0353 48.9491L33.3508 48.2283ZM15.4574 37.8317L14.7583 36.5045L15.4574 37.8317ZM5.75724 61.5251L4.25729 61.5128L5.75724 61.5251ZM31.5211 99.8059C32.3175 99.5778 32.7782 98.7473 32.5501 97.9509L28.8329 84.9727C28.6048 84.1763 27.7742 83.7156 26.9778 83.9437C26.1814 84.1718 25.7207 85.0024 25.9488 85.7988L29.253 97.3349L17.7169 100.639C16.9205 100.867 16.4598 101.698 16.6879 102.494C16.916 103.291 17.7465 103.751 18.5429 103.523L31.5211 99.8059ZM87.457 29.4361C84.3775 24.4483 81.473 20.1513 77.2988 16.3788C73.1133 12.5961 67.729 9.40798 59.7527 6.47787L58.7183 9.29388C66.4349 12.1286 71.4567 15.1427 75.2873 18.6045C79.1291 22.0766 81.8508 26.0663 84.9043 31.0121L87.457 29.4361ZM59.7527 6.47787C44.9773 1.05013 27.3363 5.36865 20.4166 22.4258L23.1965 23.5536C29.3594 8.36192 45.061 4.2769 58.7183 9.29388L59.7527 6.47787ZM20.4166 22.4258C18.1581 27.9931 15.0458 36.3575 14.4914 43.9641C14.2137 47.7748 14.5647 51.5415 16.1103 54.7073C17.6862 57.9351 20.443 60.409 24.6789 61.6636L25.5308 58.7871C22.0678 57.7614 19.9982 55.8327 18.8062 53.3912C17.5839 50.8876 17.2258 47.7184 17.4835 44.1822C18 37.0951 20.9375 29.122 23.1965 23.5536L20.4166 22.4258ZM24.6789 61.6636C29.0415 62.9558 32.7121 61.3946 34.667 58.3594C36.5732 55.3998 36.7179 51.2519 34.6663 47.5075L32.0353 48.9491C33.6165 51.8348 33.3927 54.7975 32.1449 56.7349C30.9458 58.5967 28.677 59.719 25.5308 58.7871L24.6789 61.6636ZM34.6663 47.5075C33.1709 44.7784 30.1764 41.1517 26.6788 38.625C23.2519 36.1494 18.8069 34.3718 14.7583 36.5045L16.1565 39.1588C18.6134 37.8646 21.7241 38.7466 24.922 41.0568C28.0492 43.3159 30.7487 46.601 32.0353 48.9491L34.6663 47.5075ZM14.7583 36.5045C10.7194 38.6321 8.14426 43.1393 6.56863 47.7756C4.97353 52.4692 4.28907 57.6263 4.25729 61.5128L7.25719 61.5373C7.28672 57.9264 7.93039 53.092 9.40908 48.7409C10.9072 44.3325 13.1515 40.7417 16.1565 39.1588L14.7583 36.5045ZM4.25729 61.5128C4.18944 69.8085 7.63724 77.6328 12.5903 84.1996C17.5455 90.7694 24.0791 96.1802 30.3804 99.6756L31.8357 97.0522C25.8796 93.7483 19.6734 88.6086 14.9854 82.3931C10.2952 76.1748 7.19632 68.9793 7.25719 61.5373L4.25729 61.5128Z" fill="#DE006B"/>
</svg>
