<svg width="52" height="106" viewBox="0 0 52 106" fill="none" xmlns="http://www.w3.org/2000/svg">
<path d="M48.7181 9.29555C49.5318 9.45121 50.3176 8.9178 50.4733 8.10413C50.6289 7.29046 50.0955 6.50465 49.2819 6.34899L48.7181 9.29555ZM12.7928 25.6254L14.2569 25.9519L12.7928 25.6254ZM21.9257 61.2534L21.7395 62.7418L21.9257 61.2534ZM27.9558 48.2749L29.1389 47.3528L27.9558 48.2749ZM9.04601 41.061L8.13489 39.8695L9.04601 41.061ZM3.48431 65.6321L2.00231 65.8638L3.48431 65.6321ZM34.4505 98.679C35.1996 98.3254 35.5203 97.4314 35.1667 96.6822L29.4046 84.4737C29.051 83.7245 28.157 83.4039 27.4079 83.7574C26.6587 84.111 26.338 85.005 26.6916 85.7542L31.8135 96.6062L20.9615 101.728C20.2123 102.082 19.8916 102.976 20.2452 103.725C20.5988 104.474 21.4928 104.795 22.2419 104.441L34.4505 98.679ZM49.2819 6.34899C41.8055 4.91864 33.3823 5.18012 26.2848 8.02122C19.1311 10.8848 13.3165 16.3863 11.3288 25.2989L14.2569 25.9519C15.9963 18.1525 21.0162 13.3617 27.3997 10.8064C33.8395 8.22857 41.6563 7.9445 48.7181 9.29555L49.2819 6.34899ZM11.3288 25.2989C10.042 31.0691 8.37901 39.6948 9.06106 47.173C9.40271 50.919 10.3436 54.5235 12.3425 57.353C14.3816 60.2394 17.4432 62.2042 21.7395 62.7418L22.112 59.765C18.6227 59.3284 16.3281 57.7952 14.7928 55.622C13.2173 53.392 12.3656 50.3753 12.0487 46.9005C11.4136 39.9372 12.9698 31.7232 14.2569 25.9519L11.3288 25.2989ZM21.7395 62.7418C26.1733 63.2966 29.4753 61.1766 30.8775 57.9066C32.2437 54.7207 31.7197 50.6642 29.1389 47.3528L26.7727 49.1969C28.7537 51.7388 29.0113 54.6466 28.1204 56.7243C27.2655 58.7178 25.2715 60.1604 22.112 59.765L21.7395 62.7418ZM29.1389 47.3528C27.259 44.9406 23.7891 41.8977 20.0084 40.0049C16.3062 38.1512 11.7156 37.1315 8.13489 39.8695L9.95714 42.2526C12.0991 40.6148 15.2167 40.9608 18.6654 42.6874C22.0355 44.3748 25.1593 47.1267 26.7727 49.1969L29.1389 47.3528ZM8.13489 39.8695C4.57314 42.5929 2.81115 47.3918 2.03379 52.1473C1.24649 56.9637 1.41135 62.0833 2.00231 65.8638L4.96632 65.4004C4.41761 61.8903 4.26513 57.0933 4.9945 52.6313C5.73381 48.1085 7.32251 44.2672 9.95714 42.2526L8.13489 39.8695ZM2.00231 65.8638C3.26391 73.9344 7.84065 80.9811 13.6684 86.5637C19.4985 92.1484 26.6657 96.3532 33.3037 98.7344L34.3167 95.9106C28.0526 93.6635 21.253 89.6748 15.7437 84.3973C10.2321 79.1176 6.09695 72.6333 4.96632 65.4004L2.00231 65.8638Z" fill="#DE006B"/>
</svg>
