<svg width="679" height="385" viewBox="0 0 679 385" fill="none" xmlns="http://www.w3.org/2000/svg">
<g filter="url(#filter0_bd_125_7387)">
<path d="M331.82 250.901C334.25 238.748 344.921 230 357.315 230H626C640.359 230 652 241.641 652 256V324C652 338.359 640.359 350 626 350H312L331.82 250.901Z" fill="white" fill-opacity="0.84" shape-rendering="crispEdges"/>
<path d="M357.315 230.6H626C640.028 230.6 651.4 241.972 651.4 256V324C651.4 338.028 640.028 349.4 626 349.4H312.732L332.408 251.019C334.783 239.146 345.207 230.6 357.315 230.6Z" stroke="url(#paint0_linear_125_7387)" stroke-width="1.20008" shape-rendering="crispEdges"/>
</g>
<path d="M389.8 273.976V278.464H392.776V273.976H389.8ZM386.056 280.384C388.816 280.384 393.352 280.288 396.832 279.592L396.616 277.288C393.256 277.768 388.552 277.816 385.672 277.816L386.056 280.384ZM402.136 262.912V285.136H405.16V262.912H402.136ZM399.448 271.744V274.336H403.024V271.744H399.448ZM397.528 263.272V284.128H400.504V263.272H397.528ZM391.288 264.856C388.288 264.856 386.152 266.824 386.152 269.728C386.152 272.632 388.288 274.624 391.288 274.624C394.288 274.624 396.424 272.632 396.424 269.728C396.424 266.824 394.288 264.856 391.288 264.856ZM391.288 267.4C392.584 267.4 393.496 268.264 393.496 269.728C393.496 271.24 392.584 272.032 391.288 272.032C389.968 272.032 389.056 271.24 389.056 269.728C389.056 268.264 389.968 267.4 391.288 267.4ZM408.446 281.32C408.446 280.584 408.646 280.072 409.046 279.784C409.446 279.48 409.934 279.328 410.51 279.328C411.07 279.328 411.55 279.48 411.95 279.784C412.35 280.072 412.55 280.584 412.55 281.32C412.55 282.024 412.35 282.536 411.95 282.856C411.55 283.16 411.07 283.312 410.51 283.312C409.934 283.312 409.446 283.16 409.046 282.856C408.646 282.536 408.446 282.024 408.446 281.32ZM415.29 281.32C415.29 280.584 415.49 280.072 415.89 279.784C416.29 279.48 416.778 279.328 417.354 279.328C417.914 279.328 418.394 279.48 418.794 279.784C419.194 280.072 419.394 280.584 419.394 281.32C419.394 282.024 419.194 282.536 418.794 282.856C418.394 283.16 417.914 283.312 417.354 283.312C416.778 283.312 416.29 283.16 415.89 282.856C415.49 282.536 415.29 282.024 415.29 281.32ZM442.264 262.936V279.544H445.456V262.936H442.264ZM444.544 269.704V272.32H448.408V269.704H444.544ZM427.96 265.24V267.736H441.04V265.24H427.96ZM434.512 268.528C431.296 268.528 429.04 270.28 429.04 272.824C429.04 275.368 431.296 277.096 434.512 277.096C437.704 277.096 439.96 275.368 439.96 272.824C439.96 270.28 437.704 268.528 434.512 268.528ZM434.512 270.952C435.928 270.952 436.912 271.624 436.912 272.824C436.912 274.024 435.928 274.672 434.512 274.672C433.096 274.672 432.112 274.024 432.112 272.824C432.112 271.624 433.096 270.952 434.512 270.952ZM432.904 262.888V266.464H436.096V262.888H432.904ZM431.128 282.208V284.752H446.248V282.208H431.128ZM431.128 278.296V283.312H434.32V278.296H431.128ZM452.51 263.848V266.392H466.598V263.848H452.51ZM450.062 271.528V274.072H470.174V271.528H450.062ZM458.486 273.328V277.984H461.678V273.328H458.486ZM464.678 263.848V265.624C464.678 267.496 464.678 269.536 463.982 272.392L467.126 272.704C467.822 269.776 467.822 267.544 467.822 265.624V263.848H464.678ZM452.078 277.192V279.712H464.654V285.136H467.846V277.192H452.078ZM487.38 262.936V278.896H490.596V262.936H487.38ZM475.788 282.208V284.752H491.148V282.208H475.788ZM475.788 277.288V283.24H478.98V277.288H475.788ZM478.5 264.328C475.092 264.328 472.452 266.68 472.452 269.968C472.452 273.232 475.092 275.608 478.5 275.608C481.908 275.608 484.524 273.232 484.524 269.968C484.524 266.68 481.908 264.328 478.5 264.328ZM478.5 267.088C480.132 267.088 481.404 268.144 481.404 269.968C481.404 271.768 480.132 272.824 478.5 272.824C476.844 272.824 475.572 271.768 475.572 269.968C475.572 268.144 476.844 267.088 478.5 267.088ZM494.218 271.528V274.048H514.33V271.528H494.218ZM496.69 267.832V270.328H511.954V267.832H496.69ZM496.69 263.32V269.992H499.858V265.864H511.762V263.32H496.69ZM496.498 275.296V277.696H508.714V278.92H496.522V283.096H499.666V281.176H511.858V275.296H496.498ZM496.522 282.52V284.968H512.434V282.52H496.522ZM516.273 274.24V276.784H536.361V274.24H516.273ZM518.697 282.208V284.752H534.105V282.208H518.697ZM518.697 278.272V283.024H521.889V278.272H518.697ZM526.329 263.56C521.48 263.56 518.289 265.312 518.289 268.144C518.289 270.976 521.48 272.728 526.329 272.728C531.153 272.728 534.369 270.976 534.369 268.144C534.369 265.312 531.153 263.56 526.329 263.56ZM526.329 266.104C529.329 266.104 531.081 266.8 531.081 268.144C531.081 269.512 529.329 270.184 526.329 270.184C523.329 270.184 521.577 269.512 521.577 268.144C521.577 266.8 523.329 266.104 526.329 266.104ZM392.056 296.448C388.72 296.448 386.32 299.52 386.32 304.368C386.32 309.264 388.72 312.336 392.056 312.336C395.368 312.336 397.792 309.264 397.792 304.368C397.792 299.52 395.368 296.448 392.056 296.448ZM392.056 299.352C393.688 299.352 394.744 301.104 394.744 304.368C394.744 307.68 393.688 309.456 392.056 309.456C390.448 309.456 389.368 307.68 389.368 304.368C389.368 301.104 390.448 299.352 392.056 299.352ZM401.44 294.888V317.184H404.608V294.888H401.44ZM396.856 302.904V305.472H402.784V302.904H396.856ZM423.446 294.888V317.184H426.638V294.888H423.446ZM419.798 299.616V302.184H423.974V299.616H419.798ZM408.806 309.624V312.24H410.558C413.942 312.24 416.774 312.168 420.038 311.664L419.774 309.072C416.582 309.552 413.846 309.624 410.558 309.624H408.806ZM408.758 296.76V299.304H415.55V302.856H408.806V310.2H411.974V305.376H418.694V296.76H408.758ZM419.75 305.664V308.232H423.926V305.664H419.75ZM430.116 305.712V308.232H450.252V305.712H430.116ZM438.732 307.368V312.048H441.972V307.368H438.732ZM432.468 314.184V316.752H448.044V314.184H432.468ZM432.468 310.104V314.832H435.684V310.104H432.468ZM440.172 295.32C435.372 295.32 432.18 297.12 432.18 299.928C432.18 302.76 435.372 304.536 440.172 304.536C444.948 304.536 448.164 302.76 448.164 299.928C448.164 297.12 444.948 295.32 440.172 295.32ZM440.172 297.84C442.98 297.84 444.732 298.56 444.732 299.928C444.732 301.296 442.98 301.992 440.172 301.992C437.364 301.992 435.612 301.296 435.612 299.928C435.612 298.56 437.364 297.84 440.172 297.84ZM468.269 297.816V300.36H474.845V297.816H468.269ZM468.269 302.736V305.304H474.845V302.736H468.269ZM464.573 296.088C461.237 296.088 458.693 298.392 458.693 301.536C458.693 304.68 461.237 306.984 464.573 306.984C467.885 306.984 470.429 304.68 470.429 301.536C470.429 298.392 467.885 296.088 464.573 296.088ZM464.573 298.8C466.205 298.8 467.405 299.784 467.405 301.536C467.405 303.264 466.205 304.296 464.573 304.296C462.941 304.296 461.741 303.264 461.741 301.536C461.741 299.784 462.941 298.8 464.573 298.8ZM473.837 294.912V307.92H477.029V294.912H473.837ZM469.493 308.376C464.813 308.376 461.885 310.008 461.885 312.768C461.885 315.528 464.813 317.136 469.493 317.136C474.173 317.136 477.101 315.528 477.101 312.768C477.101 310.008 474.173 308.376 469.493 308.376ZM469.493 310.848C472.421 310.848 473.957 311.472 473.957 312.768C473.957 314.064 472.421 314.688 469.493 314.688C466.589 314.688 465.029 314.064 465.029 312.768C465.029 311.472 466.589 310.848 469.493 310.848ZM486.603 296.448C483.267 296.448 480.867 299.52 480.867 304.368C480.867 309.264 483.267 312.336 486.603 312.336C489.915 312.336 492.339 309.264 492.339 304.368C492.339 299.52 489.915 296.448 486.603 296.448ZM486.603 299.352C488.235 299.352 489.291 301.104 489.291 304.368C489.291 307.68 488.235 309.456 486.603 309.456C484.995 309.456 483.915 307.68 483.915 304.368C483.915 301.104 484.995 299.352 486.603 299.352ZM495.987 294.888V317.184H499.155V294.888H495.987ZM491.403 302.904V305.472H497.331V302.904H491.403ZM502.609 312.096V314.688H522.721V312.096H502.609ZM511.033 307.896V313.152H514.225V307.896H511.033ZM504.865 296.352V298.872H517.297V301.248H504.913V307.488H508.081V303.744H520.465V296.352H504.865ZM504.913 306.216V308.784H520.969V306.216H504.913ZM545.202 294.912V306H548.394V294.912H545.202ZM547.098 299.16V301.776H551.322V299.16H547.098ZM531.546 295.944V305.184H542.13V295.944H531.546ZM538.986 298.44V302.688H534.69V298.44H538.986ZM533.706 306.888V309.336H545.25V310.68H533.754V315.624H536.922V312.984H548.394V306.888H533.706ZM533.754 314.4V316.896H549.042V314.4H533.754ZM567.28 294.888V306.888H570.472V294.888H567.28ZM569.2 299.64V302.232H573.424V299.64H569.2ZM555.784 307.776V310.08H567.328V311.256H555.832V315.432H559V313.416H570.472V307.776H555.784ZM555.832 314.64V316.992H571.12V314.64H555.832ZM552.976 296.544V298.944H566.056V296.544H552.976ZM559.528 299.472C556.216 299.472 554.056 300.888 554.056 303.12C554.056 305.352 556.216 306.72 559.528 306.72C562.816 306.72 564.976 305.352 564.976 303.12C564.976 300.888 562.816 299.472 559.528 299.472ZM559.528 301.704C561.016 301.704 561.928 302.184 561.928 303.12C561.928 304.008 561.016 304.488 559.528 304.488C558.04 304.488 557.128 304.008 557.128 303.12C557.128 302.184 558.04 301.704 559.528 301.704ZM557.92 294.744V298.248H561.112V294.744H557.92ZM589.526 294.912V317.136H592.718V294.912H589.526ZM591.734 303.6V306.24H595.598V303.6H591.734ZM578.63 297.168V297.552C578.63 303.192 578.03 306.888 574.598 310.68L577.094 312.48C581.03 308.064 581.606 303.336 581.606 297.168H578.63ZM575.582 297.168V299.76H579.878V297.168H575.582ZM584.75 297.168V297.528C584.75 303.6 584.198 307.872 580.838 312.12L583.334 313.896C587.198 309.072 587.726 303.624 587.726 297.168H584.75ZM582.35 297.168V299.76H586.07V297.168H582.35ZM599.412 309.312V308.448C599.412 307.664 599.58 307 599.916 306.456C600.252 305.896 600.828 305.32 601.644 304.728C602.364 304.216 602.876 303.776 603.18 303.408C603.5 303.024 603.66 302.576 603.66 302.064C603.66 301.568 603.468 301.184 603.084 300.912C602.716 300.64 602.196 300.504 601.524 300.504C600.852 300.504 600.188 300.608 599.532 300.816C598.876 301.024 598.204 301.304 597.516 301.656L596.244 299.088C597.028 298.656 597.876 298.304 598.788 298.032C599.7 297.76 600.7 297.624 601.788 297.624C603.452 297.624 604.74 298.024 605.652 298.824C606.58 299.624 607.044 300.64 607.044 301.872C607.044 302.528 606.94 303.096 606.732 303.576C606.524 304.056 606.212 304.504 605.796 304.92C605.38 305.336 604.86 305.768 604.236 306.216C603.756 306.568 603.388 306.864 603.132 307.104C602.892 307.328 602.724 307.56 602.628 307.8C602.548 308.024 602.508 308.296 602.508 308.616V309.312H599.412ZM599.028 313.32C599.028 312.584 599.228 312.072 599.628 311.784C600.028 311.48 600.516 311.328 601.092 311.328C601.652 311.328 602.132 311.48 602.532 311.784C602.932 312.072 603.132 312.584 603.132 313.32C603.132 314.024 602.932 314.536 602.532 314.856C602.132 315.16 601.652 315.312 601.092 315.312C600.516 315.312 600.028 315.16 599.628 314.856C599.228 314.536 599.028 314.024 599.028 313.32Z" fill="#414141"/>
<g filter="url(#filter1_bd_125_7387)">
<path d="M46.8198 40.901C49.2504 28.748 59.9212 20 72.3149 20H341C355.359 20 367 31.6406 367 46V114C367 128.359 355.359 140 341 140H27L46.8198 40.901Z" fill="white" fill-opacity="0.84" shape-rendering="crispEdges"/>
<path d="M72.3149 20.6H341C355.028 20.6 366.4 31.972 366.4 46V114C366.4 128.028 355.028 139.4 341 139.4H27.7319L47.4082 41.0187C49.7827 29.1461 60.2072 20.6 72.3149 20.6Z" stroke="url(#paint1_linear_125_7387)" stroke-width="1.20008" shape-rendering="crispEdges"/>
</g>
<path d="M102.016 67.216V69.832H103.816C107.872 69.832 110.536 69.712 113.512 69.16L113.2 66.592C110.32 67.12 107.752 67.216 103.816 67.216H102.016ZM102.016 54.88V68.2H105.208V57.424H112.072V54.88H102.016ZM116.44 52.912V75.208H119.632V52.912H116.44ZM110.992 60.568V63.16H117.784V60.568H110.992ZM135.368 63.304V67.096H138.537V63.304H135.368ZM132.585 66.664V74.896H147.801V66.664H144.633V68.488H135.753V66.664H132.585ZM135.753 70.888H144.633V72.4H135.753V70.888ZM144.609 52.912V65.728H147.801V52.912H144.609ZM129.681 64.792C133.689 64.792 138.849 64.744 143.625 63.904L143.433 61.648C138.753 62.248 133.401 62.272 129.321 62.272L129.681 64.792ZM135.105 53.488V54.352C135.105 56.344 133.593 58.24 130.065 58.984L131.433 61.384C135.657 60.472 137.649 57.712 137.649 54.352V53.488H135.105ZM135.849 53.488V54.352C135.849 57.568 137.889 60.184 142.041 61.048L143.361 58.624C139.953 58 138.417 56.224 138.417 54.352V53.488H135.849ZM167.455 52.912V75.136H170.503V52.912H167.455ZM158.647 61.432V63.952H163.399V61.432H158.647ZM162.775 53.392V74.152H165.751V53.392H162.775ZM157.927 55.528V56.176C157.927 61.552 156.127 65.248 151.063 68.296L152.863 70.528C159.103 66.904 160.999 61.864 160.999 55.528H157.927ZM152.311 55.528V58.072H158.935V55.528H152.311ZM193.967 52.912V64H197.159V52.912H193.967ZM195.863 57.16V59.776H200.087V57.16H195.863ZM180.311 53.944V63.184H190.895V53.944H180.311ZM187.751 56.44V60.688H183.455V56.44H187.751ZM182.471 64.888V67.336H194.015V68.68H182.519V73.624H185.687V70.984H197.159V64.888H182.471ZM182.519 72.4V74.896H197.807V72.4H182.519ZM216.045 52.888V64.888H219.237V52.888H216.045ZM217.965 57.64V60.232H222.189V57.64H217.965ZM204.549 65.776V68.08H216.093V69.256H204.597V73.432H207.765V71.416H219.237V65.776H204.549ZM204.597 72.64V74.992H219.885V72.64H204.597ZM201.741 54.544V56.944H214.821V54.544H201.741ZM208.293 57.472C204.981 57.472 202.821 58.888 202.821 61.12C202.821 63.352 204.981 64.72 208.293 64.72C211.581 64.72 213.741 63.352 213.741 61.12C213.741 58.888 211.581 57.472 208.293 57.472ZM208.293 59.704C209.781 59.704 210.693 60.184 210.693 61.12C210.693 62.008 209.781 62.488 208.293 62.488C206.805 62.488 205.893 62.008 205.893 61.12C205.893 60.184 206.805 59.704 208.293 59.704ZM206.685 52.744V56.248H209.877V52.744H206.685ZM240.302 66.496C235.67 66.496 232.766 68.104 232.766 70.816C232.766 73.552 235.67 75.16 240.302 75.16C244.91 75.16 247.814 73.552 247.814 70.816C247.814 68.104 244.91 66.496 240.302 66.496ZM240.302 68.992C243.134 68.992 244.646 69.568 244.646 70.816C244.646 72.088 243.134 72.688 240.302 72.688C237.47 72.688 235.934 72.088 235.934 70.816C235.934 69.568 237.47 68.992 240.302 68.992ZM244.358 52.912V65.992H247.55V52.912H244.358ZM246.662 58.072V60.712H250.502V58.072H246.662ZM230.702 54.328V64.768H241.382V54.328H238.214V57.064H233.87V54.328H230.702ZM233.87 59.536H238.214V62.272H233.87V59.536ZM253.068 54.04V64.432H263.58V54.04H260.46V56.848H256.236V54.04H253.068ZM256.236 59.272H260.46V61.888H256.236V59.272ZM262.86 57.976V60.544H268.26V57.976H262.86ZM267.54 52.912V65.08H270.732V52.912H267.54ZM255.972 66.016V74.872H270.732V66.016H267.564V68.008H259.14V66.016H255.972ZM259.14 70.456H267.564V72.328H259.14V70.456ZM274.21 64.24V66.784H294.298V64.24H274.21ZM276.634 72.208V74.752H292.042V72.208H276.634ZM276.634 68.272V73.024H279.826V68.272H276.634ZM284.266 53.56C279.418 53.56 276.226 55.312 276.226 58.144C276.226 60.976 279.418 62.728 284.266 62.728C289.09 62.728 292.306 60.976 292.306 58.144C292.306 55.312 289.09 53.56 284.266 53.56ZM284.266 56.104C287.266 56.104 289.018 56.8 289.018 58.144C289.018 59.512 287.266 60.184 284.266 60.184C281.266 60.184 279.514 59.512 279.514 58.144C279.514 56.8 281.266 56.104 284.266 56.104ZM103.408 97.92V106.896H111.52V97.92H108.568V100.104H106.36V97.92H103.408ZM106.36 102.408H108.568V104.496H106.36V102.408ZM114.952 97.752V99.408C114.952 101.496 113.872 103.632 111.208 104.736L112.768 107.112C116.056 105.84 117.376 102.672 117.376 99.408V97.752H114.952ZM115.696 97.752V99.408C115.696 102.912 116.944 105.912 120.304 107.112L121.888 104.736C119.176 103.824 118.12 101.712 118.12 99.408V97.752H115.696ZM112.192 89.664V92.256H117.76V89.664H112.192ZM107.104 85.752C103.744 85.752 101.224 87.912 101.224 90.984C101.224 94.056 103.744 96.24 107.104 96.24C110.44 96.24 112.96 94.056 112.96 90.984C112.96 87.912 110.44 85.752 107.104 85.752ZM107.104 88.368C108.736 88.368 109.912 89.352 109.912 90.984C109.912 92.616 108.736 93.624 107.104 93.624C105.472 93.624 104.272 92.616 104.272 90.984C104.272 89.352 105.472 88.368 107.104 88.368ZM116.368 84.912V96.672H119.56V84.912H116.368ZM133.094 85.224C128.006 85.224 125.054 86.568 125.054 89.016C125.054 91.464 128.006 92.808 133.094 92.808C138.158 92.808 141.134 91.464 141.134 89.016C141.134 86.568 138.158 85.224 133.094 85.224ZM133.094 87.552C136.31 87.552 137.822 88.032 137.822 89.016C137.822 90.048 136.31 90.48 133.094 90.48C129.878 90.48 128.366 90.048 128.366 89.016C128.366 88.032 129.878 87.552 133.094 87.552ZM123.038 93.84V96.36H143.126V93.84H123.038ZM125.342 97.608V99.984H137.558V101.112H125.366V105.288H128.51V103.32H140.702V97.608H125.342ZM125.366 104.592V106.992H141.278V104.592H125.366ZM159.588 84.912V107.136H162.78V84.912H159.588ZM161.796 93.6V96.24H165.66V93.6H161.796ZM148.692 87.168V87.552C148.692 93.192 148.092 96.888 144.66 100.68L147.156 102.48C151.092 98.064 151.668 93.336 151.668 87.168H148.692ZM145.644 87.168V89.76H149.94V87.168H145.644ZM154.812 87.168V87.528C154.812 93.6 154.26 97.872 150.9 102.12L153.396 103.896C157.26 99.072 157.788 93.624 157.788 87.168H154.812ZM152.412 87.168V89.76H156.132V87.168H152.412ZM169.474 99.312V98.448C169.474 97.664 169.642 97 169.978 96.456C170.314 95.896 170.89 95.32 171.706 94.728C172.426 94.216 172.938 93.776 173.242 93.408C173.562 93.024 173.722 92.576 173.722 92.064C173.722 91.568 173.53 91.184 173.146 90.912C172.778 90.64 172.258 90.504 171.586 90.504C170.914 90.504 170.25 90.608 169.594 90.816C168.938 91.024 168.266 91.304 167.578 91.656L166.306 89.088C167.09 88.656 167.938 88.304 168.85 88.032C169.762 87.76 170.762 87.624 171.85 87.624C173.514 87.624 174.802 88.024 175.714 88.824C176.642 89.624 177.106 90.64 177.106 91.872C177.106 92.528 177.002 93.096 176.794 93.576C176.586 94.056 176.274 94.504 175.858 94.92C175.442 95.336 174.922 95.768 174.298 96.216C173.818 96.568 173.45 96.864 173.194 97.104C172.954 97.328 172.786 97.56 172.69 97.8C172.61 98.024 172.57 98.296 172.57 98.616V99.312H169.474ZM169.09 103.32C169.09 102.584 169.29 102.072 169.69 101.784C170.09 101.48 170.578 101.328 171.154 101.328C171.714 101.328 172.194 101.48 172.594 101.784C172.994 102.072 173.194 102.584 173.194 103.32C173.194 104.024 172.994 104.536 172.594 104.856C172.194 105.16 171.714 105.312 171.154 105.312C170.578 105.312 170.09 105.16 169.69 104.856C169.29 104.536 169.09 104.024 169.09 103.32Z" fill="#414141"/>
<defs>
<filter id="filter0_bd_125_7387" x="285" y="210.2" width="394" height="174" filterUnits="userSpaceOnUse" color-interpolation-filters="sRGB">
<feFlood flood-opacity="0" result="BackgroundImageFix"/>
<feGaussianBlur in="BackgroundImageFix" stdDeviation="3.00021"/>
<feComposite in2="SourceAlpha" operator="in" result="effect1_backgroundBlur_125_7387"/>
<feColorMatrix in="SourceAlpha" type="matrix" values="0 0 0 0 0 0 0 0 0 0 0 0 0 0 0 0 0 0 127 0" result="hardAlpha"/>
<feOffset dy="7.2005"/>
<feGaussianBlur stdDeviation="13.5"/>
<feComposite in2="hardAlpha" operator="out"/>
<feColorMatrix type="matrix" values="0 0 0 0 0 0 0 0 0 0 0 0 0 0 0 0 0 0 0.1 0"/>
<feBlend mode="normal" in2="effect1_backgroundBlur_125_7387" result="effect2_dropShadow_125_7387"/>
<feBlend mode="normal" in="SourceGraphic" in2="effect2_dropShadow_125_7387" result="shape"/>
</filter>
<filter id="filter1_bd_125_7387" x="0" y="0.200496" width="394" height="174" filterUnits="userSpaceOnUse" color-interpolation-filters="sRGB">
<feFlood flood-opacity="0" result="BackgroundImageFix"/>
<feGaussianBlur in="BackgroundImageFix" stdDeviation="3.00021"/>
<feComposite in2="SourceAlpha" operator="in" result="effect1_backgroundBlur_125_7387"/>
<feColorMatrix in="SourceAlpha" type="matrix" values="0 0 0 0 0 0 0 0 0 0 0 0 0 0 0 0 0 0 127 0" result="hardAlpha"/>
<feOffset dy="7.2005"/>
<feGaussianBlur stdDeviation="13.5"/>
<feComposite in2="hardAlpha" operator="out"/>
<feColorMatrix type="matrix" values="0 0 0 0 0 0 0 0 0 0 0 0 0 0 0 0 0 0 0.1 0"/>
<feBlend mode="normal" in2="effect1_backgroundBlur_125_7387" result="effect2_dropShadow_125_7387"/>
<feBlend mode="normal" in="SourceGraphic" in2="effect2_dropShadow_125_7387" result="shape"/>
</filter>
<linearGradient id="paint0_linear_125_7387" x1="634.671" y1="343.846" x2="335.295" y2="294.256" gradientUnits="userSpaceOnUse">
<stop stop-color="white"/>
<stop offset="1" stop-color="white" stop-opacity="0"/>
</linearGradient>
<linearGradient id="paint1_linear_125_7387" x1="349.671" y1="133.846" x2="50.295" y2="84.2559" gradientUnits="userSpaceOnUse">
<stop stop-color="white"/>
<stop offset="1" stop-color="white" stop-opacity="0"/>
</linearGradient>
</defs>
</svg>
