<svg width="353" height="220" viewBox="0 0 353 220" fill="none" xmlns="http://www.w3.org/2000/svg">
<g filter="url(#filter0_d_486_10980)">
<rect x="10" y="45" width="212" height="52.5" rx="15" fill="#FAFAFA"/>
</g>
<path d="M79.9506 65.775V74.589H81.0296V65.775H79.9506ZM80.6916 69.623V70.533H82.7716V69.623H80.6916ZM71.9426 67.192V68.063H78.8846V67.192H71.9426ZM75.4136 68.713C73.7366 68.713 72.5926 69.584 72.5926 70.91C72.5926 72.223 73.7366 73.094 75.4136 73.094C77.0776 73.094 78.2216 72.223 78.2216 70.91C78.2216 69.584 77.0776 68.713 75.4136 68.713ZM75.4136 69.558C76.4666 69.558 77.1946 70.091 77.1946 70.91C77.1946 71.716 76.4666 72.249 75.4136 72.249C74.3476 72.249 73.6196 71.716 73.6196 70.91C73.6196 70.091 74.3476 69.558 75.4136 69.558ZM74.8676 65.762V67.647H75.9466V65.762H74.8676ZM73.7106 76.37V77.254H81.5626V76.37H73.7106ZM73.7106 73.887V76.747H74.7896V73.887H73.7106ZM85.2276 66.308V67.192H92.7936V66.308H85.2276ZM83.8756 70.52V71.404H94.5226V70.52H83.8756ZM88.6466 71.118V73.887H89.7126V71.118H88.6466ZM92.0916 66.308V67.179C92.0916 68.128 92.0916 69.246 91.7016 70.819L92.7546 70.949C93.1446 69.337 93.1446 68.154 93.1446 67.179V66.308H92.0916ZM84.9806 73.536V74.42H92.1436V77.514H93.2226V73.536H84.9806ZM98.8896 66.321V67.465C98.8896 69.22 97.7066 70.845 95.9256 71.495L96.4716 72.353C98.4606 71.599 99.7866 69.688 99.7866 67.465V66.321H98.8896ZM99.0846 66.321V67.465C99.0846 69.623 100.411 71.417 102.374 72.132L102.92 71.287C101.178 70.676 99.9686 69.155 99.9686 67.465V66.321H99.0846ZM97.6156 73.432V74.316H104.376V77.514H105.468V73.432H97.6156ZM104.376 65.762V72.834H105.468V65.762H104.376ZM111.158 71.768V72.652H121.805V71.768H111.158ZM116.02 72.314V75.018H117.099V72.314H116.02ZM112.523 66.308V70.442H120.427V66.308H112.523ZM119.361 67.179V69.571H113.576V67.179H119.361ZM112.51 76.37V77.254H120.622V76.37H112.51ZM112.51 73.887V76.682H113.576V73.887H112.51ZM123.701 66.36V71.742H129.005V66.36H127.952V68.167H124.767V66.36H123.701ZM124.767 69.012H127.952V70.858H124.767V69.012ZM128.706 68.648V69.532H132.034V68.648H128.706ZM131.709 65.762V72.184H132.788V65.762H131.709ZM125.261 72.756V77.358H132.788V72.756H131.722V74.173H126.327V72.756H125.261ZM126.327 75.031H131.722V76.474H126.327V75.031ZM139.583 66.932V67.829H147.149V66.932H139.583ZM138.465 74.979V75.876H149.086V74.979H138.465ZM142.586 70.78V75.421H143.665V70.78H142.586ZM146.746 66.932V68.102C146.746 69.506 146.746 71.157 146.304 73.406L147.383 73.549C147.812 71.17 147.812 69.558 147.812 68.102V66.932H146.746ZM151.035 66.776V72.249H156.508V66.776H151.035ZM155.468 67.647V71.378H152.075V67.647H155.468ZM158.965 65.775V74.212H160.057V65.775H158.965ZM152.504 76.24V77.137H160.408V76.24H152.504ZM152.504 73.406V76.604H153.57V73.406H152.504Z" fill="#090A0A"/>
<g filter="url(#filter1_d_486_10980)">
<rect x="86" y="91" width="257" height="52.5" rx="15" fill="#FAFAFA"/>
</g>
<path d="M154.996 112.568V113.465C154.996 115.467 152.786 117.261 150.719 117.651L151.2 118.548C153.553 118.015 155.932 116.026 155.932 113.465V112.568H154.996ZM155.191 112.568V113.465C155.191 116.039 157.583 118.015 159.923 118.548L160.404 117.651C158.35 117.261 156.127 115.48 156.127 113.465V112.568H155.191ZM150.29 121.044V121.928H160.937V121.044H150.29ZM170.803 111.762V123.514H171.882V111.762H170.803ZM162.535 113.023V113.907H169.191V113.023H162.535ZM162.353 120.615C164.498 120.602 167.319 120.563 169.854 120.16L169.789 119.367C167.293 119.666 164.407 119.692 162.223 119.692L162.353 120.615ZM163.835 113.686V119.939H164.875V113.686H163.835ZM166.838 113.686V119.939H167.891V113.686H166.838ZM179.278 112.568V112.984C179.278 115.272 177.874 117.053 174.533 118.015L174.949 118.886C178.706 117.781 180.396 115.597 180.396 112.568H179.278ZM175.04 112.568V113.439H179.863V112.568H175.04ZM179.135 114.726L174.455 114.947L174.637 115.831L179.135 115.493V114.726ZM182.749 111.775V118.834H183.841V111.775H182.749ZM179.954 119.003C177.523 119.003 176.015 119.835 176.015 121.252C176.015 122.669 177.523 123.501 179.954 123.501C182.385 123.501 183.906 122.669 183.906 121.252C183.906 119.835 182.385 119.003 179.954 119.003ZM179.954 119.861C181.735 119.861 182.827 120.368 182.827 121.252C182.827 122.123 181.735 122.643 179.954 122.643C178.173 122.643 177.081 122.123 177.081 121.252C177.081 120.368 178.173 119.861 179.954 119.861ZM192.638 112.776V114.882C192.638 117.105 191.221 119.354 189.479 120.186L190.142 121.07C192.066 120.095 193.522 117.586 193.522 114.882V112.776H192.638ZM192.82 112.776V114.882C192.82 117.495 194.289 119.913 196.2 120.849L196.85 119.991C195.108 119.185 193.704 117.027 193.704 114.882V112.776H192.82ZM198.072 111.749V123.527H199.151V111.749H198.072ZM209.537 111.762V120.355H210.616V111.762H209.537ZM210.278 115.324V116.221H212.358V115.324H210.278ZM206.326 112.672V113.14C206.326 115.402 204.467 117.222 201.503 118.132L201.971 119.016C205.338 117.937 207.47 115.714 207.47 112.672H206.326ZM201.984 112.672V113.556H206.872V112.672H201.984ZM203.284 122.37V123.254H211.136V122.37H203.284ZM203.284 119.484V122.721H204.363V119.484H203.284ZM221.99 111.749V123.527H223.069V111.749H221.99ZM216.868 112.659C215.139 112.659 213.891 114.258 213.891 116.754C213.891 119.263 215.139 120.862 216.868 120.862C218.61 120.862 219.858 119.263 219.858 116.754C219.858 114.258 218.61 112.659 216.868 112.659ZM216.868 113.634C218.025 113.634 218.818 114.856 218.818 116.754C218.818 118.665 218.025 119.913 216.868 119.913C215.724 119.913 214.918 118.665 214.918 116.754C214.918 114.856 215.724 113.634 216.868 113.634ZM233.556 118.405V121.33H234.635V118.405H233.556ZM234.102 112.529C231.619 112.529 229.825 113.738 229.825 115.61C229.825 117.482 231.619 118.691 234.102 118.691C236.585 118.691 238.366 117.482 238.366 115.61C238.366 113.738 236.585 112.529 234.102 112.529ZM234.102 113.387C235.961 113.387 237.326 114.271 237.326 115.61C237.326 116.949 235.961 117.833 234.102 117.833C232.23 117.833 230.865 116.949 230.865 115.61C230.865 114.271 232.23 113.387 234.102 113.387ZM228.798 121.122V122.019H239.445V121.122H228.798ZM241.134 119.809V120.706H241.914C243.37 120.706 244.696 120.667 246.321 120.381L246.23 119.484C244.644 119.757 243.344 119.809 241.914 119.809H241.134ZM241.108 113.036V113.92H244.462V116.286H241.134V120.147H242.187V117.17H245.515V113.036H241.108ZM249.688 111.762V123.514H250.728V111.762H249.688ZM247.699 116.403V117.287H249.961V116.403H247.699ZM247.023 112.022V122.916H248.037V112.022H247.023ZM264.673 111.762V117.781H265.752V111.762H264.673ZM262.125 114.583V115.454H264.842V114.583H262.125ZM260.903 112.334V112.815C260.903 114.882 259.239 116.429 256.262 117.157L256.639 118.028C260.006 117.17 262.034 115.259 262.034 112.334H260.903ZM256.886 112.334V113.205H261.774V112.334H256.886ZM258.186 118.288V119.159H264.686V120.355H258.225V123.046H259.291V121.187H265.752V118.288H258.186ZM258.225 122.539V123.397H266.142V122.539H258.225ZM276.593 111.762V118.73H277.685V111.762H276.593ZM268.65 117.287V118.184H269.599C271.783 118.184 273.369 118.119 275.306 117.794L275.189 116.923C273.304 117.222 271.731 117.287 269.599 117.287H268.65ZM268.624 112.464V113.348H272.901V114.843H268.65V117.82H269.703V115.675H273.954V112.464H268.624ZM270.093 119.38V123.358H277.685V119.38H270.093ZM276.619 120.238V122.487H271.146V120.238H276.619Z" fill="#090A0A"/>
<g filter="url(#filter2_d_486_10980)">
<rect x="46" y="157" width="183" height="52.5" rx="15" fill="#FAFAFA"/>
</g>
<path d="M96.8681 177.762V189.514H97.9081V177.762H96.8681ZM94.8791 182.468V183.365H97.1411V182.468H94.8791ZM94.2031 178.022V188.916H95.2171V178.022H94.2031ZM88.3531 185.718V186.615H89.1201C90.8881 186.615 92.0711 186.563 93.4751 186.264L93.3711 185.367C92.0061 185.653 90.8361 185.718 89.1201 185.718H88.3531ZM88.3531 179.192V186.121H89.4191V180.076H92.7211V179.192H88.3531ZM102.938 184.769V186.68H104.017V184.769H102.938ZM107.878 177.762V189.514H108.957V177.762H107.878ZM108.606 182.754V183.664H110.777V182.754H108.606ZM99.9091 187.278C101.963 187.278 104.719 187.265 107.254 186.81L107.163 186.004C104.732 186.355 101.859 186.381 99.7531 186.381L99.9091 187.278ZM99.9481 179.179V180.05H106.981V179.179H99.9481ZM103.471 180.739C101.833 180.739 100.715 181.597 100.715 182.91C100.715 184.236 101.833 185.081 103.471 185.081C105.109 185.081 106.24 184.236 106.24 182.91C106.24 181.597 105.109 180.739 103.471 180.739ZM103.471 181.571C104.524 181.571 105.226 182.104 105.226 182.91C105.226 183.716 104.524 184.249 103.471 184.249C102.418 184.249 101.729 183.716 101.729 182.91C101.729 182.104 102.418 181.571 103.471 181.571ZM102.938 177.775V179.764H104.017V177.775H102.938ZM115.664 178.607C113.831 178.607 112.505 179.738 112.505 181.376C112.505 183.027 113.831 184.158 115.664 184.158C117.497 184.158 118.81 183.027 118.81 181.376C118.81 179.738 117.497 178.607 115.664 178.607ZM115.664 179.543C116.873 179.543 117.757 180.284 117.757 181.376C117.757 182.468 116.873 183.222 115.664 183.222C114.442 183.222 113.558 182.468 113.558 181.376C113.558 180.284 114.442 179.543 115.664 179.543ZM120.344 177.749V189.527H121.423V177.749H120.344ZM112.063 186.953C114.156 186.953 117.029 186.94 119.668 186.433L119.577 185.64C117.016 186.043 114.052 186.056 111.907 186.056L112.063 186.953ZM127.711 179.556V180.453H137.253V179.556H127.711ZM127.191 187.2V188.097H137.838V187.2H127.191ZM132.482 181.207C130.129 181.207 128.647 182.078 128.647 183.534C128.647 184.99 130.129 185.848 132.482 185.848C134.848 185.848 136.33 184.99 136.33 183.534C136.33 182.078 134.848 181.207 132.482 181.207ZM132.482 182.091C134.185 182.091 135.251 182.637 135.251 183.534C135.251 184.431 134.185 184.977 132.482 184.977C130.792 184.977 129.726 184.431 129.726 183.534C129.726 182.637 130.792 182.091 132.482 182.091ZM131.962 177.97V180.063H133.028V177.97H131.962ZM139.137 183.82V184.704H149.797V183.82H139.137ZM140.489 178.048V178.893H147.366V180.037H140.515V182.39H141.581V180.83H148.419V178.048H140.489ZM140.515 181.974V182.819H148.679V181.974H140.515ZM140.567 185.77V189.358H148.432V185.77H140.567ZM147.379 186.628V188.487H141.62V186.628H147.379ZM159.637 177.749V189.527H160.716V177.749H159.637ZM154.515 178.659C152.786 178.659 151.538 180.258 151.538 182.754C151.538 185.263 152.786 186.862 154.515 186.862C156.257 186.862 157.505 185.263 157.505 182.754C157.505 180.258 156.257 178.659 154.515 178.659ZM154.515 179.634C155.672 179.634 156.465 180.856 156.465 182.754C156.465 184.665 155.672 185.913 154.515 185.913C153.371 185.913 152.565 184.665 152.565 182.754C152.565 180.856 153.371 179.634 154.515 179.634ZM166.432 182.494V183.365H177.092V182.494H166.432ZM167.42 178.295V179.192H170.54V178.295H167.42ZM170.176 178.295V178.737C170.176 179.491 170.176 180.791 169.643 182.715L170.696 182.923C171.229 180.947 171.229 179.491 171.229 178.737V178.295H170.176ZM172.035 178.295V179.192H175.194V178.295H172.035ZM174.739 178.295V178.802C174.739 179.595 174.739 180.882 174.258 182.78L175.298 182.962C175.779 181.012 175.779 179.621 175.779 178.802V178.295H174.739ZM171.073 184.99V185.809H176.377V184.99H171.073ZM173.751 186.316C172.555 186.316 171.697 186.927 171.697 187.902C171.697 188.89 172.555 189.501 173.751 189.501C174.96 189.501 175.818 188.89 175.818 187.902C175.818 186.927 174.96 186.316 173.751 186.316ZM173.751 187.07C174.427 187.07 174.882 187.382 174.882 187.902C174.882 188.435 174.427 188.747 173.751 188.747C173.075 188.747 172.62 188.435 172.62 187.902C172.62 187.382 173.075 187.07 173.751 187.07ZM173.231 183.989V185.588H174.284V183.989H173.231ZM167.68 188.318V189.202H168.265C169.058 189.202 170.124 189.163 171.359 188.838L171.216 187.954C170.059 188.266 168.967 188.318 168.265 188.318H167.68ZM167.68 184.886V188.643H168.733V184.886H167.68ZM183.422 178.516V178.997C183.422 181.168 181.589 182.871 178.534 183.677L178.95 184.535C182.408 183.612 184.553 181.506 184.553 178.516H183.422ZM179.145 178.516V179.387H184.046V178.516H179.145ZM186.945 177.762V184.392H188.037V177.762H186.945ZM180.432 184.964V189.358H188.037V184.964H180.432ZM186.971 185.835V188.474H181.498V185.835H186.971Z" fill="#090A0A"/>
<rect x="127" width="81" height="31" rx="10" fill="#FAFAFA"/>
<path d="M142.605 11.004C143.893 11.004 144.831 11.284 145.419 11.844C146.017 12.3947 146.315 13.1553 146.315 14.126C146.315 14.714 146.194 15.26 145.951 15.764C145.709 16.268 145.303 16.674 144.733 16.982C144.173 17.29 143.408 17.444 142.437 17.444H141.527V21H139.413V11.004H142.605ZM142.493 12.74H141.527V15.708H142.227C142.825 15.708 143.296 15.5913 143.641 15.358C143.996 15.1153 144.173 14.728 144.173 14.196C144.173 13.2253 143.613 12.74 142.493 12.74ZM152.306 13.216C152.409 13.216 152.53 13.2207 152.67 13.23C152.81 13.2393 152.922 13.2533 153.006 13.272L152.852 15.232C152.778 15.2133 152.68 15.1993 152.558 15.19C152.437 15.1713 152.33 15.162 152.236 15.162C151.882 15.162 151.541 15.2273 151.214 15.358C150.888 15.4793 150.622 15.68 150.416 15.96C150.22 16.24 150.122 16.6227 150.122 17.108V21H148.036V13.356H149.618L149.926 14.644H150.024C150.248 14.252 150.556 13.916 150.948 13.636C151.34 13.356 151.793 13.216 152.306 13.216ZM161.064 17.164C161.064 18.4333 160.728 19.4133 160.056 20.104C159.394 20.7947 158.488 21.14 157.34 21.14C156.631 21.14 155.996 20.986 155.436 20.678C154.886 20.37 154.452 19.922 154.134 19.334C153.817 18.7367 153.658 18.0133 153.658 17.164C153.658 15.8947 153.99 14.9193 154.652 14.238C155.315 13.5567 156.225 13.216 157.382 13.216C158.101 13.216 158.736 13.37 159.286 13.678C159.837 13.986 160.271 14.434 160.588 15.022C160.906 15.61 161.064 16.324 161.064 17.164ZM155.786 17.164C155.786 17.92 155.908 18.494 156.15 18.886C156.402 19.2687 156.808 19.46 157.368 19.46C157.919 19.46 158.316 19.2687 158.558 18.886C158.81 18.494 158.936 17.92 158.936 17.164C158.936 16.408 158.81 15.8433 158.558 15.47C158.316 15.0873 157.914 14.896 157.354 14.896C156.804 14.896 156.402 15.0873 156.15 15.47C155.908 15.8433 155.786 16.408 155.786 17.164ZM164.874 10.36V12.838C164.874 13.1273 164.865 13.412 164.846 13.692C164.828 13.972 164.809 14.1913 164.79 14.35H164.874C165.08 14.0327 165.355 13.7667 165.7 13.552C166.046 13.328 166.494 13.216 167.044 13.216C167.903 13.216 168.598 13.552 169.13 14.224C169.662 14.8867 169.928 15.8667 169.928 17.164C169.928 18.4707 169.658 19.46 169.116 20.132C168.575 20.804 167.866 21.14 166.988 21.14C166.428 21.14 165.985 21.042 165.658 20.846C165.341 20.6407 165.08 20.412 164.874 20.16H164.734L164.384 21H162.788V10.36H164.874ZM166.372 14.882C165.831 14.882 165.448 15.0547 165.224 15.4C165 15.736 164.884 16.2447 164.874 16.926V17.15C164.874 17.8873 164.982 18.4567 165.196 18.858C165.42 19.25 165.822 19.446 166.4 19.446C166.83 19.446 167.17 19.25 167.422 18.858C167.674 18.4567 167.8 17.8827 167.8 17.136C167.8 16.3893 167.67 15.8293 167.408 15.456C167.156 15.0733 166.811 14.882 166.372 14.882ZM173.734 21H171.648V10.36H173.734V21ZM179.063 13.216C180.118 13.216 180.953 13.5193 181.569 14.126C182.185 14.7233 182.493 15.5773 182.493 16.688V17.696H177.565C177.584 18.284 177.757 18.746 178.083 19.082C178.419 19.418 178.881 19.586 179.469 19.586C179.955 19.586 180.398 19.5393 180.799 19.446C181.21 19.3433 181.63 19.1893 182.059 18.984V20.594C181.677 20.7807 181.28 20.916 180.869 21C180.459 21.0933 179.959 21.14 179.371 21.14C178.606 21.14 177.929 21 177.341 20.72C176.753 20.4307 176.291 20.0013 175.955 19.432C175.619 18.8533 175.451 18.1207 175.451 17.234C175.451 16.3473 175.601 15.6053 175.899 15.008C176.207 14.4107 176.632 13.9627 177.173 13.664C177.715 13.3653 178.345 13.216 179.063 13.216ZM179.077 14.7C178.667 14.7 178.331 14.8307 178.069 15.092C177.808 15.3533 177.654 15.7593 177.607 16.31H180.533C180.524 15.8527 180.398 15.47 180.155 15.162C179.922 14.854 179.563 14.7 179.077 14.7ZM193.159 13.216C194.027 13.216 194.68 13.44 195.119 13.888C195.567 14.3267 195.791 15.036 195.791 16.016V21H193.705V16.534C193.705 15.4327 193.322 14.882 192.557 14.882C192.006 14.882 191.614 15.078 191.381 15.47C191.147 15.862 191.031 16.4267 191.031 17.164V21H188.945V16.534C188.945 15.4327 188.562 14.882 187.797 14.882C187.218 14.882 186.817 15.1013 186.593 15.54C186.378 15.9693 186.271 16.59 186.271 17.402V21H184.185V13.356H185.781L186.061 14.336H186.173C186.406 13.944 186.723 13.6593 187.125 13.482C187.535 13.3047 187.96 13.216 188.399 13.216C188.959 13.216 189.43 13.3093 189.813 13.496C190.205 13.6733 190.508 13.9533 190.723 14.336H190.905C191.138 13.944 191.46 13.6593 191.871 13.482C192.291 13.3047 192.72 13.216 193.159 13.216Z" fill="#090A0A"/>
<path d="M203.688 78.274C203.287 77.8942 202.654 77.9113 202.274 78.3123C201.894 78.7132 201.911 79.3461 202.312 79.726L203.688 78.274ZM222.027 97.9996C222.579 97.9847 223.015 97.5251 223 96.973L222.756 87.9763C222.742 87.4242 222.282 86.9887 221.73 87.0036C221.178 87.0186 220.742 87.4782 220.757 88.0303L220.973 96.0274L212.976 96.2435C212.424 96.2584 211.989 96.7181 212.004 97.2702C212.019 97.8223 212.478 98.2577 213.03 98.2428L222.027 97.9996ZM202.312 79.726L221.312 97.726L222.688 96.274L203.688 78.274L202.312 79.726Z" fill="#DE006B"/>
<path d="M143.581 137.814C144.031 137.493 144.135 136.868 143.814 136.419C143.493 135.969 142.868 135.865 142.419 136.186L143.581 137.814ZM107.014 161.836C106.923 162.38 107.291 162.896 107.836 162.986L116.713 164.466C117.258 164.557 117.773 164.189 117.864 163.644C117.955 163.099 117.587 162.584 117.042 162.493L109.151 161.178L110.466 153.287C110.557 152.742 110.189 152.227 109.644 152.136C109.099 152.045 108.584 152.413 108.493 152.958L107.014 161.836ZM142.419 136.186L107.419 161.186L108.581 162.814L143.581 137.814L142.419 136.186Z" fill="#DE006B"/>
<defs>
<filter id="filter0_d_486_10980" x="0" y="35" width="232" height="72.5" filterUnits="userSpaceOnUse" color-interpolation-filters="sRGB">
<feFlood flood-opacity="0" result="BackgroundImageFix"/>
<feColorMatrix in="SourceAlpha" type="matrix" values="0 0 0 0 0 0 0 0 0 0 0 0 0 0 0 0 0 0 127 0" result="hardAlpha"/>
<feOffset/>
<feGaussianBlur stdDeviation="5"/>
<feComposite in2="hardAlpha" operator="out"/>
<feColorMatrix type="matrix" values="0 0 0 0 0 0 0 0 0 0 0 0 0 0 0 0 0 0 0.08 0"/>
<feBlend mode="normal" in2="BackgroundImageFix" result="effect1_dropShadow_486_10980"/>
<feBlend mode="normal" in="SourceGraphic" in2="effect1_dropShadow_486_10980" result="shape"/>
</filter>
<filter id="filter1_d_486_10980" x="76" y="81" width="277" height="72.5" filterUnits="userSpaceOnUse" color-interpolation-filters="sRGB">
<feFlood flood-opacity="0" result="BackgroundImageFix"/>
<feColorMatrix in="SourceAlpha" type="matrix" values="0 0 0 0 0 0 0 0 0 0 0 0 0 0 0 0 0 0 127 0" result="hardAlpha"/>
<feOffset/>
<feGaussianBlur stdDeviation="5"/>
<feComposite in2="hardAlpha" operator="out"/>
<feColorMatrix type="matrix" values="0 0 0 0 0 0 0 0 0 0 0 0 0 0 0 0 0 0 0.08 0"/>
<feBlend mode="normal" in2="BackgroundImageFix" result="effect1_dropShadow_486_10980"/>
<feBlend mode="normal" in="SourceGraphic" in2="effect1_dropShadow_486_10980" result="shape"/>
</filter>
<filter id="filter2_d_486_10980" x="36" y="147" width="203" height="72.5" filterUnits="userSpaceOnUse" color-interpolation-filters="sRGB">
<feFlood flood-opacity="0" result="BackgroundImageFix"/>
<feColorMatrix in="SourceAlpha" type="matrix" values="0 0 0 0 0 0 0 0 0 0 0 0 0 0 0 0 0 0 127 0" result="hardAlpha"/>
<feOffset/>
<feGaussianBlur stdDeviation="5"/>
<feComposite in2="hardAlpha" operator="out"/>
<feColorMatrix type="matrix" values="0 0 0 0 0 0 0 0 0 0 0 0 0 0 0 0 0 0 0.08 0"/>
<feBlend mode="normal" in2="BackgroundImageFix" result="effect1_dropShadow_486_10980"/>
<feBlend mode="normal" in="SourceGraphic" in2="effect1_dropShadow_486_10980" result="shape"/>
</filter>
</defs>
</svg>
