<svg width="97" height="109" viewBox="0 0 97 109" fill="none" xmlns="http://www.w3.org/2000/svg">
<path d="M50.1107 4.07901C50.8728 3.7544 51.2276 2.87338 50.903 2.1112C50.5783 1.34902 49.6973 0.994299 48.9351 1.31891L50.1107 4.07901ZM20.2484 41.7395L18.8073 42.1556L20.2484 41.7395ZM48.7364 66.0113L49.395 67.359L48.7364 66.0113ZM48.3444 50.9932L48.7048 49.5371L48.3444 50.9932ZM24.3696 57.3401L23.0319 56.6614L24.3696 57.3401ZM31.3595 81.908L32.4594 80.8882L31.3595 81.908ZM81.7021 89.574C82.1064 88.851 81.8481 87.9371 81.125 87.5327L69.3424 80.9434C68.6194 80.539 67.7054 80.7973 67.3011 81.5204C66.8967 82.2434 67.1551 83.1574 67.8781 83.5617L78.3516 89.4189L72.4944 99.8924C72.09 100.615 72.3484 101.529 73.0714 101.934C73.7945 102.338 74.7084 102.08 75.1127 101.357L81.7021 89.574ZM48.9351 1.31891C40.2933 4.99948 31.5599 10.7118 25.5744 17.7029C19.5831 24.7006 16.2111 33.1634 18.8073 42.1556L21.6896 41.3234C19.472 33.6425 22.2483 26.2005 27.8532 19.654C33.4639 13.1008 41.7746 7.62936 50.1107 4.07901L48.9351 1.31891ZM18.8073 42.1556C20.4681 47.9081 23.2432 56.394 27.9455 62.3553C30.3128 65.3564 33.2487 67.8224 36.8787 68.9118C40.5427 70.0114 44.7111 69.6478 49.395 67.359L48.0779 64.6636C43.9406 66.6853 40.553 66.8824 37.741 66.0384C34.895 65.1843 32.4348 63.2025 30.3009 60.4973C26.0009 55.0461 23.3531 47.0855 21.6896 41.3234L18.8073 42.1556ZM49.395 67.359C54.0834 65.0679 56.4702 61.3186 56.2442 57.5729C56.0173 53.8126 53.1879 50.6466 48.7048 49.5371L47.9841 52.4493C51.4482 53.3066 53.1165 55.5476 53.2496 57.7536C53.3836 59.9742 51.9928 62.7505 48.0779 64.6636L49.395 67.359ZM48.7048 49.5371C45.4457 48.7305 40.1913 48.441 35.2416 49.3125C30.3652 50.1711 25.2683 52.2543 23.0319 56.6614L25.7072 58.0189C27.2762 54.9271 31.1237 53.0837 35.7619 52.267C40.3268 51.4633 45.1572 51.7497 47.9841 52.4493L48.7048 49.5371ZM23.0319 56.6614C20.7047 61.2476 21.3159 66.5058 23.0169 71.1425C24.7254 75.7995 27.6177 80.0785 30.2595 82.9279L32.4594 80.8882C30.0499 78.2894 27.3871 74.3443 25.8334 70.1093C24.2722 65.8539 23.9142 61.5523 25.7072 58.0189L23.0319 56.6614ZM30.2595 82.9279C35.9111 89.0234 44.5378 91.9793 53.6292 92.8738C62.7469 93.771 72.5434 92.6195 80.8009 90.2853L79.9849 87.3984C72.0389 89.6446 62.6203 90.7441 53.9229 89.8883C45.1992 89.0298 37.4109 86.2286 32.4594 80.8882L30.2595 82.9279Z" fill="#DE006B"/>
</svg>
