<svg width="184" height="186" viewBox="0 0 184 186" fill="none" xmlns="http://www.w3.org/2000/svg">
<path d="M174.871 65.3878C175.805 66.7566 177.671 67.1096 179.04 66.1761C180.409 65.2426 180.762 63.3762 179.828 62.0073L174.871 65.3878ZM123.542 21.4347L124.65 18.6468L123.542 21.4347ZM46.9956 39.429L44.3602 37.9956L46.9956 39.429ZM52.2345 101.964L53.1958 99.1219L52.2345 101.964ZM69.4369 83.5855L66.8726 85.1427L69.4369 83.5855ZM33.5314 62.8978L32.5798 60.0527L33.5314 62.8978ZM12.9209 100.446L9.92255 100.345L12.9209 100.446ZM63.7545 169.397C65.3471 168.94 66.2677 167.279 65.8107 165.686L58.3638 139.734C57.9068 138.141 56.2453 137.22 54.6527 137.677C53.0601 138.134 52.1395 139.796 52.5965 141.389L59.216 164.458L36.147 171.077C34.5544 171.534 33.6338 173.196 34.0908 174.788C34.5477 176.381 36.2092 177.301 37.8018 176.844L63.7545 169.397ZM179.828 62.0073C173.762 53.1123 168.033 45.4151 159.723 38.3615C151.412 31.3058 140.663 25.0116 124.65 18.6468L122.433 24.2225C138.041 30.4263 148.168 36.4226 155.84 42.9357C163.516 49.451 168.879 56.6009 174.871 65.3878L179.828 62.0073ZM124.65 18.6468C109.876 12.7748 93.6278 10.7777 79.1599 13.6323C64.6466 16.4958 51.8191 24.2818 44.3602 37.9956L49.6311 40.8624C56.0765 29.0119 67.1992 22.1078 80.3213 19.5188C93.4889 16.9208 108.561 18.7088 122.433 24.2225L124.65 18.6468ZM44.3602 37.9956C39.5636 46.8146 32.8288 60.282 31.3823 73.0376C30.6532 79.4664 31.2337 85.9768 34.3209 91.6712C37.4427 97.4295 42.9262 101.982 51.2731 104.806L53.1958 99.1219C46.0082 96.6904 41.8692 93.0052 39.5956 88.8116C37.2873 84.5539 36.6995 79.3979 37.344 73.7137C38.6448 62.2434 44.8251 49.6985 49.6311 40.8624L44.3602 37.9956ZM51.2731 104.806C59.6707 107.646 67.1431 105.984 71.4436 101.064C75.7591 96.126 76.1022 88.7819 72.0011 82.0284L66.8726 85.1427C69.8848 90.103 69.2021 94.5108 66.9259 97.1151C64.6346 99.7367 59.9492 101.407 53.1958 99.1219L51.2731 104.806ZM72.0011 82.0284C69.0463 77.1625 63.1051 70.5738 56.1547 65.7418C49.3269 60.995 40.6518 57.3528 32.5798 60.0527L34.483 65.7429C39.7466 63.9823 46.3007 66.1987 52.7298 70.6683C59.0365 75.0527 64.3802 81.0381 66.8726 85.1427L72.0011 82.0284ZM32.5798 60.0527C24.24 62.8423 18.7008 69.9752 15.2383 77.568C11.7571 85.2017 10.1426 93.7783 9.92255 100.345L15.9192 100.546C16.1164 94.6595 17.5875 86.877 20.6974 80.0576C23.8259 73.1973 28.3833 67.7831 34.483 65.7429L32.5798 60.0527ZM9.92255 100.345C9.45019 114.441 16.2828 128.249 26.0541 140.08C35.8584 151.951 48.8844 162.163 61.4731 169.138L64.381 163.89C52.361 157.23 39.9458 147.478 30.6803 136.259C21.3817 125 15.5156 112.591 15.9192 100.546L9.92255 100.345Z" fill="#DE006B"/>
</svg>
