<svg width="212" height="213" viewBox="0 0 212 213" fill="none" xmlns="http://www.w3.org/2000/svg">
<path d="M145.358 28.5524C146.985 28.8673 148.559 27.804 148.874 26.1774C149.189 24.5507 148.125 22.9768 146.499 22.6618L145.358 28.5524ZM77.9608 33.4738L76.7851 30.7138L77.9608 33.4738ZM36.2667 100.142L33.3859 100.98L36.2667 100.142ZM84.0122 140.866L82.6943 138.171L84.0122 140.866ZM83.2908 115.703L82.5659 118.614L83.2908 115.703ZM43.2267 126.288L40.5479 124.938L43.2267 126.288ZM55.0232 167.465L52.8231 169.504L55.0232 167.465ZM139.667 180.646C140.477 179.201 139.961 177.372 138.515 176.563L114.955 163.374C113.51 162.565 111.682 163.081 110.872 164.527C110.063 165.973 110.579 167.801 112.025 168.61L132.967 180.333L121.243 201.275C120.434 202.721 120.95 204.549 122.396 205.358C123.841 206.168 125.669 205.652 126.479 204.206L139.667 180.646ZM146.499 22.6618C135.929 20.6151 126.44 19.1825 115.573 20.0229C104.703 20.8635 92.6383 23.9606 76.7851 30.7138L79.1365 36.2338C94.5886 29.6515 106.002 26.781 116.036 26.005C126.074 25.2287 134.916 26.5306 145.358 28.5524L146.499 22.6618ZM76.7851 30.7138C62.159 36.9442 49.2137 46.9649 40.9483 59.1776C32.657 71.4288 29.0285 85.989 33.3859 100.98L39.1474 99.3048C35.3821 86.351 38.4208 73.6173 45.9173 62.5405C53.4398 51.4254 65.4029 42.0841 79.1365 36.2338L76.7851 30.7138ZM33.3859 100.98C36.188 110.62 40.8861 124.925 48.8389 135.003C52.847 140.082 57.8427 144.297 64.044 146.167C70.315 148.059 77.4142 147.432 85.3301 143.561L82.6943 138.171C75.8779 141.504 70.3439 141.801 65.7769 140.423C61.1402 139.024 57.0928 135.776 53.5488 131.286C46.3974 122.224 41.955 108.964 39.1474 99.3048L33.3859 100.98ZM85.3301 143.561C93.2939 139.666 97.4305 133.225 97.0206 126.703C96.6094 120.158 91.6827 114.701 84.0156 112.792L82.5659 118.614C88.1973 120.016 90.8155 123.627 91.0324 127.079C91.2508 130.554 89.0988 135.039 82.6943 138.171L85.3301 143.561ZM84.0156 112.792C78.4915 111.416 69.6336 110.92 61.2958 112.381C53.1049 113.817 44.3798 117.338 40.5479 124.938L45.9054 127.639C48.4041 122.683 54.6191 119.643 62.3317 118.291C69.8973 116.965 77.9062 117.454 82.5659 118.614L84.0156 112.792ZM40.5479 124.938C36.5889 132.79 37.6767 141.756 40.563 149.586C43.4648 157.458 48.3562 164.685 52.8231 169.504L57.2233 165.425C53.2192 161.106 48.785 154.543 46.1927 147.51C43.5848 140.436 43.0099 133.382 45.9054 127.639L40.5479 124.938ZM52.8231 169.504C62.4113 179.847 76.9843 184.843 92.253 186.367C107.573 187.895 124.014 185.977 137.865 182.068L136.235 176.294C123.01 180.026 107.327 181.841 92.8487 180.396C78.3185 178.947 65.4163 174.263 57.2233 165.425L52.8231 169.504Z" fill="#DE006B"/>
</svg>
