<svg width="134" height="100" viewBox="0 0 134 100" fill="none" xmlns="http://www.w3.org/2000/svg">
<path d="M4.7877 29.3952C4.28864 30.0565 4.42012 30.9971 5.08135 31.4961C5.74259 31.9952 6.68319 31.8637 7.18225 31.2025L4.7877 29.3952ZM28.127 17.9176L28.3473 19.4013L28.127 17.9176ZM71.4926 26.3107L70.7018 27.5853L71.4926 26.3107ZM103.633 72.8853L102.243 73.4503L102.243 73.4503L103.633 72.8853ZM108.711 89.2528L110.184 88.9687L110.184 88.9686L108.711 89.2528ZM7.18225 31.2025C12.0941 24.6944 19.0824 20.777 28.3473 19.4013L27.9067 16.4339C17.9814 17.9076 10.2408 22.1701 4.7877 29.3952L7.18225 31.2025ZM28.3473 19.4013C42.0895 17.3608 57.7147 19.5274 70.7018 27.5853L72.2835 25.0361C58.5977 16.5448 42.2318 14.3068 27.9067 16.4339L28.3473 19.4013ZM70.7018 27.5853C88.1127 38.3879 95.4269 56.6883 102.243 73.4503L105.022 72.3202C98.2725 55.7219 90.6557 36.4352 72.2835 25.0361L70.7018 27.5853ZM102.243 73.4503C104.436 78.8415 106.193 84.1169 107.239 89.537L110.184 88.9686C109.089 83.2926 107.259 77.8208 105.022 72.3202L102.243 73.4503ZM107.239 89.537C107.36 90.1685 107.605 91.0627 107.721 91.5749C107.865 92.2151 107.924 92.69 107.889 93.0568L110.874 93.3488C110.959 92.4853 110.807 91.6238 110.647 90.916C110.459 90.08 110.309 89.6145 110.184 88.9687L107.239 89.537Z" fill="white"/>
<path d="M111.601 89.0055C113.92 90.2314 114.806 93.1054 113.58 95.4247C112.355 97.744 109.481 98.6304 107.161 97.4045C104.842 96.1786 103.956 93.3047 105.182 90.9854C106.407 88.6661 109.281 87.7797 111.601 89.0055Z" fill="white" stroke="white" stroke-width="0.499999"/>
</svg>
