<svg width="98" height="111" viewBox="0 0 98 111" fill="none" xmlns="http://www.w3.org/2000/svg">
<path d="M51.1106 4.07887C51.8728 3.75426 52.2275 2.87324 51.9029 2.11106C51.5782 1.34888 50.6972 0.994161 49.935 1.31877L51.1106 4.07887ZM21.2483 41.7394L22.6895 41.3233L21.2483 41.7394ZM49.7364 66.0112L50.395 67.3589L49.7364 66.0112ZM49.3444 50.9931L49.7047 49.5371L49.3444 50.9931ZM25.3695 57.34L24.0319 56.6613L25.3695 57.34ZM32.3594 81.908L31.2595 82.9278L32.3594 81.908ZM82.7021 89.574C83.1064 88.851 82.8481 87.9371 82.125 87.5327L70.3424 80.9434C69.6194 80.539 68.7054 80.7973 68.3011 81.5204C67.8967 82.2434 68.1551 83.1574 68.8781 83.5617L79.3516 89.4189L73.4944 99.8924C73.09 100.615 73.3484 101.529 74.0714 101.934C74.7944 102.338 75.7084 102.08 76.1127 101.357L82.7021 89.574ZM49.935 1.31877C41.2932 4.99933 32.5598 10.7117 26.5743 17.7027C20.583 24.7005 17.2111 33.1633 19.8072 42.1555L22.6895 41.3233C20.4719 33.6424 23.2482 26.2004 28.8531 19.6538C34.4638 13.1006 42.7745 7.62922 51.1106 4.07887L49.935 1.31877ZM19.8072 42.1555C21.468 47.908 24.2431 56.3939 28.9455 62.3552C31.3128 65.3563 34.2486 67.8223 37.8786 68.9117C41.5426 70.0114 45.7111 69.6478 50.395 67.3589L49.0778 64.6635C44.9406 66.6853 41.553 66.8823 38.741 66.0384C35.8949 65.1842 33.4347 63.2024 31.3009 60.4972C27.0008 55.046 24.3531 47.0854 22.6895 41.3233L19.8072 42.1555ZM50.395 67.3589C55.0833 65.0679 57.4702 61.3185 57.2441 57.5728C57.0172 53.8126 54.1878 50.6465 49.7047 49.5371L48.984 52.4492C52.4482 53.3065 54.1165 55.5475 54.2496 57.7535C54.3836 59.9742 52.9928 62.7504 49.0778 64.6635L50.395 67.3589ZM49.7047 49.5371C46.4456 48.7305 41.1913 48.4409 36.2416 49.3124C31.3651 50.171 26.2683 52.2542 24.0319 56.6613L26.7071 58.0188C28.2761 54.927 32.1237 53.0836 36.7618 52.267C41.3268 51.4632 46.1572 51.7496 48.984 52.4492L49.7047 49.5371ZM24.0319 56.6613C21.7046 61.2475 22.3158 66.5058 24.0169 71.1424C25.7254 75.7994 28.6176 80.0785 31.2595 82.9278L33.4594 80.8881C31.0499 78.2894 28.387 74.3443 26.8333 70.1092C25.2722 65.8538 24.9141 61.5522 26.7071 58.0188L24.0319 56.6613ZM31.2595 82.9278C36.9111 89.0234 45.5378 91.9792 54.6291 92.8738C63.7469 93.771 73.5434 92.6195 81.8009 90.2853L80.9849 87.3984C73.0389 89.6446 63.6203 90.7441 54.9229 89.8882C46.1992 89.0298 38.4109 86.2286 33.4594 80.8881L31.2595 82.9278Z" fill="#DE006B"/>
</svg>
