<svg width="490" height="178" viewBox="0 0 490 178" fill="none" xmlns="http://www.w3.org/2000/svg">
<rect width="67" height="37" rx="10" fill="white"/>
<path d="M19.907 17.584L19.493 19.618H21.761V21.436H19.151L18.467 25H16.541L17.225 21.436H15.515L14.849 25H12.959L13.607 21.436H11.519V19.618H13.949L14.363 17.584H12.149V15.748H14.687L15.371 12.166H17.297L16.613 15.748H18.359L19.043 12.166H20.933L20.249 15.748H22.355V17.584H19.907ZM15.857 19.618H17.585L17.999 17.584H16.271L15.857 19.618ZM28.1778 10.42C25.6398 10.42 23.7318 12.004 23.7318 14.236C23.7318 16.45 25.6398 18.034 28.1778 18.034C30.7158 18.034 32.6238 16.45 32.6238 14.236C32.6238 12.004 30.7158 10.42 28.1778 10.42ZM28.1778 12.364C29.4018 12.364 30.3018 13.048 30.3018 14.236C30.3018 15.424 29.4018 16.108 28.1778 16.108C26.9538 16.108 26.0358 15.424 26.0358 14.236C26.0358 13.048 26.9538 12.364 28.1778 12.364ZM34.9278 9.934V18.268H37.3398V9.934H34.9278ZM26.2158 18.952V20.806H34.9638V21.796H26.2518V25.54H28.5918V23.524H37.3398V18.952H26.2158ZM26.2518 24.568V26.422H37.7538V24.568H26.2518ZM43.6924 10.834V12.31C43.6924 14.578 42.5584 16.81 39.7684 17.746L41.0464 19.636C44.2144 18.538 45.6544 15.622 45.6544 12.31V10.834H43.6924ZM44.1784 10.834V12.544C44.1784 15.55 45.6004 18.142 48.6064 19.15L49.8484 17.296C47.2384 16.486 46.1224 14.542 46.1224 12.544V10.834H44.1784ZM50.7664 9.934V19.78H53.1604V9.934H50.7664ZM52.4944 13.786V15.766H55.3744V13.786H52.4944ZM47.7244 20.158C44.2504 20.158 42.0724 21.364 42.0724 23.38C42.0724 25.414 44.2504 26.602 47.7244 26.602C51.1804 26.602 53.3584 25.414 53.3584 23.38C53.3584 21.364 51.1804 20.158 47.7244 20.158ZM47.7244 22.012C49.8484 22.012 50.9824 22.462 50.9824 23.38C50.9824 24.316 49.8484 24.748 47.7244 24.748C45.6004 24.748 44.4484 24.316 44.4484 23.38C44.4484 22.462 45.6004 22.012 47.7244 22.012Z" fill="#4FF788"/>
<rect x="10" y="94" width="67" height="37" rx="10" fill="white"/>
<path d="M29.907 111.584L29.493 113.618H31.761V115.436H29.151L28.467 119H26.541L27.225 115.436H25.515L24.849 119H22.959L23.607 115.436H21.519V113.618H23.949L24.363 111.584H22.149V109.748H24.687L25.371 106.166H27.297L26.613 109.748H28.359L29.043 106.166H30.933L30.249 109.748H32.355V111.584H29.907ZM25.857 113.618H27.585L27.999 111.584H26.271L25.857 113.618ZM33.4798 105.392V107.282H43.2898V105.392H33.4798ZM38.3938 107.804C35.9818 107.804 34.2898 109.046 34.2898 110.882C34.2898 112.718 35.9818 113.942 38.3938 113.942C40.7878 113.942 42.4798 112.718 42.4798 110.882C42.4798 109.046 40.7878 107.804 38.3938 107.804ZM38.3938 109.604C39.4558 109.604 40.1938 110.036 40.1938 110.882C40.1938 111.71 39.4558 112.142 38.3938 112.142C37.3138 112.142 36.5938 111.71 36.5938 110.882C36.5938 110.036 37.3138 109.604 38.3938 109.604ZM44.2078 103.934V114.392H46.6018V103.934H44.2078ZM45.9358 108.236V110.18H48.8158V108.236H45.9358ZM35.4778 115.076V116.984H44.2078V120.602H46.6018V115.076H35.4778ZM37.1878 103.844V106.472H39.5818V103.844H37.1878ZM51.5144 105.338V107.264H62.0624V105.338H51.5144ZM50.0564 116.66V118.604H65.1224V116.66H50.0564ZM53.2064 111.404V117.272H55.5824V111.404H53.2064ZM61.3604 105.338V106.976C61.3604 108.938 61.3604 111.278 60.8024 114.446L63.1784 114.68C63.7724 111.296 63.7724 108.992 63.7724 106.976V105.338H61.3604ZM57.3284 111.404V117.272H59.6864V111.404H57.3284Z" fill="#75C8FF"/>
<rect x="30" y="47" width="100" height="37" rx="10" fill="white"/>
<path d="M49.8485 64.584L49.4345 66.618H51.7025V68.436H49.0925L48.4085 72H46.4825L47.1665 68.436H45.4565L44.7905 72H42.9005L43.5485 68.436H41.4605V66.618H43.8905L44.3045 64.584H42.0905V62.748H44.6285L45.3125 59.166H47.2385L46.5545 62.748H48.3005L48.9845 59.166H50.8745L50.1905 62.748H52.2965V64.584H49.8485ZM45.7985 66.618H47.5265L47.9405 64.584H46.2125L45.7985 66.618ZM57.1652 59.562V61.434C57.1652 64.17 55.8152 67.284 53.0612 68.58L54.4112 70.47C57.4712 69.03 59.0552 65.196 59.0552 61.434V59.562H57.1652ZM57.6692 59.562V61.434C57.6692 64.98 59.2172 68.634 62.2772 70.056L63.5912 68.166C60.8552 66.906 59.5592 63.954 59.5592 61.434V59.562H57.6692ZM53.7092 58.536V60.498H62.8532V58.536H53.7092ZM64.0772 56.934V73.602H66.4892V56.934H64.0772ZM65.9492 63.288V65.268H68.9012V63.288H65.9492ZM81.4638 56.934V73.602H83.8758V56.934H81.4638ZM76.5498 58.662V59.094C76.5498 63.558 74.8218 66.582 70.0338 68.886L71.2758 70.794C77.1978 67.932 78.9258 63.756 78.9258 58.662H76.5498ZM70.9158 58.662V60.552H77.6838V58.662H70.9158ZM92.9644 61.326V63.234H96.3484V61.326H92.9644ZM92.8744 65.484V67.392H96.2764V65.484H92.8744ZM98.6164 56.934V73.602H100.902V56.934H98.6164ZM95.1784 57.294V72.864H97.4104V57.294H95.1784ZM91.4164 58.896V59.382C91.4164 63.414 90.0664 66.186 86.3044 68.472L87.6544 70.146C92.2984 67.41 93.7204 63.63 93.7204 58.896H91.4164ZM87.2584 58.896V60.804H92.2264V58.896H87.2584ZM103.583 57.672V64.962H111.593V57.672H109.217V59.634H105.959V57.672H103.583ZM105.959 61.434H109.217V63.09H105.959V61.434ZM113.825 56.934V65.394H116.219V56.934H113.825ZM115.247 60.138V62.082H118.415V60.138H115.247ZM105.203 66.042V67.878H113.861V68.868H105.239V72.558H107.615V70.578H116.219V66.042H105.203ZM105.239 71.64V73.494H116.705V71.64H105.239Z" fill="#DE006B"/>
<rect x="60" y="141" width="67" height="37" rx="10" fill="white"/>
<path d="M79.907 158.584L79.493 160.618H81.761V162.436H79.151L78.467 166H76.541L77.225 162.436H75.515L74.849 166H72.959L73.607 162.436H71.519V160.618H73.949L74.363 158.584H72.149V156.748H74.687L75.371 153.166H77.297L76.613 156.748H78.359L79.043 153.166H80.933L80.249 156.748H82.355V158.584H79.907ZM75.857 160.618H77.585L77.999 158.584H76.271L75.857 160.618ZM83.6958 152.464V154.372H92.8938V152.464H83.6958ZM83.5158 163.804C86.3598 163.804 90.1398 163.732 93.5058 163.138L93.3798 161.392C90.0858 161.806 86.1618 161.842 83.2638 161.842L83.5158 163.804ZM85.1178 153.958V162.364H87.4398V153.958H85.1178ZM89.1498 153.958V162.364H91.4718V153.958H89.1498ZM94.1358 150.934V167.602H96.5478V150.934H94.1358ZM96.0078 157.252V159.214H98.9598V157.252H96.0078ZM100.938 161.896V163.84H102.378C105.348 163.84 107.706 163.768 110.316 163.354L110.1 161.464C107.526 161.842 105.294 161.896 102.378 161.896H100.938ZM100.938 152.32V162.526H103.314V154.264H109.38V152.32H100.938ZM102.774 156.946V158.818H108.678V156.946H102.774ZM111.522 150.934V167.602H113.934V150.934H111.522Z" fill="#DE006B"/>
<rect x="78" width="67" height="37" rx="10" fill="white"/>
<path d="M97.907 17.584L97.493 19.618H99.761V21.436H97.151L96.467 25H94.541L95.225 21.436H93.515L92.849 25H90.959L91.607 21.436H89.519V19.618H91.949L92.363 17.584H90.149V15.748H92.687L93.371 12.166H95.297L94.613 15.748H96.359L97.043 12.166H98.933L98.249 15.748H100.355V17.584H97.907ZM93.857 19.618H95.585L95.999 17.584H94.271L93.857 19.618ZM108.932 13.336V15.262H113.468V13.336H108.932ZM108.932 18.502V20.428H113.468V18.502H108.932ZM106.052 11.086C103.55 11.086 101.75 13.39 101.75 17.026C101.75 20.698 103.55 23.002 106.052 23.002C108.536 23.002 110.354 20.698 110.354 17.026C110.354 13.39 108.536 11.086 106.052 11.086ZM106.052 13.264C107.276 13.264 108.086 14.578 108.086 17.026C108.086 19.51 107.276 20.842 106.052 20.842C104.846 20.842 104.018 19.51 104.018 17.026C104.018 14.578 104.846 13.264 106.052 13.264ZM113.09 9.916V26.638H115.466V9.916H113.09ZM129.972 9.934V20.374H132.24V9.934H129.972ZM127.938 14.038V15.982H130.602V14.038H127.938ZM126.516 10.258V19.834H128.748V10.258H126.516ZM117.966 11.644V13.48H126.048V11.644H117.966ZM122.034 14.02C119.946 14.02 118.434 15.208 118.434 16.936C118.434 18.664 119.946 19.834 122.034 19.834C124.122 19.834 125.634 18.664 125.634 16.936C125.634 15.208 124.122 14.02 122.034 14.02ZM122.034 15.73C122.898 15.73 123.492 16.162 123.492 16.936C123.492 17.71 122.898 18.142 122.034 18.142C121.152 18.142 120.558 17.71 120.558 16.936C120.558 16.162 121.152 15.73 122.034 15.73ZM120.828 10.096V12.904H123.186V10.096H120.828ZM126.606 20.554C123.024 20.554 120.864 21.634 120.864 23.578C120.864 25.504 123.024 26.602 126.606 26.602C130.17 26.602 132.33 25.504 132.33 23.578C132.33 21.634 130.17 20.554 126.606 20.554ZM126.606 22.336C128.82 22.336 129.936 22.714 129.936 23.578C129.936 24.424 128.82 24.82 126.606 24.82C124.374 24.82 123.258 24.424 123.258 23.578C123.258 22.714 124.374 22.336 126.606 22.336Z" fill="#6C7072"/>
<rect x="88" y="94" width="100" height="37" rx="10" fill="white"/>
<path d="M107.848 111.584L107.434 113.618H109.702V115.436H107.092L106.408 119H104.482L105.166 115.436H103.456L102.79 119H100.9L101.548 115.436H99.4605V113.618H101.89L102.304 111.584H100.09V109.748H102.628L103.312 106.166H105.238L104.554 109.748H106.3L106.984 106.166H108.874L108.19 109.748H110.296V111.584H107.848ZM103.798 113.618H105.526L105.94 111.584H104.212L103.798 113.618ZM118.801 106.112V108.02H123.733V106.112H118.801ZM118.801 109.802V111.728H123.733V109.802H118.801ZM116.029 104.816C113.527 104.816 111.619 106.544 111.619 108.902C111.619 111.26 113.527 112.988 116.029 112.988C118.513 112.988 120.421 111.26 120.421 108.902C120.421 106.544 118.513 104.816 116.029 104.816ZM116.029 106.85C117.253 106.85 118.153 107.588 118.153 108.902C118.153 110.198 117.253 110.972 116.029 110.972C114.805 110.972 113.905 110.198 113.905 108.902C113.905 107.588 114.805 106.85 116.029 106.85ZM122.977 103.934V113.69H125.371V103.934H122.977ZM119.719 114.032C116.209 114.032 114.013 115.256 114.013 117.326C114.013 119.396 116.209 120.602 119.719 120.602C123.229 120.602 125.425 119.396 125.425 117.326C125.425 115.256 123.229 114.032 119.719 114.032ZM119.719 115.886C121.915 115.886 123.067 116.354 123.067 117.326C123.067 118.298 121.915 118.766 119.719 118.766C117.541 118.766 116.371 118.298 116.371 117.326C116.371 116.354 117.541 115.886 119.719 115.886ZM129.834 104.636V106.544H140.4V104.636H129.834ZM127.998 110.396V112.304H143.082V110.396H127.998ZM134.316 111.746V115.238H136.71V111.746H134.316ZM138.96 104.636V105.968C138.96 107.372 138.96 108.902 138.438 111.044L140.796 111.278C141.318 109.082 141.318 107.408 141.318 105.968V104.636H138.96ZM129.51 114.644V116.534H138.942V120.602H141.336V114.644H129.51ZM151.918 106.112V108.02H156.85V106.112H151.918ZM151.918 109.802V111.728H156.85V109.802H151.918ZM149.146 104.816C146.644 104.816 144.736 106.544 144.736 108.902C144.736 111.26 146.644 112.988 149.146 112.988C151.63 112.988 153.538 111.26 153.538 108.902C153.538 106.544 151.63 104.816 149.146 104.816ZM149.146 106.85C150.37 106.85 151.27 107.588 151.27 108.902C151.27 110.198 150.37 110.972 149.146 110.972C147.922 110.972 147.022 110.198 147.022 108.902C147.022 107.588 147.922 106.85 149.146 106.85ZM156.094 103.934V113.69H158.488V103.934H156.094ZM152.836 114.032C149.326 114.032 147.13 115.256 147.13 117.326C147.13 119.396 149.326 120.602 152.836 120.602C156.346 120.602 158.542 119.396 158.542 117.326C158.542 115.256 156.346 114.032 152.836 114.032ZM152.836 115.886C155.032 115.886 156.184 116.354 156.184 117.326C156.184 118.298 155.032 118.766 152.836 118.766C150.658 118.766 149.488 118.298 149.488 117.326C149.488 116.354 150.658 115.886 152.836 115.886ZM165.669 105.086C163.167 105.086 161.367 107.39 161.367 111.026C161.367 114.698 163.167 117.002 165.669 117.002C168.153 117.002 169.971 114.698 169.971 111.026C169.971 107.39 168.153 105.086 165.669 105.086ZM165.669 107.264C166.893 107.264 167.685 108.578 167.685 111.026C167.685 113.51 166.893 114.842 165.669 114.842C164.463 114.842 163.653 113.51 163.653 111.026C163.653 108.578 164.463 107.264 165.669 107.264ZM172.707 103.916V120.638H175.083V103.916H172.707ZM169.269 109.928V111.854H173.715V109.928H169.269Z" fill="#4FF788"/>
<rect x="156" width="67" height="37" rx="10" fill="white"/>
<path d="M175.907 17.584L175.493 19.618H177.761V21.436H175.151L174.467 25H172.541L173.225 21.436H171.515L170.849 25H168.959L169.607 21.436H167.519V19.618H169.949L170.363 17.584H168.149V15.748H170.687L171.371 12.166H173.297L172.613 15.748H174.359L175.043 12.166H176.933L176.249 15.748H178.355V17.584H175.907ZM171.857 19.618H173.585L173.999 17.584H172.271L171.857 19.618ZM181.262 18.178V20.068H192.98V18.178H181.262ZM179.498 22.84V24.766H194.582V22.84H179.498ZM185.834 19.132V23.686H188.228V19.132H185.834ZM181.262 11.068V18.898H183.692V12.976H192.836V11.068H181.262ZM182.954 14.596V16.468H192.458V14.596H182.954ZM197.748 11.392V13.3H208.242V11.392H197.748ZM196.056 22.678V24.64H211.122V22.678H196.056ZM207.234 11.392V13.318C207.234 15.676 207.234 18.106 206.46 21.472L208.818 21.688C209.592 18.052 209.592 15.748 209.592 13.318V11.392H207.234ZM207.738 15.964L197.262 16.306L197.55 18.232L207.738 17.728V15.964Z" fill="#4FF788"/>
<rect x="141" y="47" width="67" height="37" rx="10" fill="white"/>
<path d="M160.907 64.584L160.493 66.618H162.761V68.436H160.151L159.467 72H157.541L158.225 68.436H156.515L155.849 72H153.959L154.607 68.436H152.519V66.618H154.949L155.363 64.584H153.149V62.748H155.687L156.371 59.166H158.297L157.613 62.748H159.359L160.043 59.166H161.933L161.249 62.748H163.355V64.584H160.907ZM156.857 66.618H158.585L158.999 64.584H157.271L156.857 66.618ZM173.516 60.966V62.91H176.684V60.966H173.516ZM176.036 56.934V66.834H178.43V56.934H176.036ZM172.778 67.194C169.25 67.194 167.072 68.4 167.072 70.416C167.072 72.45 169.25 73.62 172.778 73.62C176.306 73.62 178.484 72.45 178.484 70.416C178.484 68.4 176.306 67.194 172.778 67.194ZM172.778 69.012C174.956 69.012 176.108 69.462 176.108 70.416C176.108 71.352 174.956 71.802 172.778 71.802C170.618 71.802 169.466 71.352 169.466 70.416C169.466 69.462 170.618 69.012 172.778 69.012ZM168.332 58.608V59.652C168.332 61.794 167.144 64.008 164.39 64.944L165.614 66.834C168.8 65.754 170.276 62.838 170.276 59.652V58.608H168.332ZM168.836 58.608V59.652C168.836 62.622 170.258 65.394 173.354 66.42L174.524 64.53C171.896 63.648 170.762 61.614 170.762 59.652V58.608H168.836ZM165.038 57.942V59.85H174.002V57.942H165.038ZM181.056 69.732V71.676H196.14V69.732H181.056ZM187.374 66.168V70.2H189.768V66.168H187.374ZM182.64 57.996V66.672H194.502V57.996H192.126V60.552H185.016V57.996H182.64ZM185.016 62.424H192.126V64.764H185.016V62.424Z" fill="#6C7072"/>
<rect x="138" y="141" width="74" height="37" rx="10" fill="white"/>
<path d="M157.839 158.584L157.425 160.618H159.693V162.436H157.083L156.399 166H154.473L155.157 162.436H153.447L152.781 166H150.891L151.539 162.436H149.451V160.618H151.881L152.295 158.584H150.081V156.748H152.619L153.303 153.166H155.229L154.545 156.748H156.291L156.975 153.166H158.865L158.181 156.748H160.287V158.584H157.839ZM153.789 160.618H155.517L155.931 158.584H154.203L153.789 160.618ZM173.975 159.556C173.975 160.996 173.717 162.244 173.201 163.3C172.685 164.356 171.887 165.124 170.807 165.604L173.903 169.06H170.411L168.053 166.18H167.855C166.463 166.18 165.311 165.904 164.399 165.352C163.499 164.8 162.827 164.026 162.383 163.03C161.951 162.034 161.735 160.87 161.735 159.538C161.735 158.206 161.951 157.048 162.383 156.064C162.827 155.08 163.499 154.318 164.399 153.778C165.311 153.226 166.469 152.95 167.873 152.95C169.265 152.95 170.411 153.226 171.311 153.778C172.211 154.318 172.877 155.086 173.309 156.082C173.753 157.066 173.975 158.224 173.975 159.556ZM164.597 159.556C164.597 160.9 164.855 161.962 165.371 162.742C165.887 163.51 166.715 163.894 167.855 163.894C169.019 163.894 169.853 163.51 170.357 162.742C170.861 161.962 171.113 160.9 171.113 159.556C171.113 158.212 170.861 157.156 170.357 156.388C169.853 155.608 169.025 155.218 167.873 155.218C166.721 155.218 165.887 155.608 165.371 156.388C164.855 157.156 164.597 158.212 164.597 159.556ZM180.598 152.968C181.294 152.968 181.912 153.076 182.452 153.292C182.992 153.508 183.418 153.826 183.73 154.246C184.042 154.666 184.198 155.17 184.198 155.758C184.198 156.586 183.952 157.282 183.46 157.846C182.968 158.41 182.356 158.902 181.624 159.322L184.126 161.752C184.366 161.344 184.576 160.918 184.756 160.474C184.936 160.018 185.086 159.562 185.206 159.106H187.996C187.816 159.778 187.552 160.498 187.204 161.266C186.856 162.034 186.412 162.754 185.872 163.426L188.518 166H185.206L184.198 165.01C183.67 165.37 183.088 165.658 182.452 165.874C181.828 166.078 181.144 166.18 180.4 166.18C178.936 166.18 177.79 165.844 176.962 165.172C176.146 164.5 175.738 163.618 175.738 162.526C175.738 161.614 175.948 160.888 176.368 160.348C176.788 159.796 177.364 159.31 178.096 158.89C177.628 158.35 177.298 157.852 177.106 157.396C176.926 156.94 176.836 156.454 176.836 155.938C176.836 155.326 176.992 154.798 177.304 154.354C177.628 153.91 178.072 153.568 178.636 153.328C179.2 153.088 179.854 152.968 180.598 152.968ZM180.58 155.038C180.28 155.038 179.992 155.116 179.716 155.272C179.452 155.416 179.32 155.698 179.32 156.118C179.32 156.418 179.392 156.706 179.536 156.982C179.692 157.258 179.896 157.54 180.148 157.828C180.652 157.552 181.036 157.276 181.3 157C181.576 156.724 181.714 156.406 181.714 156.046C181.714 155.686 181.594 155.428 181.354 155.272C181.114 155.116 180.856 155.038 180.58 155.038ZM179.662 160.492C179.326 160.744 179.056 161.014 178.852 161.302C178.66 161.578 178.564 161.902 178.564 162.274C178.564 162.79 178.756 163.198 179.14 163.498C179.524 163.786 180.004 163.93 180.58 163.93C180.964 163.93 181.324 163.882 181.66 163.786C181.996 163.69 182.302 163.558 182.578 163.39L179.662 160.492ZM198.004 166L197.068 162.94H192.388L191.452 166H188.518L193.054 153.094H196.384L200.938 166H198.004ZM196.42 160.654L195.484 157.666C195.424 157.462 195.346 157.204 195.25 156.892C195.154 156.58 195.058 156.262 194.962 155.938C194.866 155.614 194.788 155.332 194.728 155.092C194.668 155.332 194.584 155.632 194.476 155.992C194.38 156.34 194.284 156.676 194.188 157C194.104 157.312 194.038 157.534 193.99 157.666L193.072 160.654H196.42Z" fill="#75C8FF"/>
<rect x="234" width="67" height="37" rx="10" fill="white"/>
<path d="M253.907 17.584L253.493 19.618H255.761V21.436H253.151L252.467 25H250.541L251.225 21.436H249.515L248.849 25H246.959L247.607 21.436H245.519V19.618H247.949L248.363 17.584H246.149V15.748H248.687L249.371 12.166H251.297L250.613 15.748H252.359L253.043 12.166H254.933L254.249 15.748H256.355V17.584H253.907ZM249.857 19.618H251.585L251.999 17.584H250.271L249.857 19.618ZM268.136 9.916V26.584H270.548V9.916H268.136ZM269.918 16.288V18.25H272.852V16.288H269.918ZM263.762 11.644V12.058C263.762 16.576 261.692 19.636 257.318 21.904L258.65 23.722C264.194 20.932 266.102 16.648 266.102 11.644H263.762ZM258.236 11.644V13.57H264.986V11.644H258.236ZM279.924 11.464V11.878C279.924 13.21 278.322 14.704 274.668 15.064L275.514 16.918C279.798 16.504 282.048 14.416 282.048 11.878V11.464H279.924ZM281.094 11.464V11.878C281.094 14.434 283.362 16.504 287.628 16.918L288.474 15.064C284.82 14.722 283.218 13.228 283.218 11.878V11.464H281.094ZM275.406 10.546V12.436H287.754V10.546H275.406ZM274.038 18.034V19.942H289.122V18.034H274.038ZM280.356 15.892V18.88H282.732V15.892H280.356ZM275.712 21.148V23.038H284.892V26.602H287.286V21.148H275.712Z" fill="#6C7072"/>
<rect x="199" y="94" width="67" height="37" rx="10" fill="white"/>
<path d="M218.907 111.584L218.493 113.618H220.761V115.436H218.151L217.467 119H215.541L216.225 115.436H214.515L213.849 119H211.959L212.607 115.436H210.519V113.618H212.949L213.363 111.584H211.149V109.748H213.687L214.371 106.166H216.297L215.613 109.748H217.359L218.043 106.166H219.933L219.249 109.748H221.355V111.584H218.907ZM214.857 113.618H216.585L216.999 111.584H215.271L214.857 113.618ZM228.636 105.536V105.824C228.636 110.54 227.25 113.69 222.336 116.282L223.65 118.1C229.626 114.968 230.958 110.666 230.958 105.536H228.636ZM223.326 105.536V107.426H230.094V105.536H223.326ZM228.87 109.622L222.444 109.982L222.75 111.998L228.87 111.44V109.622ZM234.036 103.934V120.602H236.43V103.934H234.036ZM230.94 110.324V112.268H235.296V110.324H230.94ZM240.352 104.384V106.166H252.772V104.384H240.352ZM240.478 108.29V110.072H252.646V108.29H240.478ZM242.476 105.086V109.442H244.87V105.086H242.476ZM248.254 105.086V109.442H250.648V105.086H248.254ZM239.038 110.936V112.808H254.104V110.936H239.038ZM240.766 113.726V115.436H249.928V116.264H240.784V119.414H243.142V117.866H252.286V113.726H240.766ZM240.784 118.748V120.494H252.718V118.748H240.784Z" fill="#DE006B"/>
<rect x="219" y="47" width="67" height="37" rx="10" fill="white"/>
<path d="M238.907 64.584L238.493 66.618H240.761V68.436H238.151L237.467 72H235.541L236.225 68.436H234.515L233.849 72H231.959L232.607 68.436H230.519V66.618H232.949L233.363 64.584H231.149V62.748H233.687L234.371 59.166H236.297L235.613 62.748H237.359L238.043 59.166H239.933L239.249 62.748H241.355V64.584H238.907ZM234.857 66.618H236.585L236.999 64.584H235.271L234.857 66.618ZM246.782 60.102V60.3C246.782 61.74 245.648 63.108 243.074 63.576L244.028 65.43C247.232 64.782 248.708 62.766 248.708 60.3V60.102H246.782ZM247.268 60.102V60.3C247.268 62.658 248.744 64.584 251.894 65.178L252.83 63.342C250.31 62.892 249.194 61.65 249.194 60.3V60.102H247.268ZM243.524 58.59V60.426H252.434V58.59H243.524ZM246.782 56.97V59.904H249.194V56.97H246.782ZM246.764 66.402V73.098H249.158V66.402H246.764ZM254.054 56.934V73.602H256.43V56.934H254.054ZM242.822 68.076C245.792 68.076 249.662 68.022 253.262 67.374L253.1 65.646C249.608 66.114 245.558 66.132 242.534 66.132L242.822 68.076ZM267.462 60.606V62.532H271.638V60.606H267.462ZM263.646 57.618C261.126 57.618 259.236 59.292 259.236 61.596C259.236 63.918 261.126 65.574 263.646 65.574C266.148 65.574 268.038 63.918 268.038 61.596C268.038 59.292 266.148 57.618 263.646 57.618ZM263.646 59.616C264.87 59.616 265.752 60.354 265.752 61.596C265.752 62.838 264.87 63.594 263.646 63.594C262.422 63.594 261.522 62.838 261.522 61.596C261.522 60.354 262.422 59.616 263.646 59.616ZM270.594 56.934V65.898H272.988V56.934H270.594ZM261.918 66.618V73.422H272.988V66.618H270.612V68.202H264.294V66.618H261.918ZM264.294 70.038H270.612V71.514H264.294V70.038Z" fill="#4FF788"/>
<rect x="223" y="141" width="67" height="37" rx="10" fill="white"/>
<path d="M242.907 158.584L242.493 160.618H244.761V162.436H242.151L241.467 166H239.541L240.225 162.436H238.515L237.849 166H235.959L236.607 162.436H234.519V160.618H236.949L237.363 158.584H235.149V156.748H237.687L238.371 153.166H240.297L239.613 156.748H241.359L242.043 153.166H243.933L243.249 156.748H245.355V158.584H242.907ZM238.857 160.618H240.585L240.999 158.584H239.271L238.857 160.618ZM258.522 150.934V167.602H260.808V150.934H258.522ZM256.524 157.324V159.268H259.278V157.324H256.524ZM255.012 151.222V166.81H257.244V151.222H255.012ZM246.606 152.806V154.714H254.22V152.806H246.606ZM246.57 163.822C248.604 163.822 251.952 163.768 254.508 163.21L254.346 161.482C251.862 161.824 248.388 161.878 246.318 161.878L246.57 163.822ZM247.65 154.03V162.382H249.792V154.03H247.65ZM251.034 154.03V162.382H253.176V154.03H251.034ZM271.84 153.094V155.02H275.152V153.094H271.84ZM271.84 156.316V158.224H275.152V156.316H271.84ZM266.854 151.888V153.796C266.854 156.226 265.702 158.566 262.948 159.538L264.226 161.41C267.376 160.24 268.78 157.252 268.78 153.796V151.888H266.854ZM267.358 151.888V153.796C267.358 157.108 268.726 160.042 271.678 161.212L272.992 159.358C270.364 158.368 269.284 156.082 269.284 153.796V151.888H267.358ZM274.594 150.952V163.282H276.988V150.952H274.594ZM265.954 165.406V167.314H277.348V165.406H265.954ZM265.954 162.148V166.612H268.366V162.148H265.954Z" fill="#DE006B"/>
<rect x="312" width="67" height="37" rx="10" fill="white"/>
<path d="M331.907 17.584L331.493 19.618H333.761V21.436H331.151L330.467 25H328.541L329.225 21.436H327.515L326.849 25H324.959L325.607 21.436H323.519V19.618H325.949L326.363 17.584H324.149V15.748H326.687L327.371 12.166H329.297L328.613 15.748H330.359L331.043 12.166H332.933L332.249 15.748H334.355V17.584H331.907ZM327.857 19.618H329.585L329.999 17.584H328.271L327.857 19.618ZM346.964 9.916V26.638H349.358V9.916H346.964ZM336.38 20.806V22.75H337.856C340.898 22.75 343.346 22.66 346.046 22.174L345.812 20.248C343.166 20.698 340.808 20.806 337.856 20.806H336.38ZM336.362 11.338V13.246H341.78V15.892H336.38V21.526H338.81V17.782H344.228V11.338H336.362ZM355.404 19.672V26.602H357.816V19.672H355.404ZM361.362 19.672V26.602H363.774V19.672H361.362ZM352.038 19.384V21.292H367.14V19.384H352.038ZM353.766 10.546V17.818H365.358V10.546H362.982V12.364H356.142V10.546H353.766ZM356.142 14.254H362.982V15.892H356.142V14.254Z" fill="#DE006B"/>
<rect x="277" y="94" width="51" height="37" rx="10" fill="white"/>
<path d="M297.186 111.584L296.772 113.618H299.04V115.436H296.43L295.746 119H293.82L294.504 115.436H292.794L292.128 119H290.238L290.886 115.436H288.798V113.618H291.228L291.642 111.584H289.428V109.748H291.966L292.65 106.166H294.576L293.892 109.748H295.638L296.322 106.166H298.212L297.528 109.748H299.634V111.584H297.186ZM293.136 113.618H294.864L295.278 111.584H293.55L293.136 113.618ZM301.677 111.008V112.88H303.099C306.609 112.88 308.715 112.826 311.055 112.448L310.821 110.576C308.535 110.954 306.537 111.008 303.099 111.008H301.677ZM301.677 104.78V111.8H304.053V106.67H309.687V104.78H301.677ZM303.315 107.876V109.748H309.201V107.876H303.315ZM312.207 103.934V113.222H314.619V103.934H312.207ZM303.531 113.924V120.422H314.619V113.924H312.243V115.31H305.889V113.924H303.531ZM305.889 117.146H312.243V118.514H305.889V117.146Z" fill="#6C7072"/>
<rect x="297" y="47" width="72" height="37" rx="10" fill="white"/>
<path d="M316.902 64.584L316.488 66.618H318.756V68.436H316.146L315.462 72H313.536L314.22 68.436H312.51L311.844 72H309.954L310.602 68.436H308.514V66.618H310.944L311.358 64.584H309.144V62.748H311.682L312.366 59.166H314.292L313.608 62.748H315.354L316.038 59.166H317.928L317.244 62.748H319.35V64.584H316.902ZM312.852 66.618H314.58L314.994 64.584H313.266L312.852 66.618ZM324.057 72H321.375V59.148H328.737V61.38H324.057V64.692H328.413V66.924H324.057V72ZM341.712 59.148V67.464C341.712 68.352 341.514 69.156 341.118 69.876C340.734 70.584 340.146 71.148 339.354 71.568C338.562 71.976 337.572 72.18 336.384 72.18C334.68 72.18 333.384 71.748 332.496 70.884C331.608 70.008 331.164 68.856 331.164 67.428V59.148H333.882V67.014C333.882 68.082 334.098 68.832 334.53 69.264C334.962 69.684 335.604 69.894 336.456 69.894C337.344 69.894 337.986 69.66 338.382 69.192C338.79 68.724 338.994 67.992 338.994 66.996V59.148H341.712ZM356.253 72H352.797L347.199 62.28H347.127C347.151 62.892 347.175 63.504 347.199 64.116C347.235 64.728 347.265 65.34 347.289 65.952V72H344.859V59.148H348.297L353.877 68.778H353.931C353.907 68.19 353.883 67.602 353.859 67.014C353.835 66.426 353.817 65.832 353.805 65.232V59.148H356.253V72Z" fill="#75C8FF"/>
<rect x="301" y="141" width="67" height="37" rx="10" fill="white"/>
<path d="M320.907 158.584L320.493 160.618H322.761V162.436H320.151L319.467 166H317.541L318.225 162.436H316.515L315.849 166H313.959L314.607 162.436H312.519V160.618H314.949L315.363 158.584H313.149V156.748H315.687L316.371 153.166H318.297L317.613 156.748H319.359L320.043 153.166H321.933L321.249 156.748H323.355V158.584H320.907ZM316.857 160.618H318.585L318.999 158.584H317.271L316.857 160.618ZM326.208 151.456V153.364H335.406V154.642H326.244V158.962H328.674V156.424H337.836V151.456H326.208ZM326.244 157.792V159.682H338.25V157.792H326.244ZM324.48 160.906V162.832H339.582V160.906H324.48ZM330.798 161.608V167.638H333.192V161.608H330.798ZM352.486 150.952V163.264H354.898V150.952H352.486ZM343.792 165.406V167.314H355.312V165.406H343.792ZM343.792 162.202V166.612H346.186V162.202H343.792ZM341.956 159.034V160.924H343.378C346.888 160.924 348.994 160.87 351.334 160.474L351.1 158.62C348.814 158.998 346.816 159.034 343.378 159.034H341.956ZM341.956 152.194V159.322H344.332V154.102H349.966V152.194H341.956ZM343.594 155.614V157.468H349.48V155.614H343.594Z" fill="#4FF788"/>
<rect x="390" width="100" height="37" rx="10" fill="white"/>
<path d="M409.848 17.584L409.434 19.618H411.702V21.436H409.092L408.408 25H406.482L407.166 21.436H405.456L404.79 25H402.9L403.548 21.436H401.46V19.618H403.89L404.304 17.584H402.09V15.748H404.628L405.312 12.166H407.238L406.554 15.748H408.3L408.984 12.166H410.874L410.19 15.748H412.296V17.584H409.848ZM405.798 19.618H407.526L407.94 17.584H406.212L405.798 19.618ZM424.851 9.916V26.638H427.263V9.916H424.851ZM414.249 11.248V22.75H422.439V11.248H420.063V15.298H416.625V11.248H414.249ZM416.625 17.152H420.063V20.824H416.625V17.152ZM429.998 22.66V24.604H445.082V22.66H429.998ZM436.262 12.238V13.192C436.262 15.496 434.282 17.782 430.574 18.358L431.51 20.266C435.758 19.492 438.278 16.684 438.278 13.192V12.238H436.262ZM436.748 12.238V13.192C436.748 16.684 439.304 19.42 443.624 20.176L444.542 18.268C440.744 17.71 438.764 15.496 438.764 13.192V12.238H436.748ZM431.24 11.32V13.228H443.786V11.32H431.24ZM458.076 9.934V26.602H460.47V9.934H458.076ZM447.42 11.518V21.868H449.796V11.518H447.42ZM447.42 20.464V22.498H448.896C451.434 22.498 454.188 22.318 457.05 21.724L456.78 19.744C454.026 20.284 451.326 20.464 448.896 20.464H447.42ZM469.289 10.888V12.094C469.289 14.488 467.219 17.134 463.457 17.782L464.483 19.762C468.803 18.916 471.377 15.712 471.377 12.094V10.888H469.289ZM469.775 10.888V12.094C469.775 15.766 472.331 18.916 476.651 19.762L477.677 17.782C473.897 17.134 471.845 14.542 471.845 12.094V10.888H469.775ZM463.115 22.624V24.568H478.199V22.624H463.115Z" fill="#DE006B"/>
<rect x="339" y="94" width="52" height="37" rx="10" fill="white"/>
<path d="M359.256 111.584L358.842 113.618H361.11V115.436H358.5L357.816 119H355.89L356.574 115.436H354.864L354.198 119H352.308L352.956 115.436H350.868V113.618H353.298L353.712 111.584H351.498V109.748H354.036L354.72 106.166H356.646L355.962 109.748H357.708L358.392 106.166H360.282L359.598 109.748H361.704V111.584H359.256ZM355.206 113.618H356.934L357.348 111.584H355.62L355.206 113.618ZM368.534 119H362.684V117.452L364.25 116.732V108.416L362.684 107.696V106.148H368.534V107.696L366.968 108.416V116.732L368.534 117.452V119ZM375.674 119H372.956V108.416H369.464V106.148H379.166V108.416H375.674V119Z" fill="#75C8FF"/>
<rect x="380" y="47" width="67" height="37" rx="10" fill="white"/>
<path d="M399.907 64.584L399.493 66.618H401.761V68.436H399.151L398.467 72H396.541L397.225 68.436H395.515L394.849 72H392.959L393.607 68.436H391.519V66.618H393.949L394.363 64.584H392.149V62.748H394.687L395.371 59.166H397.297L396.613 62.748H398.359L399.043 59.166H400.933L400.249 62.748H402.355V64.584H399.907ZM395.857 66.618H397.585L397.999 64.584H396.271L395.857 66.618ZM404.83 57.672V59.58H417.268V57.672H404.83ZM404.956 63.324V65.232H417.124V63.324H404.956ZM406.954 59.22V64.35H409.348V59.22H406.954ZM412.75 59.22V64.35H415.126V59.22H412.75ZM403.48 66.618V68.544H418.564V66.618H403.48ZM409.816 67.482V73.602H412.21V67.482H409.816ZM421.802 64.62V66.528H433.52V64.62H421.802ZM420.056 69.642V71.604H435.14V69.642H420.056ZM421.802 58.302V65.412H424.178V60.246H433.394V58.302H421.802Z" fill="#75C8FF"/>
<rect x="379" y="141" width="67" height="37" rx="10" fill="white"/>
<path d="M398.907 158.584L398.493 160.618H400.761V162.436H398.151L397.467 166H395.541L396.225 162.436H394.515L393.849 166H391.959L392.607 162.436H390.519V160.618H392.949L393.363 158.584H391.149V156.748H393.687L394.371 153.166H396.297L395.613 156.748H397.359L398.043 153.166H399.933L399.249 156.748H401.355V158.584H398.907ZM394.857 160.618H396.585L396.999 158.584H395.271L394.857 160.618ZM406.188 160.402V164.776H408.564V160.402H406.188ZM411.498 160.402V164.776H413.874V160.402H411.498ZM402.498 163.732V165.694H417.582V163.732H402.498ZM408.672 151.834V153.022C408.672 155.254 406.638 157.684 402.822 158.278L403.794 160.24C408.186 159.502 410.76 156.496 410.76 153.022V151.834H408.672ZM409.14 151.834V153.022C409.14 156.532 411.714 159.484 416.124 160.24L417.096 158.278C413.244 157.684 411.228 155.29 411.228 153.022V151.834H409.14ZM419.758 152.176V154.102H428.74V152.176H419.758ZM419.578 160.312C422.332 160.312 426.184 160.24 429.532 159.61L429.352 157.882C426.076 158.314 422.116 158.368 419.326 158.368L419.578 160.312ZM421.072 153.706V159.268H423.358V153.706H421.072ZM425.104 153.706V159.268H427.426V153.706H425.104ZM430.486 150.952V160.978H432.898V150.952H430.486ZM427.282 161.302C423.754 161.302 421.594 162.454 421.594 164.434C421.594 166.45 423.754 167.602 427.282 167.602C430.81 167.602 433.006 166.45 433.006 164.434C433.006 162.454 430.81 161.302 427.282 161.302ZM427.282 163.12C429.478 163.12 430.612 163.552 430.612 164.434C430.612 165.352 429.478 165.784 427.282 165.784C425.104 165.784 423.97 165.352 423.97 164.434C423.97 163.552 425.104 163.12 427.282 163.12Z" fill="#6C7072"/>
</svg>
