<svg width="57" height="119" viewBox="0 0 57 119" fill="none" xmlns="http://www.w3.org/2000/svg">
<path d="M19.3608 4.81671C18.546 4.66705 17.7642 5.20625 17.6145 6.02105C17.4649 6.83584 18.0041 7.61768 18.8189 7.76734L19.3608 4.81671ZM41.9595 19.6176L43.1121 18.6576L41.9595 19.6176ZM54.1357 57.2919L55.6206 57.504L54.1357 57.2919ZM22.84 99.5247L23.807 100.671L22.84 99.5247ZM8.89424 109.393L9.62793 110.701L8.89424 109.393ZM18.8189 7.76734C27.7935 9.41572 35.0594 13.6764 40.8069 20.5775L43.1121 18.6576C36.9134 11.2147 29.0224 6.59127 19.3608 4.81671L18.8189 7.76734ZM40.8069 20.5775C49.3515 30.837 54.5192 44.0041 52.6508 57.0797L55.6206 57.504C57.6403 43.3692 52.04 29.3775 43.1121 18.6576L40.8069 20.5775ZM52.6508 57.0797C51.4001 65.8331 47.1156 73.3008 41.4095 80.0292C35.6893 86.7744 28.6207 92.6875 21.873 98.378L23.807 100.671C30.5091 95.0193 37.7844 88.9421 43.6975 81.9695C49.625 74.9801 54.2634 67.0028 55.6206 57.504L52.6508 57.0797ZM21.873 98.378C17.5291 102.041 13.0893 105.32 8.16056 108.084L9.62793 110.701C14.7709 107.817 19.3683 104.415 23.807 100.671L21.873 98.378ZM8.16056 108.084C7.58759 108.406 6.82337 108.911 6.35638 109.191C5.78992 109.53 5.31764 109.764 4.88198 109.879L5.6487 112.78C6.49934 112.555 7.26183 112.145 7.89841 111.764C8.63445 111.323 9.04154 111.03 9.62793 110.701L8.16056 108.084Z" fill="#DE006B"/>
<ellipse cx="4.99998" cy="4.99998" rx="4.99998" ry="4.99998" transform="matrix(0.998511 0.0545493 -0.0545462 0.998511 0.545898 106.062)" fill="#DE006B"/>
</svg>
