<svg width="246" height="254" viewBox="0 0 246 254" fill="none" xmlns="http://www.w3.org/2000/svg">
<path d="M17.5453 48.9027C16.1766 49.8363 15.8238 51.7028 16.7575 53.0715C17.6911 54.4403 19.5576 54.793 20.9263 53.8593L17.5453 48.9027ZM72.6511 39.8194L73.0867 36.8511L72.6511 39.8194ZM151.021 82.9617L153.376 81.1033L151.021 82.9617ZM176.659 196.265L179.659 196.273L176.659 196.265ZM173.467 232.323L176.409 232.91L173.467 232.323ZM20.9263 53.8593C35.9485 43.6124 52.9213 39.9563 72.2156 42.7876L73.0867 36.8511C52.4233 33.819 33.9092 37.7406 17.5453 48.9027L20.9263 53.8593ZM72.2156 42.7876C100.842 46.9881 129.71 60.7978 148.666 84.82L153.376 81.1033C133.284 55.6413 102.902 41.2262 73.0867 36.8511L72.2156 42.7876ZM148.666 84.82C174.1 117.053 173.757 158.308 173.659 196.257L179.659 196.273C179.756 158.783 180.326 115.257 153.376 81.1033L148.666 84.82ZM173.659 196.257C173.627 208.451 172.835 220.158 170.525 231.736L176.409 232.91C178.819 220.83 179.627 208.709 179.659 196.273L173.659 196.257ZM170.525 231.736C170.256 233.083 170.024 234.998 169.834 236.127C169.603 237.502 169.332 238.544 168.933 239.328L174.28 242.05C175.106 240.427 175.494 238.648 175.751 237.123C176.049 235.351 176.134 234.286 176.409 232.91L170.525 231.736Z" fill="#DE006B"/>
<circle cx="171.605" cy="240.688" r="10" transform="rotate(-42.6403 171.605 240.688)" fill="#DE006B"/>
</svg>
