<svg width="86" height="95" viewBox="0 0 86 95" fill="none" xmlns="http://www.w3.org/2000/svg">
<path d="M6.01795 22.1638C5.40949 22.726 4.46049 22.6885 3.89828 22.08C3.33608 21.4716 3.37358 20.5226 3.98204 19.9604L6.01795 22.1638ZM35.9607 6.50868L35.7337 5.02596L35.9607 6.50868ZM71.2376 23.8669L72.6826 23.4643L71.2376 23.8669ZM61.6669 53.7485L61.5174 52.256L61.6669 53.7485ZM55.3477 42.8633L56.4223 43.9098L55.3477 42.8633ZM75.1641 36.813L75.9471 35.5336L75.1641 36.813ZM80.9925 57.421L82.4646 57.7085L80.9925 57.421ZM48.4858 85.3122C47.7611 84.9108 47.499 83.9979 47.9004 83.2732L54.4415 71.4637C54.8429 70.739 55.7558 70.477 56.4805 70.8783C57.2052 71.2797 57.4672 72.1926 57.0659 72.9173L51.2515 83.4146L61.7489 89.2289C62.4735 89.6303 62.7356 90.5432 62.3342 91.2679C61.9328 91.9926 61.02 92.2547 60.2953 91.8533L48.4858 85.3122ZM3.98204 19.9604C7.93588 16.3071 11.5916 13.1998 16.4318 10.6955C21.2735 8.19047 27.2171 6.33 35.7337 5.02596L36.1878 7.9914C27.8867 9.26245 22.2797 11.0476 17.8104 13.36C13.3395 15.6732 9.9237 18.555 6.01795 22.1638L3.98204 19.9604ZM35.7337 5.02596C43.591 3.82286 51.732 4.67335 58.461 7.68792C65.2111 10.712 70.5874 15.9452 72.6826 23.4643L69.7927 24.2696C67.9822 17.7721 63.3375 13.1599 57.2345 10.4257C51.1102 7.6821 43.5656 6.86172 36.1878 7.9914L35.7337 5.02596ZM72.6826 23.4643C74.03 28.2996 75.8 35.6173 75.0733 41.9947C74.707 45.2089 73.6935 48.3159 71.5502 50.744C69.3829 53.1993 66.2002 54.802 61.8163 55.2411L61.5174 52.256C65.2924 51.8779 67.7227 50.5469 69.3011 48.7587C70.9036 46.9432 71.7687 44.497 72.0926 41.6551C72.7461 35.9202 71.1427 29.1143 69.7927 24.2696L72.6826 23.4643ZM61.8163 55.2411C57.4059 55.6828 53.9515 54.0342 52.4084 51.1541C50.8598 48.264 51.5169 44.6471 54.273 41.8168L56.4223 43.9098C54.398 45.9886 54.2359 48.2129 55.0527 49.7373C55.8749 51.2718 57.9704 52.6112 61.5174 52.256L61.8163 55.2411ZM54.273 41.8168C56.2588 39.7775 59.8931 37.234 63.8219 35.6597C67.6814 34.1132 72.3171 33.3121 75.9471 35.5336L74.3811 38.0924C72.0141 36.6439 68.5719 36.9882 64.9378 38.4445C61.3728 39.873 58.0974 42.1896 56.4223 43.9098L54.273 41.8168ZM75.9471 35.5336C79.6975 37.8287 81.5959 41.9258 82.4309 46.014C83.2703 50.1241 83.0944 54.4842 82.4646 57.7085L79.5203 57.1334C80.0848 54.2431 80.2415 50.286 79.4915 46.6143C78.7371 42.9206 77.1242 39.7711 74.3811 38.0924L75.9471 35.5336ZM82.4646 57.7085C81.1128 64.6297 76.2341 70.5904 70.1453 75.2584C64.0359 79.9423 56.5431 83.456 49.6265 85.4418L48.7987 82.5582C55.4028 80.6622 62.5464 77.3041 68.32 72.8776C74.1143 68.4354 78.3652 63.0474 79.5203 57.1334L82.4646 57.7085Z" fill="#DE006B"/>
</svg>
