<svg width="173" height="180" viewBox="0 0 173 180" fill="none" xmlns="http://www.w3.org/2000/svg">
<path d="M160.964 38.3276C162.181 39.452 164.079 39.377 165.203 38.16C166.328 36.9431 166.253 35.0451 165.036 33.9207L160.964 38.3276ZM101.079 7.01736L101.533 4.05192L101.079 7.01736ZM30.5247 41.7339L27.6348 40.9286L30.5247 41.7339ZM49.6663 101.497L49.9652 98.512L49.6663 101.497ZM62.3046 79.7266L60.1553 81.8195L62.3046 79.7266ZM22.6718 67.626L21.1058 65.0671L22.6718 67.626ZM11.0151 108.842L8.0707 109.417L11.0151 108.842ZM76.0284 164.624C77.4778 163.822 78.002 161.996 77.1992 160.546L64.117 136.927C63.3142 135.478 61.4884 134.954 60.0391 135.757C58.5897 136.559 58.0655 138.385 58.8683 139.835L70.4969 160.829L49.5023 172.458C48.0529 173.261 47.5287 175.086 48.3315 176.536C49.1343 177.985 50.9601 178.509 52.4094 177.707L76.0284 164.624ZM165.036 33.9207C157.128 26.6142 149.817 20.3995 140.136 15.391C130.453 10.3809 118.566 6.66 101.533 4.05192L100.624 9.9828C117.227 12.5249 128.441 16.0953 137.379 20.72C146.321 25.3463 153.153 31.1099 160.964 38.3276L165.036 33.9207ZM101.533 4.05192C85.8179 1.64573 69.536 3.3467 56.078 9.37584C42.5777 15.4239 31.8252 25.8905 27.6348 40.9286L33.4146 42.5392C37.0357 29.5443 46.3249 20.3198 58.5311 14.8515C70.7795 9.3642 85.8687 7.72343 100.624 9.9828L101.533 4.05192ZM27.6348 40.9286C24.9401 50.5992 21.3999 65.2346 22.8534 77.9895C23.586 84.4179 25.613 90.6319 29.8995 95.488C34.2342 100.399 40.5995 103.604 49.3673 104.482L49.9652 98.512C42.4152 97.7559 37.5546 95.0937 34.3978 91.5174C31.1928 87.8865 29.4626 82.9939 28.8149 77.3101C27.5078 65.8405 30.7147 52.2285 33.4146 42.5392L27.6348 40.9286ZM49.3673 104.482C58.1883 105.366 65.0969 102.068 68.1832 96.3083C71.2804 90.5279 69.9662 83.2943 64.4539 77.6336L60.1553 81.8195C64.204 85.9772 64.5281 90.4258 62.8945 93.4745C61.2502 96.5435 57.0591 99.2224 49.9652 98.512L49.3673 104.482ZM64.4539 77.6336C60.4823 73.5551 53.2138 68.468 45.3562 65.3195C37.6371 62.2263 28.3659 60.6242 21.1058 65.0671L24.2377 70.1849C28.9718 67.2877 35.8561 67.9765 43.1245 70.889C50.2544 73.746 56.8052 78.3792 60.1553 81.8195L64.4539 77.6336ZM21.1058 65.0671C13.605 69.6574 9.80823 77.8516 8.13827 86.0279C6.45934 94.2482 6.81116 102.968 8.0707 109.417L13.9594 108.267C12.8304 102.486 12.5171 94.572 14.0169 87.2286C15.5257 79.8412 18.7516 73.5422 24.2377 70.1849L21.1058 65.0671ZM8.0707 109.417C10.7743 123.259 20.5318 135.181 32.7093 144.517C44.9281 153.885 59.9139 160.912 73.747 164.884L75.4027 159.116C62.1944 155.324 47.9072 148.608 36.3599 139.755C24.7714 130.871 16.2696 120.095 13.9594 108.267L8.0707 109.417Z" fill="#DE006B"/>
</svg>
