<svg width="173" height="232" viewBox="0 0 173 232" fill="none" xmlns="http://www.w3.org/2000/svg">
<path d="M23.3744 26.0081C21.778 26.4516 20.8434 28.1052 21.2868 29.7016C21.7303 31.298 23.384 32.2327 24.9804 31.7892L23.3744 26.0081ZM76.4102 31.9668L77.5825 29.2054L76.4102 31.9668ZM129.236 85.5591L132.104 84.6777L129.236 85.5591ZM107.227 184.104L109.923 185.42L107.227 184.104ZM90.0961 212.807L92.5012 214.6L90.0961 212.807ZM24.9804 31.7892C42.5912 26.8969 59.2235 27.9294 75.2378 34.7283L77.5825 29.2054C60.2723 21.8564 42.2443 20.766 23.3744 26.0081L24.9804 31.7892ZM75.2378 34.7283C99.0645 44.8438 119.088 62.752 126.369 86.4405L132.104 84.6777C124.151 58.8044 102.496 39.7822 77.5825 29.2054L75.2378 34.7283ZM126.369 86.4405C131.244 102.302 129.626 118.6 124.821 134.906C120.005 151.251 112.072 167.34 104.531 182.788L109.923 185.42C117.41 170.083 125.591 153.523 130.577 136.602C135.574 119.644 137.447 102.062 132.104 84.6777L126.369 86.4405ZM104.531 182.788C99.679 192.727 94.3383 202.097 87.6909 211.014L92.5012 214.6C99.4354 205.299 104.962 195.582 109.923 185.42L104.531 182.788ZM87.6909 211.014C86.9185 212.05 85.9517 213.561 85.3358 214.437C84.5914 215.496 83.9249 216.306 83.2197 216.884L87.0249 221.523C88.3662 220.423 89.4049 219.082 90.2448 217.887C91.2135 216.509 91.7103 215.661 92.5012 214.6L87.6909 211.014Z" fill="#DE006B"/>
<circle cx="85.1218" cy="219.202" r="10" transform="rotate(-22.3931 85.1218 219.202)" fill="#DE006B"/>
</svg>
