<svg width="39" height="39" viewBox="0 0 39 39" fill="none" xmlns="http://www.w3.org/2000/svg">
<mask id="mask0_405_6611" style="mask-type:alpha" maskUnits="userSpaceOnUse" x="0" y="0" width="39" height="39">
<rect y="0.199219" width="38.4004" height="38.3999" fill="#D9D9D9"/>
</mask>
<g mask="url(#mask0_405_6611)">
<path d="M3.99963 33.7984C3.33296 33.7984 2.76629 33.565 2.29962 33.0984C1.83295 32.6317 1.59961 32.065 1.59961 31.3984V9.79842C1.59961 9.45176 1.71294 9.16509 1.93961 8.93842C2.16628 8.71176 2.45295 8.59842 2.79962 8.59842C3.14629 8.59842 3.43296 8.71176 3.65963 8.93842C3.8863 9.16509 3.99963 9.45176 3.99963 9.79842V31.3984H31.9999C32.3466 31.3984 32.6333 31.5117 32.8599 31.7384C33.0866 31.965 33.1999 32.2517 33.1999 32.5984C33.1999 32.945 33.0866 33.2317 32.8599 33.4584C32.6333 33.685 32.3466 33.7984 31.9999 33.7984H3.99963ZM8.79968 28.9984C8.13301 28.9984 7.56634 28.765 7.09966 28.2984C6.63299 27.8317 6.39966 27.265 6.39966 26.5984V5.79843C6.39966 5.13177 6.63299 4.5651 7.09966 4.09844C7.56634 3.63177 8.13301 3.39844 8.79968 3.39844H18.1998C18.5198 3.39844 18.8331 3.4651 19.1398 3.59844C19.4465 3.73177 19.7065 3.9051 19.9198 4.11844L21.5998 5.79843H34.3999C35.0666 5.79843 35.6333 6.03176 36.1 6.49843C36.5666 6.96509 36.8 7.53176 36.8 8.19843V26.5984C36.8 27.265 36.5666 27.8317 36.1 28.2984C35.6333 28.765 35.0666 28.9984 34.3999 28.9984H8.79968Z" fill="#DE006B"/>
</g>
</svg>
