<svg width="235" height="362" viewBox="0 0 235 362" fill="none" xmlns="http://www.w3.org/2000/svg">
<path d="M35.8963 268.386C27.6823 277.243 30.8294 283.78 33.4297 285.941L19.4913 282.556C15.4074 273.744 21.2314 264.159 24.654 260.468C43.8811 256.2 47.8085 245.61 47.3688 240.848L58.6113 248.765C59.0127 259.436 46.1639 257.313 35.8963 268.386Z" fill="#4FF788"/>
<path d="M113.123 35.2228C106.034 25.4409 99.0112 27.2565 96.3859 29.3871L102.418 16.3715C111.855 14.0795 120.121 21.6581 123.075 25.7339C123.52 45.4272 133.142 51.3407 137.897 51.8359L127.945 61.3249C117.402 59.6424 121.984 47.4502 113.123 35.2228Z" fill="#DE006B"/>
<path d="M165.746 260.286L141.93 281.772L118.435 273.195L140.536 256.409L165.746 260.286Z" fill="#75C8FF"/>
<path d="M86.4278 160.499L64.5823 175.125L31.394 171.329L52.8984 159.686L86.4278 160.499Z" fill="#75C8FF"/>
<path d="M159.126 199.142L143.392 210.429L129.874 203.702L144.263 195.119L159.126 199.142Z" fill="#DE006B"/>
<ellipse cx="6.66964" cy="6.67062" rx="6.66964" ry="6.67062" transform="matrix(-0.939373 -0.342926 0.342819 -0.939391 111.495 350.551)" fill="#DE006B"/>
<ellipse cx="6.66984" cy="6.67043" rx="6.66984" ry="6.67043" transform="matrix(-0.786673 -0.617409 0.617252 -0.786734 222.324 62.1367)" fill="#75C8FF"/>
<ellipse cx="12.2942" cy="12.2923" rx="12.2942" ry="12.2923" transform="matrix(0.147495 -0.989065 0.989053 0.147542 98.339 120.832)" fill="#4FF688"/>
<path d="M186.509 112.253L180.589 68.625L189.535 67.8568L193.86 111L186.509 112.253Z" fill="#D9D9D9"/>
</svg>
