<svg width="221" height="220" viewBox="0 0 221 220" fill="none" xmlns="http://www.w3.org/2000/svg">
<path d="M16.6159 51.3341C15.3138 52.3585 15.0886 54.2446 16.113 55.5468C17.1375 56.849 19.0236 57.0742 20.3258 56.0497L16.6159 51.3341ZM67.8516 36.3938L67.8692 33.3938L67.8516 36.3938ZM137.251 65.4886L139.557 63.5701L137.251 65.4886ZM154.918 164.904L157.913 165.079L154.918 164.904ZM150.172 197.991L153.082 198.719L150.172 197.991ZM20.3258 56.0497C34.6909 44.7485 50.4364 39.2916 67.8339 39.3937L67.8692 33.3938C49.0639 33.2834 32.0081 39.2249 16.6159 51.3341L20.3258 56.0497ZM67.8339 39.3937C93.7186 39.5457 119.097 48.3542 134.944 67.407L139.557 63.5701C122.248 42.76 94.9342 33.5527 67.8692 33.3938L67.8339 39.3937ZM134.944 67.407C145.555 80.1642 150.344 95.8269 152.194 112.726C154.049 129.664 152.929 147.567 151.923 164.728L157.913 165.079C158.911 148.042 160.078 129.607 158.158 112.073C156.234 94.498 151.187 77.5521 139.557 63.5701L134.944 67.407ZM151.923 164.728C151.276 175.769 149.959 186.474 147.262 197.263L153.082 198.719C155.897 187.464 157.251 176.369 157.913 165.079L151.923 164.728ZM147.262 197.263C146.948 198.517 146.638 200.284 146.408 201.33C146.129 202.595 145.826 203.598 145.398 204.404L150.697 207.218C151.511 205.686 151.953 204.048 152.267 202.622C152.63 200.977 152.761 200.003 153.082 198.719L147.262 197.263Z" fill="#DE006B"/>
<circle cx="148.047" cy="205.809" r="10" transform="rotate(-45.0602 148.047 205.809)" fill="#DE006B"/>
</svg>
