<svg width="39" height="39" viewBox="0 0 39 39" fill="none" xmlns="http://www.w3.org/2000/svg">
<mask id="mask0_405_6614" style="mask-type:alpha" maskUnits="userSpaceOnUse" x="0" y="0" width="39" height="39">
<rect width="38.4004" height="38.3999" fill="#D9D9D9"/>
</mask>
<g mask="url(#mask0_405_6614)">
<path d="M4.44089 12.6808L2.16086 11.6408C1.97419 11.5608 1.88086 11.4141 1.88086 11.2008C1.88086 10.9874 1.97419 10.8408 2.16086 10.7608L4.44089 9.68077L5.4809 7.40077C5.58756 7.24077 5.7409 7.16077 5.9409 7.16077C6.1409 7.16077 6.2809 7.24077 6.3609 7.40077L7.44092 9.68077L9.72094 10.7608C9.90761 10.8408 10.0009 10.9874 10.0009 11.2008C10.0009 11.4141 9.90761 11.5608 9.72094 11.6408L7.44092 12.6808L6.3609 14.9608C6.2809 15.1474 6.1409 15.2408 5.9409 15.2408C5.7409 15.2408 5.58756 15.1474 5.4809 14.9608L4.44089 12.6808ZM28.9211 7.16077L27.7611 6.68077C27.5745 6.57411 27.4811 6.41411 27.4811 6.20077C27.4811 5.98744 27.5745 5.82744 27.7611 5.72078L28.9211 5.20078L29.4411 4.04078C29.5211 3.88078 29.6745 3.80078 29.9011 3.80078C30.1278 3.80078 30.2945 3.88078 30.4012 4.04078L30.8812 5.20078L32.0412 5.72078C32.2278 5.82744 32.3212 5.98744 32.3212 6.20077C32.3212 6.41411 32.2278 6.57411 32.0412 6.68077L30.8812 7.16077L30.4012 8.32077C30.2945 8.50744 30.1278 8.60077 29.9011 8.60077C29.6745 8.60077 29.5211 8.50744 29.4411 8.32077L28.9211 7.16077ZM33.0812 15.3608L31.9212 14.8808C31.7345 14.7741 31.6412 14.6141 31.6412 14.4008C31.6412 14.1874 31.7345 14.0274 31.9212 13.9208L33.0812 13.4008L33.5612 12.2408C33.6679 12.0808 33.8279 12.0008 34.0412 12.0008C34.2545 12.0008 34.4145 12.0808 34.5212 12.2408L35.0412 13.4008L36.2012 13.9208C36.3612 14.0274 36.4412 14.1874 36.4412 14.4008C36.4412 14.6141 36.3612 14.7741 36.2012 14.8808L35.0412 15.3608L34.5212 16.5207C34.4145 16.7074 34.2545 16.8007 34.0412 16.8007C33.8279 16.8007 33.6679 16.7074 33.5612 16.5207L33.0812 15.3608ZM19.201 24.4407C17.7344 24.4407 16.5077 23.9207 15.521 22.8807C14.5343 21.8407 14.041 20.5741 14.041 19.0807V9.24077C14.041 7.82744 14.541 6.62077 15.541 5.62078C16.541 4.62078 17.761 4.12078 19.201 4.12078C20.641 4.12078 21.8677 4.62078 22.8811 5.62078C23.8944 6.62077 24.4011 7.82744 24.4011 9.24077V19.0807C24.4011 20.5741 23.9011 21.8407 22.9011 22.8807C21.9011 23.9207 20.6677 24.4407 19.201 24.4407ZM19.201 37.0407C18.7477 37.0407 18.361 36.8807 18.041 36.5607C17.721 36.2407 17.561 35.8407 17.561 35.3607V31.4807C14.681 31.1874 12.2343 30.054 10.2209 28.0807C8.20759 26.1074 7.00091 23.7341 6.60091 20.9607C6.54757 20.4807 6.68757 20.0474 7.02091 19.6607C7.35425 19.2741 7.80092 19.0807 8.36093 19.0807C8.7076 19.0807 9.0276 19.2074 9.32093 19.4607C9.61427 19.7141 9.80094 20.0407 9.88094 20.4407C10.2276 22.7074 11.2743 24.5874 13.021 26.0807C14.7677 27.574 16.8277 28.3207 19.201 28.3207C21.5744 28.3207 23.6344 27.574 25.3811 26.0807C27.1278 24.5874 28.1745 22.7074 28.5211 20.4407C28.6011 20.0407 28.7811 19.7141 29.0611 19.4607C29.3411 19.2074 29.6811 19.0807 30.0811 19.0807C30.6145 19.0807 31.0478 19.2741 31.3812 19.6607C31.7145 20.0474 31.8545 20.4807 31.8012 20.9607C31.4012 23.7341 30.1945 26.1074 28.1811 28.0807C26.1678 30.054 23.7211 31.1874 20.8411 31.4807V35.3607C20.8411 35.8407 20.6811 36.2407 20.361 36.5607C20.041 36.8807 19.6544 37.0407 19.201 37.0407Z" fill="#75C8FF"/>
</g>
</svg>
