<svg width="711" height="426" viewBox="0 0 711 426" fill="none" xmlns="http://www.w3.org/2000/svg">
<g filter="url(#filter0_d_486_10597)">
<path d="M60.4852 81.5807C60.9877 72.7212 68.5694 66.0654 77.4194 66.7147L571.244 102.944C580.094 103.593 586.861 111.302 586.359 120.161L573.167 352.765C572.665 361.624 565.083 368.28 556.233 367.631L62.408 331.402C53.558 330.752 46.791 323.044 47.2935 314.184L60.4852 81.5807Z" fill="white"/>
</g>
<g filter="url(#filter1_d_486_10597)">
<path fill-rule="evenodd" clip-rule="evenodd" d="M96.0515 95.3305C86.6635 96.2827 79.9511 104.651 81.0589 114.022L92.0908 207.343C104.666 206.068 116.431 218.328 118.37 234.727C120.308 251.126 111.686 265.454 99.1111 266.729L110.143 360.05C111.251 369.421 119.759 376.246 129.147 375.293L652.988 322.159C662.376 321.206 669.089 312.838 667.981 303.467L638.897 57.439C637.789 48.0681 629.281 41.2435 619.893 42.1957L96.0515 95.3305Z" fill="white"/>
</g>
<line x1="612.451" y1="139.926" x2="146.767" y2="187.161" stroke="#090A0A" stroke-width="1.9105" stroke-linecap="round"/>
<path d="M240.297 316.126C233.401 316.825 227.111 316.356 221.428 314.717C215.77 313.047 211.175 310.482 207.642 307.022C204.134 303.53 202.097 299.394 201.532 294.613C201.1 290.956 201.583 287.511 202.982 284.28C204.381 281.048 206.462 278.272 209.225 275.952C212.012 273.6 215.233 271.947 218.887 270.993L218.806 270.302C213.824 269.904 209.56 268.048 206.015 264.735C202.499 261.42 200.453 257.328 199.878 252.461C199.333 247.853 200.247 243.607 202.62 239.723C205.022 235.836 208.539 232.608 213.17 230.04C217.83 227.469 223.291 225.866 229.552 225.231C235.813 224.595 241.504 225.067 246.625 226.646C251.776 228.223 255.963 230.669 259.187 233.985C262.44 237.298 264.339 241.259 264.884 245.867C265.463 250.763 264.394 255.185 261.678 259.133C258.988 263.049 255.286 265.698 250.573 267.08L250.655 267.771C254.416 267.972 257.918 268.943 261.16 270.684C264.428 272.393 267.123 274.684 269.244 277.558C271.394 280.43 272.685 283.694 273.117 287.352C273.682 292.133 272.646 296.581 270.008 300.696C267.367 304.782 263.479 308.207 258.346 310.972C253.238 313.706 247.222 315.423 240.297 316.126ZM238.504 300.962C241.13 300.696 243.38 299.972 245.255 298.791C247.127 297.581 248.52 296.026 249.434 294.126C250.377 292.224 250.716 290.149 250.45 287.903C250.178 285.598 249.359 283.612 247.994 281.944C246.629 280.275 244.877 279.039 242.738 278.236C240.624 277.401 238.284 277.114 235.716 277.374C233.177 277.632 230.959 278.382 229.061 279.623C227.161 280.836 225.739 282.394 224.796 284.297C223.853 286.199 223.518 288.303 223.79 290.607C224.056 292.853 224.857 294.812 226.193 296.484C227.555 298.124 229.291 299.346 231.401 300.153C233.54 300.956 235.907 301.226 238.504 300.962ZM233.933 262.297C236.184 262.069 238.12 261.406 239.743 260.309C241.394 259.209 242.613 257.788 243.4 256.047C244.216 254.303 244.501 252.394 244.256 250.32C244.011 248.247 243.289 246.469 242.092 244.987C240.924 243.503 239.422 242.402 237.585 241.685C235.745 240.939 233.685 240.681 231.406 240.913C229.155 241.141 227.204 241.805 225.553 242.905C223.899 243.977 222.674 245.354 221.881 247.038C221.087 248.721 220.813 250.6 221.058 252.673C221.303 254.747 222.013 256.555 223.188 258.097C224.389 259.607 225.925 260.749 227.797 261.521C229.666 262.264 231.712 262.522 233.933 262.297ZM314.445 309.566C306.713 310.351 299.831 309.198 293.802 306.108C287.768 302.989 282.83 298.142 278.987 291.566C275.14 284.961 272.657 276.804 271.539 267.095C270.42 257.387 270.961 248.996 273.162 241.923C275.388 234.819 279.076 229.213 284.226 225.106C289.401 220.967 295.855 218.505 303.588 217.721C311.321 216.936 318.197 218.046 324.217 221.05C330.262 224.021 335.201 228.752 339.034 235.242C342.867 241.731 345.341 249.816 346.456 259.496C347.607 269.231 347.076 277.708 344.864 284.928C342.651 292.147 338.962 297.869 333.797 302.095C328.658 306.289 322.207 308.779 314.445 309.566ZM312.377 292.07C316.994 291.602 320.453 288.875 322.754 283.891C325.052 278.878 325.61 271.491 324.427 261.731C323.671 255.337 322.399 250.132 320.61 246.117C318.818 242.072 316.647 239.145 314.097 237.334C311.547 235.523 308.728 234.775 305.641 235.088C301.053 235.553 297.62 238.248 295.34 243.171C293.057 248.066 292.467 255.296 293.568 264.861C294.305 271.344 295.561 276.652 297.334 280.786C299.136 284.917 301.33 287.915 303.916 289.78C306.498 291.617 309.319 292.38 312.377 292.07ZM401.262 281.786L400.71 277.121C400.281 273.492 400.664 270.057 401.857 266.818C403.08 263.575 405.081 260.865 407.861 258.689C410.64 256.513 414.194 255.205 418.522 254.766C422.936 254.318 426.754 254.878 429.977 256.446C433.224 257.982 435.795 260.213 437.688 263.14C439.607 266.034 440.784 269.325 441.22 273.012L441.772 277.677C442.201 281.306 441.818 284.74 440.625 287.98C439.431 291.22 437.43 293.929 434.621 296.109C431.813 298.288 428.231 299.599 423.874 300.041C419.488 300.486 415.684 299.924 412.462 298.356C409.24 296.789 406.668 294.543 404.746 291.62C402.852 288.693 401.691 285.415 401.262 281.786ZM414.516 275.72L415.068 280.386C415.286 282.229 415.943 283.955 417.038 285.564C418.162 287.169 419.95 287.848 422.403 287.599C424.913 287.344 426.504 286.352 427.176 284.623C427.844 282.864 428.064 281.021 427.836 279.091L427.284 274.425C427.056 272.495 426.423 270.723 425.385 269.109C424.373 267.463 422.569 266.772 419.972 267.035C417.548 267.281 415.977 268.315 415.258 270.136C414.536 271.929 414.288 273.791 414.516 275.72ZM349.313 235.817L348.762 231.151C348.326 227.465 348.721 224.014 349.947 220.801C351.198 217.555 353.216 214.858 355.998 212.711C358.778 210.534 362.303 209.23 366.573 208.796C370.988 208.349 374.806 208.909 378.028 210.476C381.275 212.012 383.86 214.242 385.783 217.166C387.702 220.06 388.879 223.351 389.315 227.038L389.866 231.703C390.302 235.39 389.907 238.84 388.681 242.054C387.484 245.265 385.478 247.931 382.663 250.053C379.848 252.175 376.262 253.456 371.905 253.898C367.548 254.34 363.746 253.793 360.498 252.257C357.28 250.718 354.711 248.502 352.792 245.607C350.902 242.709 349.742 239.446 349.313 235.817ZM362.698 229.737L363.249 234.403C363.477 236.333 364.137 238.088 365.229 239.667C366.347 241.215 368.088 241.869 370.454 241.629C372.993 241.372 374.584 240.38 375.227 238.653C375.895 236.895 376.115 235.051 375.887 233.121L375.335 228.456C375.107 226.526 374.489 224.752 373.48 223.135C372.468 221.489 370.649 220.799 368.023 221.065C365.6 221.311 364.044 222.358 363.358 224.206C362.7 226.05 362.48 227.894 362.698 229.737ZM363.795 302.375L414.274 207.718L426.089 206.519L375.61 301.176L363.795 302.375Z" fill="#090A0A"/>
<path d="M206.247 149.364C206.391 151.071 206.127 152.637 205.455 154.062C204.815 155.484 203.675 156.659 202.035 157.587C200.428 158.511 198.248 159.113 195.495 159.392C193.562 159.588 191.816 159.649 190.256 159.576C188.732 159.532 187.158 159.294 185.535 158.863L184.897 151.331C186.701 151.942 188.503 152.339 190.303 152.52C192.1 152.669 193.507 152.692 194.523 152.589C196.554 152.383 197.531 151.82 197.453 150.901C197.42 150.508 197.227 150.18 196.874 149.917C196.522 149.655 195.904 149.387 195.021 149.112C194.171 148.834 192.95 148.462 191.357 147.994C189.018 147.305 187.239 146.393 186.019 145.259C184.799 144.125 184.095 142.442 183.906 140.21C183.681 137.552 184.527 135.447 186.445 133.895C188.395 132.34 191.058 131.391 194.433 131.049C196.235 130.866 197.94 130.892 199.546 131.126C201.152 131.36 202.839 131.769 204.607 132.351L202.564 138.665C201.168 138.178 199.766 137.823 198.359 137.602C196.952 137.381 195.839 137.311 195.02 137.395C193.48 137.551 192.742 138.006 192.806 138.761C192.836 139.122 192.994 139.421 193.278 139.657C193.593 139.856 194.158 140.097 194.975 140.378C195.79 140.627 196.976 140.97 198.533 141.408C200.162 141.904 201.514 142.462 202.591 143.081C203.701 143.697 204.546 144.505 205.127 145.505C205.74 146.502 206.113 147.789 206.247 149.364ZM231.475 127.292C234.293 127.006 236.655 127.577 238.561 129.006C240.464 130.402 241.563 132.839 241.857 136.318L243.359 154.04L233.97 154.993L232.711 140.126C232.558 138.32 232.181 136.985 231.578 136.119C230.976 135.253 230.102 134.879 228.955 134.995C227.185 135.175 226.052 136.034 225.554 137.574C225.087 139.078 224.967 141.176 225.195 143.867L226.204 155.781L216.816 156.733L214.51 129.509L221.588 128.791L223.17 132.255L223.514 132.22C224.258 130.854 225.287 129.74 226.602 128.878C227.95 128.013 229.575 127.484 231.475 127.292ZM265.338 123.857C268.779 123.508 271.538 124.089 273.616 125.599C275.694 127.11 276.866 129.44 277.133 132.591L278.647 150.461L272.159 151.119L270.036 147.71L269.839 147.73C269.133 148.761 268.414 149.629 267.68 150.332C266.943 151.003 266.062 151.522 265.036 151.891C264.012 152.293 262.747 152.57 261.239 152.723C258.88 152.963 256.853 152.44 255.157 151.156C253.462 149.871 252.488 147.735 252.235 144.749C251.988 141.828 252.804 139.56 254.683 137.947C256.595 136.329 259.461 135.244 263.281 134.691L267.791 134.085L267.758 133.691C267.655 132.477 267.287 131.653 266.656 131.221C266.022 130.755 265.196 130.574 264.181 130.677C263.099 130.787 261.92 131.105 260.642 131.632C259.362 132.126 258.075 132.736 256.782 133.463L253.553 127.535C255.057 126.555 256.775 125.768 258.707 125.175C260.67 124.545 262.88 124.106 265.338 123.857ZM268.278 139.249L266.123 139.567C264.392 139.808 263.206 140.243 262.565 140.871C261.922 141.466 261.642 142.256 261.725 143.24C261.803 144.159 262.107 144.823 262.637 145.233C263.165 145.61 263.839 145.757 264.658 145.674C265.805 145.557 266.741 145.098 267.466 144.296C268.224 143.491 268.555 142.514 268.457 141.366L268.278 139.249ZM302.137 148.575C298.008 148.994 294.621 148.212 291.974 146.229C289.327 144.247 287.798 140.827 287.387 135.97C287.109 132.688 287.503 129.934 288.571 127.707C289.638 125.48 291.195 123.766 293.241 122.566C295.318 121.329 297.732 120.571 300.485 120.292C302.156 120.122 303.746 120.16 305.254 120.404C306.792 120.612 308.226 120.963 309.557 121.457L307.392 128.678C306.237 128.298 305.155 128.011 304.146 127.815C303.138 127.619 302.126 127.573 301.111 127.676C299.702 127.819 298.602 128.493 297.812 129.699C297.021 130.905 296.724 132.656 296.918 134.953C297.118 137.316 297.704 138.962 298.675 139.889C299.643 140.784 300.848 141.159 302.29 141.012C303.633 140.876 304.959 140.526 306.266 139.964C307.606 139.397 308.851 138.675 309.999 137.797L310.633 145.28C309.55 146.151 308.322 146.872 306.949 147.441C305.609 148.008 304.005 148.385 302.137 148.575ZM375.979 105.416L377.742 126.223L383.268 125.663L381.505 104.855L375.979 105.416ZM380.001 113.318L380.382 117.813L387.695 117.071L387.314 112.577L380.001 113.318ZM357.969 129.782L358.308 133.777L378.293 131.749L378.466 133.788L358.564 135.807L359.177 143.048L364.662 142.492L364.365 138.996L384.227 136.982L383.398 127.202L357.969 129.782ZM359.061 141.675L359.406 145.753L385.874 143.068L385.528 138.99L359.061 141.675ZM351.458 110.799L351.811 114.961L374.456 112.664L374.103 108.502L351.458 110.799ZM363.231 114.725C357.498 115.307 353.966 118.142 354.294 122.012C354.622 125.882 358.562 127.875 364.296 127.293C369.988 126.716 373.527 123.964 373.199 120.094C372.871 116.224 368.924 114.148 363.231 114.725ZM363.559 118.596C366.135 118.334 367.785 119.006 367.922 120.629C368.053 122.169 366.544 123.162 363.968 123.423C361.392 123.684 359.743 123.012 359.612 121.472C359.475 119.849 360.983 118.857 363.559 118.596ZM359.753 106.81L360.268 112.886L365.794 112.325L365.279 106.249L359.753 106.81ZM419.818 101.053L422.163 128.727L427.73 128.162L425.386 100.488L419.818 101.053ZM402.58 136.505L402.954 140.916L429.546 138.219L429.173 133.808L402.58 136.505ZM401.858 127.974L402.732 138.295L408.258 137.734L407.384 127.414L401.858 127.974ZM404.649 105.026C398.749 105.624 394.524 110.166 395.007 115.868C395.486 121.527 400.406 125.183 406.306 124.585C412.206 123.986 416.386 119.407 415.907 113.748C415.424 108.046 410.549 104.428 404.649 105.026ZM405.055 109.812C407.88 109.525 410.237 111.133 410.505 114.295C410.77 117.417 408.723 119.471 405.897 119.758C403.03 120.048 400.673 118.441 400.409 115.32C400.141 112.157 402.188 110.102 405.055 109.812ZM478.151 105.629L454.029 108.789L455.088 113.383L478.507 109.832L478.151 105.629ZM454.552 99.6285L454.922 103.998L479.021 101.554L478.651 97.184L454.552 99.6285ZM452.065 118.264L452.442 122.717L487.22 119.19L486.843 114.737L452.065 118.264ZM466.949 120.322L468.186 134.929L473.713 134.369L472.475 119.762L466.949 120.322ZM476.158 97.4369L476.45 100.891C476.799 105.011 477.194 109.672 476.207 116.319L481.62 116.4C482.53 109.34 482.128 104.596 481.769 100.351L481.476 96.8974L476.158 97.4369ZM495.623 94.7489L495.994 99.1185L524.663 96.2104L524.293 91.8409L495.623 94.7489ZM496.838 105.622L497.204 109.95L525.293 107.101L524.926 102.773L496.838 105.622ZM500.671 95.9578L501.64 107.402L507.167 106.841L506.197 95.3973L500.671 95.9578ZM514.009 94.6049L514.978 106.049L520.504 105.488L519.535 94.0444L514.009 94.6049ZM494.177 113.783L494.547 118.153L529.324 114.625L528.954 110.256L494.177 113.783ZM508.345 107.393L508.979 114.884L514.506 114.323L513.871 106.833L508.345 107.393ZM499.501 126.674L499.875 131.085L526.55 128.38L526.177 123.968L499.501 126.674ZM498.951 120.182L499.635 128.255L505.161 127.695L504.477 119.622L498.951 120.182Z" fill="#090A0A"/>
<path d="M488.245 203.572L488.348 204.444C488.685 207.29 485.674 210.783 478.046 212.325L480.295 216.052C489.24 214.261 493.467 209.34 492.834 203.989L492.731 203.117L488.245 203.572ZM490.716 203.321L490.819 204.194C491.456 209.582 496.766 213.498 505.879 213.457L507.204 209.367C499.402 209.429 495.641 206.585 495.305 203.739L495.202 202.866L490.716 203.321ZM478.461 202.49L478.932 206.475L505.01 203.83L504.539 199.845L478.461 202.49ZM477.348 217.81L477.819 221.794L509.676 218.563L509.205 214.579L477.348 217.81ZM481.651 223.94L482.122 227.924L501.509 225.958L502.478 234.154L507.534 233.641L506.094 221.461L481.651 223.94ZM519.282 199.617L519.888 204.74C520.695 211.57 518.605 218.617 512.798 221.894L516.295 225.764C522.908 221.829 525.061 213.354 523.993 204.323L523.388 199.201L519.282 199.617ZM520.271 199.517L520.876 204.639C521.899 213.291 525.94 220.792 533.113 223.213L535.598 218.852C529.287 216.881 525.749 210.712 524.982 204.223L524.376 199.1L520.271 199.517ZM534.507 195.308L538.675 230.56L543.769 230.043L539.601 194.791L534.507 195.308ZM504.276 251.639L506.519 270.612L511.575 270.099L509.332 251.126L504.276 251.639ZM508.205 258.844L508.69 262.942L515.381 262.263L514.896 258.165L508.205 258.844ZM488.476 273.863L488.906 277.506L507.192 275.651L507.411 277.51L489.202 279.357L489.983 285.96L495.001 285.451L494.624 282.263L512.795 280.42L511.741 271.503L488.476 273.863ZM489.835 284.708L490.274 288.426L514.49 285.97L514.05 282.251L489.835 284.708ZM481.929 256.555L482.377 260.35L503.095 258.248L502.647 254.454L481.929 256.555ZM492.854 260.132C487.608 260.664 484.451 263.25 484.868 266.779C485.286 270.308 488.963 272.124 494.209 271.592C499.417 271.063 502.582 268.554 502.165 265.025C501.748 261.496 498.062 259.604 492.854 260.132ZM493.271 263.661C495.628 263.422 497.162 264.034 497.337 265.514C497.503 266.918 496.148 267.824 493.791 268.063C491.435 268.302 489.9 267.689 489.734 266.285C489.559 264.806 490.914 263.9 493.271 263.661ZM489.423 252.915L490.078 258.455L495.134 257.942L494.479 252.402L489.423 252.915ZM540.776 248.013L543.759 273.247L548.853 272.731L545.87 247.497L540.776 248.013ZM526.017 280.346L526.493 284.369L550.822 281.901L550.347 277.879L526.017 280.346ZM525.098 272.567L526.21 281.978L531.266 281.465L530.154 272.055L525.098 272.567ZM526.971 251.641C521.573 252.189 517.831 256.331 518.445 261.53C519.055 266.691 523.681 270.023 529.079 269.476C534.477 268.928 538.177 264.751 537.567 259.59C536.952 254.392 532.369 251.093 526.971 251.641ZM527.487 256.005C530.072 255.743 532.284 257.208 532.625 260.092C532.961 262.938 531.144 264.812 528.559 265.074C525.936 265.34 523.724 263.875 523.387 261.029C523.046 258.145 524.864 256.271 527.487 256.005Z" fill="#090A0A"/>
<defs>
<filter id="filter0_d_486_10597" x="0.554272" y="27.1455" width="625.357" height="387.243" filterUnits="userSpaceOnUse" color-interpolation-filters="sRGB">
<feFlood flood-opacity="0" result="BackgroundImageFix"/>
<feColorMatrix in="SourceAlpha" type="matrix" values="0 0 0 0 0 0 0 0 0 0 0 0 0 0 0 0 0 0 127 0" result="hardAlpha"/>
<feOffset dx="-3.5933" dy="3.5933"/>
<feGaussianBlur stdDeviation="21.5598"/>
<feComposite in2="hardAlpha" operator="out"/>
<feColorMatrix type="matrix" values="0 0 0 0 0.854902 0 0 0 0 0.796078 0 0 0 0 0.227451 0 0 0 1 0"/>
<feBlend mode="normal" in2="BackgroundImageFix" result="effect1_dropShadow_486_10597"/>
<feBlend mode="normal" in="SourceGraphic" in2="effect1_dropShadow_486_10597" result="shape"/>
</filter>
<filter id="filter1_d_486_10597" x="31.2662" y="0.0743954" width="678.865" height="424.982" filterUnits="userSpaceOnUse" color-interpolation-filters="sRGB">
<feFlood flood-opacity="0" result="BackgroundImageFix"/>
<feColorMatrix in="SourceAlpha" type="matrix" values="0 0 0 0 0 0 0 0 0 0 0 0 0 0 0 0 0 0 127 0" result="hardAlpha"/>
<feOffset dx="-3.82101" dy="3.82101"/>
<feGaussianBlur stdDeviation="22.926"/>
<feComposite in2="hardAlpha" operator="out"/>
<feColorMatrix type="matrix" values="0 0 0 0 0.854902 0 0 0 0 0.796078 0 0 0 0 0.227451 0 0 0 1 0"/>
<feBlend mode="normal" in2="BackgroundImageFix" result="effect1_dropShadow_486_10597"/>
<feBlend mode="normal" in="SourceGraphic" in2="effect1_dropShadow_486_10597" result="shape"/>
</filter>
</defs>
</svg>
