<svg width="87" height="117" viewBox="0 0 87 117" fill="none" xmlns="http://www.w3.org/2000/svg">
<path d="M11.6872 13.0021C10.889 13.2238 10.4217 14.0507 10.6435 14.8489C10.8652 15.6471 11.692 16.1144 12.4902 15.8926L11.6872 13.0021ZM38.2051 15.9815L38.7913 14.6007L38.2051 15.9815ZM64.6182 42.7776L66.052 42.3369L64.6182 42.7776ZM53.6135 92.05L54.9614 92.708L53.6135 92.05ZM45.0481 106.401L46.2507 107.298L45.0481 106.401ZM12.4902 15.8926C21.2956 13.4465 29.6118 13.9628 37.619 17.3622L38.7913 14.6007C30.1362 10.9262 21.1222 10.3811 11.6872 13.0021L12.4902 15.8926ZM37.619 17.3622C49.5323 22.42 59.5439 31.3741 63.1844 43.2183L66.052 42.3369C62.0757 29.4002 51.2479 19.8892 38.7913 14.6007L37.619 17.3622ZM63.1844 43.2183C65.622 51.1489 64.8133 59.298 62.4108 67.4512C60.0026 75.6236 56.0361 83.6681 52.2655 91.3919L54.9614 92.708C58.7049 85.0398 62.7954 76.7594 65.2884 68.2992C67.787 59.8199 68.7237 51.0288 66.052 42.3369L63.1844 43.2183ZM52.2655 91.3919C49.8395 96.3614 47.1692 101.047 43.8455 105.505L46.2507 107.298C49.7178 102.648 52.4809 97.7893 54.9614 92.708L52.2655 91.3919ZM43.8455 105.505C43.4593 106.023 42.9759 106.778 42.668 107.217C42.2957 107.746 41.9625 108.151 41.6099 108.44L43.5125 110.76C44.1831 110.209 44.7025 109.539 45.1225 108.942C45.6068 108.252 45.8552 107.828 46.2507 107.298L43.8455 105.505Z" fill="#DE006B"/>
<ellipse cx="42.561" cy="109.601" rx="5" ry="5" transform="rotate(-22.393 42.561 109.601)" fill="#DE006B"/>
</svg>
