<svg width="39" height="39" viewBox="0 0 39 39" fill="none" xmlns="http://www.w3.org/2000/svg">
<mask id="mask0_405_6617" style="mask-type:alpha" maskUnits="userSpaceOnUse" x="0" y="0" width="39" height="39">
<rect width="38.4004" height="38.3999" fill="#D9D9D9"/>
</mask>
<g mask="url(#mask0_405_6617)">
<path d="M15.9206 35.2793C15.5206 35.546 15.1339 35.546 14.7606 35.2793C14.3873 35.0126 14.2806 34.6526 14.4406 34.1993L15.6806 30.1193L12.3206 27.6393C11.9739 27.346 11.8672 26.986 12.0006 26.5593C12.1339 26.1326 12.4406 25.9193 12.9206 25.9193H17.0406L18.0406 22.1193L12.5606 18.8793C11.9206 18.506 11.4272 18.0127 11.0806 17.3993C10.7339 16.786 10.5605 16.106 10.5605 15.3593V5.15937C10.5605 4.11937 10.9272 3.22604 11.6606 2.47937C12.3939 1.73271 13.2806 1.35938 14.3206 1.35938H24.1607C25.2007 1.35938 26.0874 1.73271 26.8207 2.47937C27.5541 3.22604 27.9207 4.11937 27.9207 5.15937V15.3593C27.9207 16.106 27.7407 16.786 27.3807 17.3993C27.0207 18.0127 26.5207 18.506 25.8807 18.8793L20.4006 22.1193L21.4407 25.9193H25.4807C25.9607 25.9193 26.2674 26.1326 26.4007 26.5593C26.534 26.986 26.4274 27.346 26.0807 27.6393L22.7207 30.1193L24.0007 34.1993C24.134 34.6526 24.014 35.0126 23.6407 35.2793C23.2673 35.546 22.894 35.5326 22.5207 35.2393L19.2406 32.8393L15.9206 35.2793ZM19.4006 18.9193L20.6006 18.1993V5.87936C20.6006 5.50603 20.4873 5.2127 20.2606 4.99937C20.034 4.78603 19.7473 4.67937 19.4006 4.67937C19.0273 4.67937 18.734 4.78603 18.5206 4.99937C18.3073 5.2127 18.2006 5.50603 18.2006 5.87936V18.1993L19.4006 18.9193Z" fill="#4FF788"/>
</g>
</svg>
