<svg width="151" height="313" viewBox="0 0 151 313" fill="none" xmlns="http://www.w3.org/2000/svg">
<path d="M24.1023 31.6856L52.4485 4.95376e-09L65.7889 13.3413L37.4425 36.6885L24.1023 31.6856Z" fill="#75C8FF"/>
<path d="M107.366 99.5906C119.143 96.9043 120.227 89.731 119.296 86.4802L128.903 97.1336C127.311 106.715 117.099 111.349 112.191 112.468C93.9027 105.155 84.6903 111.689 82.3702 115.87L77.5442 102.993C83.2259 93.9522 92.6441 102.949 107.366 99.5906Z" fill="#4FF788"/>
<path d="M83.7247 281.982C74.9426 273.687 68.3787 276.775 66.1946 279.356L69.7052 265.447C78.5528 261.442 88.0832 267.354 91.7425 270.811C95.8361 290.079 106.389 294.103 111.154 293.706L103.137 304.878C92.4639 305.183 94.7025 292.352 83.7247 281.982Z" fill="#DE006B"/>
<path d="M44.1421 190.565L76.2096 189.877L88.385 211.728L60.6873 209.981L44.1421 190.565Z" fill="#DE006B"/>
<path d="M75.3478 153.313L61.9826 167.325L47.4496 163.225L59.995 152.12L75.3478 153.313Z" fill="#75C8FF"/>
<ellipse cx="6.66997" cy="6.67064" rx="6.66997" ry="6.67064" transform="matrix(1 1.74752e-10 3.94456e-05 1 137.513 190.109)" fill="#75C8FF"/>
<ellipse cx="12.2942" cy="12.293" rx="12.2942" ry="12.293" transform="matrix(-0.0387057 -0.999252 0.99925 -0.038674 1.71753 252.324)" fill="#4FF688"/>
<path d="M86.5622 31.4703L119.488 2.24657L125.111 9.24894L91.6984 36.8775L86.5622 31.4703Z" fill="#D9D9D9"/>
</svg>
