<svg width="143" height="190" viewBox="0 0 143 190" fill="none" xmlns="http://www.w3.org/2000/svg">
<path d="M13.0613 124.55C7.84312 127.592 8.39745 131.176 9.32689 132.588L3.1519 128.941C2.48055 124.131 6.6612 120.394 8.83544 119.127C18.654 119.883 22.0737 115.388 22.5563 113.046L26.7822 118.47C25.4215 123.632 19.584 120.747 13.0613 124.55Z" fill="#4FF788"/>
<path d="M83.929 24.2514C81.9613 18.5406 78.3378 18.3872 76.7719 19.0244L81.5512 13.676C86.3989 13.9528 89.2505 18.7809 90.0704 21.1604C87.4176 30.6456 91.1599 34.8745 93.3627 35.8033L87.2213 38.8943C82.4227 36.5554 86.3885 31.3898 83.929 24.2514Z" fill="#DE006B"/>
<path d="M76.3545 139.569L61.8355 146.382L51.8446 138.86L64.8592 134.046L76.3545 139.569Z" fill="#75C8FF"/>
<path d="M52.931 80.2929L40.3527 84.1107L25.029 77.4658L37.0101 75.0253L52.931 80.2929Z" fill="#75C8FF"/>
<path d="M82.0851 109.357L72.9163 112.467L67.4286 107.282L75.5604 105.27L82.0851 109.357Z" fill="#DE006B"/>
<ellipse cx="3.33483" cy="3.33531" rx="3.33483" ry="3.33531" transform="matrix(-0.798915 -0.60146 0.601365 -0.798962 37.2676 174.855)" fill="#DE006B"/>
<ellipse cx="3.33493" cy="3.33522" rx="3.33493" ry="3.33522" transform="matrix(-0.572945 -0.819623 0.819493 -0.573046 132.252 53.0156)" fill="#75C8FF"/>
<ellipse cx="6.14712" cy="6.1462" rx="6.14712" ry="6.1462" transform="matrix(0.428951 -0.90333 0.903306 0.428992 64.4004 63.0547)" fill="#4FF688"/>
<path d="M107.827 71.7769L111.344 50.0458L115.735 50.9801L111.526 72.2473L107.827 71.7769Z" fill="#D9D9D9"/>
</svg>
