<svg width="160" height="161" viewBox="0 0 160 161" fill="none" xmlns="http://www.w3.org/2000/svg">
<path d="M111.564 19.2987L132.82 19.0924L132.387 28.5159L114.211 25.9123L111.564 19.2987Z" fill="#75C8FF"/>
<path d="M114.537 72.9374C119.498 76.3826 122.513 74.3657 123.401 72.9265L122.703 80.0652C118.627 82.7057 113.474 80.4948 111.407 79.0593C107.945 69.8393 102.427 68.6381 100.101 69.19L103.232 63.068C108.486 62.1203 108.336 68.6309 114.537 72.9374Z" fill="#4FF788"/>
<path d="M39.1978 125.667C39.3027 119.628 35.9501 118.244 34.2607 118.307L40.5816 114.916C45.0423 116.835 46.07 122.348 46.0263 124.864C40.2883 132.869 42.358 138.124 44.1102 139.75L37.2816 140.553C33.5727 136.713 39.0667 133.217 39.1978 125.667Z" fill="#DE006B"/>
<path d="M59.6288 80.2413L70.6889 91.8548L66.72 103.716L58.0318 92.8958L59.6288 80.2413Z" fill="#DE006B"/>
<path d="M83.904 79.2161L74.2242 79.0008L70.8414 72.2509L79.1711 73.1429L83.904 79.2161Z" fill="#75C8FF"/>
<ellipse cx="3.335" cy="3.33532" rx="3.335" ry="3.33532" transform="matrix(0.673947 0.73878 -0.738753 0.673976 91.2598 114.578)" fill="#75C8FF"/>
<ellipse cx="6.14712" cy="6.14652" rx="6.14712" ry="6.14652" transform="matrix(0.712142 -0.702038 0.702013 0.712162 22.5215 85.3789)" fill="#4FF688"/>
<path d="M132.691 42.2996L154.581 44.6145L153.889 49.0511L132.425 46.019L132.691 42.2996Z" fill="#D9D9D9"/>
</svg>
