<svg width="200" height="207" viewBox="0 0 200 207" fill="none" xmlns="http://www.w3.org/2000/svg">
<path d="M47.8095 30.7726C46.262 31.3647 44.5276 30.5904 43.9354 29.043C43.3432 27.4956 44.1175 25.7611 45.665 25.1689L47.8095 30.7726ZM115.039 23.936L115.719 21.0139L115.039 23.936ZM167.659 82.3672L170.642 82.6925L167.659 82.3672ZM127.696 130.751L128.527 127.868L127.696 130.751ZM124.045 105.844L125.263 108.586L124.045 105.844ZM165.337 109.324L167.741 107.53L165.337 109.324ZM160.857 151.922L163.378 153.549L160.857 151.922ZM79.7797 179.577C78.732 178.294 78.9232 176.404 80.2068 175.356L101.123 158.283C102.407 157.235 104.297 157.427 105.345 158.71C106.392 159.994 106.201 161.883 104.917 162.931L86.3249 178.107L101.501 196.7C102.549 197.983 102.358 199.873 101.074 200.921C99.7904 201.969 97.9006 201.778 96.8529 200.494L79.7797 179.577ZM45.665 25.1689C55.7202 21.3208 64.8165 18.2651 75.6645 17.2089C86.516 16.1525 98.935 17.1112 115.719 21.0139L114.36 26.858C98.0007 23.054 86.2628 22.2055 76.2459 23.1807C66.2257 24.1563 57.7424 26.9713 47.8095 30.7726L45.665 25.1689ZM115.719 21.0139C131.204 24.6146 145.69 32.2394 155.947 42.8344C166.237 53.4628 172.335 67.1735 170.642 82.6925L164.677 82.0419C166.14 68.6315 160.94 56.6174 151.637 47.0078C142.301 37.365 128.9 30.2389 114.36 26.858L115.719 21.0139ZM170.642 82.6925C169.553 92.6724 167.406 107.576 161.321 118.879C158.254 124.576 154.064 129.593 148.281 132.511C142.433 135.461 135.333 136.074 126.866 133.634L128.527 127.868C135.818 129.969 141.32 129.302 145.579 127.154C149.903 124.973 153.326 121.072 156.038 116.035C161.51 105.871 163.586 92.0411 164.677 82.0419L170.642 82.6925ZM126.866 133.634C118.347 131.179 113.157 125.552 112.43 119.058C111.7 112.541 115.606 106.312 122.826 103.103L125.263 108.586C119.96 110.943 118.008 114.953 118.392 118.39C118.78 121.85 121.677 125.894 128.527 127.868L126.866 133.634ZM122.826 103.103C128.028 100.79 136.666 98.7659 145.131 98.7598C153.447 98.7539 162.65 100.709 167.741 107.53L162.933 111.119C159.613 106.671 152.965 104.754 145.135 104.76C137.454 104.765 129.651 106.635 125.263 108.586L122.826 103.103ZM167.741 107.53C173.002 114.577 173.485 123.595 171.999 131.807C170.506 140.063 166.942 148.029 163.378 153.549L158.337 150.295C161.532 145.346 164.761 138.114 166.095 130.739C167.437 123.319 166.781 116.273 162.933 111.119L167.741 107.53ZM163.378 153.549C155.728 165.398 142.241 172.844 127.468 176.992C112.644 181.153 96.1206 182.114 81.8018 180.665L82.4058 174.696C96.0778 176.079 111.837 175.147 125.846 171.215C139.905 167.268 151.8 160.419 158.337 150.295L163.378 153.549Z" fill="#DE006B"/>
</svg>
