<svg width="786" height="386" viewBox="0 0 786 386" fill="none" xmlns="http://www.w3.org/2000/svg">
<g filter="url(#filter0_bd_125_7387)">
<path d="M41.9776 253.069C43.9191 240.375 54.8372 231 67.6788 231H261C275.359 231 287 242.641 287 257V325C287 339.359 275.359 351 261 351H27L41.9776 253.069Z" fill="white" fill-opacity="0.84" shape-rendering="crispEdges"/>
<path d="M67.6788 231.6H261C275.028 231.6 286.4 242.972 286.4 257V325C286.4 339.028 275.028 350.4 261 350.4H27.6988L42.5708 253.16C44.4674 240.759 55.1336 231.6 67.6788 231.6Z" stroke="url(#paint0_linear_125_7387)" stroke-width="1.20008" shape-rendering="crispEdges"/>
</g>
<path d="M109.188 275.692C109.188 277.616 108.867 279.297 108.226 280.736C107.602 282.157 106.631 283.267 105.314 284.064C104.014 284.861 102.359 285.26 100.348 285.26C98.3373 285.26 96.6733 284.861 95.356 284.064C94.056 283.267 93.0853 282.149 92.444 280.71C91.82 279.271 91.508 277.59 91.508 275.666C91.508 273.742 91.82 272.069 92.444 270.648C93.0853 269.227 94.056 268.126 95.356 267.346C96.6733 266.549 98.346 266.15 100.374 266.15C102.385 266.15 104.04 266.549 105.34 267.346C106.64 268.126 107.602 269.235 108.226 270.674C108.867 272.095 109.188 273.768 109.188 275.692ZM95.642 275.692C95.642 277.633 96.0147 279.167 96.76 280.294C97.5053 281.403 98.7013 281.958 100.348 281.958C102.029 281.958 103.234 281.403 103.962 280.294C104.69 279.167 105.054 277.633 105.054 275.692C105.054 273.751 104.69 272.225 103.962 271.116C103.234 269.989 102.038 269.426 100.374 269.426C98.71 269.426 97.5053 269.989 96.76 271.116C96.0147 272.225 95.642 273.751 95.642 275.692ZM120.781 270.544C122.307 270.544 123.529 270.96 124.447 271.792C125.366 272.607 125.825 273.924 125.825 275.744V285H121.951V276.706C121.951 275.683 121.769 274.921 121.405 274.418C121.041 273.898 120.461 273.638 119.663 273.638C118.485 273.638 117.679 274.045 117.245 274.86C116.812 275.657 116.595 276.81 116.595 278.318V285H112.721V270.804H115.685L116.205 272.624H116.413C116.864 271.896 117.479 271.367 118.259 271.038C119.057 270.709 119.897 270.544 120.781 270.544ZM153.229 270.544C154.841 270.544 156.054 270.96 156.869 271.792C157.701 272.607 158.117 273.924 158.117 275.744V285H154.243V276.706C154.243 274.661 153.532 273.638 152.111 273.638C151.088 273.638 150.36 274.002 149.927 274.73C149.494 275.458 149.277 276.507 149.277 277.876V285H145.403V276.706C145.403 274.661 144.692 273.638 143.271 273.638C142.196 273.638 141.451 274.045 141.035 274.86C140.636 275.657 140.437 276.81 140.437 278.318V285H136.563V270.804H139.527L140.047 272.624H140.255C140.688 271.896 141.278 271.367 142.023 271.038C142.786 270.709 143.574 270.544 144.389 270.544C145.429 270.544 146.304 270.717 147.015 271.064C147.743 271.393 148.306 271.913 148.705 272.624H149.043C149.476 271.896 150.074 271.367 150.837 271.038C151.617 270.709 152.414 270.544 153.229 270.544ZM160.078 270.804H164.316L166.994 278.786C167.133 279.185 167.237 279.583 167.306 279.982C167.375 280.381 167.427 280.805 167.462 281.256H167.54C167.592 280.805 167.661 280.381 167.748 279.982C167.835 279.583 167.947 279.185 168.086 278.786L170.712 270.804H174.872L168.866 286.82C168.311 288.293 167.523 289.394 166.5 290.122C165.477 290.867 164.29 291.24 162.938 291.24C162.487 291.24 162.106 291.214 161.794 291.162C161.482 291.127 161.205 291.084 160.962 291.032V287.964C161.135 287.999 161.361 288.033 161.638 288.068C161.915 288.103 162.201 288.12 162.496 288.12C163.311 288.12 163.952 287.869 164.42 287.366C164.888 286.881 165.243 286.291 165.486 285.598L165.72 284.896L160.078 270.804ZM195.337 285L194.245 280.034C194.175 279.739 194.071 279.306 193.933 278.734C193.811 278.145 193.673 277.521 193.517 276.862C193.361 276.186 193.213 275.571 193.075 275.016C192.936 274.444 192.841 274.028 192.789 273.768H192.685C192.633 274.028 192.537 274.444 192.399 275.016C192.277 275.571 192.139 276.186 191.983 276.862C191.827 277.521 191.679 278.145 191.541 278.734C191.402 279.323 191.298 279.774 191.229 280.086L190.085 285H185.925L181.895 270.804H185.743L187.381 277.096C187.502 277.547 187.606 278.075 187.693 278.682C187.797 279.271 187.883 279.852 187.953 280.424C188.039 280.979 188.109 281.421 188.161 281.75H188.265C188.282 281.507 188.317 281.187 188.369 280.788C188.421 280.372 188.481 279.947 188.551 279.514C188.637 279.081 188.707 278.691 188.759 278.344C188.828 277.997 188.88 277.755 188.915 277.616L190.657 270.804H194.921L196.585 277.616C196.637 277.859 196.715 278.249 196.819 278.786C196.923 279.323 197.009 279.869 197.079 280.424C197.148 280.979 197.191 281.421 197.209 281.75H197.313C197.347 281.455 197.408 281.031 197.495 280.476C197.581 279.904 197.677 279.315 197.781 278.708C197.902 278.084 198.023 277.547 198.145 277.096L199.835 270.804H203.631L199.549 285H195.337ZM211.754 270.518C213.661 270.518 215.117 270.934 216.122 271.766C217.145 272.581 217.656 273.837 217.656 275.536V285H214.952L214.198 283.076H214.094C213.488 283.839 212.846 284.393 212.17 284.74C211.494 285.087 210.567 285.26 209.388 285.26C208.123 285.26 207.074 284.896 206.242 284.168C205.41 283.44 204.994 282.305 204.994 280.762C204.994 279.254 205.523 278.145 206.58 277.434C207.638 276.723 209.224 276.325 211.338 276.238L213.808 276.16V275.536C213.808 274.791 213.609 274.245 213.21 273.898C212.829 273.551 212.292 273.378 211.598 273.378C210.905 273.378 210.229 273.482 209.57 273.69C208.912 273.881 208.253 274.123 207.594 274.418L206.32 271.792C207.066 271.411 207.906 271.107 208.842 270.882C209.778 270.639 210.749 270.518 211.754 270.518ZM213.808 278.422L212.3 278.474C211.052 278.509 210.186 278.734 209.7 279.15C209.215 279.566 208.972 280.112 208.972 280.788C208.972 281.377 209.146 281.802 209.492 282.062C209.839 282.305 210.29 282.426 210.844 282.426C211.676 282.426 212.378 282.183 212.95 281.698C213.522 281.195 213.808 280.493 213.808 279.592V278.422ZM219.594 270.804H223.832L226.51 278.786C226.648 279.185 226.752 279.583 226.822 279.982C226.891 280.381 226.943 280.805 226.978 281.256H227.056C227.108 280.805 227.177 280.381 227.264 279.982C227.35 279.583 227.463 279.185 227.602 278.786L230.228 270.804H234.388L228.382 286.82C227.827 288.293 227.038 289.394 226.016 290.122C224.993 290.867 223.806 291.24 222.454 291.24C222.003 291.24 221.622 291.214 221.31 291.162C220.998 291.127 220.72 291.084 220.478 291.032V287.964C220.651 287.999 220.876 288.033 221.154 288.068C221.431 288.103 221.717 288.12 222.012 288.12C222.826 288.12 223.468 287.869 223.936 287.366C224.404 286.881 224.759 286.291 225.002 285.598L225.236 284.896L219.594 270.804ZM105.864 297.152V318.872H107.88V297.152H105.864ZM107.328 305.96V307.616H111.336V305.96H107.328ZM100.32 299.504V299.816C100.32 305.552 97.32 310.184 91.32 313.232L92.424 314.768C99.432 311.24 102.264 305.672 102.264 299.504H100.32ZM92.328 299.504V301.136H101.352V299.504H92.328ZM115.918 303.68V305.312H130.654V303.68H115.918ZM113.254 308.216V309.848H132.934V308.216H113.254ZM115.918 297.968V304.496H117.886V297.968H115.918ZM115.774 316.712V318.344H130.774V316.712H115.774ZM115.774 312.008V317.144H117.742V312.008H115.774ZM150.375 308.024V311.816H152.367V308.024H150.375ZM141.567 307.328V308.936H161.175V307.328H141.567ZM151.359 311.216C146.703 311.216 143.919 312.584 143.919 315.032C143.919 317.456 146.703 318.824 151.359 318.824C156.015 318.824 158.799 317.456 158.799 315.032C158.799 312.584 156.015 311.216 151.359 311.216ZM151.359 312.752C154.767 312.752 156.783 313.568 156.783 315.032C156.783 316.472 154.767 317.288 151.359 317.288C147.975 317.288 145.935 316.472 145.935 315.032C145.935 313.568 147.975 312.752 151.359 312.752ZM150.087 298.952V299.6C150.087 302.072 146.559 304.016 142.671 304.424L143.391 306.008C147.879 305.456 151.863 303.104 151.863 299.6V298.952H150.087ZM150.927 298.952V299.6C150.927 303.104 154.887 305.456 159.375 306.008L160.095 304.424C156.207 304.016 152.679 302.072 152.679 299.6V298.952H150.927ZM143.367 298.16V299.768H159.423V298.16H143.367ZM179.413 297.152V318.896H181.405V297.152H179.413ZM169.957 298.832C166.765 298.832 164.461 301.784 164.461 306.392C164.461 311.024 166.765 313.976 169.957 313.976C173.173 313.976 175.477 311.024 175.477 306.392C175.477 301.784 173.173 298.832 169.957 298.832ZM169.957 300.632C172.093 300.632 173.557 302.888 173.557 306.392C173.557 309.92 172.093 312.224 169.957 312.224C167.845 312.224 166.357 309.92 166.357 306.392C166.357 302.888 167.845 300.632 169.957 300.632ZM191.507 298.832C188.315 298.832 186.059 301.784 186.059 306.392C186.059 311.024 188.315 313.976 191.507 313.976C194.699 313.976 196.955 311.024 196.955 306.392C196.955 301.784 194.699 298.832 191.507 298.832ZM191.507 300.632C193.595 300.632 195.059 302.888 195.059 306.392C195.059 309.92 193.595 312.224 191.507 312.224C189.395 312.224 187.955 309.92 187.955 306.392C187.955 302.888 189.395 300.632 191.507 300.632ZM201.875 302.624V304.304H205.859V302.624H201.875ZM201.875 309.08V310.76H205.859V309.08H201.875ZM200.411 297.176V318.872H202.427V297.176H200.411Z" fill="#414141"/>
<g filter="url(#filter1_bd_125_7387)">
<path d="M743.962 42.0545C742.015 29.3672 731.099 20 718.264 20H524C509.641 20 498 31.6406 498 46V114C498 128.359 509.641 140 524 140H759L743.962 42.0545Z" fill="white" fill-opacity="0.84" shape-rendering="crispEdges"/>
<path d="M718.264 20.6H524C509.972 20.6 498.6 31.972 498.6 46V114C498.6 128.028 509.972 139.4 524 139.4H758.301L743.369 42.1455C741.466 29.7511 730.803 20.6 718.264 20.6Z" stroke="url(#paint1_linear_125_7387)" stroke-width="1.20008" shape-rendering="crispEdges"/>
</g>
<path d="M574.282 74H565.832V71.764L568.094 70.724V58.712L565.832 57.672V55.436H574.282V57.672L572.02 58.712V70.724L574.282 71.764V74ZM583.113 71.166C583.547 71.166 583.963 71.1313 584.361 71.062C584.76 70.9753 585.159 70.8627 585.557 70.724V73.61C585.141 73.8007 584.621 73.9567 583.997 74.078C583.391 74.1993 582.723 74.26 581.995 74.26C581.146 74.26 580.383 74.1213 579.707 73.844C579.049 73.5667 578.52 73.09 578.121 72.414C577.74 71.738 577.549 70.7847 577.549 69.554V62.716H575.703V61.078L577.835 59.778L578.953 56.788H581.423V59.804H585.401V62.716H581.423V69.554C581.423 70.0913 581.579 70.4987 581.891 70.776C582.203 71.036 582.611 71.166 583.113 71.166ZM592.035 55.436L592.217 55.722C591.991 56.6407 591.671 57.646 591.255 58.738C590.839 59.83 590.414 60.8527 589.981 61.806H587.199C587.441 60.7833 587.684 59.6913 587.927 58.53C588.169 57.3687 588.351 56.3373 588.473 55.436H592.035ZM603.67 69.788C603.67 71.2267 603.159 72.336 602.136 73.116C601.131 73.8787 599.623 74.26 597.612 74.26C596.624 74.26 595.775 74.1907 595.064 74.052C594.354 73.9307 593.643 73.7227 592.932 73.428V70.23C593.695 70.5767 594.518 70.8627 595.402 71.088C596.286 71.3133 597.066 71.426 597.742 71.426C598.488 71.426 599.025 71.3133 599.354 71.088C599.684 70.8627 599.848 70.568 599.848 70.204C599.848 69.9613 599.779 69.7447 599.64 69.554C599.519 69.3633 599.242 69.1467 598.808 68.904C598.375 68.6613 597.699 68.3493 596.78 67.968C595.879 67.5867 595.142 67.214 594.57 66.85C594.016 66.4687 593.6 66.018 593.322 65.498C593.045 64.9607 592.906 64.2933 592.906 63.496C592.906 62.1787 593.418 61.1907 594.44 60.532C595.463 59.8733 596.824 59.544 598.522 59.544C599.406 59.544 600.247 59.6307 601.044 59.804C601.842 59.9773 602.665 60.2633 603.514 60.662L602.344 63.444C601.651 63.1493 600.992 62.9067 600.368 62.716C599.744 62.508 599.112 62.404 598.47 62.404C597.326 62.404 596.754 62.716 596.754 63.34C596.754 63.5653 596.824 63.7733 596.962 63.964C597.118 64.1373 597.404 64.328 597.82 64.536C598.254 64.744 598.886 65.0213 599.718 65.368C600.533 65.6973 601.235 66.044 601.824 66.408C602.414 66.7547 602.864 67.1967 603.176 67.734C603.506 68.2713 603.67 68.956 603.67 69.788ZM617.94 74.26C616.363 74.26 615.071 73.6447 614.066 72.414C613.078 71.166 612.584 69.3373 612.584 66.928C612.584 64.5013 613.087 62.664 614.092 61.416C615.097 60.168 616.415 59.544 618.044 59.544C619.067 59.544 619.907 59.7433 620.566 60.142C621.225 60.5407 621.745 61.0347 622.126 61.624H622.256C622.204 61.3467 622.143 60.948 622.074 60.428C622.005 59.8907 621.97 59.3447 621.97 58.79V54.24H625.844V74H622.88L622.126 72.154H621.97C621.589 72.7433 621.077 73.246 620.436 73.662C619.795 74.0607 618.963 74.26 617.94 74.26ZM619.292 71.166C620.349 71.166 621.095 70.854 621.528 70.23C621.961 69.5887 622.195 68.6353 622.23 67.37V66.954C622.23 65.5847 622.013 64.536 621.58 63.808C621.164 63.0627 620.384 62.69 619.24 62.69C618.391 62.69 617.723 63.0627 617.238 63.808C616.753 64.536 616.51 65.5933 616.51 66.98C616.51 68.3667 616.753 69.4153 617.238 70.126C617.723 70.8193 618.408 71.166 619.292 71.166ZM642.791 66.876C642.791 69.2333 642.167 71.0533 640.919 72.336C639.689 73.6187 638.007 74.26 635.875 74.26C634.558 74.26 633.379 73.974 632.339 73.402C631.317 72.83 630.511 71.998 629.921 70.906C629.332 69.7967 629.037 68.4533 629.037 66.876C629.037 64.5187 629.653 62.7073 630.883 61.442C632.114 60.1767 633.804 59.544 635.953 59.544C637.288 59.544 638.467 59.83 639.489 60.402C640.512 60.974 641.318 61.806 641.907 62.898C642.497 63.99 642.791 65.316 642.791 66.876ZM632.989 66.876C632.989 68.28 633.215 69.346 633.665 70.074C634.133 70.7847 634.887 71.14 635.927 71.14C636.95 71.14 637.687 70.7847 638.137 70.074C638.605 69.346 638.839 68.28 638.839 66.876C638.839 65.472 638.605 64.4233 638.137 63.73C637.687 63.0193 636.941 62.664 635.901 62.664C634.879 62.664 634.133 63.0193 633.665 63.73C633.215 64.4233 632.989 65.472 632.989 66.876ZM653.897 59.544C655.492 59.544 656.783 60.168 657.771 61.416C658.759 62.6467 659.253 64.4667 659.253 66.876C659.253 69.3027 658.742 71.14 657.719 72.388C656.696 73.636 655.388 74.26 653.793 74.26C652.77 74.26 651.956 74.078 651.349 73.714C650.742 73.3327 650.248 72.908 649.867 72.44H649.659C649.798 73.168 649.867 73.8613 649.867 74.52V80.24H645.993V59.804H649.139L649.685 61.65H649.867C650.248 61.078 650.76 60.584 651.401 60.168C652.042 59.752 652.874 59.544 653.897 59.544ZM652.649 62.638C651.644 62.638 650.933 62.9587 650.517 63.6C650.101 64.224 649.884 65.1687 649.867 66.434V66.85C649.867 68.2193 650.066 69.2767 650.465 70.022C650.881 70.75 651.626 71.114 652.701 71.114C653.585 71.114 654.235 70.75 654.651 70.022C655.084 69.2767 655.301 68.2107 655.301 66.824C655.301 64.0333 654.417 62.638 652.649 62.638ZM668.296 59.544C670.255 59.544 671.806 60.1073 672.95 61.234C674.094 62.3433 674.666 63.9293 674.666 65.992V67.864H665.514C665.549 68.956 665.869 69.814 666.476 70.438C667.1 71.062 667.958 71.374 669.05 71.374C669.951 71.374 670.775 71.2873 671.52 71.114C672.283 70.9233 673.063 70.6373 673.86 70.256V73.246C673.149 73.5927 672.413 73.844 671.65 74C670.887 74.1733 669.96 74.26 668.868 74.26C667.447 74.26 666.19 74 665.098 73.48C664.006 72.9427 663.148 72.1453 662.524 71.088C661.9 70.0133 661.588 68.6527 661.588 67.006C661.588 65.3593 661.865 63.9813 662.42 62.872C662.992 61.7627 663.781 60.9307 664.786 60.376C665.791 59.8213 666.961 59.544 668.296 59.544ZM668.322 62.3C667.559 62.3 666.935 62.5427 666.45 63.028C665.965 63.5133 665.679 64.2673 665.592 65.29H671.026C671.009 64.4407 670.775 63.73 670.324 63.158C669.891 62.586 669.223 62.3 668.322 62.3ZM681.057 67.838H677.963L677.313 55.436H681.707L681.057 67.838ZM677.261 72.18C677.261 71.3827 677.478 70.828 677.911 70.516C678.345 70.1867 678.873 70.022 679.497 70.022C680.104 70.022 680.624 70.1867 681.057 70.516C681.491 70.828 681.707 71.3827 681.707 72.18C681.707 72.9427 681.491 73.4973 681.057 73.844C680.624 74.1733 680.104 74.338 679.497 74.338C678.873 74.338 678.345 74.1733 677.911 73.844C677.478 73.4973 677.261 72.9427 677.261 72.18ZM582.688 86.176V107.872H584.608V86.176H582.688ZM579.016 94.864V96.52H583.192V94.864H579.016ZM577.768 86.656V106.768H579.64V86.656H577.768ZM566.968 100.864V102.52H568.384C571.648 102.52 573.832 102.424 576.424 101.872L576.232 100.216C573.712 100.744 571.552 100.864 568.384 100.864H566.968ZM566.968 88.816V101.608H568.936V90.448H575.032V88.816H566.968ZM603.11 86.176V99.256H605.102V86.176H603.11ZM604.55 91.792V93.472H608.318V91.792H604.55ZM591.014 100.408V102.04H603.11V107.872H605.102V100.408H591.014ZM589.166 87.52V97.792H599.198V87.52H597.254V90.904H591.134V87.52H589.166ZM591.134 92.488H597.254V96.208H591.134V92.488ZM626.1 86.152V107.896H628.092V86.152H626.1ZM616.644 87.832C613.452 87.832 611.148 90.784 611.148 95.392C611.148 100.024 613.452 102.976 616.644 102.976C619.86 102.976 622.164 100.024 622.164 95.392C622.164 90.784 619.86 87.832 616.644 87.832ZM616.644 89.632C618.78 89.632 620.244 91.888 620.244 95.392C620.244 98.92 618.78 101.224 616.644 101.224C614.532 101.224 613.044 98.92 613.044 95.392C613.044 91.888 614.532 89.632 616.644 89.632ZM647.098 86.152V107.896H649.114V86.152H647.098ZM648.634 94.72V96.4H652.666V94.72H648.634ZM633.346 100.816V102.496H635.05C639.13 102.496 641.986 102.376 645.322 101.752L645.106 100.072C641.866 100.672 639.058 100.816 635.05 100.816H633.346ZM633.346 88.264V101.56H635.314V89.896H643.426V88.264H633.346ZM657.513 100.912H655.713L655.113 88.864H658.113L657.513 100.912ZM654.945 104.584C654.945 103.96 655.105 103.52 655.425 103.264C655.745 103.008 656.137 102.88 656.601 102.88C657.033 102.88 657.409 103.008 657.729 103.264C658.065 103.52 658.233 103.96 658.233 104.584C658.233 105.208 658.065 105.656 657.729 105.928C657.409 106.2 657.033 106.336 656.601 106.336C656.137 106.336 655.745 106.2 655.425 105.928C655.105 105.656 654.945 105.208 654.945 104.584Z" fill="#414141"/>
<defs>
<filter id="filter0_bd_125_7387" x="0" y="211.2" width="314" height="174" filterUnits="userSpaceOnUse" color-interpolation-filters="sRGB">
<feFlood flood-opacity="0" result="BackgroundImageFix"/>
<feGaussianBlur in="BackgroundImageFix" stdDeviation="3.00021"/>
<feComposite in2="SourceAlpha" operator="in" result="effect1_backgroundBlur_125_7387"/>
<feColorMatrix in="SourceAlpha" type="matrix" values="0 0 0 0 0 0 0 0 0 0 0 0 0 0 0 0 0 0 127 0" result="hardAlpha"/>
<feOffset dy="7.2005"/>
<feGaussianBlur stdDeviation="13.5"/>
<feComposite in2="hardAlpha" operator="out"/>
<feColorMatrix type="matrix" values="0 0 0 0 0 0 0 0 0 0 0 0 0 0 0 0 0 0 0.1 0"/>
<feBlend mode="normal" in2="effect1_backgroundBlur_125_7387" result="effect2_dropShadow_125_7387"/>
<feBlend mode="normal" in="SourceGraphic" in2="effect2_dropShadow_125_7387" result="shape"/>
</filter>
<filter id="filter1_bd_125_7387" x="471" y="0.200496" width="315" height="174" filterUnits="userSpaceOnUse" color-interpolation-filters="sRGB">
<feFlood flood-opacity="0" result="BackgroundImageFix"/>
<feGaussianBlur in="BackgroundImageFix" stdDeviation="3.00021"/>
<feComposite in2="SourceAlpha" operator="in" result="effect1_backgroundBlur_125_7387"/>
<feColorMatrix in="SourceAlpha" type="matrix" values="0 0 0 0 0 0 0 0 0 0 0 0 0 0 0 0 0 0 127 0" result="hardAlpha"/>
<feOffset dy="7.2005"/>
<feGaussianBlur stdDeviation="13.5"/>
<feComposite in2="hardAlpha" operator="out"/>
<feColorMatrix type="matrix" values="0 0 0 0 0 0 0 0 0 0 0 0 0 0 0 0 0 0 0.1 0"/>
<feBlend mode="normal" in2="effect1_backgroundBlur_125_7387" result="effect2_dropShadow_125_7387"/>
<feBlend mode="normal" in="SourceGraphic" in2="effect2_dropShadow_125_7387" result="shape"/>
</filter>
<linearGradient id="paint0_linear_125_7387" x1="273.748" y1="344.846" x2="42.2468" y2="315.522" gradientUnits="userSpaceOnUse">
<stop stop-color="white"/>
<stop offset="1" stop-color="white" stop-opacity="0"/>
</linearGradient>
<linearGradient id="paint1_linear_125_7387" x1="511.303" y1="133.846" x2="743.666" y2="104.299" gradientUnits="userSpaceOnUse">
<stop stop-color="white"/>
<stop offset="1" stop-color="white" stop-opacity="0"/>
</linearGradient>
</defs>
</svg>
