<svg width="146" height="178" viewBox="0 0 146 178" fill="none" xmlns="http://www.w3.org/2000/svg">
<path d="M12.7077 35.1593C11.2104 35.8686 10.5716 37.6575 11.281 39.1548C11.9903 40.6522 13.7792 41.2909 15.2765 40.5816L12.7077 35.1593ZM62.413 27.5123L62.6318 24.5203L62.413 27.5123ZM110.303 53.6843L113.084 52.5583L110.303 53.6843ZM87.763 130.516L90.3776 131.987L87.763 130.516ZM71.2466 155.478L73.603 157.334L71.2466 155.478ZM63.4982 161.135C63.3966 162.789 64.6549 164.212 66.3086 164.314L93.2578 165.969C94.9115 166.071 96.3345 164.813 96.4361 163.159C96.5377 161.505 95.2795 160.082 93.6257 159.981L69.6709 158.509L71.1427 134.554C71.2443 132.9 69.986 131.477 68.3323 131.376C66.6786 131.274 65.2556 132.532 65.154 134.186L63.4982 161.135ZM15.2765 40.5816C31.9489 32.6831 47.4956 29.4295 62.1942 30.5043L62.6318 24.5203C46.6987 23.3552 30.1165 26.9119 12.7077 35.1593L15.2765 40.5816ZM62.1942 30.5043C84.256 32.1176 101.647 40.2989 107.523 54.8102L113.084 52.5583C105.879 34.7656 85.3713 26.1831 62.6318 24.5203L62.1942 30.5043ZM107.523 54.8102C111.483 64.5901 109.812 76.4142 104.988 89.4476C100.182 102.433 92.4871 116.002 85.1485 129.045L90.3776 131.987C97.6482 119.065 105.61 105.052 110.615 91.5303C115.602 78.0563 117.898 64.4473 113.084 52.5583L107.523 54.8102ZM85.1485 129.045C80.4346 137.423 75.2706 145.523 68.8902 153.621L73.603 157.334C80.22 148.937 85.552 140.564 90.3776 131.987L85.1485 129.045ZM68.8902 153.621C68.1507 154.559 67.2491 155.852 66.6375 156.665C65.9246 157.612 65.2511 158.412 64.5053 159.072L68.4798 163.567C69.6697 162.515 70.6252 161.344 71.4313 160.273C72.3388 159.067 72.8463 158.295 73.603 157.334L68.8902 153.621Z" fill="#DE006B"/>
</svg>
