<svg width="110" height="110" viewBox="0 0 110 110" fill="none" xmlns="http://www.w3.org/2000/svg">
<g clip-path="url(#clip0_412_9690)">
<rect width="109.999" height="110" rx="54.9997" fill="#4FF788"/>
<path d="M88.7327 91.8499C91.4215 96.9832 92.766 115.683 92.766 115.683H17.2332C17.2332 115.683 18.5777 96.9832 21.2665 91.8499C25.2998 84.1499 54.9996 74.25 54.9996 74.25C54.9996 74.25 84.6994 84.1499 88.7327 91.8499Z" fill="#75C8FF"/>
<mask id="mask0_412_9690" style="mask-type:alpha" maskUnits="userSpaceOnUse" x="17" y="74" width="76" height="42">
<path d="M88.7327 91.8499C91.4215 96.9832 92.766 115.683 92.766 115.683H17.2332C17.2332 115.683 18.5777 96.9832 21.2665 91.8499C25.2998 84.1499 54.9996 74.25 54.9996 74.25C54.9996 74.25 84.6994 84.1499 88.7327 91.8499Z" fill="url(#paint0_linear_412_9690)"/>
</mask>
<g mask="url(#mask0_412_9690)">
<path opacity="0.4" d="M89.466 112.385C89.466 111.95 89.595 111.524 89.8367 111.162C90.0785 110.801 90.422 110.519 90.824 110.352C91.226 110.186 91.6684 110.142 92.0951 110.227C92.5219 110.312 92.9139 110.521 93.2216 110.829C93.5292 111.137 93.7388 111.529 93.8236 111.956C93.9085 112.382 93.865 112.825 93.6985 113.227C93.5319 113.629 93.25 113.972 92.8882 114.214C92.5264 114.456 92.1011 114.585 91.6659 114.585C91.0825 114.585 90.5229 114.353 90.1103 113.94C89.6977 113.528 89.466 112.968 89.466 112.385ZM74.7994 112.385C74.7994 111.95 74.9284 111.524 75.1701 111.162C75.4119 110.801 75.7555 110.519 76.1575 110.352C76.5595 110.186 77.0018 110.142 77.4286 110.227C77.8553 110.312 78.2473 110.521 78.555 110.829C78.8627 111.137 79.0722 111.529 79.1571 111.956C79.242 112.382 79.1984 112.825 79.0319 113.227C78.8654 113.629 78.5834 113.972 78.2216 114.214C77.8598 114.456 77.4345 114.585 76.9994 114.585C76.4159 114.585 75.8563 114.353 75.4437 113.94C75.0312 113.528 74.7994 112.968 74.7994 112.385ZM60.1328 112.385C60.1328 111.95 60.2618 111.524 60.5036 111.162C60.7453 110.801 61.0889 110.519 61.4909 110.352C61.8929 110.186 62.3352 110.142 62.762 110.227C63.1887 110.312 63.5807 110.521 63.8884 110.829C64.1961 111.137 64.4056 111.529 64.4905 111.956C64.5754 112.382 64.5318 112.825 64.3653 113.227C64.1988 113.629 63.9168 113.972 63.555 114.214C63.1932 114.456 62.7679 114.585 62.3328 114.585C61.7493 114.585 61.1897 114.353 60.7772 113.94C60.3646 113.528 60.1328 112.968 60.1328 112.385ZM45.4662 112.385C45.4662 111.95 45.5952 111.524 45.837 111.162C46.0787 110.801 46.4223 110.519 46.8243 110.352C47.2263 110.186 47.6686 110.142 48.0954 110.227C48.5222 110.312 48.9142 110.521 49.2218 110.829C49.5295 111.137 49.739 111.529 49.8239 111.956C49.9088 112.382 49.8652 112.825 49.6987 113.227C49.5322 113.629 49.2502 113.972 48.8884 114.214C48.5267 114.456 48.1013 114.585 47.6662 114.585C47.0827 114.585 46.5232 114.353 46.1106 113.94C45.698 113.528 45.4662 112.968 45.4662 112.385ZM30.7996 112.385C30.7996 111.95 30.9287 111.524 31.1704 111.162C31.4121 110.801 31.7557 110.519 32.1577 110.352C32.5597 110.186 33.0021 110.142 33.4288 110.227C33.8556 110.312 34.2476 110.521 34.5552 110.829C34.8629 111.137 35.0725 111.529 35.1573 111.956C35.2422 112.382 35.1987 112.825 35.0321 113.227C34.8656 113.629 34.5837 113.972 34.2219 114.214C33.8601 114.456 33.4347 114.585 32.9996 114.585C32.4161 114.585 31.8566 114.353 31.444 113.94C31.0314 113.528 30.7996 112.968 30.7996 112.385ZM16.1331 112.385C16.1331 111.95 16.2621 111.524 16.5038 111.162C16.7456 110.801 17.0891 110.519 17.4911 110.352C17.8931 110.186 18.3355 110.142 18.7622 110.227C19.189 110.312 19.581 110.521 19.8887 110.829C20.1963 111.137 20.4059 111.529 20.4908 111.956C20.5756 112.382 20.5321 112.825 20.3656 113.227C20.1991 113.629 19.9171 113.972 19.5553 114.214C19.1935 114.456 18.7682 114.585 18.333 114.585C17.7496 114.585 17.19 114.353 16.7774 113.94C16.3648 113.528 16.1331 112.968 16.1331 112.385V112.385ZM82.1327 105.051C82.1327 104.616 82.2617 104.191 82.5034 103.829C82.7452 103.467 83.0888 103.185 83.4908 103.019C83.8927 102.852 84.3351 102.809 84.7618 102.894C85.1886 102.979 85.5806 103.188 85.8883 103.496C86.1959 103.803 86.4055 104.195 86.4904 104.622C86.5752 105.049 86.5317 105.491 86.3652 105.893C86.1987 106.295 85.9167 106.639 85.5549 106.881C85.1931 107.122 84.7678 107.251 84.3326 107.251C83.7492 107.251 83.1896 107.02 82.777 106.607C82.3644 106.194 82.1327 105.635 82.1327 105.051ZM67.4661 105.051C67.4661 104.616 67.5951 104.191 67.8368 103.829C68.0786 103.467 68.4222 103.185 68.8242 103.019C69.2262 102.852 69.6685 102.809 70.0953 102.894C70.522 102.979 70.914 103.188 71.2217 103.496C71.5294 103.803 71.7389 104.195 71.8238 104.622C71.9087 105.049 71.8651 105.491 71.6986 105.893C71.5321 106.295 71.2501 106.639 70.8883 106.881C70.5265 107.122 70.1012 107.251 69.6661 107.251C69.0826 107.251 68.523 107.02 68.1104 106.607C67.6979 106.194 67.4661 105.635 67.4661 105.051ZM52.7995 105.051C52.7995 104.616 52.9285 104.191 53.1703 103.829C53.412 103.467 53.7556 103.185 54.1576 103.019C54.5596 102.852 55.0019 102.809 55.4287 102.894C55.8554 102.979 56.2474 103.188 56.5551 103.496C56.8628 103.803 57.0723 104.195 57.1572 104.622C57.2421 105.049 57.1985 105.491 57.032 105.893C56.8655 106.295 56.5835 106.639 56.2217 106.881C55.86 107.122 55.4346 107.251 54.9995 107.251C54.416 107.251 53.8564 107.02 53.4439 106.607C53.0313 106.194 52.7995 105.635 52.7995 105.051ZM38.1329 105.051C38.1329 104.616 38.262 104.191 38.5037 103.829C38.7454 103.467 39.089 103.185 39.491 103.019C39.893 102.852 40.3354 102.809 40.7621 102.894C41.1889 102.979 41.5809 103.188 41.8885 103.496C42.1962 103.803 42.4057 104.195 42.4906 104.622C42.5755 105.049 42.5319 105.491 42.3654 105.893C42.1989 106.295 41.9169 106.639 41.5552 106.881C41.1934 107.122 40.768 107.251 40.3329 107.251C39.7494 107.251 39.1899 107.02 38.7773 106.607C38.3647 106.194 38.1329 105.635 38.1329 105.051ZM23.4663 105.051C23.4663 104.616 23.5954 104.191 23.8371 103.829C24.0788 103.467 24.4224 103.185 24.8244 103.019C25.2264 102.852 25.6688 102.809 26.0955 102.894C26.5223 102.979 26.9143 103.188 27.222 103.496C27.5296 103.803 27.7392 104.195 27.824 104.622C27.9089 105.049 27.8654 105.491 27.6989 105.893C27.5323 106.295 27.2504 106.639 26.8886 106.881C26.5268 107.122 26.1014 107.251 25.6663 107.251C25.0829 107.251 24.5233 107.02 24.1107 106.607C23.6981 106.194 23.4663 105.635 23.4663 105.051ZM89.466 97.7181C89.466 97.283 89.595 96.8577 89.8367 96.4959C90.0785 96.1341 90.422 95.8521 90.824 95.6856C91.226 95.5191 91.6684 95.4755 92.0951 95.5604C92.5219 95.6453 92.9139 95.8548 93.2216 96.1625C93.5292 96.4702 93.7388 96.8622 93.8236 97.2889C93.9085 97.7157 93.865 98.158 93.6985 98.56C93.5319 98.962 93.25 99.3056 92.8882 99.5473C92.5264 99.7891 92.1011 99.9181 91.6659 99.9181C91.0825 99.9181 90.5229 99.6863 90.1103 99.2738C89.6977 98.8612 89.466 98.3016 89.466 97.7181ZM74.7994 97.7181C74.7994 97.283 74.9284 96.8577 75.1701 96.4959C75.4119 96.1341 75.7555 95.8521 76.1575 95.6856C76.5595 95.5191 77.0018 95.4755 77.4286 95.5604C77.8553 95.6453 78.2473 95.8548 78.555 96.1625C78.8627 96.4702 79.0722 96.8622 79.1571 97.2889C79.242 97.7157 79.1984 98.158 79.0319 98.56C78.8654 98.962 78.5834 99.3056 78.2216 99.5473C77.8598 99.7891 77.4345 99.9181 76.9994 99.9181C76.4159 99.9181 75.8563 99.6863 75.4437 99.2738C75.0312 98.8612 74.7994 98.3016 74.7994 97.7181ZM60.1328 97.7181C60.1328 97.283 60.2618 96.8577 60.5036 96.4959C60.7453 96.1341 61.0889 95.8521 61.4909 95.6856C61.8929 95.5191 62.3352 95.4755 62.762 95.5604C63.1887 95.6453 63.5807 95.8548 63.8884 96.1625C64.1961 96.4702 64.4056 96.8622 64.4905 97.2889C64.5754 97.7157 64.5318 98.158 64.3653 98.56C64.1988 98.962 63.9168 99.3056 63.555 99.5473C63.1932 99.7891 62.7679 99.9181 62.3328 99.9181C61.7493 99.9181 61.1897 99.6863 60.7772 99.2738C60.3646 98.8612 60.1328 98.3016 60.1328 97.7181ZM45.4662 97.7181C45.4662 97.283 45.5952 96.8577 45.837 96.4959C46.0787 96.1341 46.4223 95.8521 46.8243 95.6856C47.2263 95.5191 47.6686 95.4755 48.0954 95.5604C48.5222 95.6453 48.9142 95.8548 49.2218 96.1625C49.5295 96.4702 49.739 96.8622 49.8239 97.2889C49.9088 97.7157 49.8652 98.158 49.6987 98.56C49.5322 98.962 49.2502 99.3056 48.8884 99.5473C48.5267 99.7891 48.1013 99.9181 47.6662 99.9181C47.0827 99.9181 46.5232 99.6863 46.1106 99.2738C45.698 98.8612 45.4662 98.3016 45.4662 97.7181ZM30.7996 97.7181C30.7996 97.283 30.9287 96.8577 31.1704 96.4959C31.4121 96.1341 31.7557 95.8521 32.1577 95.6856C32.5597 95.5191 33.0021 95.4755 33.4288 95.5604C33.8556 95.6453 34.2476 95.8548 34.5552 96.1625C34.8629 96.4702 35.0725 96.8622 35.1573 97.2889C35.2422 97.7157 35.1987 98.158 35.0321 98.56C34.8656 98.962 34.5837 99.3056 34.2219 99.5473C33.8601 99.7891 33.4347 99.9181 32.9996 99.9181C32.4161 99.9181 31.8566 99.6863 31.444 99.2738C31.0314 98.8612 30.7996 98.3016 30.7996 97.7181ZM16.1331 97.7181C16.1331 97.283 16.2621 96.8577 16.5038 96.4959C16.7456 96.1341 17.0891 95.8521 17.4911 95.6856C17.8931 95.5191 18.3355 95.4755 18.7622 95.5604C19.189 95.6453 19.581 95.8548 19.8887 96.1625C20.1963 96.4702 20.4059 96.8622 20.4908 97.2889C20.5756 97.7157 20.5321 98.158 20.3656 98.56C20.1991 98.962 19.9171 99.3056 19.5553 99.5473C19.1935 99.7891 18.7682 99.9181 18.333 99.9181C17.7496 99.9181 17.19 99.6863 16.7774 99.2738C16.3648 98.8612 16.1331 98.3016 16.1331 97.7181V97.7181ZM82.1327 90.3848C82.1327 89.9497 82.2617 89.5244 82.5034 89.1626C82.7452 88.8008 83.0888 88.5188 83.4908 88.3523C83.8927 88.1858 84.3351 88.1422 84.7618 88.2271C85.1886 88.312 85.5806 88.5215 85.8883 88.8292C86.1959 89.1369 86.4055 89.5289 86.4904 89.9556C86.5752 90.3824 86.5317 90.8247 86.3652 91.2267C86.1987 91.6287 85.9167 91.9723 85.5549 92.2141C85.1931 92.4558 84.7678 92.5848 84.3326 92.5848C83.7492 92.5848 83.1896 92.353 82.777 91.9405C82.3644 91.5279 82.1327 90.9683 82.1327 90.3848ZM67.4661 90.3848C67.4661 89.9497 67.5951 89.5244 67.8368 89.1626C68.0786 88.8008 68.4222 88.5188 68.8242 88.3523C69.2262 88.1858 69.6685 88.1422 70.0953 88.2271C70.522 88.312 70.914 88.5215 71.2217 88.8292C71.5294 89.1369 71.7389 89.5289 71.8238 89.9556C71.9087 90.3824 71.8651 90.8247 71.6986 91.2267C71.5321 91.6287 71.2501 91.9723 70.8883 92.2141C70.5265 92.4558 70.1012 92.5848 69.6661 92.5848C69.0826 92.5848 68.523 92.353 68.1104 91.9405C67.6979 91.5279 67.4661 90.9683 67.4661 90.3848ZM52.7995 90.3848C52.7995 89.9497 52.9285 89.5244 53.1703 89.1626C53.412 88.8008 53.7556 88.5188 54.1576 88.3523C54.5596 88.1858 55.0019 88.1422 55.4287 88.2271C55.8554 88.312 56.2474 88.5215 56.5551 88.8292C56.8628 89.1369 57.0723 89.5289 57.1572 89.9556C57.2421 90.3824 57.1985 90.8247 57.032 91.2267C56.8655 91.6287 56.5835 91.9723 56.2217 92.2141C55.86 92.4558 55.4346 92.5848 54.9995 92.5848C54.416 92.5848 53.8564 92.353 53.4439 91.9405C53.0313 91.5279 52.7995 90.9683 52.7995 90.3848ZM38.1329 90.3848C38.1329 89.9497 38.262 89.5244 38.5037 89.1626C38.7454 88.8008 39.089 88.5188 39.491 88.3523C39.893 88.1858 40.3354 88.1422 40.7621 88.2271C41.1889 88.312 41.5809 88.5215 41.8885 88.8292C42.1962 89.1369 42.4057 89.5289 42.4906 89.9556C42.5755 90.3824 42.5319 90.8247 42.3654 91.2267C42.1989 91.6287 41.9169 91.9723 41.5552 92.2141C41.1934 92.4558 40.768 92.5848 40.3329 92.5848C39.7494 92.5848 39.1899 92.353 38.7773 91.9405C38.3647 91.5279 38.1329 90.9683 38.1329 90.3848ZM23.4663 90.3848C23.4663 89.9497 23.5954 89.5244 23.8371 89.1626C24.0788 88.8008 24.4224 88.5188 24.8244 88.3523C25.2264 88.1858 25.6688 88.1422 26.0955 88.2271C26.5223 88.312 26.9143 88.5215 27.222 88.8292C27.5296 89.1369 27.7392 89.5289 27.824 89.9556C27.9089 90.3824 27.8654 90.8247 27.6989 91.2267C27.5323 91.6287 27.2504 91.9723 26.8886 92.2141C26.5268 92.4558 26.1014 92.5848 25.6663 92.5848C25.0829 92.5848 24.5233 92.353 24.1107 91.9405C23.6981 91.5279 23.4663 90.9683 23.4663 90.3848ZM89.466 83.0515C89.466 82.6164 89.595 82.1911 89.8367 81.8293C90.0785 81.4675 90.422 81.1855 90.824 81.019C91.226 80.8525 91.6684 80.8089 92.0951 80.8938C92.5219 80.9787 92.9139 81.1883 93.2216 81.4959C93.5292 81.8036 93.7388 82.1956 93.8236 82.6224C93.9085 83.0491 93.865 83.4915 93.6985 83.8934C93.5319 84.2954 93.25 84.639 92.8882 84.8808C92.5264 85.1225 92.1011 85.2515 91.6659 85.2515C91.0825 85.2515 90.5229 85.0198 90.1103 84.6072C89.6977 84.1946 89.466 83.635 89.466 83.0515ZM74.7994 83.0515C74.7994 82.6164 74.9284 82.1911 75.1701 81.8293C75.4119 81.4675 75.7555 81.1855 76.1575 81.019C76.5595 80.8525 77.0018 80.8089 77.4286 80.8938C77.8553 80.9787 78.2473 81.1883 78.555 81.4959C78.8627 81.8036 79.0722 82.1956 79.1571 82.6224C79.242 83.0491 79.1984 83.4915 79.0319 83.8934C78.8654 84.2954 78.5834 84.639 78.2216 84.8808C77.8598 85.1225 77.4345 85.2515 76.9994 85.2515C76.4159 85.2515 75.8563 85.0198 75.4437 84.6072C75.0312 84.1946 74.7994 83.635 74.7994 83.0515ZM30.7996 83.0515C30.7996 82.6164 30.9287 82.1911 31.1704 81.8293C31.4121 81.4675 31.7557 81.1855 32.1577 81.019C32.5597 80.8525 33.0021 80.8089 33.4288 80.8938C33.8556 80.9787 34.2476 81.1883 34.5552 81.4959C34.8629 81.8036 35.0725 82.1956 35.1573 82.6224C35.2422 83.0491 35.1987 83.4915 35.0321 83.8934C34.8656 84.2954 34.5837 84.639 34.2219 84.8808C33.8601 85.1225 33.4347 85.2515 32.9996 85.2515C32.4161 85.2515 31.8566 85.0198 31.444 84.6072C31.0314 84.1946 30.7996 83.635 30.7996 83.0515ZM16.1331 83.0515C16.1331 82.6164 16.2621 82.1911 16.5038 81.8293C16.7456 81.4675 17.0891 81.1855 17.4911 81.019C17.8931 80.8525 18.3355 80.8089 18.7622 80.8938C19.189 80.9787 19.581 81.1883 19.8887 81.4959C20.1963 81.8036 20.4059 82.1956 20.4908 82.6224C20.5756 83.0491 20.5321 83.4915 20.3656 83.8934C20.1991 84.2954 19.9171 84.639 19.5553 84.8808C19.1935 85.1225 18.7682 85.2515 18.333 85.2515C17.7496 85.2515 17.19 85.0198 16.7774 84.6072C16.3648 84.1946 16.1331 83.635 16.1331 83.0515V83.0515Z" fill="#13001E"/>
</g>
<path d="M58.983 22.074C57.5164 15.6574 64.4709 10.7334 71.6329 14.1137C88.4995 22.074 78.4661 33.1839 72.2328 32.4506C65.9995 31.7173 60.4497 28.4906 58.983 22.074Z" fill="url(#paint1_linear_412_9690)"/>
<g style="mix-blend-mode:multiply" opacity="0.6">
<path d="M65.0828 23.1016C65.0828 23.1016 77.5494 31.1682 80.666 26.7682C80.9876 28.6056 79.5088 33.7953 77.1827 33.7348C70.2245 33.5537 65.0828 23.1016 65.0828 23.1016Z" fill="#E0713F"/>
</g>
<path d="M63.0663 62.5187C55.1893 66.3031 54.0401 66.1003 36.6665 51.8854C10.45 30.4356 35.1998 10.819 61.783 21.269C90.5661 33.9189 80.9232 53.9413 63.0663 62.5187Z" fill="url(#paint2_linear_412_9690)"/>
<path d="M63.7998 77.5505C61.111 81.9505 48.8886 81.9505 46.1999 77.5505V70.2172C46.1999 70.2172 45.0035 70.2539 44.1832 70.2172C35.6066 69.8506 32.7407 56.0541 34.0868 42.2547C35.0724 32.1487 43.6332 46.0174 57.5665 36.3008C57.0165 46.934 61.5998 45.8341 63.6165 44.5507C72.7831 40.3341 72.8597 57.6194 63.7998 56.284V77.5505Z" fill="white"/>
<path d="M46.1999 70.2152C51.148 69.8478 58.5267 64.6789 58.5267 64.6789C58.5267 64.6789 54.9969 72.23 46.2003 73.5137L46.1999 70.2152Z" fill="#FFBB94"/>
<path d="M63.7995 76.6187V74.25C64.472 74.25 66.3974 75.8384 67.3877 77.1833C71.3022 82.4999 66.9602 87.2666 63.4189 87.2666C58.9508 87.2666 55.9896 83.5332 54.9996 81.7373C54.0096 83.5339 51.0484 87.2666 46.5803 87.2666C43.039 87.2666 38.697 82.4999 42.6115 77.1833C43.6018 75.8384 45.5272 74.25 46.1997 74.25V76.6187C46.1997 79.4229 52.3376 80.7209 54.9875 80.8408C57.4958 80.7209 63.7995 79.4229 63.7995 76.6187Z" fill="#FFF9F5"/>
<path d="M59.6158 28.942C53.7492 43.6086 57.0491 50.7585 61.6325 59.3751C66.2158 67.9917 60.5325 76.0584 60.5325 76.0584C60.5325 76.0584 67.1324 71.8417 67.1324 62.4918C67.1324 53.1418 60.5325 47.2752 66.0324 39.5753C71.5324 31.8753 65.4824 14.2754 59.6158 28.942Z" fill="url(#paint3_linear_412_9690)"/>
</g>
<defs>
<linearGradient id="paint0_linear_412_9690" x1="54.9996" y1="74.25" x2="54.9996" y2="115.683" gradientUnits="userSpaceOnUse">
<stop stop-color="#806A6A"/>
<stop offset="1" stop-color="#665654"/>
</linearGradient>
<linearGradient id="paint1_linear_412_9690" x1="69.8574" y1="32.4851" x2="69.8574" y2="13.0156" gradientUnits="userSpaceOnUse">
<stop stop-color="#DE006B"/>
<stop offset="1" stop-color="#E67240"/>
</linearGradient>
<linearGradient id="paint2_linear_412_9690" x1="52.7792" y1="64.6027" x2="52.7792" y2="18.375" gradientUnits="userSpaceOnUse">
<stop stop-color="#DE006B"/>
<stop offset="1" stop-color="#E67240"/>
</linearGradient>
<linearGradient id="paint3_linear_412_9690" x1="62.3298" y1="76.0584" x2="62.3298" y2="23.2852" gradientUnits="userSpaceOnUse">
<stop stop-color="#DE006B"/>
<stop offset="1" stop-color="#E57442"/>
</linearGradient>
<clipPath id="clip0_412_9690">
<rect width="109.999" height="110" rx="54.9997" fill="white"/>
</clipPath>
</defs>
</svg>
