<svg width="110" height="110" viewBox="0 0 110 110" fill="none" xmlns="http://www.w3.org/2000/svg">
<g clip-path="url(#clip0_486_10742)">
<rect width="110" height="110" rx="55" fill="#FFF059"/>
<path d="M66.7333 64.5333V72.7833C66.7333 74.3721 43.2667 73.8379 43.2667 71.5469C43.2667 69.3909 43.3107 59.6207 43.2667 49.5689C38.0116 42.7574 38.0116 38.5 42.1667 34.1C46.3217 29.7 75.9 27.5 75.9 27.5C75.9 27.5 78.1191 48.8437 78.4667 54.6333C78.6064 56.9617 80.1167 64.5333 74.25 64.5333H66.7333Z" fill="white"/>
<g style="mix-blend-mode:multiply">
<path d="M66.7246 63.827C61.9474 63.3058 57.3305 61.7977 53.1667 59.3984C53.1667 59.3984 56.1001 66.3651 66.7246 68.2556V63.827Z" fill="#FFD7B8"/>
</g>
<path d="M93.5 89.2131C95.8271 93.9448 97.6604 101.767 99 112.68H11C12.34 101.766 14.1734 93.9436 16.5 89.2131C18.8188 84.4978 40.3333 75.4231 40.3333 75.4231C40.3333 75.4231 40.7616 71.275 41.8 70.6803C42.8384 70.0856 66.9632 70.0859 68.2 70.6803C69.4368 71.2747 69.6667 75.4209 69.6667 75.4209C69.6667 75.4209 91.1856 84.5077 93.5 89.2131Z" fill="#4FF788"/>
<path d="M48.0406 38.5747C46.8746 37.5733 45.4578 36.899 43.4551 37.9396C38.7071 40.4047 41.8583 49.9153 47.1716 49.7298C49.005 49.666 48.1646 53.3195 43.2666 55.7325C43.2666 51.8825 37.4 42.3492 36.8866 33.6694C30.9833 31.4713 32.45 22.676 36.5027 22.676C35.8559 14.6127 48.7666 10.4481 53.7658 15.075C58.85 8.9814 71.6833 12.0981 72.4581 17.3847C81.2826 12.6741 87.0833 26.2147 78.8205 31.4713C75.4204 33.6346 67.4666 34.4578 55.9852 34.4578C50.4757 34.4578 53.644 47.3534 55.3666 51.5158C57.5666 56.8325 69.85 57.5658 73.7 57.0158C76.7066 56.5865 78.2833 55.3658 78.4666 54.6325C81.2166 61.9658 77.7333 66.3658 72.2333 66.3658C62.8833 66.3658 53.5333 63.6158 52.0666 56.8325C50.8992 51.4341 50.9633 42.7217 48.0406 38.5747Z" fill="url(#paint0_linear_486_10742)"/>
</g>
<defs>
<linearGradient id="paint0_linear_486_10742" x1="57.8777" y1="66.3658" x2="57.8777" y2="11.7305" gradientUnits="userSpaceOnUse">
<stop stop-color="#DE006B"/>
<stop offset="1" stop-color="#E67240"/>
</linearGradient>
<clipPath id="clip0_486_10742">
<rect width="110" height="110" rx="55" fill="white"/>
</clipPath>
</defs>
</svg>
