<svg width="110" height="110" viewBox="0 0 110 110" fill="none" xmlns="http://www.w3.org/2000/svg">
<g clip-path="url(#clip0_412_9676)">
<rect width="110" height="110" rx="55" fill="url(#paint0_linear_412_9676)"/>
<path d="M81.5834 58.4827C84.5578 48.6043 86.3911 31.716 73.8834 20.166C64.3244 11.3389 38.5001 10.4494 29.5167 29.6994C28.0171 32.9128 30.0667 37.9494 34.1001 37.766C35.6852 37.6927 36.6667 42.716 37.5834 45.8327C36.3001 58.4827 24.8667 58.7163 19.0667 68.3827C11.9167 80.2994 20.7167 97.8994 41.8001 97.8994C62.8834 97.8994 74.9694 80.4479 81.5834 58.4827Z" fill="url(#paint1_linear_412_9676)"/>
<path d="M88.7334 87.268C91.4222 92.4013 92.7667 111.101 92.7667 111.101H17.2334C17.2334 111.101 18.578 92.4013 21.2667 87.268C25.3001 79.568 55.0001 69.668 55.0001 69.668C55.0001 69.668 84.7001 79.568 88.7334 87.268Z" fill="url(#paint2_linear_412_9676)"/>
<path d="M63.8001 74.0661C63.8001 74.0661 59.1192 76.6328 54.8131 76.6328C50.507 76.6328 46.2001 74.0661 46.2001 74.0661V65.9995C45.2737 66.1459 44.3352 66.2016 43.398 66.1659C34.6024 66.1652 31.2859 53.3535 33.0001 37.7661C34.1001 37.7661 36.6668 37.7661 40.3334 32.6328C39.4168 39.7828 50.0501 38.6828 54.0834 32.9995C52.0668 39.7828 57.3834 44.3661 61.9668 41.6161C70.9541 36.2236 72.9745 52.6623 63.8001 52.7995V74.0661Z" fill="white"/>
<path d="M46.2002 66.0008C50.7486 65.1634 55.1009 63.4847 59.0335 61.0508C59.0335 61.0508 54.4502 68.9341 46.2002 68.9341V66.0008Z" fill="#FFB597"/>
<path d="M55.012 76.2588C57.6619 76.1389 63.7999 74.8409 63.7999 72.0366V69.668C64.4724 69.668 66.3978 71.2564 67.3881 72.6013C71.3027 77.918 66.9606 82.6846 63.4193 82.6846C58.9511 82.6846 55.9899 78.9512 54.9999 77.1553C54.0099 78.952 51.0487 82.6846 46.5805 82.6846C43.0393 82.6846 38.6972 77.918 42.6117 72.6013C43.6021 71.2564 45.5275 69.668 46.1999 69.668V72.0366C46.1999 74.8409 52.5037 76.1389 55.012 76.2588Z" fill="#FFF059"/>
</g>
<defs>
<linearGradient id="paint0_linear_412_9676" x1="55" y1="0" x2="55" y2="110" gradientUnits="userSpaceOnUse">
<stop stop-color="#75C8FF"/>
<stop offset="1" stop-color="#75C8FF"/>
</linearGradient>
<linearGradient id="paint1_linear_412_9676" x1="50.1902" y1="97.8994" x2="50.1902" y2="14.1484" gradientUnits="userSpaceOnUse">
<stop stop-color="#DE006B"/>
<stop offset="1" stop-color="#E67240"/>
</linearGradient>
<linearGradient id="paint2_linear_412_9676" x1="55.0001" y1="111.101" x2="55.0001" y2="69.668" gradientUnits="userSpaceOnUse">
<stop stop-color="#FFC9B3"/>
<stop offset="1" stop-color="#FFD2C2"/>
</linearGradient>
<clipPath id="clip0_412_9676">
<rect width="110" height="110" rx="55" fill="white"/>
</clipPath>
</defs>
</svg>
