<svg width="84" height="100" viewBox="0 0 84 100" fill="none" xmlns="http://www.w3.org/2000/svg">
<path d="M80.9048 27.0121C81.34 27.717 82.2643 27.9357 82.9692 27.5005C83.6741 27.0653 83.8927 26.141 83.4575 25.4361L80.9048 27.0121ZM55.236 3.88588L55.7532 2.47787L55.236 3.88588ZM17.807 18.9897L16.417 18.4258L17.807 18.9897ZM21.1053 56.2254L21.5313 54.7871L21.1053 56.2254ZM29.3513 44.2283L28.0358 44.9491L29.3513 44.2283ZM11.4579 33.8317L10.7588 32.5045L11.4579 33.8317ZM1.75772 57.5251L0.257774 57.5128L1.75772 57.5251ZM27.5216 95.8059C28.318 95.5778 28.7787 94.7473 28.5505 93.9509L24.8334 80.9727C24.6053 80.1763 23.7747 79.7156 22.9783 79.9437C22.1819 80.1718 21.7212 81.0024 21.9493 81.7988L25.2535 93.3349L13.7174 96.6391C12.921 96.8672 12.4603 97.6977 12.6884 98.4941C12.9165 99.2905 13.747 99.7512 14.5434 99.5231L27.5216 95.8059ZM83.4575 25.4361C80.378 20.4483 77.4735 16.1513 73.2993 12.3788C69.1137 8.59615 63.7295 5.40798 55.7532 2.47787L54.7187 5.29388C62.4354 8.12859 67.4572 11.1427 71.2878 14.6045C75.1296 18.0766 77.8513 22.0663 80.9048 27.0121L83.4575 25.4361ZM55.7532 2.47787C40.9778 -2.94987 23.3367 1.36865 16.417 18.4258L19.197 19.5536C25.3599 4.36192 41.0615 0.2769 54.7187 5.29388L55.7532 2.47787ZM16.417 18.4258C14.1585 23.9931 11.0463 32.3575 10.4919 39.9641C10.2142 43.7748 10.5652 47.5415 12.1108 50.7073C13.6866 53.9351 16.4435 56.409 20.6794 57.6636L21.5313 54.7871C18.0683 53.7614 15.9987 51.8327 14.8067 49.3912C13.5844 46.8876 13.2262 43.7184 13.484 40.1822C14.0005 33.0951 16.938 25.122 19.197 19.5536L16.417 18.4258ZM20.6794 57.6636C25.042 58.9558 28.7126 57.3946 30.6675 54.3594C32.5737 51.3998 32.7184 47.2519 30.6667 43.5075L28.0358 44.9491C29.617 47.8348 29.3932 50.7975 28.1453 52.7349C26.9463 54.5967 24.6775 55.719 21.5313 54.7871L20.6794 57.6636ZM30.6667 43.5075C29.1714 40.7784 26.1769 37.1517 22.6793 34.625C19.2524 32.1494 14.8074 30.3718 10.7588 32.5045L12.157 35.1588C14.6139 33.8646 17.7246 34.7466 20.9225 37.0568C24.0497 39.3159 26.7492 42.601 28.0358 44.9491L30.6667 43.5075ZM10.7588 32.5045C6.7199 34.6321 4.14474 39.1393 2.56912 43.7756C0.97402 48.4692 0.289561 53.6263 0.257774 57.5128L3.25767 57.5373C3.28721 53.9264 3.93088 49.092 5.40957 44.7409C6.90773 40.3325 9.15202 36.7417 12.157 35.1588L10.7588 32.5045ZM0.257774 57.5128C0.189926 65.8085 3.63773 73.6328 8.59077 80.1996C13.546 86.7694 20.0796 92.1802 26.3809 95.6756L27.8361 93.0522C21.8801 89.7483 15.6739 84.6086 10.9859 78.3931C6.29569 72.1748 3.19681 64.9793 3.25767 57.5373L0.257774 57.5128Z" fill="#DE006B"/>
</svg>
