<svg width="93" height="116" viewBox="0 0 93 116" fill="none" xmlns="http://www.w3.org/2000/svg">
<path d="M50.2412 106.376C51.0242 106.647 51.4397 107.501 51.1692 108.284C50.8987 109.067 50.0447 109.482 49.2616 109.212L50.2412 106.376ZM21.007 69.4428L22.4765 69.7438L21.007 69.4428ZM47.8921 43.2455L47.331 44.6366L47.8921 43.2455ZM48.7506 58.3433L49.2008 59.7742L48.7506 58.3433ZM23.8849 53.5198L25.1617 52.7324L23.8849 53.5198ZM28.9245 28.4119L27.7568 27.4704L28.9245 28.4119ZM79.3706 17.4715C79.8228 18.1656 79.6267 19.0949 78.9326 19.5471L67.6212 26.9161C66.9271 27.3683 65.9978 27.1722 65.5456 26.4781C65.0934 25.784 65.2895 24.8547 65.9837 24.4025L76.0382 17.8522L69.488 7.79767C69.0358 7.10355 69.2319 6.17427 69.926 5.72207C70.6201 5.26987 71.5494 5.46598 72.0016 6.16011L79.3706 17.4715ZM49.2616 109.212C40.1201 106.054 31.8096 100.58 26.2133 93.6408C20.6043 86.6857 17.6833 78.1943 19.5375 69.1418L22.4765 69.7438C20.8396 77.7353 23.3719 85.3385 28.5485 91.7575C33.7378 98.1922 41.5451 103.372 50.2412 106.376L49.2616 109.212ZM19.5375 69.1418C20.7419 63.2619 22.8496 54.5607 27.1277 48.2688C29.2827 45.0993 32.0594 42.4335 35.6518 41.1064C39.2733 39.7684 43.5223 39.8653 48.4533 41.8544L47.331 44.6366C42.9479 42.8685 39.4805 42.8901 36.6914 43.9205C33.8731 44.9616 31.5448 47.1078 29.6085 49.9556C25.7039 55.6983 23.6831 63.8529 22.4765 69.7438L19.5375 69.1418ZM48.4533 41.8544C53.378 43.841 56.1069 47.4307 56.1908 51.2028C56.2754 55.0065 53.6539 58.3729 49.2008 59.7742L48.3003 56.9125C51.7492 55.8272 53.2406 53.4769 53.1915 51.2695C53.1417 49.0305 51.4904 46.3145 47.331 44.6366L48.4533 41.8544ZM49.2008 59.7742C45.963 60.793 40.6592 61.4217 35.5697 60.867C30.5527 60.3203 25.2324 58.5625 22.6082 54.3071L25.1617 52.7324C27.0272 55.7577 31.1141 57.3637 35.8947 57.8847C40.6027 58.3977 45.4869 57.7978 48.3003 56.9125L49.2008 59.7742ZM22.6082 54.3071C19.8683 49.8641 20.0448 44.5482 21.3859 39.7764C22.7316 34.9881 25.3115 30.5032 27.7568 27.4704L30.0922 29.3535C27.8661 32.1144 25.4955 36.2418 24.274 40.5881C23.0478 44.951 23.0402 49.2922 25.1617 52.7324L22.6082 54.3071ZM27.7568 27.4704C32.9884 20.982 41.4996 17.461 50.645 15.978C59.8197 14.4903 69.8536 15.014 78.4236 16.8226L77.8041 19.7579C69.5443 18.0148 59.8862 17.5187 51.1252 18.9394C42.3348 20.3648 34.6662 23.6806 30.0922 29.3535L27.7568 27.4704Z" fill="#DE006B"/>
</svg>
