<svg width="154" height="226" viewBox="0 0 154 226" fill="none" xmlns="http://www.w3.org/2000/svg">
<path d="M108.759 212.726C110.408 212.892 111.61 214.363 111.444 216.012C111.278 217.66 109.807 218.862 108.158 218.696L108.759 212.726ZM34.8593 154.3L37.858 154.209L34.8593 154.3ZM75.1269 90.9358L74.6751 93.9015L75.1269 90.9358ZM83.7475 119.926L85.2825 122.503L83.7475 119.926ZM33.131 121.984L35.2535 119.864L33.131 121.984ZM31.3819 70.7963L28.6758 69.5013L31.3819 70.7963ZM124.529 26.2814C125.729 27.4242 125.775 29.3231 124.632 30.5228L106.009 50.072C104.866 51.2717 102.967 51.3177 101.768 50.1749C100.568 49.0321 100.522 47.1332 101.665 45.9335L118.219 28.5564L100.842 12.0024C99.642 10.8596 99.5959 8.96064 100.739 7.76099C101.882 6.56136 103.781 6.51529 104.98 7.65811L124.529 26.2814ZM108.158 218.696C88.9121 216.758 70.2178 209.93 56.1312 199C42.0129 188.045 32.4189 172.863 31.8607 154.39L37.858 154.209C38.3507 170.516 46.7793 184.149 59.8094 194.259C72.8712 204.394 90.4511 210.882 108.759 212.726L108.158 218.696ZM31.8607 154.39C31.4982 142.392 31.595 124.486 37.0252 110.271C39.7606 103.11 43.9378 96.6434 50.3187 92.4068C56.7515 88.1357 65.0659 86.3684 75.5787 87.97L74.6751 93.9015C65.3303 92.4779 58.5917 94.116 53.6376 97.4053C48.6316 100.729 45.088 105.978 42.6302 112.412C37.674 125.386 37.4948 142.188 37.858 154.209L31.8607 154.39ZM75.5787 87.97C86.0782 89.5695 93.0419 95.2999 94.9415 102.603C96.8571 109.967 93.3046 117.726 85.2825 122.503L82.2126 117.348C88.4255 113.648 90.2464 108.387 89.1348 104.113C88.0072 99.7785 83.5429 95.2525 74.6751 93.9015L75.5787 87.97ZM85.2825 122.503C79.4496 125.977 69.4162 129.642 59.2552 130.905C49.2389 132.15 38.0748 131.178 31.0085 124.104L35.2535 119.864C40.2771 124.893 48.9707 126.137 58.5149 124.951C67.9143 123.782 77.1443 120.366 82.2126 117.348L85.2825 122.503ZM31.0085 124.104C23.6306 116.718 21.5271 106.29 21.9407 96.3852C22.3558 86.4461 25.3126 76.5296 28.6758 69.5013L34.0881 72.0912C31.0262 78.4896 28.3123 87.6141 27.9355 96.6356C27.5573 105.692 29.5408 114.144 35.2535 119.864L31.0085 124.104ZM28.6758 69.5013C35.8713 54.4647 50.8159 43.6939 67.933 36.5977C85.1051 29.4787 104.875 25.8792 122.387 25.4544L122.533 31.4526C105.654 31.8621 86.6285 35.3423 70.2308 42.1403C53.7781 48.9611 40.3791 58.9445 34.0881 72.0912L28.6758 69.5013Z" fill="#DE006B"/>
</svg>
