<svg width="57" height="44" viewBox="0 0 57 44" fill="none" xmlns="http://www.w3.org/2000/svg">
<path d="M3.79956 3.73086C3.09863 3.28928 2.17245 3.49952 1.73086 4.20044C1.28928 4.90137 1.49952 5.82755 2.20044 6.26914L3.79956 3.73086ZM53.332 37.9628C54.1399 37.7794 54.6462 36.9758 54.4628 36.1679L51.4744 23.0029C51.291 22.195 50.4874 21.6887 49.6796 21.8721C48.8717 22.0555 48.3654 22.8591 48.5488 23.667L51.2052 35.3692L39.5029 38.0256C38.695 38.209 38.1887 39.0125 38.3721 39.8204C38.5555 40.6283 39.3591 41.1346 40.167 40.9512L53.332 37.9628ZM2.20044 6.26914L52.2004 37.7691L53.7996 35.2309L3.79956 3.73086L2.20044 6.26914Z" fill="#DE006B"/>
</svg>
