<svg width="16" height="15" viewBox="0 0 16 15" fill="none" xmlns="http://www.w3.org/2000/svg">
<path d="M8 14.7531L6.9125 13.7779C5.65 12.6403 4.60625 11.6588 3.78125 10.8337C2.95625 10.0086 2.3 9.26768 1.8125 8.61107C1.325 7.95496 0.9845 7.35186 0.791 6.80177C0.597 6.25167 0.5 5.68908 0.5 5.11398C0.5 3.93878 0.89375 2.95736 1.68125 2.16973C2.46875 1.3821 3.45 0.988281 4.625 0.988281C5.275 0.988281 5.89375 1.1258 6.48125 1.40085C7.06875 1.6759 7.575 2.06346 8 2.56355C8.425 2.06346 8.93125 1.6759 9.51875 1.40085C10.1062 1.1258 10.725 0.988281 11.375 0.988281C12.55 0.988281 13.5312 1.3821 14.3187 2.16973C15.1062 2.95736 15.5 3.93878 15.5 5.11398C15.5 5.68908 15.4032 6.25167 15.2097 6.80177C15.0157 7.35186 14.675 7.95496 14.1875 8.61107C13.7 9.26768 13.0437 10.0086 12.2187 10.8337C11.3937 11.6588 10.35 12.6403 9.0875 13.7779L8 14.7531Z" fill="#DE006B"/>
</svg>
