<svg width="21" height="21" viewBox="0 0 21 21" fill="none" xmlns="http://www.w3.org/2000/svg">
<path d="M18.2353 4.03339C17.7884 3.58627 17.2578 3.23158 16.6738 2.98959C16.0898 2.7476 15.4638 2.62305 14.8316 2.62305C14.1994 2.62305 13.5734 2.7476 12.9894 2.98959C12.4054 3.23158 11.8748 3.58627 11.4278 4.03339L10.5003 4.96089L9.57285 4.03339C8.67012 3.13066 7.44575 2.62351 6.1691 2.62351C4.89244 2.62351 3.66808 3.13066 2.76535 4.03339C1.86262 4.93612 1.35547 6.16049 1.35547 7.43714C1.35547 8.7138 1.86262 9.93816 2.76535 10.8409L3.69285 11.7684L10.5003 18.5759L17.3078 11.7684L18.2353 10.8409C18.6825 10.394 19.0372 9.86336 19.2791 9.27933C19.5211 8.6953 19.6457 8.06932 19.6457 7.43714C19.6457 6.80497 19.5211 6.17899 19.2791 5.59496C19.0372 5.01093 18.6825 4.48031 18.2353 4.03339V4.03339Z" stroke="#090A0A" stroke-width="1.5" stroke-linecap="round" stroke-linejoin="round"/>
</svg>
