<svg width="71" height="15" viewBox="0 0 71 15" fill="none" xmlns="http://www.w3.org/2000/svg">
<path d="M6.63731 14.8242C5.38044 14.8242 4.26131 14.609 3.27992 14.1785C2.29852 13.7481 1.52374 13.1627 0.955566 12.4224C0.387392 11.6648 0.0688696 10.8211 0 9.8914H4.36461C4.41626 10.3907 4.6487 10.7953 5.06192 11.1052C5.47513 11.4151 5.98305 11.5701 6.58566 11.5701C7.13661 11.5701 7.55844 11.4668 7.85114 11.2602C8.16105 11.0364 8.31601 10.7523 8.31601 10.4079C8.31601 9.99471 8.10079 9.6934 7.67035 9.50401C7.23992 9.2974 6.54261 9.07357 5.57844 8.83253C4.5454 8.59149 3.68453 8.34183 2.99583 8.08357C2.30713 7.80809 1.71313 7.38627 1.21383 6.81809C0.714522 6.2327 0.46487 5.44931 0.46487 4.46792C0.46487 3.64148 0.688696 2.89252 1.13635 2.22105C1.60122 1.53235 2.2727 0.990001 3.15079 0.594001C4.04609 0.198 5.10496 0 6.3274 0C8.13522 0 9.55566 0.447653 10.5887 1.34296C11.639 2.23826 12.2416 3.42626 12.3965 4.90696H8.31601C8.24714 4.40766 8.02331 4.01166 7.64453 3.71896C7.28296 3.42626 6.80088 3.27992 6.19827 3.27992C5.68174 3.27992 5.28574 3.38322 5.01027 3.58983C4.73479 3.77922 4.59705 4.04609 4.59705 4.39044C4.59705 4.80366 4.81227 5.11357 5.2427 5.32018C5.69035 5.52679 6.37905 5.7334 7.30879 5.94001C8.37627 6.21548 9.24575 6.49096 9.91722 6.76644C10.5887 7.0247 11.1741 7.45514 11.6734 8.05775C12.1899 8.64314 12.4568 9.43514 12.474 10.4337C12.474 11.2774 12.233 12.035 11.7509 12.7064C11.286 13.3607 10.6059 13.8772 9.71062 14.256C8.83253 14.6348 7.80809 14.8242 6.63731 14.8242Z" fill="white"/>
<path d="M23.9567 0.0516531C25.644 0.0516531 26.987 0.60261 27.9856 1.70452C29.0014 2.78922 29.5094 4.28714 29.5094 6.19827V14.6176H25.1189V6.79227C25.1189 5.82809 24.8693 5.07914 24.37 4.5454C23.8707 4.01166 23.1992 3.74479 22.3555 3.74479C21.5119 3.74479 20.8404 4.01166 20.3411 4.5454C19.8418 5.07914 19.5921 5.82809 19.5921 6.79227V14.6176H15.1759V0.206609H19.5921V2.11774C20.0398 1.4807 20.6424 0.981392 21.4 0.619826C22.1575 0.241044 23.0098 0.0516531 23.9567 0.0516531Z" fill="white"/>
<path d="M31.7001 7.38627C31.7001 5.90557 31.9756 4.60566 32.5266 3.48653C33.0947 2.36739 33.8609 1.50652 34.8251 0.903915C35.7893 0.301305 36.8654 0 38.0534 0C39.0692 0 39.9559 0.206609 40.7134 0.619826C41.4882 1.03304 42.0822 1.57539 42.4954 2.24687V0.206609H46.9117V14.6176H42.4954V12.5773C42.065 13.2488 41.4624 13.7911 40.6876 14.2044C39.9301 14.6176 39.0434 14.8242 38.0275 14.8242C36.8567 14.8242 35.7893 14.5229 34.8251 13.9203C33.8609 13.3004 33.0947 12.431 32.5266 11.3118C31.9756 10.1755 31.7001 8.86697 31.7001 7.38627ZM42.4954 7.41209C42.4954 6.31018 42.1855 5.4407 41.5657 4.80366C40.9631 4.16661 40.2228 3.84809 39.3447 3.84809C38.4666 3.84809 37.7176 4.16661 37.0978 4.80366C36.4952 5.42348 36.1939 6.28435 36.1939 7.38627C36.1939 8.48818 36.4952 9.36627 37.0978 10.0205C37.7176 10.6576 38.4666 10.9761 39.3447 10.9761C40.2228 10.9761 40.9631 10.6576 41.5657 10.0205C42.1855 9.38349 42.4954 8.51401 42.4954 7.41209Z" fill="white"/>
<path d="M49.2286 7.41209C49.2286 5.91418 49.5299 4.60566 50.1325 3.48653C50.7523 2.36739 51.6046 1.50652 52.6893 0.903915C53.7912 0.301305 55.0481 0 56.4599 0C58.2677 0 59.7743 0.473479 60.9795 1.42044C62.2019 2.36739 63.0025 3.70174 63.3813 5.42348H58.681C58.285 4.32157 57.5188 3.77061 56.3824 3.77061C55.5732 3.77061 54.9276 4.08913 54.4455 4.72618C53.9634 5.34601 53.7223 6.24131 53.7223 7.41209C53.7223 8.58288 53.9634 9.48679 54.4455 10.1238C54.9276 10.7437 55.5732 11.0536 56.3824 11.0536C57.5188 11.0536 58.285 10.5026 58.681 9.4007H63.3813C63.0025 11.088 62.2019 12.4137 60.9795 13.3779C59.757 14.3421 58.2505 14.8242 56.4599 14.8242C55.0481 14.8242 53.7912 14.5229 52.6893 13.9203C51.6046 13.3177 50.7523 12.4568 50.1325 11.3377C49.5299 10.2185 49.2286 8.91001 49.2286 7.41209Z" fill="white"/>
<path d="M67.8097 14.8242C67.0349 14.8242 66.3979 14.6004 65.8985 14.1527C65.4165 13.6878 65.1754 13.1197 65.1754 12.4482C65.1754 11.7595 65.4165 11.1827 65.8985 10.7178C66.3979 10.253 67.0349 10.0205 67.8097 10.0205C68.5672 10.0205 69.1871 10.253 69.6692 10.7178C70.1685 11.1827 70.4181 11.7595 70.4181 12.4482C70.4181 13.1197 70.1685 13.6878 69.6692 14.1527C69.1871 14.6004 68.5672 14.8242 67.8097 14.8242Z" fill="white"/>
</svg>
