<svg width="141" height="30" viewBox="0 0 141 30" fill="none" xmlns="http://www.w3.org/2000/svg">
<g clip-path="url(#clip0_125_6668)">
<path d="M13.2747 29.6486C10.7609 29.6486 8.52267 29.2181 6.55988 28.3573C4.59708 27.4964 3.0475 26.3256 1.91114 24.8449C0.774788 23.3297 0.13774 21.6424 0 19.7829H8.72928C8.83259 20.7815 9.29746 21.5908 10.1239 22.2106C10.9503 22.8304 11.9662 23.1403 13.1714 23.1403C14.2733 23.1403 15.117 22.9337 15.7024 22.5205C16.3222 22.0729 16.6321 21.5047 16.6321 20.816C16.6321 19.9895 16.2017 19.3869 15.3408 19.0081C14.4799 18.5949 13.0853 18.1473 11.157 17.6652C9.09085 17.1831 7.3691 16.6838 5.9917 16.1672C4.6143 15.6163 3.42629 14.7726 2.42767 13.6363C1.42905 12.4655 0.929746 10.8987 0.929746 8.93589C0.929746 7.28301 1.3774 5.78509 2.27271 4.44212C3.20246 3.06472 4.54543 1.98001 6.30161 1.18801C8.09223 0.396003 10.21 0 12.6549 0C16.2706 0 19.1114 0.895312 21.1775 2.68594C23.2781 4.47656 24.4833 6.85257 24.7932 9.81399H16.6321C16.4944 8.81537 16.0467 8.02336 15.2892 7.43797C14.566 6.85257 13.6018 6.55988 12.3966 6.55988C11.3636 6.55988 10.5716 6.76649 10.0206 7.17971C9.46964 7.55849 9.19415 8.09223 9.19415 8.78094C9.19415 9.60738 9.62459 10.2272 10.4855 10.6404C11.3808 11.0536 12.7582 11.4669 14.6177 11.8801C16.7526 12.431 18.4916 12.982 19.8346 13.533C21.1775 14.0495 22.3483 14.9104 23.347 16.1156C24.38 17.2864 24.9137 18.8704 24.9482 20.8676C24.9482 22.5549 24.4661 24.0701 23.5019 25.4131C22.5722 26.7216 21.212 27.7546 19.4214 28.5122C17.6652 29.2698 15.6163 29.6486 13.2747 29.6486Z" fill="#090A0A"/>
<path d="M47.9138 0.103307C51.2884 0.103307 53.9744 1.20523 55.9716 3.40907C58.0033 5.57848 59.0191 8.57433 59.0191 12.3966V29.2353H50.2382V13.5846C50.2382 11.6563 49.7389 10.1583 48.7402 9.09085C47.7416 8.02336 46.3987 7.48962 44.7113 7.48962C43.024 7.48962 41.6811 8.02336 40.6824 9.09085C39.6838 10.1583 39.1845 11.6563 39.1845 13.5846V29.2353H30.3519V0.413221H39.1845V4.23551C40.0798 2.96141 41.2851 1.9628 42.8002 1.23966C44.3153 0.482091 46.0199 0.103307 47.9138 0.103307Z" fill="#090A0A"/>
<path d="M63.4007 14.7726C63.4007 11.8112 63.9516 9.21137 65.0536 6.9731C66.1899 4.73482 67.7223 3.01307 69.6506 1.80784C71.579 0.602614 73.7312 0 76.1072 0C78.1389 0 79.9123 0.41322 81.4274 1.23966C82.977 2.0661 84.165 3.15081 84.9914 4.49377V0.413221H93.824V29.2353H84.9914V25.1548C84.1306 26.4978 82.9253 27.5825 81.3758 28.4089C79.8606 29.2353 78.0872 29.6486 76.0556 29.6486C73.714 29.6486 71.579 29.046 69.6506 27.8407C67.7223 26.6011 66.1899 24.8621 65.0536 22.6238C63.9516 20.3511 63.4007 17.734 63.4007 14.7726ZM84.9914 14.8243C84.9914 12.6204 84.3716 10.8815 83.132 9.60738C81.9267 8.33328 80.446 7.69623 78.6898 7.69623C76.9337 7.69623 75.4357 8.33328 74.1961 9.60738C72.9908 10.847 72.3882 12.5688 72.3882 14.7726C72.3882 16.9765 72.9908 18.7327 74.1961 20.0412C75.4357 21.3153 76.9337 21.9523 78.6898 21.9523C80.446 21.9523 81.9267 21.3153 83.132 20.0412C84.3716 18.7671 84.9914 17.0281 84.9914 14.8243Z" fill="#090A0A"/>
<path d="M98.4578 14.8243C98.4578 11.8284 99.0604 9.21137 100.266 6.9731C101.505 4.73482 103.21 3.01307 105.379 1.80784C107.583 0.602614 110.097 0 112.921 0C116.536 0 119.549 0.946964 121.96 2.84089C124.405 4.73482 126.006 7.40353 126.763 10.847H117.363C116.571 8.6432 115.038 7.54127 112.766 7.54127C111.147 7.54127 109.856 8.17832 108.892 9.45242C107.927 10.6921 107.445 12.4827 107.445 14.8243C107.445 17.1659 107.927 18.9737 108.892 20.2478C109.856 21.4875 111.147 22.1073 112.766 22.1073C115.038 22.1073 116.571 21.0054 117.363 18.8015H126.763C126.006 22.1762 124.405 24.8277 121.96 26.756C119.515 28.6844 116.502 29.6486 112.921 29.6486C110.097 29.6486 107.583 29.046 105.379 27.8407C103.21 26.6355 101.505 24.9137 100.266 22.6755C99.0604 20.4372 98.4578 17.8201 98.4578 14.8243Z" fill="#090A0A"/>
<path d="M135.62 29.6486C134.071 29.6486 132.797 29.2009 131.798 28.3056C130.834 27.3759 130.352 26.2395 130.352 24.8965C130.352 23.5191 130.834 22.3656 131.798 21.4358C132.797 20.5061 134.071 20.0412 135.62 20.0412C137.135 20.0412 138.375 20.5061 139.339 21.4358C140.338 22.3656 140.837 23.5191 140.837 24.8965C140.837 26.2395 140.338 27.3759 139.339 28.3056C138.375 29.2009 137.135 29.6486 135.62 29.6486Z" fill="#090A0A"/>
</g>
<defs>
<clipPath id="clip0_125_6668">
<rect width="140.837" height="29.6486" fill="white"/>
</clipPath>
</defs>
</svg>
