<svg width="114" height="86" viewBox="0 0 114 86" fill="none" xmlns="http://www.w3.org/2000/svg">
<path d="M9.59911 7.46173C8.19726 6.57856 6.34489 6.99904 5.46173 8.40089C4.57856 9.80274 4.99904 11.6551 6.40089 12.5383L9.59911 7.46173ZM108.664 75.9256C110.28 75.5588 111.292 73.9517 110.926 72.3359L104.949 46.0057C104.582 44.39 102.975 43.3775 101.359 43.7443C99.7434 44.111 98.7309 45.7182 99.0976 47.3339L104.41 70.7385L81.0057 76.0512C79.39 76.418 78.3775 78.0251 78.7443 79.6409C79.111 81.2566 80.7182 82.2691 82.3339 81.9024L108.664 75.9256ZM6.40089 12.5383L106.401 75.5383L109.599 70.4617L9.59911 7.46173L6.40089 12.5383Z" fill="#DE006B"/>
</svg>
