<svg width="71" height="64" viewBox="0 0 71 64" fill="none" xmlns="http://www.w3.org/2000/svg">
<path d="M69.4884 4.12832C70.1115 3.58246 70.1742 2.63478 69.6283 2.01162C69.0825 1.38847 68.1348 1.32581 67.5116 1.87168L69.4884 4.12832ZM2.50327 59.401C2.44862 60.2276 3.07442 60.942 3.90104 60.9967L17.3716 61.8873C18.1983 61.942 18.9127 61.3162 18.9673 60.4895C19.022 59.6629 18.3962 58.9485 17.5695 58.8939L5.59569 58.1022L6.38735 46.1283C6.442 45.3017 5.8162 44.5873 4.98958 44.5327C4.16295 44.478 3.44853 45.1038 3.39388 45.9304L2.50327 59.401ZM67.5116 1.87168L3.01162 58.3716L4.98838 60.6283L69.4884 4.12832L67.5116 1.87168Z" fill="#DE006B"/>
</svg>
