<svg width="86" height="19" viewBox="0 0 86 19" fill="none" xmlns="http://www.w3.org/2000/svg">
<path d="M8.91812 18.3051C7.40983 18.3051 6.06684 18.0469 4.88913 17.5303C3.71143 17.0138 2.78166 16.3113 2.09984 15.4229C1.41801 14.5138 1.03577 13.5014 0.953125 12.3856H6.19081C6.25279 12.9848 6.53172 13.4704 7.0276 13.8423C7.52347 14.2142 8.13298 14.4001 8.85613 14.4001C9.5173 14.4001 10.0235 14.2762 10.3748 14.0282C10.7467 13.7596 10.9326 13.4187 10.9326 13.0055C10.9326 12.5096 10.6743 12.148 10.1578 11.9208C9.64127 11.6728 8.80448 11.4042 7.64744 11.115C6.40775 10.8257 5.37468 10.5261 4.54822 10.2162C3.72176 9.8856 3.00894 9.37939 2.40976 8.69757C1.81058 7.99507 1.51098 7.05498 1.51098 5.87728C1.51098 4.88553 1.77958 3.98675 2.31678 3.18095C2.87464 2.3545 3.68044 1.70366 4.73417 1.22845C5.80857 0.753232 7.07925 0.515625 8.54621 0.515625C10.7157 0.515625 12.4202 1.05282 13.6599 2.12722C14.9203 3.20162 15.6434 4.62726 15.8294 6.40414H10.9326C10.85 5.80496 10.5814 5.32975 10.1268 4.9785C9.69292 4.62726 9.1144 4.45163 8.39125 4.45163C7.77141 4.45163 7.29619 4.5756 6.96561 4.82354C6.63503 5.05082 6.46974 5.37107 6.46974 5.7843C6.46974 6.28017 6.728 6.65208 7.24454 6.90002C7.78174 7.14795 8.6082 7.39589 9.72392 7.64383C11.0049 7.97441 12.0483 8.305 12.8541 8.63558C13.6599 8.9455 14.3624 9.46204 14.9616 10.1852C15.5814 10.8877 15.9017 11.8381 15.9224 13.0365C15.9224 14.0489 15.6331 14.958 15.0546 15.7638C14.4967 16.5489 13.6806 17.1688 12.6062 17.6233C11.5525 18.0779 10.3231 18.3051 8.91812 18.3051Z" fill="#090A0A"/>
<path d="M29.702 0.57761C31.7268 0.57761 33.3384 1.23878 34.5368 2.56111C35.7558 3.86278 36.3653 5.66033 36.3653 7.95375V18.0572H31.0967V8.66657C31.0967 7.50953 30.7971 6.61076 30.1979 5.97025C29.5987 5.32975 28.7929 5.00949 27.7805 5.00949C26.7681 5.00949 25.9623 5.32975 25.3631 5.97025C24.7639 6.61076 24.4643 7.50953 24.4643 8.66657V18.0572H19.1647V0.763563H24.4643V3.05699C25.0015 2.29251 25.7247 1.69333 26.6338 1.25944C27.5429 0.804886 28.5656 0.57761 29.702 0.57761Z" fill="#090A0A"/>
<path d="M38.9943 9.37939C38.9943 7.60251 39.3249 6.04257 39.9861 4.69957C40.6679 3.35658 41.5874 2.3235 42.7444 1.60035C43.9014 0.877201 45.1928 0.515625 46.6184 0.515625C47.8375 0.515625 48.9015 0.763562 49.8106 1.25944C50.7404 1.75531 51.4532 2.40615 51.9491 3.21195V0.763563H57.2487V18.0572H51.9491V15.6088C51.4325 16.4146 50.7094 17.0655 49.7796 17.5613C48.8705 18.0572 47.8065 18.3051 46.5874 18.3051C45.1825 18.3051 43.9014 17.9436 42.7444 17.2204C41.5874 16.4766 40.6679 15.4332 39.9861 14.0902C39.3249 12.7266 38.9943 11.1563 38.9943 9.37939ZM51.9491 9.41039C51.9491 8.08805 51.5772 7.04465 50.8334 6.28017C50.1102 5.5157 49.2218 5.13346 48.168 5.13346C47.1143 5.13346 46.2155 5.5157 45.4717 6.28017C44.7486 7.02399 44.387 8.05706 44.387 9.37939C44.387 10.7017 44.7486 11.7555 45.4717 12.5406C46.2155 13.3051 47.1143 13.6873 48.168 13.6873C49.2218 13.6873 50.1102 13.3051 50.8334 12.5406C51.5772 11.7761 51.9491 10.7327 51.9491 9.41039Z" fill="#090A0A"/>
<path d="M60.0291 9.41039C60.0291 7.61284 60.3907 6.04257 61.1138 4.69957C61.8576 3.35658 62.8804 2.3235 64.182 1.60035C65.5044 0.877201 67.0127 0.515625 68.7069 0.515625C70.8764 0.515625 72.6842 1.08382 74.1305 2.2202C75.5975 3.35658 76.5583 4.95784 77.0128 7.02399H71.3722C70.897 5.70165 69.9776 5.04049 68.6139 5.04049C67.6428 5.04049 66.868 5.42272 66.2895 6.1872C65.711 6.93101 65.4217 8.00541 65.4217 9.41039C65.4217 10.8154 65.711 11.9001 66.2895 12.6646C66.868 13.4084 67.6428 13.7803 68.6139 13.7803C69.9776 13.7803 70.897 13.1191 71.3722 11.7968H77.0128C76.5583 13.8216 75.5975 15.4125 74.1305 16.5696C72.6636 17.7266 70.8557 18.3051 68.7069 18.3051C67.0127 18.3051 65.5044 17.9436 64.182 17.2204C62.8804 16.4973 61.8576 15.4642 61.1138 14.1212C60.3907 12.7782 60.0291 11.2079 60.0291 9.41039Z" fill="#090A0A"/>
<path d="M82.327 18.3051C81.3972 18.3051 80.6328 18.0365 80.0336 17.4993C79.4551 16.9415 79.1658 16.2597 79.1658 15.4539C79.1658 14.6274 79.4551 13.9352 80.0336 13.3774C80.6328 12.8195 81.3972 12.5406 82.327 12.5406C83.2361 12.5406 83.9799 12.8195 84.5584 13.3774C85.1576 13.9352 85.4572 14.6274 85.4572 15.4539C85.4572 16.2597 85.1576 16.9415 84.5584 17.4993C83.9799 18.0365 83.2361 18.3051 82.327 18.3051Z" fill="#090A0A"/>
</svg>
