<svg width="81" height="93" viewBox="0 0 81 93" fill="none" xmlns="http://www.w3.org/2000/svg">
<path d="M11.0618 15.9406C10.2946 16.2531 9.92595 17.1284 10.2384 17.8957C10.5509 18.6629 11.4262 19.0315 12.1935 18.719L11.0618 15.9406ZM36.3826 13.9518L36.6261 12.4717L36.3826 13.9518ZM60.6583 30.1016L62.0684 29.59L60.6583 30.1016ZM48.7237 70.2153L50.0248 70.9618L48.7237 70.2153ZM40.1574 82.8364L41.3201 83.7841L40.1574 82.8364ZM12.1935 18.719C20.7211 15.2458 28.6528 14.1999 36.139 15.4319L36.6261 12.4717C28.5023 11.1348 20.0086 12.2967 11.0618 15.9406L12.1935 18.719ZM36.139 15.4319C47.3429 17.2758 56.2798 22.4335 59.2483 30.6133L62.0684 29.59C58.55 19.895 48.2533 14.3852 36.6261 12.4717L36.139 15.4319ZM59.2483 30.6133C61.2436 36.1114 60.2976 42.4154 57.7679 49.1616C55.2417 55.8986 51.2394 62.817 47.4227 69.4687L50.0248 70.9618C53.8073 64.3698 57.9479 57.2263 60.577 50.2149C63.2026 43.2128 64.4243 36.0819 62.0684 29.59L59.2483 30.6133ZM47.4227 69.4687C44.9709 73.7416 42.2923 77.8436 38.9948 81.8886L41.3201 83.7841C44.7457 79.5819 47.5144 75.3369 50.0248 70.9618L47.4227 69.4687ZM38.9948 81.8886C38.6124 82.3577 38.1407 83.0149 37.8275 83.4181C37.459 83.8925 37.1155 84.2848 36.7401 84.5972L38.6588 86.9034C39.2804 86.3863 39.779 85.7963 40.1967 85.2584C40.6698 84.6494 40.9286 84.2644 41.3201 83.7841L38.9948 81.8886Z" fill="#DE006B"/>
<ellipse cx="5.00005" cy="5.00001" rx="5.00005" ry="5.00001" transform="matrix(0.889494 -0.456948 0.456957 0.889489 30.9688 83.5859)" fill="#DE006B"/>
</svg>
