<svg width="215" height="111" viewBox="0 0 215 111" fill="none" xmlns="http://www.w3.org/2000/svg">
<path d="M214.072 84.2872C214.201 85.939 212.967 87.3828 211.315 87.5121C209.663 87.6413 208.219 86.4071 208.09 84.7553L214.072 84.2872ZM190.334 36.4876L192.527 34.4415L190.334 36.4876ZM121.906 5.17607L121.753 2.17994L121.906 5.17607ZM36.8312 59.5615L34.6725 57.4783L36.8312 59.5615ZM15.7182 85.4758L13.2106 83.829L15.7182 85.4758ZM208.09 84.7553C206.664 66.5332 200.005 51.257 188.14 38.5337L192.527 34.4415C205.354 48.1944 212.544 64.7624 214.072 84.2872L208.09 84.7553ZM188.14 38.5337C170.485 19.6034 146.809 6.91251 122.058 8.17219L121.753 2.17994C148.786 0.804077 174.068 14.648 192.527 34.4415L188.14 38.5337ZM122.058 8.17219C105.486 9.01563 90.7242 16.1097 77.0445 26.202C63.3326 36.3179 50.9269 49.2751 38.99 61.6447L34.6725 57.4783C46.5235 45.1976 59.2877 31.8459 73.4824 21.3737C87.7093 10.8778 103.59 3.10436 121.753 2.17994L122.058 8.17219ZM38.99 61.6447C31.3098 69.6033 24.3308 77.8268 18.2258 87.1226L13.2106 83.829C19.5791 74.132 26.8196 65.6159 34.6725 57.4783L38.99 61.6447ZM18.2258 87.1226C17.5163 88.2029 16.427 89.6282 15.8142 90.5066C15.0733 91.5685 14.5408 92.4716 14.2384 93.3321L8.57775 91.3429C9.15289 89.7062 10.0575 88.2716 10.8934 87.0735C11.8573 85.6919 12.4843 84.935 13.2106 83.829L18.2258 87.1226Z" fill="#DE006B"/>
<circle cx="10" cy="10" r="10" transform="matrix(0.0417666 -0.999127 -0.999127 -0.0417666 20.9805 102.748)" fill="#DE006B"/>
</svg>
