<svg width="152" height="165" viewBox="0 0 152 165" fill="none" xmlns="http://www.w3.org/2000/svg">
<path d="M146.993 33.2299C148.225 34.3383 150.122 34.2384 151.23 33.0069C152.338 31.7754 152.238 29.8785 151.007 28.7701L146.993 33.2299ZM89.9115 3.94562L90.3541 0.978443L89.9115 3.94562ZM22.5857 36.2142L19.7014 35.3891L22.5857 36.2142ZM40.8515 91.7633L41.1427 88.7775L40.8515 91.7633ZM52.9116 71.5279L50.79 73.6489L52.9116 71.5279ZM15.092 60.2806L13.556 57.7036L15.092 60.2806ZM3.96863 98.5903L1.02718 99.1801L3.96863 98.5903ZM66.0921 150.614C67.5359 149.801 68.0474 147.972 67.2347 146.528L53.9899 123C53.1771 121.556 51.3478 121.045 49.904 121.858C48.4602 122.67 47.9487 124.5 48.7614 125.943L60.5345 146.857L39.6206 158.631C38.1768 159.443 37.6652 161.273 38.478 162.716C39.2908 164.16 41.1201 164.672 42.5639 163.859L66.0921 150.614ZM151.007 28.7701C143.457 21.9753 136.469 16.1891 127.217 11.5264C117.964 6.8634 106.612 3.40319 90.3541 0.978443L89.469 6.9128C105.308 9.27508 115.999 12.5921 124.517 16.8845C133.035 21.1772 139.543 26.5247 146.993 33.2299L151.007 28.7701ZM90.3541 0.978443C75.3498 -1.25937 59.8 0.321392 46.9404 5.93295C34.044 11.5606 23.7263 21.3196 19.7014 35.3891L25.47 37.0393C28.8991 25.0524 37.7062 16.5089 49.3401 11.4322C61.0109 6.33938 75.3969 4.81403 89.469 6.9128L90.3541 0.978443ZM19.7014 35.3891C17.1305 44.3757 13.7357 58.0284 15.13 69.9462C15.8338 75.9616 17.7838 81.7914 21.9123 86.3471C26.0827 90.949 32.1866 93.9323 40.5602 94.7491L41.1427 88.7775C33.9451 88.0753 29.3368 85.6048 26.3583 82.3181C23.338 78.9853 21.7028 74.4917 21.0894 69.249C19.8494 58.6504 22.8929 46.0476 25.47 37.0393L19.7014 35.3891ZM40.5602 94.7491C48.9749 95.57 55.6302 92.5162 58.6264 87.0693C61.6532 81.567 60.3393 74.7145 55.0332 69.4069L50.79 73.6489C54.6074 77.4674 54.8569 81.4733 53.3693 84.1775C51.8513 86.9372 47.9148 89.4381 41.1427 88.7775L40.5602 94.7491ZM55.0332 69.4069C51.2252 65.5979 44.2729 60.861 36.7646 57.9304C29.3921 55.0528 20.5201 53.5524 13.556 57.7036L16.6281 62.8575C21.1093 60.1863 27.6537 60.8152 34.583 63.5197C41.3764 66.1713 47.6112 70.4693 50.79 73.6489L55.0332 69.4069ZM13.556 57.7036C6.34763 62.0004 2.69599 69.6784 1.09214 77.3273C-0.518766 85.0098 -0.181135 93.1542 1.02718 99.1801L6.91007 98.0005C5.83904 92.6592 5.542 85.3423 6.96444 78.5586C8.39394 71.7412 11.4437 65.9478 16.6281 62.8575L13.556 57.7036ZM1.02718 99.1801C3.62538 112.137 12.9896 123.257 24.6171 131.94C36.2923 140.659 50.6051 147.196 63.8125 150.889L65.4284 145.111C52.8316 141.588 39.2107 135.35 28.2072 127.133C17.1559 118.88 9.09634 108.903 6.91007 98.0005L1.02718 99.1801Z" fill="#DE006B"/>
</svg>
