<svg width="81" height="93" viewBox="0 0 81 93" fill="none" xmlns="http://www.w3.org/2000/svg">
<path d="M11.0618 15.9426C10.2946 16.2551 9.92595 17.1304 10.2384 17.8976C10.5509 18.6648 11.4262 19.0335 12.1935 18.721L11.0618 15.9426ZM36.3826 13.9538L36.6261 12.4737L36.3826 13.9538ZM60.6583 30.1036L62.0684 29.5919L60.6583 30.1036ZM48.7237 70.2172L50.0248 70.9638L48.7237 70.2172ZM40.1574 82.8383L41.3201 83.7861L40.1574 82.8383ZM12.1935 18.721C20.7211 15.2478 28.6528 14.2019 36.139 15.4339L36.6261 12.4737C28.5023 11.1367 20.0086 12.2987 11.0618 15.9426L12.1935 18.721ZM36.139 15.4339C47.3429 17.2777 56.2798 22.4354 59.2483 30.6153L62.0684 29.5919C58.55 19.8969 48.2533 14.3872 36.6261 12.4737L36.139 15.4339ZM59.2483 30.6153C61.2436 36.1133 60.2976 42.4174 57.7679 49.1636C55.2417 55.9006 51.2394 62.8189 47.4227 69.4707L50.0248 70.9638C53.8073 64.3717 57.9479 57.2282 60.577 50.2169C63.2026 43.2147 64.4243 36.0839 62.0684 29.5919L59.2483 30.6153ZM47.4227 69.4707C44.9709 73.7436 42.2923 77.8456 38.9948 81.8905L41.3201 83.7861C44.7457 79.5839 47.5144 75.3388 50.0248 70.9638L47.4227 69.4707ZM38.9948 81.8905C38.6124 82.3596 38.1407 83.0169 37.8275 83.42C37.459 83.8945 37.1155 84.2867 36.7401 84.5991L38.6588 86.9053C39.2804 86.3882 39.779 85.7982 40.1967 85.2604C40.6698 84.6513 40.9286 84.2663 41.3201 83.7861L38.9948 81.8905Z" fill="#DE006B"/>
<ellipse cx="5.00005" cy="5.00001" rx="5.00005" ry="5.00001" transform="matrix(0.889494 -0.456948 0.456957 0.889489 30.9688 83.5879)" fill="#DE006B"/>
</svg>
