<svg width="162" height="185" viewBox="0 0 162 185" fill="none" xmlns="http://www.w3.org/2000/svg">
<path d="M22.1274 31.8813C20.5929 32.5063 19.8557 34.2568 20.4806 35.7913C21.1056 37.3258 22.8562 38.0631 24.3906 37.4381L22.1274 31.8813ZM72.7682 27.9037L73.2554 24.9435L72.7682 27.9037ZM121.319 60.2033L124.139 59.1799L121.319 60.2033ZM97.4502 140.431L100.052 141.924L97.4502 140.431ZM80.3179 165.673L82.6432 167.568L80.3179 165.673ZM24.3906 37.4381C41.4456 30.4917 57.3088 28.3998 72.2811 30.8638L73.2554 24.9435C57.0079 22.2696 40.0207 24.5935 22.1274 31.8813L24.3906 37.4381ZM72.2811 30.8638C94.6885 34.5515 112.562 44.867 118.499 61.2267L124.139 59.1799C117.103 39.7899 96.5094 28.7705 73.2554 24.9435L72.2811 30.8638ZM118.499 61.2267C122.49 72.2228 120.598 84.8309 115.538 98.3233C110.486 111.797 102.482 125.634 94.8481 138.938L100.052 141.924C107.617 128.74 115.898 114.453 121.156 100.43C126.408 86.4255 128.851 72.1639 124.139 59.1799L118.499 61.2267ZM94.8481 138.938C89.9447 147.483 84.5875 155.687 77.9926 163.777L82.6432 167.568C89.4944 159.164 95.0315 150.674 100.052 141.924L94.8481 138.938ZM77.9926 163.777C77.2278 164.715 76.2844 166.03 75.658 166.836C74.921 167.785 74.2341 168.57 73.4832 169.194L77.3207 173.807C78.5637 172.773 79.5609 171.593 80.3965 170.517C81.3427 169.299 81.8602 168.529 82.6432 167.568L77.9926 163.777Z" fill="#DE006B"/>
<circle cx="75.4019" cy="171.501" r="10" transform="rotate(-27.1906 75.4019 171.501)" fill="#DE006B"/>
</svg>
