<svg width="147" height="137" viewBox="0 0 147 137" fill="none" xmlns="http://www.w3.org/2000/svg">
<path d="M139.977 14.2566C141.223 13.1649 141.348 11.2696 140.257 10.0232C139.165 8.77694 137.27 8.65162 136.023 9.74335L139.977 14.2566ZM6.00653 124.802C5.89723 126.455 7.14884 127.884 8.80208 127.993L35.7433 129.775C37.3965 129.884 38.8253 128.632 38.9346 126.979C39.0439 125.326 37.7923 123.897 36.1391 123.788L12.1914 122.204L13.7747 98.2567C13.884 96.6035 12.6324 95.1747 10.9791 95.0654C9.3259 94.956 7.89707 96.2077 7.78776 97.8609L6.00653 124.802ZM136.023 9.74335L7.02324 122.743L10.9767 127.257L139.977 14.2566L136.023 9.74335Z" fill="#DE006B"/>
</svg>
