<svg width="177" height="54" viewBox="0 0 177 54" fill="none" xmlns="http://www.w3.org/2000/svg">
<g clip-path="url(#clip0_486_12869)">
<path d="M166.134 0H9.74824C4.36444 0 0 4.36444 0 9.74824V43.7633C0 49.1472 4.36444 53.5116 9.74824 53.5116H166.134C171.518 53.5116 175.883 49.1472 175.883 43.7633V9.74824C175.883 4.36444 171.518 0 166.134 0Z" fill="#090A0A"/>
<path d="M37.0109 26.6064C36.9721 22.4035 40.5404 20.3587 40.7037 20.2636C38.6827 17.3908 35.5503 16.9982 34.4496 16.967C31.8188 16.697 29.2668 18.5018 27.9268 18.5018C26.5598 18.5018 24.4961 16.9931 22.2719 17.0374C19.4097 17.0804 16.7321 18.6961 15.2634 21.2052C12.2328 26.3209 14.4931 33.8386 17.3968 37.9737C18.8493 39.9989 20.5465 42.2601 22.768 42.1806C24.9415 42.0932 25.7533 40.8296 28.3761 40.8296C30.9748 40.8296 31.7371 42.1806 34.0029 42.1297C36.3354 42.0932 37.8039 40.0953 39.2056 38.052C40.8842 35.7308 41.5583 33.4448 41.5851 33.3275C41.5301 33.3091 37.0549 31.6439 37.0109 26.6064Z" fill="white"/>
<path d="M32.7285 14.2463C33.8973 12.8209 34.6972 10.8819 34.4752 8.91406C32.7833 8.98709 30.6674 10.0551 29.449 11.4491C28.3709 12.6775 27.408 14.691 27.6568 16.5844C29.5573 16.7227 31.5086 15.6495 32.7285 14.2463Z" fill="white"/>
<path d="M68.468 41.8893H65.4305L63.7667 36.7918H57.9835L56.3985 41.8893H53.4414L59.1712 24.5352H62.7102L68.468 41.8893ZM63.2652 34.6532L61.7605 30.1216C61.6014 29.6587 61.3031 28.5686 60.8631 26.8524H60.8096C60.6344 27.5905 60.3522 28.6806 59.9643 30.1216L58.4863 34.6532H63.2652Z" fill="white"/>
<path d="M83.2033 35.4789C83.2033 37.6072 82.6135 39.2894 81.4339 40.5242C80.3772 41.6236 79.0652 42.1725 77.4989 42.1725C75.8084 42.1725 74.5941 41.5805 73.8544 40.3964H73.8009V46.9884H70.9494V33.4955C70.9494 32.1576 70.9133 30.7843 70.8438 29.376H73.3514L73.5106 31.3594H73.5641C74.515 29.8651 75.9582 29.1191 77.8949 29.1191C79.4089 29.1191 80.6729 29.702 81.684 30.8691C82.6978 32.0376 83.2033 33.5737 83.2033 35.4789ZM80.2983 35.5807C80.2983 34.3627 80.0175 33.3586 79.453 32.5684C78.8365 31.7442 78.0086 31.3322 76.9707 31.3322C76.2672 31.3322 75.6278 31.5616 75.0567 32.014C74.4843 32.4706 74.1099 33.0665 73.9346 33.8046C73.8463 34.1488 73.8022 34.4305 73.8022 34.6522V36.7387C73.8022 37.6489 74.0884 38.417 74.6609 39.0442C75.2333 39.6714 75.9769 39.9843 76.8917 39.9843C77.9658 39.9843 78.8016 39.5801 79.3995 38.7742C79.9987 37.967 80.2983 36.903 80.2983 35.5807Z" fill="white"/>
<path d="M97.9636 35.4789C97.9636 37.6072 97.3738 39.2894 96.1929 40.5242C95.1376 41.6236 93.8256 42.1725 92.2594 42.1725C90.5688 42.1725 89.3544 41.5805 88.6161 40.3964H88.5626V46.9884H85.7111V33.4955C85.7111 32.1576 85.675 30.7843 85.6055 29.376H88.1131L88.2723 31.3594H88.3258C89.2755 29.8651 90.7186 29.1191 92.6566 29.1191C94.1693 29.1191 95.4332 29.702 96.447 30.8691C97.4568 32.0376 97.9636 33.5737 97.9636 35.4789ZM95.0588 35.5807C95.0588 34.3627 94.7765 33.3586 94.2121 32.5684C93.5955 31.7442 92.7703 31.3322 91.731 31.3322C91.0262 31.3322 90.3883 31.5616 89.8157 32.014C89.2433 32.4706 88.8702 33.0665 88.695 33.8046C88.6081 34.1488 88.5626 34.4305 88.5626 34.6522V36.7387C88.5626 37.6489 88.8488 38.417 89.4185 39.0442C89.991 39.6701 90.7346 39.9843 91.6522 39.9843C92.7261 39.9843 93.5621 39.5801 94.1599 38.7742C94.7591 37.967 95.0588 36.903 95.0588 35.5807Z" fill="white"/>
<path d="M114.468 37.0231C114.468 38.4993 113.942 39.7003 112.887 40.6274C111.727 41.6407 110.113 42.1466 108.039 42.1466C106.123 42.1466 104.588 41.7867 103.426 41.0656L104.086 38.7483C105.338 39.4864 106.712 39.8568 108.209 39.8568C109.283 39.8568 110.118 39.6194 110.719 39.1474C111.317 38.6752 111.615 38.0415 111.615 37.2513C111.615 36.5471 111.369 35.9537 110.876 35.4726C110.385 34.9914 109.565 34.5441 108.42 34.1307C105.304 32.9975 103.747 31.3375 103.747 29.1544C103.747 27.7279 104.292 26.5582 105.385 25.648C106.474 24.7364 107.926 24.2812 109.743 24.2812C111.362 24.2812 112.708 24.5564 113.782 25.1054L113.069 27.3718C112.066 26.8399 110.932 26.5738 109.662 26.5738C108.659 26.5738 107.876 26.815 107.314 27.295C106.839 27.724 106.601 28.2469 106.601 28.8663C106.601 29.5522 106.872 30.1195 107.418 30.5655C107.893 30.9775 108.756 31.4236 110.007 31.9047C111.539 32.5059 112.664 33.2087 113.387 34.0146C114.108 34.818 114.468 35.8233 114.468 37.0231Z" fill="white"/>
<path d="M123.894 31.4623H120.751V37.5378C120.751 39.0831 121.305 39.855 122.415 39.855C122.925 39.855 123.347 39.812 123.682 39.726L123.761 41.8372C123.199 42.0419 122.459 42.145 121.543 42.145C120.417 42.145 119.537 41.8098 118.902 41.1408C118.269 40.4706 117.951 39.3465 117.951 37.7673V31.4597H116.078V29.3732H117.951V27.082L120.751 26.2578V29.3732H123.894V31.4623Z" fill="white"/>
<path d="M138.079 35.5304C138.079 37.4539 137.514 39.0331 136.388 40.268C135.207 41.5395 133.64 42.1732 131.685 42.1732C129.803 42.1732 128.304 41.5642 127.185 40.3463C126.067 39.1282 125.508 37.5908 125.508 35.7377C125.508 33.7986 126.083 32.2104 127.237 30.9754C128.389 29.7392 129.943 29.1211 131.897 29.1211C133.78 29.1211 135.295 29.73 136.439 30.9493C137.534 32.1321 138.079 33.659 138.079 35.5304ZM135.12 35.6204C135.12 34.4663 134.868 33.4766 134.355 32.6511C133.757 31.6522 132.903 31.1541 131.796 31.1541C130.65 31.1541 129.779 31.6535 129.181 32.6511C128.669 33.4779 128.415 34.4832 128.415 35.6726C128.415 36.8266 128.669 37.8164 129.181 38.6406C129.797 39.6394 130.659 40.1375 131.77 40.1375C132.858 40.1375 133.714 39.629 134.33 38.6145C134.856 37.7734 135.12 36.7732 135.12 35.6204Z" fill="white"/>
<path d="M147.343 31.8211C147.061 31.7702 146.76 31.7442 146.445 31.7442C145.441 31.7442 144.665 32.1132 144.12 32.8527C143.645 33.5046 143.408 34.3287 143.408 35.3237V41.8896H140.557L140.584 33.3169C140.584 31.8746 140.547 30.5614 140.477 29.3773H142.961L143.065 31.7715H143.144C143.445 30.9488 143.92 30.2862 144.569 29.7894C145.204 29.3421 145.891 29.1191 146.631 29.1191C146.893 29.1191 147.131 29.1375 147.343 29.17V31.8211Z" fill="white"/>
<path d="M160.097 35.0427C160.097 35.5408 160.064 35.9608 159.993 36.3037H151.438C151.473 37.54 151.885 38.4854 152.68 39.1374C153.401 39.7203 154.333 40.0124 155.478 40.0124C156.745 40.0124 157.9 39.8155 158.94 39.4204L159.386 41.3503C158.171 41.8668 156.738 42.1236 155.084 42.1236C153.093 42.1236 151.532 41.5525 150.395 40.4114C149.26 39.2703 148.691 37.7382 148.691 35.816C148.691 33.9291 149.22 32.3576 150.278 31.1045C151.386 29.7666 152.881 29.0977 154.765 29.0977C156.615 29.0977 158.015 29.7666 158.966 31.1045C159.719 32.1674 160.097 33.4818 160.097 35.0427ZM157.379 34.3216C157.398 33.4974 157.211 32.7855 156.825 32.1843C156.331 31.4109 155.573 31.025 154.552 31.025C153.62 31.025 152.862 31.4018 152.283 32.1581C151.808 32.7593 151.525 33.4804 151.438 34.3203H157.379V34.3216Z" fill="white"/>
<path d="M54.6133 19.2087V10.2422H57.7095C58.597 10.2422 59.3628 10.4218 60.0068 10.7809C60.6507 11.1359 61.1441 11.6499 61.4868 12.3228C61.8336 12.9915 62.007 13.7883 62.007 14.7131C62.007 15.6419 61.8336 16.4449 61.4868 17.1219C61.14 17.7948 60.6405 18.3107 59.9882 18.6699C59.3359 19.0291 58.5599 19.2087 57.6599 19.2087H54.6133ZM57.5732 17.8092C59.4556 17.8175 60.3969 16.7854 60.3969 14.7131C60.3969 13.6893 60.1636 12.9214 59.6971 12.4095C59.2306 11.8935 58.5391 11.6375 57.6228 11.6417H56.2233V17.8092H57.5732ZM66.4822 19.3449C65.8341 19.3449 65.2664 19.2005 64.7793 18.9114C64.2963 18.6224 63.9228 18.2159 63.6585 17.6916C63.3943 17.1672 63.2623 16.5624 63.2623 15.8772C63.2623 15.1837 63.3943 14.5748 63.6585 14.0504C63.9228 13.5262 64.2963 13.1196 64.7793 12.8306C65.2664 12.5416 65.8341 12.3971 66.4822 12.3971C67.1304 12.3971 67.698 12.5416 68.1852 12.8306C68.6723 13.1196 69.0458 13.5262 69.3059 14.0504C69.5702 14.5748 69.7022 15.1837 69.7022 15.8772C69.7022 16.5624 69.5702 17.1672 69.3059 17.6916C69.0458 18.2159 68.6723 18.6224 68.1852 18.9114C67.698 19.2005 67.1304 19.3449 66.4822 19.3449ZM64.8599 15.8648C64.8599 16.2858 64.9197 16.6636 65.0394 16.9981C65.1632 17.3324 65.347 17.5966 65.5905 17.7906C65.8382 17.9847 66.1396 18.0817 66.4946 18.0817C66.8414 18.0817 67.1365 17.9847 67.3801 17.7906C67.6236 17.5966 67.8053 17.3324 67.9251 16.9981C68.0489 16.6636 68.1087 16.2858 68.1046 15.8648C68.1087 15.4438 68.0489 15.066 67.9251 14.7317C67.8053 14.3972 67.6236 14.133 67.3801 13.939C67.1365 13.745 66.8414 13.6479 66.4946 13.6479C66.1396 13.6479 65.8382 13.745 65.5905 13.939C65.347 14.133 65.1632 14.3972 65.0394 14.7317C64.9197 15.066 64.8599 15.4438 64.8599 15.8648ZM70.4249 12.4838H72.0349L73.2239 17.2147H73.2859L74.4872 12.4838H76.0848L77.2985 17.19H77.3604L78.537 12.4838H80.1469L78.2396 19.2087H76.5925L75.3292 14.6511H75.2426L73.9794 19.2087H72.3323L70.4249 12.4838ZM82.9255 19.2087H81.3403V12.4838H82.8512V13.6232H82.9379C83.0948 13.2393 83.3424 12.9399 83.681 12.7253C84.0237 12.5065 84.4406 12.3971 84.9318 12.3971C85.3983 12.3971 85.805 12.4962 86.1518 12.6943C86.4986 12.8925 86.7648 13.1814 86.9506 13.5612C87.1405 13.941 87.2354 14.3951 87.2354 14.9236V19.2087H85.6625V15.1713C85.6625 14.7172 85.547 14.3643 85.3157 14.1124C85.0846 13.8564 84.7626 13.7305 84.3498 13.7346C84.069 13.7305 83.8214 13.7903 83.6068 13.9143C83.392 14.034 83.2249 14.2115 83.1052 14.4467C82.9854 14.678 82.9255 14.9525 82.9255 15.2704V19.2087ZM90.5218 19.2087H88.9366V10.2422H90.5218V19.2087ZM95.1581 19.3449C94.51 19.3449 93.9423 19.2005 93.4552 18.9114C92.9722 18.6224 92.5987 18.2159 92.3344 17.6916C92.0702 17.1672 91.9382 16.5624 91.9382 15.8772C91.9382 15.1837 92.0702 14.5748 92.3344 14.0504C92.5987 13.5262 92.9722 13.1196 93.4552 12.8306C93.9423 12.5416 94.51 12.3971 95.1581 12.3971C95.8063 12.3971 96.3739 12.5416 96.861 12.8306C97.3482 13.1196 97.7217 13.5262 97.9818 14.0504C98.2461 14.5748 98.3781 15.1837 98.3781 15.8772C98.3781 16.5624 98.2461 17.1672 97.9818 17.6916C97.7217 18.2159 97.3482 18.6224 96.861 18.9114C96.3739 19.2005 95.8063 19.3449 95.1581 19.3449ZM93.5358 15.8648C93.5358 16.2858 93.5956 16.6636 93.7153 16.9981C93.8391 17.3324 94.0229 17.5966 94.2664 17.7906C94.5141 17.9847 94.8155 18.0817 95.1705 18.0817C95.5172 18.0817 95.8124 17.9847 96.056 17.7906C96.2995 17.5966 96.4812 17.3324 96.601 16.9981C96.7248 16.6636 96.7846 16.2858 96.7805 15.8648C96.7846 15.4438 96.7248 15.066 96.601 14.7317C96.4812 14.3972 96.2995 14.133 96.056 13.939C95.8124 13.745 95.5172 13.6479 95.1705 13.6479C94.8155 13.6479 94.5141 13.745 94.2664 13.939C94.0229 14.133 93.8391 14.3972 93.7153 14.7317C93.5956 15.066 93.5358 15.4438 93.5358 15.8648ZM99.4849 17.3138C99.4849 16.6244 99.718 16.1249 100.185 15.8152C100.655 15.5056 101.256 15.3281 101.987 15.2828C102.362 15.2539 102.938 15.2229 103.714 15.1898L103.708 14.6511C103.708 14.3168 103.603 14.0587 103.392 13.877C103.186 13.6913 102.886 13.5984 102.494 13.5984C102.152 13.5984 101.871 13.6707 101.652 13.8152C101.433 13.9596 101.293 14.1558 101.231 14.4035H99.7078C99.7449 14.0195 99.8812 13.6769 100.116 13.3756C100.352 13.07 100.676 12.8306 101.089 12.6572C101.501 12.4838 101.982 12.3971 102.531 12.3971C103.002 12.3971 103.444 12.4714 103.857 12.62C104.274 12.7645 104.614 13.0101 104.878 13.3569C105.147 13.6995 105.281 14.1516 105.281 14.7131V19.2087H103.77V18.2799H103.72C103.555 18.5936 103.308 18.8495 102.977 19.0477C102.647 19.2458 102.234 19.3449 101.739 19.3449C101.305 19.3449 100.917 19.2664 100.575 19.1095C100.236 18.9527 99.9699 18.7236 99.7758 18.4223C99.5818 18.1167 99.4849 17.7473 99.4849 17.3138ZM101.008 17.3014C101.008 17.5821 101.111 17.7989 101.318 17.9517C101.528 18.1043 101.805 18.1808 102.147 18.1808C102.457 18.1808 102.732 18.1188 102.971 17.995C103.211 17.8711 103.394 17.7039 103.522 17.4934C103.654 17.2788 103.72 17.0454 103.72 16.7937L103.714 16.2426C103.508 16.2507 103.262 16.2652 102.977 16.2858C102.697 16.3024 102.449 16.3189 102.234 16.3354C101.85 16.3684 101.549 16.4655 101.33 16.6265C101.115 16.7874 101.008 17.0124 101.008 17.3014ZM109.459 19.3325C108.926 19.3284 108.45 19.1901 108.028 18.9176C107.612 18.641 107.283 18.2406 107.044 17.7163C106.805 17.1921 106.685 16.5708 106.685 15.8524C106.685 15.1259 106.807 14.5026 107.05 13.9824C107.294 13.4623 107.626 13.068 108.047 12.7996C108.468 12.5313 108.943 12.3971 109.471 12.3971C109.996 12.3971 110.404 12.5148 110.697 12.7501C110.995 12.9813 111.226 13.2599 111.391 13.5861H111.453V10.2422H113.026V19.2087H111.478V18.1436H111.391C110.986 18.9321 110.342 19.3284 109.459 19.3325ZM108.295 15.8401C108.295 16.2694 108.357 16.6491 108.48 16.9795C108.604 17.3097 108.786 17.5676 109.025 17.7535C109.265 17.9393 109.554 18.0321 109.892 18.0321C110.227 18.0321 110.514 17.9413 110.753 17.7597C110.993 17.578 111.174 17.322 111.298 16.9918C111.426 16.6615 111.49 16.2776 111.49 15.8401C111.49 15.1796 111.35 14.6574 111.069 14.2733C110.792 13.8853 110.4 13.6893 109.892 13.6851C109.55 13.6851 109.259 13.778 109.019 13.9637C108.78 14.1454 108.598 14.3994 108.474 14.7254C108.355 15.0474 108.295 15.4189 108.295 15.8401ZM120.948 19.3449C120.3 19.3449 119.733 19.2005 119.246 18.9114C118.763 18.6224 118.389 18.2159 118.125 17.6916C117.861 17.1672 117.728 16.5624 117.728 15.8772C117.728 15.1837 117.861 14.5748 118.125 14.0504C118.389 13.5262 118.763 13.1196 119.246 12.8306C119.733 12.5416 120.3 12.3971 120.948 12.3971C121.596 12.3971 122.164 12.5416 122.651 12.8306C123.138 13.1196 123.512 13.5262 123.772 14.0504C124.036 14.5748 124.168 15.1837 124.168 15.8772C124.168 16.5624 124.036 17.1672 123.772 17.6916C123.512 18.2159 123.138 18.6224 122.651 18.9114C122.164 19.2005 121.596 19.3449 120.948 19.3449ZM119.326 15.8648C119.326 16.2858 119.386 16.6636 119.506 16.9981C119.629 17.3324 119.813 17.5966 120.057 17.7906C120.304 17.9847 120.606 18.0817 120.961 18.0817C121.308 18.0817 121.603 17.9847 121.846 17.7906C122.09 17.5966 122.271 17.3324 122.391 16.9981C122.515 16.6636 122.575 16.2858 122.571 15.8648C122.575 15.4438 122.515 15.066 122.391 14.7317C122.271 14.3972 122.09 14.133 121.846 13.939C121.603 13.745 121.308 13.6479 120.961 13.6479C120.606 13.6479 120.304 13.745 120.057 13.939C119.813 14.133 119.629 14.3972 119.506 14.7317C119.386 15.066 119.326 15.4438 119.326 15.8648ZM127.17 19.2087H125.585V12.4838H127.096V13.6232H127.182C127.339 13.2393 127.587 12.9399 127.925 12.7253C128.268 12.5065 128.684 12.3971 129.176 12.3971C129.642 12.3971 130.05 12.4962 130.397 12.6943C130.742 12.8925 131.009 13.1814 131.194 13.5612C131.385 13.941 131.48 14.3951 131.48 14.9236V19.2087H129.907V15.1713C129.907 14.7172 129.791 14.3643 129.56 14.1124C129.329 13.8564 129.007 13.7305 128.594 13.7346C128.313 13.7305 128.066 13.7903 127.851 13.9143C127.636 14.034 127.469 14.2115 127.35 14.4467C127.23 14.678 127.17 14.9525 127.17 15.2704V19.2087ZM139.737 13.6975H138.411V17.19C138.411 17.5038 138.479 17.7122 138.616 17.8154C138.756 17.9186 138.954 17.9702 139.21 17.9702C139.388 17.9702 139.592 17.9619 139.824 17.9454V19.2335C139.568 19.2747 139.264 19.2953 138.913 19.2953C138.509 19.2953 138.15 19.2272 137.836 19.091C137.523 18.9549 137.277 18.7484 137.099 18.4718C136.921 18.1952 136.835 17.8546 136.839 17.4501V13.6975H135.873V12.4838H136.839V10.8738H138.411V12.4838H139.737V13.6975ZM142.874 19.2087H141.289V10.2422H142.837V13.6232H142.924C143.082 13.231 143.326 12.9297 143.662 12.7191C143.996 12.5045 144.415 12.3971 144.918 12.3971C145.385 12.3971 145.791 12.4962 146.138 12.6943C146.489 12.8883 146.759 13.1753 146.949 13.5551C147.14 13.9349 147.234 14.391 147.234 14.9236V19.2087H145.662V15.1713C145.657 14.7131 145.539 14.358 145.308 14.1062C145.077 13.8544 144.753 13.7305 144.336 13.7346C144.051 13.7305 143.797 13.7903 143.575 13.9143C143.356 14.034 143.184 14.2115 143.061 14.4467C142.937 14.678 142.874 14.9525 142.874 15.2704V19.2087ZM151.907 19.3449C151.239 19.3449 150.658 19.2046 150.168 18.9239C149.676 18.6389 149.299 18.2365 149.035 17.7163C148.77 17.1962 148.638 16.5873 148.638 15.8896C148.638 15.2002 148.77 14.5934 149.035 14.0691C149.299 13.5406 149.67 13.1298 150.149 12.8367C150.632 12.5437 151.189 12.3971 151.821 12.3971C152.391 12.3971 152.907 12.521 153.369 12.7687C153.835 13.0123 154.204 13.3879 154.477 13.8957C154.754 14.4034 154.892 15.035 154.892 15.7905V16.2858H150.199C150.206 16.6615 150.281 16.9877 150.422 17.2643C150.566 17.5368 150.763 17.7453 151.016 17.8897C151.272 18.0341 151.569 18.1065 151.907 18.1065C152.246 18.1065 152.533 18.0445 152.769 17.9207C153.003 17.7926 153.175 17.6235 153.282 17.413H154.83C154.736 17.801 154.556 18.1416 154.291 18.4346C154.028 18.7236 153.691 18.9486 153.282 19.1095C152.878 19.2664 152.419 19.3449 151.907 19.3449ZM153.381 15.2084C153.381 14.9071 153.316 14.6366 153.184 14.3972C153.056 14.1536 152.874 13.9637 152.638 13.8276C152.408 13.6913 152.143 13.6232 151.846 13.6232C151.541 13.6232 151.265 13.6954 151.022 13.8399C150.779 13.9802 150.587 14.1723 150.446 14.4159C150.306 14.6594 150.226 14.9236 150.205 15.2084H153.381Z" fill="white"/>
</g>
<defs>
<clipPath id="clip0_486_12869">
<rect width="176.714" height="53.7824" fill="white"/>
</clipPath>
</defs>
</svg>
