<svg width="177" height="54" viewBox="0 0 177 54" fill="none" xmlns="http://www.w3.org/2000/svg">
<g clip-path="url(#clip0_486_12870)">
<path d="M166.158 0H9.77168C4.38788 0 0.0234375 4.36444 0.0234375 9.74824V43.7633C0.0234375 49.1472 4.38788 53.5116 9.77168 53.5116H166.158C171.542 53.5116 175.906 49.1472 175.906 43.7633V9.74824C175.906 4.36444 171.542 0 166.158 0Z" fill="#090A0A"/>
<path d="M88.2215 29.3866C85.3383 29.3866 82.983 31.5291 82.983 34.4848C82.983 37.4167 85.3383 39.5816 88.2215 39.5816C91.1109 39.5816 93.4663 37.4167 93.4663 34.4848C93.4663 31.5291 91.1109 29.3866 88.2215 29.3866ZM88.2215 37.5739C86.6396 37.5739 85.2785 36.299 85.2785 34.4848C85.2785 32.6466 86.6396 31.3942 88.2215 31.3942C89.8036 31.3942 91.1707 32.6466 91.1707 34.4848C91.1707 36.299 89.8036 37.5739 88.2215 37.5739ZM76.7915 29.3866C73.9021 29.3866 71.5529 31.5291 71.5529 34.4848C71.5529 37.4167 73.9021 39.5816 76.7915 39.5816C79.6793 39.5816 82.03 37.4167 82.03 34.4848C82.03 31.5291 79.6793 29.3866 76.7915 29.3866ZM76.7915 37.5739C75.208 37.5739 73.8423 36.299 73.8423 34.4848C73.8423 32.6466 75.208 31.3942 76.7915 31.3942C78.3735 31.3942 79.7345 32.6466 79.7345 34.4848C79.7345 36.299 78.3735 37.5739 76.7915 37.5739ZM63.1902 30.9492V33.1155H68.4886C68.3336 34.326 67.9193 35.216 67.284 35.8361C66.5107 36.5852 65.3061 37.4167 63.1902 37.4167C59.9294 37.4167 57.3762 34.8474 57.3762 31.6638C57.3762 28.4802 59.9294 25.911 63.1902 25.911C64.9532 25.911 66.236 26.5836 67.1827 27.4555L68.7464 25.9289C67.4222 24.6945 65.6606 23.7461 63.1902 23.7461C58.7188 23.7461 54.9609 27.2983 54.9609 31.6638C54.9609 36.0294 58.7188 39.5816 63.1902 39.5816C65.6069 39.5816 67.4222 38.8085 68.8492 37.3583C70.3115 35.9305 70.7672 33.923 70.7672 32.302C70.7672 31.7986 70.7243 31.3357 70.6476 30.9492H63.1902ZM118.808 32.6286C118.376 31.4886 117.046 29.3866 114.336 29.3866C111.651 29.3866 109.415 31.4526 109.415 34.4848C109.415 37.3402 111.628 39.5816 114.594 39.5816C116.992 39.5816 118.376 38.1538 118.946 37.3223L117.166 36.1642C116.572 37.0122 115.763 37.5739 114.594 37.5739C113.432 37.5739 112.599 37.0542 112.065 36.0294L119.049 33.2083L118.808 32.6286ZM111.688 34.326C111.628 32.3605 113.251 31.3537 114.414 31.3537C115.326 31.3537 116.099 31.7986 116.357 32.4354L111.688 34.326ZM106.012 39.2714H108.307V24.2899H106.012V39.2714ZM102.252 30.5223H102.176C101.66 29.926 100.677 29.3866 99.4307 29.3866C96.816 29.3866 94.4253 31.6279 94.4253 34.5013C94.4253 37.3583 96.816 39.5816 99.4307 39.5816C100.677 39.5816 101.66 39.0377 102.176 38.4234H102.252V39.1545C102.252 41.1036 101.186 42.1508 99.4659 42.1508C98.0635 42.1508 97.1935 41.162 96.8344 40.3305L94.838 41.1441C95.4135 42.4954 96.9372 44.1583 99.4659 44.1583C102.157 44.1583 104.428 42.6122 104.428 38.8504V29.6967H102.252V30.5223ZM99.6271 37.5739C98.045 37.5739 96.7208 36.2811 96.7208 34.5013C96.7208 32.7051 98.045 31.3942 99.6271 31.3942C101.186 31.3942 102.415 32.7051 102.415 34.5013C102.415 36.2811 101.186 37.5739 99.6271 37.5739ZM129.555 24.2899H124.065V39.2714H126.354V33.5949H129.555C132.097 33.5949 134.591 31.7986 134.591 28.9417C134.591 26.0863 132.091 24.2899 129.555 24.2899ZM129.614 31.511H126.354V26.3739H129.614C131.324 26.3739 132.3 27.7597 132.3 28.9417C132.3 30.1013 131.324 31.511 129.614 31.511ZM143.767 29.3582C142.112 29.3582 140.393 30.0713 139.686 31.6519L141.717 32.4833C142.155 31.6519 142.959 31.3822 143.808 31.3822C144.996 31.3822 146.201 32.0788 146.219 33.3087V33.4661C145.804 33.2324 144.918 32.8863 143.827 32.8863C141.639 32.8863 139.409 34.0623 139.409 36.2572C139.409 38.2647 141.202 39.5575 143.216 39.5575C144.757 39.5575 145.607 38.8789 146.141 38.0894H146.219V39.2475H148.431V33.5006C148.431 30.8444 146.398 29.3582 143.767 29.3582ZM143.49 37.568C142.742 37.568 141.699 37.2054 141.699 36.299C141.699 35.1395 143 34.6945 144.125 34.6945C145.134 34.6945 145.607 34.9118 146.219 35.1979C146.04 36.5852 144.817 37.568 143.49 37.568ZM156.486 29.6862L153.855 36.1807H153.776L151.056 29.6862H148.587L152.674 38.762L150.342 43.8123H152.734L159.033 29.6862H156.486ZM135.849 39.2714H138.145V24.2899H135.849V39.2714Z" fill="white"/>
<path d="M17.3935 12.3545C17.0329 12.723 16.8242 13.2968 16.8242 14.0399V40.5451C16.8242 41.2882 17.0329 41.8618 17.3935 42.2304L17.4825 42.3113L32.695 27.4648V27.1142L17.4825 12.2676L17.3935 12.3545Z" fill="url(#paint0_linear_486_12870)"/>
<path d="M37.7566 32.4135L32.6914 27.4621V27.1116L37.7627 22.1602L37.8763 22.2246L43.8821 25.561C45.5961 26.5078 45.5961 28.0659 43.8821 29.0187L37.8763 32.3491L37.7566 32.4135Z" fill="url(#paint1_linear_486_12870)"/>
<path d="M37.877 32.3493L32.6921 27.2871L17.3906 42.228C17.9598 42.8123 18.8882 42.8827 19.9439 42.2984L37.877 32.3493Z" fill="url(#paint2_linear_486_12870)"/>
<path d="M37.877 22.2256L19.9439 12.2764C18.8882 11.6982 17.9598 11.7686 17.3906 12.3529L32.6921 27.2878L37.877 22.2256Z" fill="url(#paint3_linear_486_12870)"/>
<path d="M61.2957 13.6279C61.1591 13.184 60.9238 12.8388 60.59 12.5921C60.256 12.3417 59.8426 12.2165 59.3493 12.2165C58.9053 12.2165 58.5089 12.3303 58.1598 12.558C57.8146 12.7818 57.5452 13.1119 57.3517 13.5482C57.1582 13.9846 57.0614 14.5044 57.0614 15.1077C57.0614 15.7185 57.1582 16.244 57.3517 16.6841C57.5452 17.1204 57.8164 17.4524 58.1654 17.6801C58.5145 17.9078 58.9206 18.0215 59.3834 18.0215C59.7931 18.0215 60.1517 17.9438 60.459 17.7882C60.7702 17.6289 61.0093 17.4051 61.1761 17.1167C61.3469 16.8245 61.4361 16.4849 61.4436 16.0979H59.5314V14.9256H62.8778V15.9158C62.8778 16.6101 62.728 17.2172 62.4282 17.737C62.1323 18.2567 61.7206 18.657 61.1933 18.9379C60.6658 19.2148 60.0626 19.3533 59.3834 19.3533C58.6284 19.3533 57.9625 19.1826 57.3859 18.8411C56.8091 18.4958 56.3614 18.0045 56.0427 17.367C55.7277 16.7259 55.5703 15.9765 55.5703 15.1191C55.5703 14.2578 55.7315 13.5084 56.0541 12.871C56.3804 12.2298 56.8281 11.7384 57.3971 11.397C57.97 11.0555 58.617 10.8848 59.3379 10.8848C59.9336 10.8848 60.4799 11.0005 60.977 11.2319C61.4778 11.4634 61.8876 11.7878 62.2063 12.2051C62.525 12.6187 62.7261 13.093 62.8096 13.6279H61.2957ZM64.3958 10.9986H69.757V12.2393H65.8755V14.493H69.4724V15.7337H65.8755V17.9875H69.7798V19.2394H64.3958V10.9986ZM70.9904 10.9986H77.558V12.2393H75.0197V19.2394H73.54V12.2393H70.9904V10.9986ZM83.3144 19.2394H81.8347V10.9986H83.3144V19.2394ZM84.6616 10.9986H91.2293V12.2393H88.6909V19.2394H87.2113V12.2393H84.6616V10.9986ZM102.859 15.1191C102.859 15.9879 102.696 16.741 102.369 17.3784C102.047 18.0159 101.597 18.5053 101.021 18.8468C100.448 19.1845 99.8008 19.3533 99.08 19.3533C98.3553 19.3533 97.7065 19.1845 97.1336 18.8468C96.5607 18.5053 96.1111 18.0159 95.7847 17.3784C95.4623 16.7373 95.3011 15.9841 95.3011 15.1191C95.3011 14.2502 95.4623 13.497 95.7847 12.8597C96.1111 12.2184 96.5607 11.729 97.1336 11.3913C97.7065 11.0536 98.3553 10.8848 99.08 10.8848C99.8008 10.8848 100.448 11.0555 101.021 11.397C101.597 11.7347 102.047 12.2222 102.369 12.8597C102.696 13.497 102.859 14.2502 102.859 15.1191ZM96.7921 15.1191C96.7921 15.7337 96.887 16.2592 97.0766 16.6955C97.2701 17.1318 97.5396 17.4619 97.8848 17.6858C98.2302 17.9096 98.6285 18.0215 99.08 18.0215C99.5353 18.0215 99.9336 17.9096 100.275 17.6858C100.62 17.4619 100.888 17.1318 101.078 16.6955C101.271 16.2592 101.368 15.7337 101.368 15.1191C101.368 14.5044 101.271 13.9789 101.078 13.5426C100.888 13.1062 100.62 12.7762 100.275 12.5523C99.9336 12.3284 99.5353 12.2165 99.08 12.2165C98.6285 12.2165 98.2302 12.3284 97.8848 12.5523C97.5396 12.7762 97.2701 13.1062 97.0766 13.5426C96.887 13.9789 96.7921 14.5044 96.7921 15.1191ZM111.127 19.2394H109.806L105.902 13.6052H105.834V19.2394H104.354V10.9986H105.697L109.579 16.6329H109.658V10.9986H111.127V19.2394Z" fill="white"/>
</g>
<defs>
<linearGradient id="paint0_linear_486_12870" x1="31.3443" y1="40.821" x2="11.2361" y2="20.2257" gradientUnits="userSpaceOnUse">
<stop stop-color="#00A0FF"/>
<stop offset="0.0066" stop-color="#00A1FF"/>
<stop offset="0.2601" stop-color="#00BEFF"/>
<stop offset="0.5122" stop-color="#00D2FF"/>
<stop offset="0.7604" stop-color="#00DFFF"/>
<stop offset="1" stop-color="#00E3FF"/>
</linearGradient>
<linearGradient id="paint1_linear_486_12870" x1="46.114" y1="27.2852" x2="16.411" y2="27.2852" gradientUnits="userSpaceOnUse">
<stop stop-color="#FFE000"/>
<stop offset="0.4087" stop-color="#FFBD00"/>
<stop offset="0.7754" stop-color="#FFA500"/>
<stop offset="1" stop-color="#FF9C00"/>
</linearGradient>
<linearGradient id="paint2_linear_486_12870" x1="35.0575" y1="24.5351" x2="7.78922" y2="-3.39392" gradientUnits="userSpaceOnUse">
<stop stop-color="#FF3A44"/>
<stop offset="1" stop-color="#C31162"/>
</linearGradient>
<linearGradient id="paint3_linear_486_12870" x1="13.5389" y1="51.047" x2="25.7154" y2="38.5755" gradientUnits="userSpaceOnUse">
<stop stop-color="#32A071"/>
<stop offset="0.0685" stop-color="#2DA771"/>
<stop offset="0.4762" stop-color="#15CF74"/>
<stop offset="0.8009" stop-color="#06E775"/>
<stop offset="1" stop-color="#00F076"/>
</linearGradient>
<clipPath id="clip0_486_12870">
<rect width="176.714" height="53.7824" fill="white" transform="translate(0.0234375)"/>
</clipPath>
</defs>
</svg>
