<svg width="306" height="162" viewBox="0 0 306 162" fill="none" xmlns="http://www.w3.org/2000/svg">
<g filter="url(#filter0_i_765_9764)">
<path fill-rule="evenodd" clip-rule="evenodd" d="M6.07178 0C2.75807 0 0.0938129 2.6862 0.120995 5.9998L0.616804 66.4406C0.616966 66.4406 0.617127 66.4406 0.617288 66.4406C7.47013 66.4406 13.0789 72.9577 13.1449 80.9969C13.2108 89.0362 7.70895 95.5533 0.856107 95.5533C0.855946 95.5533 0.855784 95.5533 0.855623 95.5533L1.35145 155.996C1.37863 159.31 4.08695 161.996 7.40066 161.996H299.401C302.714 161.996 305.379 159.31 305.351 155.996L304.121 5.9998C304.094 2.6862 301.385 0 298.072 0H6.07178Z" fill="#FAFAFA"/>
</g>
<defs>
<filter id="filter0_i_765_9764" x="0.120789" y="0" width="305.231" height="163.996" filterUnits="userSpaceOnUse" color-interpolation-filters="sRGB">
<feFlood flood-opacity="0" result="BackgroundImageFix"/>
<feBlend mode="normal" in="SourceGraphic" in2="BackgroundImageFix" result="shape"/>
<feColorMatrix in="SourceAlpha" type="matrix" values="0 0 0 0 0 0 0 0 0 0 0 0 0 0 0 0 0 0 127 0" result="hardAlpha"/>
<feOffset dy="2"/>
<feGaussianBlur stdDeviation="6"/>
<feComposite in2="hardAlpha" operator="arithmetic" k2="-1" k3="1"/>
<feColorMatrix type="matrix" values="0 0 0 0 0 0 0 0 0 0 0 0 0 0 0 0 0 0 0.1 0"/>
<feBlend mode="normal" in2="shape" result="effect1_innerShadow_765_9764"/>
</filter>
</defs>
</svg>
