<svg width="334" height="190" viewBox="0 0 334 190" fill="none" xmlns="http://www.w3.org/2000/svg">
<g filter="url(#filter0_d_765_9619)">
<path fill-rule="evenodd" clip-rule="evenodd" d="M18.0718 10C14.7581 10 12.0938 12.6862 12.121 15.9998L12.6168 76.4406C12.617 76.4406 12.6171 76.4406 12.6173 76.4406C19.4701 76.4406 25.0789 82.9577 25.1449 90.9969C25.2108 99.0362 19.7089 105.553 12.8561 105.553C12.8559 105.553 12.8558 105.553 12.8556 105.553L13.3514 165.996C13.3786 169.31 16.087 171.996 19.4007 171.996H311.401C314.714 171.996 317.379 169.31 317.351 165.996L316.121 15.9998C316.094 12.6862 313.385 10 310.072 10H18.0718Z" fill="#FFF059"/>
</g>
<defs>
<filter id="filter0_d_765_9619" x="0.12085" y="0" width="333.231" height="189.996" filterUnits="userSpaceOnUse" color-interpolation-filters="sRGB">
<feFlood flood-opacity="0" result="BackgroundImageFix"/>
<feColorMatrix in="SourceAlpha" type="matrix" values="0 0 0 0 0 0 0 0 0 0 0 0 0 0 0 0 0 0 127 0" result="hardAlpha"/>
<feOffset dx="2" dy="4"/>
<feGaussianBlur stdDeviation="7"/>
<feComposite in2="hardAlpha" operator="out"/>
<feColorMatrix type="matrix" values="0 0 0 0 0 0 0 0 0 0 0 0 0 0 0 0 0 0 0.06 0"/>
<feBlend mode="normal" in2="BackgroundImageFix" result="effect1_dropShadow_765_9619"/>
<feBlend mode="normal" in="SourceGraphic" in2="effect1_dropShadow_765_9619" result="shape"/>
</filter>
</defs>
</svg>
