<svg width="36" height="35" viewBox="0 0 36 35" fill="none" xmlns="http://www.w3.org/2000/svg">
<path d="M18 34.5C15.8125 34.5 13.7638 34.0847 11.854 33.254C9.94295 32.4222 8.28045 31.2987 6.86645 29.8835C5.45128 28.4695 4.32778 26.807 3.49595 24.896C2.66528 22.9862 2.24995 20.9375 2.24995 18.75C2.24995 16.5625 2.66528 14.5133 3.49595 12.6023C4.32778 10.6924 5.45128 9.02992 6.86645 7.61475C8.28045 6.20075 9.94295 5.07842 11.854 4.24775C13.7638 3.41592 15.8125 3 18 3C20.1875 3 22.2367 3.41592 24.1477 4.24775C26.0575 5.07842 27.72 6.20075 29.1352 7.61475C30.5492 9.02992 31.6721 10.6924 32.504 12.6023C33.3346 14.5133 33.75 16.5625 33.75 18.75C33.75 20.9375 33.3346 22.9862 32.504 24.896C31.6721 26.807 30.5492 28.4695 29.1352 29.8835C27.72 31.2987 26.0575 32.4222 24.1477 33.254C22.2367 34.0847 20.1875 34.5 18 34.5ZM16.25 11.75V18.7063C16.25 18.9396 16.2937 19.1653 16.3812 19.3835C16.4687 19.6028 16.6 19.8 16.775 19.975L21.7187 24.9187C22.0395 25.2396 22.4333 25.4 22.9 25.4C23.3666 25.4 23.775 25.225 24.125 24.875C24.4458 24.5542 24.6062 24.1458 24.6062 23.65C24.6062 23.1542 24.4458 22.7458 24.125 22.425L19.75 18.05V11.7063C19.75 11.2104 19.5825 10.8021 19.2477 10.4812C18.9117 10.1604 18.4958 10 18 10C17.5041 10 17.0888 10.1674 16.754 10.5022C16.418 10.8382 16.25 11.2542 16.25 11.75ZM2.9937 8.81875C2.67287 9.13958 2.27912 9.3 1.81245 9.3C1.34578 9.3 0.937451 9.125 0.587451 8.775C0.266618 8.45417 0.106201 8.04583 0.106201 7.55C0.106201 7.05417 0.266618 6.64583 0.587451 6.325L5.6187 1.29375C5.93954 0.972917 6.33328 0.8125 6.79995 0.8125C7.26662 0.8125 7.67495 0.9875 8.02495 1.3375C8.34579 1.65833 8.5062 2.06667 8.5062 2.5625C8.5062 3.05833 8.34579 3.46667 8.02495 3.7875L2.9937 8.81875ZM32.9625 8.775L27.9312 3.74375C27.6104 3.42292 27.45 3.02917 27.45 2.5625C27.45 2.09583 27.625 1.6875 27.975 1.3375C28.2958 1.01667 28.7041 0.85625 29.2 0.85625C29.6958 0.85625 30.1041 1.01667 30.425 1.3375L35.4562 6.36875C35.777 6.68958 35.9375 7.08333 35.9375 7.55C35.9375 8.01667 35.7625 8.425 35.4125 8.775C35.0916 9.09583 34.6833 9.25625 34.1875 9.25625C33.6916 9.25625 33.2833 9.09583 32.9625 8.775Z" fill="#090A0A"/>
</svg>
