<svg width="98" height="16" viewBox="0 0 98 16" fill="none" xmlns="http://www.w3.org/2000/svg">
<g clip-path="url(#clip0_765_9625)">
<path d="M5.30989 13.8594C4.30439 13.8594 3.40907 13.6873 2.62395 13.3429C1.83883 12.9986 1.219 12.5303 0.764459 11.938C0.309916 11.3319 0.0550962 10.657 0 9.91318H3.49172C3.53304 10.3126 3.71899 10.6363 4.04957 10.8843C4.38014 11.1322 4.78648 11.2562 5.26857 11.2562C5.70934 11.2562 6.0468 11.1735 6.28096 11.0082C6.52889 10.8292 6.65286 10.6019 6.65286 10.3264C6.65286 9.99583 6.48068 9.75478 6.13633 9.60327C5.79198 9.43798 5.23413 9.25892 4.46279 9.06608C3.63635 8.87324 2.94764 8.67352 2.39668 8.46691C1.84572 8.24653 1.37052 7.90906 0.97107 7.45452C0.571622 6.9862 0.371899 6.35948 0.371899 5.57436C0.371899 4.91321 0.550961 4.31404 0.909086 3.77685C1.28099 3.22589 1.81817 2.79201 2.52065 2.4752C3.2369 2.1584 4.084 2 5.06196 2C6.50823 2 7.64459 2.35813 8.47103 3.07438C9.31125 3.79063 9.79334 4.74103 9.91731 5.9256H6.65286C6.59776 5.52615 6.4187 5.20935 6.11567 4.97519C5.82642 4.74103 5.44074 4.62395 4.95865 4.62395C4.54543 4.62395 4.22863 4.7066 4.00824 4.87189C3.78786 5.0234 3.67767 5.2369 3.67767 5.51238C3.67767 5.84296 3.84984 6.09089 4.19419 6.25618C4.55232 6.42147 5.10328 6.58675 5.84708 6.75204C6.70107 6.97243 7.39666 7.19281 7.93384 7.4132C8.47103 7.61981 8.93935 7.96416 9.3388 8.44625C9.75202 8.91457 9.96551 9.54817 9.97929 10.3471C9.97929 11.022 9.78645 11.6281 9.40078 12.1652C9.02888 12.6887 8.48481 13.1019 7.76856 13.4049C7.06608 13.7079 6.24653 13.8594 5.30989 13.8594Z" fill="#090A0A"/>
<path d="M19.1655 2.04132C20.5154 2.04132 21.5898 2.48209 22.3887 3.36363C23.2013 4.23139 23.6077 5.42974 23.6077 6.95865V13.6942H20.0953V7.43386C20.0953 6.66251 19.8956 6.06334 19.4961 5.63635C19.0967 5.20935 18.5595 4.99585 17.8846 4.99585C17.2096 4.99585 16.6724 5.20935 16.273 5.63635C15.8736 6.06334 15.6738 6.66251 15.6738 7.43386V13.6942H12.1408V2.16529H15.6738V3.69421C16.032 3.18457 16.514 2.78512 17.1201 2.49587C17.7262 2.19284 18.408 2.04132 19.1655 2.04132Z" fill="#090A0A"/>
<path d="M25.3603 7.90906C25.3603 6.72449 25.5807 5.68455 26.0215 4.78924C26.476 3.89393 27.089 3.20523 27.8603 2.72314C28.6316 2.24105 29.4925 2 30.4429 2C31.2556 2 31.965 2.16529 32.571 2.49587C33.1909 2.82644 33.6661 3.26032 33.9966 3.79751V2.16529H37.5297V13.6942H33.9966V12.0619C33.6523 12.5991 33.1702 13.033 32.5504 13.3636C31.9443 13.6942 31.2349 13.8594 30.4223 13.8594C29.4856 13.8594 28.6316 13.6184 27.8603 13.1363C27.089 12.6404 26.476 11.9449 26.0215 11.0495C25.5807 10.1405 25.3603 9.09363 25.3603 7.90906ZM33.9966 7.92972C33.9966 7.04818 33.7487 6.3526 33.2528 5.84296C32.7707 5.33332 32.1785 5.0785 31.476 5.0785C30.7735 5.0785 30.1743 5.33332 29.6785 5.84296C29.1964 6.33882 28.9553 7.02752 28.9553 7.90906C28.9553 8.7906 29.1964 9.49308 29.6785 10.0165C30.1743 10.5261 30.7735 10.7809 31.476 10.7809C32.1785 10.7809 32.7707 10.5261 33.2528 10.0165C33.7487 9.50685 33.9966 8.81126 33.9966 7.92972Z" fill="#090A0A"/>
<path d="M39.3832 7.92972C39.3832 6.73138 39.6242 5.68455 40.1063 4.78924C40.6022 3.89393 41.284 3.20523 42.1518 2.72314C43.0333 2.24105 44.0388 2 45.1683 2C46.6146 2 47.8198 2.37879 48.784 3.13636C49.7619 3.89393 50.4024 4.96142 50.7055 6.33882H46.9451C46.6283 5.45728 46.0154 5.01651 45.1063 5.01651C44.4589 5.01651 43.9424 5.27133 43.5567 5.78097C43.1711 6.27684 42.9782 6.99309 42.9782 7.92972C42.9782 8.86636 43.1711 9.58949 43.5567 10.0991C43.9424 10.595 44.4589 10.8429 45.1063 10.8429C46.0154 10.8429 46.6283 10.4022 46.9451 9.52062H50.7055C50.4024 10.8705 49.7619 11.9311 48.784 12.7024C47.806 13.4738 46.6008 13.8594 45.1683 13.8594C44.0388 13.8594 43.0333 13.6184 42.1518 13.1363C41.284 12.6542 40.6022 11.9655 40.1063 11.0702C39.6242 10.1749 39.3832 9.12806 39.3832 7.92972Z" fill="#090A0A"/>
<path d="M54.2482 13.8594C53.6283 13.8594 53.1187 13.6804 52.7193 13.3223C52.3336 12.9504 52.1408 12.4958 52.1408 11.9586C52.1408 11.4077 52.3336 10.9462 52.7193 10.5743C53.1187 10.2024 53.6283 10.0165 54.2482 10.0165C54.8542 10.0165 55.3501 10.2024 55.7358 10.5743C56.1352 10.9462 56.3349 11.4077 56.3349 11.9586C56.3349 12.4958 56.1352 12.9504 55.7358 13.3223C55.3501 13.6804 54.8542 13.8594 54.2482 13.8594Z" fill="#090A0A"/>
</g>
<rect x="62" width="36" height="16" rx="8" fill="#090A0A"/>
<path d="M72.0609 4.574C72.8889 4.574 73.4919 4.754 73.8699 5.114C74.2539 5.468 74.4459 5.957 74.4459 6.581C74.4459 6.959 74.3679 7.31 74.2119 7.634C74.0559 7.958 73.7949 8.219 73.4289 8.417C73.0689 8.615 72.5769 8.714 71.9529 8.714H71.3679V11H70.0089V4.574H72.0609ZM71.9889 5.69H71.3679V7.598H71.8179C72.2019 7.598 72.5049 7.523 72.7269 7.373C72.9549 7.217 73.0689 6.968 73.0689 6.626C73.0689 6.002 72.7089 5.69 71.9889 5.69ZM75.3903 11V4.574H76.7493V9.875H79.3593V11H75.3903ZM85.3503 4.574V8.732C85.3503 9.176 85.2513 9.578 85.0533 9.938C84.8613 10.292 84.5673 10.574 84.1713 10.784C83.7753 10.988 83.2803 11.09 82.6863 11.09C81.8343 11.09 81.1863 10.874 80.7423 10.442C80.2983 10.004 80.0763 9.428 80.0763 8.714V4.574H81.4353V8.507C81.4353 9.041 81.5433 9.416 81.7593 9.632C81.9753 9.842 82.2963 9.947 82.7223 9.947C83.1663 9.947 83.4873 9.83 83.6853 9.596C83.8893 9.362 83.9913 8.996 83.9913 8.498V4.574H85.3503ZM90.443 9.218C90.443 9.788 90.236 10.244 89.822 10.586C89.414 10.922 88.832 11.09 88.076 11.09C87.398 11.09 86.792 10.961 86.258 10.703V9.434C86.564 9.566 86.879 9.689 87.203 9.803C87.533 9.911 87.86 9.965 88.184 9.965C88.52 9.965 88.757 9.902 88.895 9.776C89.039 9.644 89.111 9.479 89.111 9.281C89.111 9.119 89.054 8.981 88.94 8.867C88.832 8.753 88.685 8.648 88.499 8.552C88.313 8.45 88.1 8.342 87.86 8.228C87.71 8.156 87.548 8.072 87.374 7.976C87.2 7.874 87.032 7.751 86.87 7.607C86.714 7.457 86.585 7.277 86.483 7.067C86.381 6.857 86.33 6.605 86.33 6.311C86.33 5.735 86.525 5.288 86.915 4.97C87.305 4.646 87.836 4.484 88.508 4.484C88.844 4.484 89.162 4.523 89.462 4.601C89.762 4.679 90.08 4.79 90.416 4.934L89.975 5.996C89.681 5.876 89.417 5.783 89.183 5.717C88.949 5.651 88.709 5.618 88.463 5.618C88.205 5.618 88.007 5.678 87.869 5.798C87.731 5.918 87.662 6.074 87.662 6.266C87.662 6.494 87.764 6.674 87.968 6.806C88.172 6.938 88.475 7.1 88.877 7.292C89.207 7.448 89.486 7.61 89.714 7.778C89.948 7.946 90.128 8.144 90.254 8.372C90.38 8.6 90.443 8.882 90.443 9.218Z" fill="white"/>
<defs>
<clipPath id="clip0_765_9625">
<rect width="57" height="12" fill="white" transform="translate(0 2)"/>
</clipPath>
</defs>
</svg>
