<svg width="26" height="26" viewBox="0 0 26 26" fill="none" xmlns="http://www.w3.org/2000/svg">
<circle cx="13" cy="13" r="13" fill="white"/>
<mask id="mask0_716_9297" style="mask-type:alpha" maskUnits="userSpaceOnUse" x="3" y="3" width="20" height="20">
<rect x="3" y="3" width="20" height="20" fill="#D9D9D9"/>
</mask>
<g mask="url(#mask0_716_9297)">
<path d="M14.2788 20.9166H11.7132C11.5123 20.9166 11.34 20.8504 11.1963 20.7179C11.0526 20.5854 10.9669 20.4188 10.9391 20.2179L10.718 18.4198C10.5364 18.3312 10.3248 18.2195 10.0834 18.0849C9.84189 17.9503 9.63569 17.8199 9.46475 17.6939L7.80771 18.407C7.6154 18.4903 7.42443 18.4973 7.23479 18.4278C7.04515 18.3584 6.90012 18.2345 6.79969 18.0561L5.52569 15.8317C5.42526 15.6533 5.39801 15.4706 5.44396 15.2837C5.48989 15.0967 5.58817 14.9391 5.73881 14.8109L7.14106 13.734C7.13571 13.6239 7.12903 13.5029 7.12102 13.371C7.11301 13.239 7.109 13.1181 7.109 13.008C7.109 12.9033 7.11301 12.7863 7.12102 12.657C7.12903 12.5278 7.13571 12.3974 7.14106 12.266L5.73881 11.1891C5.58817 11.0609 5.48989 10.9033 5.44396 10.7163C5.39801 10.5294 5.42526 10.3467 5.52569 10.1683L6.79969 7.95997C6.90546 7.78689 7.0505 7.66429 7.23479 7.59218C7.41908 7.52007 7.60738 7.52568 7.79969 7.60901L9.45673 8.31414C9.6437 8.18272 9.85123 8.05104 10.0793 7.91909C10.3074 7.78714 10.5177 7.67415 10.71 7.58013L10.9391 5.78207C10.9669 5.58121 11.0526 5.41454 11.1963 5.28207C11.34 5.14959 11.5123 5.08334 11.7132 5.08334H14.2788C14.4797 5.08334 14.6533 5.14959 14.7996 5.28207C14.946 5.41454 15.0331 5.58121 15.0609 5.78207L15.282 7.58816C15.4904 7.69285 15.6992 7.80583 15.9086 7.92709C16.118 8.04836 16.3189 8.17737 16.5112 8.31414L18.2003 7.60901C18.3926 7.52568 18.5822 7.51739 18.7692 7.58416C18.9562 7.65093 19.0999 7.77353 19.2003 7.95195L20.4951 10.1683C20.5956 10.3467 20.6263 10.5294 20.5873 10.7163C20.5483 10.9033 20.4465 11.0609 20.282 11.1891L18.8477 12.29C18.8638 12.4108 18.8731 12.5331 18.8758 12.657C18.8784 12.781 18.8798 12.8953 18.8798 13C18.8798 13.0994 18.8771 13.211 18.8718 13.3349C18.8664 13.4589 18.8611 13.5892 18.8557 13.726L20.274 14.8109C20.4439 14.9338 20.547 15.09 20.5833 15.2796C20.6196 15.4693 20.5876 15.6533 20.4871 15.8317L19.1923 18.0641C19.0919 18.2425 18.9482 18.3637 18.7612 18.4278C18.5742 18.4919 18.3846 18.4823 18.1923 18.399L16.5112 17.6858C16.3189 17.8226 16.1154 17.9543 15.9006 18.0809C15.6859 18.2075 15.4797 18.3178 15.282 18.4118L15.0609 20.2179C15.0331 20.4188 14.946 20.5854 14.7996 20.7179C14.6533 20.8504 14.4797 20.9166 14.2788 20.9166ZM12.9679 15.5625C13.6752 15.5625 14.2791 15.3122 14.7796 14.8117C15.2802 14.3111 15.5304 13.7072 15.5304 13C15.5304 12.2927 15.2802 11.6888 14.7796 11.1883C14.2791 10.6878 13.6752 10.4375 12.9679 10.4375C12.266 10.4375 11.6635 10.6878 11.1603 11.1883C10.6571 11.6888 10.4055 12.2927 10.4055 13C10.4055 13.7072 10.6571 14.3111 11.1603 14.8117C11.6635 15.3122 12.266 15.5625 12.9679 15.5625Z" fill="#888888"/>
</g>
</svg>
