<svg width="18" height="35" viewBox="0 0 18 35" fill="none" xmlns="http://www.w3.org/2000/svg">
<path d="M5.7625 33.8373C5.44167 34.0998 5.09867 34.1068 4.7335 33.8583C4.3695 33.611 4.26042 33.2832 4.40625 32.8749L5.675 28.8499L2.48125 26.5748C2.13125 26.3415 2.02917 26.0207 2.175 25.6124C2.32083 25.204 2.59792 24.9998 3.00625 24.9998H6.9L8.125 20.9748L1.9125 17.2998C1.3875 16.979 0.979167 16.5561 0.6875 16.0311C0.395833 15.5061 0.25 14.9082 0.25 14.2373V3.99985C0.25 3.03735 0.593 2.2131 1.279 1.5271C1.96383 0.842264 2.7875 0.499847 3.75 0.499847H14.25C15.2125 0.499847 16.0368 0.842264 16.7228 1.5271C17.4076 2.2131 17.75 3.03735 17.75 3.99985V14.2373C17.75 14.9082 17.6042 15.5061 17.3125 16.0311C17.0208 16.5561 16.6125 16.979 16.0875 17.2998L9.875 20.9748L11.1 24.9998H14.9938C15.4021 24.9998 15.6792 25.204 15.825 25.6124C15.9708 26.0207 15.8688 26.3415 15.5188 26.5748L12.325 28.8499L13.5938 32.8749C13.7396 33.2832 13.6305 33.611 13.2665 33.8583C12.9013 34.1068 12.5583 34.0998 12.2375 33.8373L9 31.3873L5.7625 33.8373ZM9 17.3873L10.75 16.3373V5.74985C10.75 5.25401 10.5826 4.8381 10.2478 4.5021C9.91175 4.16726 9.49583 3.99985 9 3.99985C8.50417 3.99985 8.08883 4.16726 7.754 4.5021C7.418 4.8381 7.25 5.25401 7.25 5.74985V16.3373L9 17.3873Z" fill="#4FF788"/>
</svg>
