<svg width="36" height="28" viewBox="0 0 36 28" fill="none" xmlns="http://www.w3.org/2000/svg">
<path d="M4 0L7.5 7H12.75L9.25 0H12.75L16.25 7H21.5L18 0H21.5L25 7H30.25L26.75 0H32C32.9625 0 33.7868 0.343 34.4728 1.029C35.1576 1.71383 35.5 2.5375 35.5 3.5V24.5C35.5 25.4625 35.1576 26.2868 34.4728 26.9727C33.7868 27.6576 32.9625 28 32 28H4C3.0375 28 2.21383 27.6576 1.529 26.9727C0.843 26.2868 0.5 25.4625 0.5 24.5V3.5C0.5 2.5375 0.843 1.71383 1.529 1.029C2.21383 0.343 3.0375 0 4 0Z" fill="#DE006B"/>
</svg>
