<svg width="36" height="30" viewBox="0 0 36 30" fill="none" xmlns="http://www.w3.org/2000/svg">
<path d="M29.6591 20.4472C29.3591 20.149 29.202 19.7696 29.1878 19.3089C29.1747 18.8482 29.3182 18.4282 29.6182 18.0488C30.4636 17.019 31.1247 15.8602 31.6015 14.5724C32.0793 13.2856 32.3182 11.9241 32.3182 10.4878C32.3182 9.07859 32.0793 7.73713 31.6015 6.46341C31.1247 5.1897 30.4636 4.03794 29.6182 3.00813C29.3182 2.62873 29.1682 2.20867 29.1682 1.74797C29.1682 1.28726 29.3318 0.894309 29.6591 0.569106C30.0409 0.189702 30.498 0 31.0304 0C31.5616 0 31.9909 0.189702 32.3182 0.569106C33.4636 1.95122 34.3636 3.48238 35.0182 5.1626C35.6727 6.84282 36 8.61789 36 10.4878C36 12.3577 35.6727 14.1328 35.0182 15.813C34.3636 17.4932 33.4636 19.0244 32.3182 20.4065C31.9909 20.7859 31.5616 20.9821 31.0304 20.9951C30.498 21.0092 30.0409 20.8266 29.6591 20.4472ZM24.3818 15.2032C24.0818 14.9051 23.9116 14.5192 23.8713 14.0455C23.8298 13.5707 23.9455 13.103 24.2182 12.6423C24.4091 12.3171 24.552 11.9718 24.6469 11.6065C24.7429 11.2401 24.7909 10.8672 24.7909 10.4878C24.7909 10.1084 24.7429 9.7355 24.6469 9.36911C24.552 9.00379 24.4091 8.65854 24.2182 8.33333C23.9455 7.87263 23.8298 7.40488 23.8713 6.93008C23.9116 6.45637 24.0818 6.07046 24.3818 5.77236C24.7636 5.39295 25.2273 5.20976 25.7727 5.22276C26.3182 5.23686 26.7409 5.44715 27.0409 5.85366C27.5045 6.53117 27.8727 7.25583 28.1455 8.02764C28.4182 8.80054 28.5545 9.62059 28.5545 10.4878C28.5545 11.355 28.4182 12.1745 28.1455 12.9463C27.8727 13.7192 27.5045 14.4444 27.0409 15.122C26.7409 15.5285 26.3182 15.7388 25.7727 15.7528C25.2273 15.7659 24.7636 15.5827 24.3818 15.2032ZM13.0909 16.9919C11.2909 16.9919 9.75 16.355 8.46818 15.0813C7.18636 13.8076 6.54545 12.2764 6.54545 10.4878C6.54545 8.69919 7.18636 7.16802 8.46818 5.89431C9.75 4.6206 11.2909 3.98374 13.0909 3.98374C14.8909 3.98374 16.4318 4.6206 17.7136 5.89431C18.9955 7.16802 19.6364 8.69919 19.6364 10.4878C19.6364 12.2764 18.9955 13.8076 17.7136 15.0813C16.4318 16.355 14.8909 16.9919 13.0909 16.9919ZM1.63636 30C1.17273 30 0.784364 29.8439 0.471273 29.5317C0.157091 29.2206 0 28.8347 0 28.374V25.4472C0 24.5528 0.231818 23.7127 0.695454 22.9268C1.15909 22.1409 1.8 21.5447 2.61818 21.1382C4.00909 20.4336 5.57727 19.8374 7.32273 19.3496C9.06818 18.8618 10.9909 18.6179 13.0909 18.6179C15.1909 18.6179 17.1136 18.8618 18.8591 19.3496C20.6045 19.8374 22.1727 20.4336 23.5636 21.1382C24.3818 21.5447 25.0227 22.1409 25.4864 22.9268C25.95 23.7127 26.1818 24.5528 26.1818 25.4472V28.374C26.1818 28.8347 26.0247 29.2206 25.7105 29.5317C25.3975 29.8439 25.0091 30 24.5455 30H1.63636Z" fill="#FFF059"/>
</svg>
