<svg width="12" height="7" viewBox="0 0 12 7" fill="none" xmlns="http://www.w3.org/2000/svg">
<path d="M0.700012 0.700003C0.883346 0.516669 1.11668 0.425003 1.40001 0.425003C1.68335 0.425003 1.91668 0.516669 2.10001 0.700003L6.00001 4.6L9.90001 0.700003C10.0833 0.51667 10.3167 0.425003 10.6 0.425003C10.8833 0.425003 11.1167 0.51667 11.3 0.700003C11.4833 0.883336 11.575 1.11667 11.575 1.4C11.575 1.68334 11.4833 1.91667 11.3 2.1L6.70001 6.7C6.60001 6.8 6.49168 6.87084 6.37501 6.9125C6.25834 6.95417 6.13334 6.975 6.00001 6.975C5.86668 6.975 5.74168 6.95417 5.62501 6.9125C5.50834 6.87084 5.40001 6.8 5.30001 6.7L0.700012 2.1C0.516679 1.91667 0.425012 1.68334 0.425012 1.4C0.425012 1.11667 0.516679 0.883336 0.700012 0.700003Z" fill="#1C1B1F"/>
</svg>
