<svg width="32" height="32" viewBox="0 0 32 32" fill="none" xmlns="http://www.w3.org/2000/svg">
<path d="M2.64567 8.33684L0.335958 7.28421C0.111986 7.17193 0 6.98947 0 6.73684C0 6.48421 0.111986 6.30175 0.335958 6.18947L2.64567 5.13684L3.69554 2.82105C3.80752 2.59649 3.9895 2.48421 4.24147 2.48421C4.49344 2.48421 4.67542 2.59649 4.7874 2.82105L5.83727 5.13684L8.14698 6.18947C8.37095 6.30175 8.48294 6.48421 8.48294 6.73684C8.48294 6.98947 8.37095 7.17193 8.14698 7.28421L5.83727 8.33684L4.7874 10.6526C4.67542 10.8772 4.49344 10.9895 4.24147 10.9895C3.9895 10.9895 3.80752 10.8772 3.69554 10.6526L2.64567 8.33684ZM25.0289 4.42105L23.853 3.87368C23.629 3.7614 23.5171 3.59298 23.5171 3.36842C23.5171 3.14386 23.629 2.97544 23.853 2.86316L25.0289 2.31579L25.5748 1.13684C25.6868 0.912281 25.8548 0.8 26.0787 0.8C26.3027 0.8 26.4707 0.912281 26.5827 1.13684L27.1286 2.31579L28.3045 2.86316C28.5284 2.97544 28.6404 3.14386 28.6404 3.36842C28.6404 3.59298 28.5284 3.7614 28.3045 3.87368L27.1286 4.42105L26.5827 5.6C26.4707 5.82456 26.3027 5.93684 26.0787 5.93684C25.8548 5.93684 25.6868 5.82456 25.5748 5.6L25.0289 4.42105ZM28.3885 11.1579L27.2126 10.6105C26.9886 10.4982 26.8766 10.3298 26.8766 10.1053C26.8766 9.8807 26.9886 9.71228 27.2126 9.6L28.3885 9.05263L28.9344 7.87368C29.0464 7.64912 29.2143 7.53684 29.4383 7.53684C29.6623 7.53684 29.8303 7.64912 29.9423 7.87368L30.4882 9.05263L31.664 9.6C31.888 9.71228 32 9.8807 32 10.1053C32 10.3298 31.888 10.4982 31.664 10.6105L30.4882 11.1579L29.9423 12.3368C29.8303 12.5614 29.6623 12.6737 29.4383 12.6737C29.2143 12.6737 29.0464 12.5614 28.9344 12.3368L28.3885 11.1579ZM16 20.2105C14.6002 20.2105 13.4103 19.7193 12.4304 18.7368C11.4506 17.7544 10.9606 16.5614 10.9606 15.1579V5.05263C10.9606 3.64912 11.4506 2.45614 12.4304 1.47368C13.4103 0.491228 14.6002 0 16 0C17.3998 0 18.5897 0.491228 19.5696 1.47368C20.5494 2.45614 21.0394 3.64912 21.0394 5.05263V15.1579C21.0394 16.5614 20.5494 17.7544 19.5696 18.7368C18.5897 19.7193 17.3998 20.2105 16 20.2105ZM16 32C15.5241 32 15.1254 31.8383 14.804 31.5149C14.4815 31.1927 14.3202 30.793 14.3202 30.3158V26.7789C11.7165 26.4421 9.50481 25.3614 7.68504 23.5368C5.86527 21.7123 4.75941 19.5228 4.36745 16.9684C4.28346 16.4912 4.40945 16.0702 4.74541 15.7053C5.08137 15.3404 5.52931 15.1579 6.08924 15.1579C6.48119 15.1579 6.83115 15.305 7.13911 15.5992C7.44707 15.8945 7.64304 16.2526 7.72703 16.6737C8.09099 18.6386 9.04287 20.2807 10.5827 21.6C12.1225 22.9193 13.9283 23.5789 16 23.5789C18.0717 23.5789 19.8775 22.9193 21.4173 21.6C22.9571 20.2807 23.909 18.6386 24.273 16.6737C24.357 16.2526 24.5602 15.8945 24.8827 15.5992C25.2041 15.305 25.5608 15.1579 25.9528 15.1579C26.4847 15.1579 26.9186 15.3404 27.2546 15.7053C27.5906 16.0702 27.7165 16.4912 27.6325 16.9684C27.2406 19.5228 26.1347 21.7123 24.315 23.5368C22.4952 25.3614 20.2835 26.4421 17.6798 26.7789V30.3158C17.6798 30.793 17.5191 31.1927 17.1977 31.5149C16.8752 31.8383 16.4759 32 16 32Z" fill="#75C8FF"/>
</svg>
